<?xml version="1.0" encoding="UTF-8" standalone="no"?>
<!-- Generator: Adobe Illustrator 16.0.0, SVG Export Plug-In . SVG Version: 6.00 Build 0)  -->

<svg
   xmlns:dc="http://purl.org/dc/elements/1.1/"
   xmlns:cc="http://creativecommons.org/ns#"
   xmlns:rdf="http://www.w3.org/1999/02/22-rdf-syntax-ns#"
   xmlns:svg="http://www.w3.org/2000/svg"
   xmlns="http://www.w3.org/2000/svg"
   xmlns:sodipodi="http://sodipodi.sourceforge.net/DTD/sodipodi-0.dtd"
   xmlns:inkscape="http://www.inkscape.org/namespaces/inkscape"
   version="1.1"
   id="圖層_1"
   x="0px"
   y="0px"
   width="200"
   height="210.50333"
   viewBox="0 0 200.00001 210.50333"
   enable-background="new 0 0 538.582 737.008"
   xml:space="preserve"
   inkscape:version="0.48.4 r9939"
   sodipodi:docname="中選會.svg"><metadata
   id="metadata17"><rdf:RDF><cc:Work
       rdf:about=""><dc:format>image/svg+xml</dc:format><dc:type
         rdf:resource="http://purl.org/dc/dcmitype/StillImage" /></cc:Work></rdf:RDF></metadata><defs
   id="defs15" /><sodipodi:namedview
   pagecolor="#ffffff"
   bordercolor="#666666"
   borderopacity="1"
   objecttolerance="10"
   gridtolerance="10"
   guidetolerance="10"
   inkscape:pageopacity="0"
   inkscape:pageshadow="2"
   inkscape:window-width="1440"
   inkscape:window-height="747"
   id="namedview13"
   showgrid="false"
   fit-margin-top="0"
   fit-margin-left="0"
   fit-margin-right="0"
   fit-margin-bottom="0"
   inkscape:zoom="1.8114018"
   inkscape:cx="50.060999"
   inkscape:cy="135.57931"
   inkscape:window-x="-8"
   inkscape:window-y="-8"
   inkscape:window-maximized="1"
   inkscape:current-layer="圖層_1" />


<g
   id="g2994"
   transform="matrix(1.9757966,0,0,1.9757966,-433.15389,-240.72712)"><polygon
     id="polygon3"
     points="281.08,145.456 272.648,228.379 258.593,153.319 "
     style="fill:#1d2a73" /><g
     id="g5">
	<path
   id="path7"
   d="m 261.123,131.258 c 0,-5.198 4.216,-9.42 9.417,-9.42 5.203,0 9.416,4.222 9.416,9.42 0,5.195 -4.213,9.417 -9.416,9.417 -5.201,0 -9.417,-4.222 -9.417,-9.417"
   inkscape:connector-curvature="0"
   style="fill:#1d2a73" />
</g><g
     id="g9">
	<path
   id="path11"
   d="m 280.184,154.25 -0.019,0.264 c 17.422,1.499 30.299,6.639 30.299,12.771 0,7.301 -18.195,13.213 -40.618,13.213 -22.448,0 -40.628,-5.912 -40.628,-13.213 0,-6.055 12.531,-11.143 29.611,-12.709 l -0.052,-0.27 c -22.629,1.741 -39.547,8.699 -39.547,17.008 0,9.627 22.65,17.426 50.616,17.426 27.95,0 50.609,-7.799 50.609,-17.426 0,-8.402 -17.28,-15.418 -40.271,-17.064"
   inkscape:connector-curvature="0"
   style="fill:#d71718" />
</g></g>
</svg>