<?xml version="1.0" encoding="UTF-8" standalone="no"?>
<!-- Generator: Adobe Illustrator 16.0.0, SVG Export Plug-In . SVG Version: 6.00 Build 0)  -->

<svg
   xmlns:dc="http://purl.org/dc/elements/1.1/"
   xmlns:cc="http://creativecommons.org/ns#"
   xmlns:rdf="http://www.w3.org/1999/02/22-rdf-syntax-ns#"
   xmlns:svg="http://www.w3.org/2000/svg"
   xmlns="http://www.w3.org/2000/svg"
   xmlns:xlink="http://www.w3.org/1999/xlink"
   xmlns:sodipodi="http://sodipodi.sourceforge.net/DTD/sodipodi-0.dtd"
   xmlns:inkscape="http://www.inkscape.org/namespaces/inkscape"
   version="1.1"
   id="圖層_1"
   x="0px"
   y="0px"
   width="200"
   height="318.44318"
   viewBox="0 0 200 318.44318"
   enable-background="new 0 0 538.583 737.008"
   xml:space="preserve"
   inkscape:version="0.48.4 r9939"
   sodipodi:docname="人事總處.svg"><metadata
   id="metadata21"><rdf:RDF><cc:Work
       rdf:about=""><dc:format>image/svg+xml</dc:format><dc:type
         rdf:resource="http://purl.org/dc/dcmitype/StillImage" /></cc:Work></rdf:RDF></metadata><defs
   id="defs19" /><sodipodi:namedview
   pagecolor="#ffffff"
   bordercolor="#666666"
   borderopacity="1"
   objecttolerance="10"
   gridtolerance="10"
   guidetolerance="10"
   inkscape:pageopacity="0"
   inkscape:pageshadow="2"
   inkscape:window-width="1440"
   inkscape:window-height="747"
   id="namedview17"
   showgrid="false"
   fit-margin-top="0"
   fit-margin-left="0"
   fit-margin-right="0"
   fit-margin-bottom="0"
   inkscape:zoom="0.32021362"
   inkscape:cx="-102.95851"
   inkscape:cy="-136.71599"
   inkscape:window-x="-8"
   inkscape:window-y="-8"
   inkscape:window-maximized="1"
   inkscape:current-layer="圖層_1" />
<g
   id="g3"
   transform="matrix(2.4033266,0,0,2.4033266,-894.63833,-238.61909)">
	<defs
   id="defs5">
		<rect
   id="SVGID_1_"
   x="372.24799"
   y="99.287003"
   width="83.220001"
   height="132.502" />
	</defs>
	<clipPath
   id="SVGID_2_">
		<use
   xlink:href="#SVGID_1_"
   overflow="visible"
   id="use9"
   style="overflow:visible"
   x="0"
   y="0"
   width="538.58301"
   height="737.008" />
	</clipPath>
	<path
   clip-path="url(#SVGID_2_)"
   d="m 455.469,231.788 -14.646,-54.507 c -3.867,5.151 -9.104,9.041 -15.033,11.3 l 11.609,43.207 h 18.07 z"
   id="path11"
   inkscape:connector-curvature="0"
   style="fill:#0054a7" />
	<path
   clip-path="url(#SVGID_2_)"
   d="m 431.153,115.816 c 0,9.127 -7.402,16.529 -16.533,16.529 -9.125,0 -16.526,-7.402 -16.526,-16.529 0,-9.128 7.401,-16.53 16.526,-16.53 9.131,0.001 16.533,7.402 16.533,16.53"
   id="path13"
   inkscape:connector-curvature="0"
   style="fill:#e60012" />
	<path
   clip-path="url(#SVGID_2_)"
   d="m 390.383,231.788 11.876,-44.095 c 0.04,0.014 0.078,0.023 0.115,0.039 17.273,4.731 35.12,-5.433 39.854,-22.708 3.666,-13.391 -1.671,-27.148 -12.29,-34.872 -3.815,3.839 -9.372,6.272 -15.58,6.272 -5.412,0 -10.323,-1.855 -14.025,-4.873 -0.24,-0.099 -0.496,-0.159 -0.73,-0.267 l -3.736,13.617 -3.776,13.797 -5.311,19.379 -14.53,53.711 h 18.133 z m 24.305,-89.44 c 0.03,0.009 0.063,0.015 0.088,0.023 7.745,2.122 12.297,10.12 10.178,17.862 -2.121,7.739 -10.116,12.294 -17.859,10.173 -0.027,-0.009 -0.06,-0.017 -0.09,-0.024 l 7.683,-28.034 z"
   id="path15"
   inkscape:connector-curvature="0"
   style="fill:#0054a7" />
</g>
</svg>