<?xml version="1.0" encoding="utf-8"?>
<!-- Generator: Adobe Illustrator 14.0.0, SVG Export Plug-In . SVG Version: 6.00 Build 43363)  -->
<!DOCTYPE svg PUBLIC "-//W3C//DTD SVG 1.1//EN" "http://www.w3.org/Graphics/SVG/1.1/DTD/svg11.dtd">
<svg version="1.1" id="圖層_1" xmlns="http://www.w3.org/2000/svg" xmlns:xlink="http://www.w3.org/1999/xlink" x="0px" y="0px"
	 width="595.28px" height="595.28px" viewBox="0 0 595.28 595.28" enable-background="new 0 0 595.28 595.28" xml:space="preserve">
<path fill="#0054A7" d="M297.64,0.677C133.632,0.677,0.676,133.633,0.676,297.641c0,164.009,132.956,296.963,296.963,296.963
	c164.009,0,296.964-132.954,296.964-296.963C594.604,133.633,461.648,0.677,297.64,0.677z M297.678,52.772
	c35.385,0,64.071,28.685,64.071,64.071c0,35.385-28.687,64.071-64.071,64.071c-35.386,0-64.071-28.686-64.071-64.071
	C233.607,81.458,262.292,52.772,297.678,52.772z M406.658,424.822v115.965h-78.842l-0.349-138.77l88.771-88.921l-0.149-4.341
	l-26.347-26.497l-4.491-0.15l-88.322,88.621l-86.675-86.974h-4.641l-26.347,26.197v4.342l87.274,87.573v138.919H187.5
	l-0.599-116.165L64.149,300.672l141.314-141.913l1.646-0.05l88.621,90.43l3.443,0.038l88.696-90.118l140.94,140.317v3.543
	L406.658,424.822z"/>
</svg>
