<?xml version="1.0" encoding="UTF-8" standalone="no"?>
<!-- Created with Inkscape (http://www.inkscape.org/) -->

<svg
   version="1.1"
   id="svg2"
   width="96.377869"
   height="94.130333"
   viewBox="0 0 96.377867 94.130334"
   sodipodi:docname="文化部標誌-橫式.svg"
   inkscape:version="1.1.2 (b8e25be833, 2022-02-05)"
   xmlns:inkscape="http://www.inkscape.org/namespaces/inkscape"
   xmlns:sodipodi="http://sodipodi.sourceforge.net/DTD/sodipodi-0.dtd"
   xmlns="http://www.w3.org/2000/svg"
   xmlns:svg="http://www.w3.org/2000/svg">
  <defs
     id="defs6">
    <clipPath
       clipPathUnits="userSpaceOnUse"
       id="clipPath18">
      <path
         d="M 0,595.28 H 841.89 V 0 H 0 Z"
         id="path16" />
    </clipPath>
  </defs>
  <sodipodi:namedview
     id="namedview4"
     pagecolor="#ffffff"
     bordercolor="#000000"
     borderopacity="0.25"
     inkscape:showpageshadow="2"
     inkscape:pageopacity="0.0"
     inkscape:pagecheckerboard="0"
     inkscape:deskcolor="#d1d1d1"
     inkscape:pageshadow="0"
     showgrid="false"
     fit-margin-top="0"
     fit-margin-left="0"
     fit-margin-right="0"
     fit-margin-bottom="0"
     inkscape:zoom="1.0104489"
     inkscape:cx="213.76638"
     inkscape:cy="19.298354"
     inkscape:window-width="1920"
     inkscape:window-height="991"
     inkscape:window-x="-9"
     inkscape:window-y="-9"
     inkscape:window-maximized="1"
     inkscape:current-layer="g8" />
  <g
     id="g8"
     inkscape:groupmode="layer"
     inkscape:label="文化部標誌-橫式"
     transform="matrix(1.3333333,0,0,-1.3333333,-347.67473,415.21839)">
    <g
       id="g174"
       transform="translate(324.34189,273.2108)">
      <path
         d="m 0,0 c 0,0 -13.99,11.725 -30.819,5.098 0,0 10.767,9.816 24.551,8.332 0,0 10.187,-7.409 6.268,-13.43 m -7.486,-5.478 c -3.053,0.939 -3.213,0.021 -3.319,-0.551 -0.103,-0.573 -0.539,-1.2 -0.539,-1.2 -2.645,-4.011 -9.396,0.637 -10.98,4.856 -1.584,4.22 -8.289,7.112 -8.289,7.112 15.166,4.911 29.45,-6.446 29.45,-6.446 0.503,-2.715 -3.274,-4.709 -6.323,-3.771 M -33.972,6.323 c 0,0 3.142,5.624 7.867,10.804 4.726,5.18 8.101,10.958 8.101,10.958 0,0 12.126,-9.282 9.816,-13.655 0,0 -11.896,3.349 -25.784,-8.107 m 1.134,28.131 c 0,0 9.787,-2.972 14.784,-6.33 0,0 -3.839,-6.176 -19.587,-19.376 0,0 9.358,16.257 4.803,25.706 M 7.916,4.736 1.299,25.096 c -2.344,7.21 -10.46,13.107 -18.041,13.107 H -38.15 c -1.019,0 -2.047,-0.109 -3.069,-0.311 3.117,-0.533 5.555,-1.968 6.117,-3.261 0,0 5.817,-8.511 -2.393,-24.543 0,0 1.849,7.458 -3.195,15.779 0,0 3.659,-7.035 0.754,-15.41 0,0 -1.071,8.49 -12.47,15.498 0,0 -1.528,0.806 -2.364,2.27 -0.458,-0.782 -0.847,-1.59 -1.166,-2.417 3.377,-1.62 13.125,-6.909 15.21,-14.874 0,0 -4.6,4.982 -9.266,5.492 -4.665,0.511 -4.168,2.351 -5.002,3.271 -0.408,0.451 -1.37,1.578 -2.026,2.845 L -62.804,4.736 c -2.342,-7.209 0.758,-16.752 6.89,-21.209 l 2.193,-1.591 c 1.937,2.216 3.757,5.665 3.637,6.572 -0.154,1.164 0.256,2.117 1.085,3.158 0.829,1.04 1.59,2.005 1.59,2.005 0,0 -0.169,3.954 2.296,6.329 1.163,1.121 2.231,2.752 3.035,4.16 -0.531,0.588 -1.077,1.275 -1.639,2.079 -4.586,6.589 -3.857,7.694 -3.857,7.694 0,0 0.994,0.973 7.746,-6.134 0,0 1.525,-3.51 5.891,-4.227 4.369,-0.717 10.033,-4.546 10.501,-6.612 0.471,-2.067 -3.78,-1.151 -5.678,-0.968 -1.609,0.154 -3.785,1.299 -4.935,2.63 -1.782,-1.37 -2.739,-3.498 -2.739,-3.498 -1.25,-3.203 -5.24,-4.265 -5.24,-4.265 -1.14,-0.675 -0.548,-1.291 -1.986,-2.982 -1.437,-1.693 -3.263,-1.63 -3.263,-1.63 -0.934,-1.578 -3.198,-3.649 -5.033,-5.337 l 0.67,-0.486 c 5.723,1.421 6.617,2.846 6.617,2.846 -0.52,2.376 3.767,2.309 4.739,2.334 0.971,0.025 0.599,-0.651 0.599,-0.651 -2.274,-4.262 -4.235,-3.264 -4.235,-3.264 -1.99,-0.775 -4.392,-1.475 -6.32,-1.988 0.711,-0.027 1.469,-0.058 2.279,-0.094 2.1,-0.046 4.275,-0.063 6.377,-0.013 0.277,0.01 0.551,0.022 0.814,0.035 0.041,0.002 0.086,0.006 0.147,0.008 h 0.004 c 1.162,0.049 1.941,0.533 1.941,0.533 0.192,2.428 4.274,1.122 5.213,0.865 0.937,-0.256 0.384,-0.797 0.384,-0.797 -3.409,-3.422 -4.997,-1.902 -4.997,-1.902 -0.402,-0.031 -0.734,-0.041 -1.006,-0.031 -1.152,-0.065 -4.957,-0.242 -9.514,-0.091 l 10.004,-7.269 c 6.133,-4.453 16.165,-4.453 22.297,0 l 17.321,12.582 c 6.132,4.457 9.234,14 6.892,21.209"
         style="fill:#002666;fill-opacity:1;fill-rule:nonzero;stroke:none"
         id="path176" />
    </g>
  </g>
</svg>
