<?xml version="1.0" encoding="UTF-8" standalone="no"?>
<!-- Generator: $$$/GeneralStr/196=Adobe Illustrator 27.6.0, SVG Export Plug-In . SVG Version: 6.00 Build 0)  -->

<svg
   version="1.1"
   id="圖層_1"
   x="0px"
   y="0px"
   width="100"
   height="100"
   viewBox="0 0 100 100"
   xml:space="preserve"
   sodipodi:docname="logo_moenv-m.svg"
   inkscape:version="1.2.2 (732a01da63, 2022-12-09)"
   xmlns:inkscape="http://www.inkscape.org/namespaces/inkscape"
   xmlns:sodipodi="http://sodipodi.sourceforge.net/DTD/sodipodi-0.dtd"
   xmlns="http://www.w3.org/2000/svg"
   xmlns:svg="http://www.w3.org/2000/svg"><defs
   id="defs272">
	
	
	
	
	
	
	
	
	
	
	
	
	
	
	
	
	
	
	
	
	
	
	
	
	
</defs><sodipodi:namedview
   id="namedview270"
   pagecolor="#ffffff"
   bordercolor="#000000"
   borderopacity="0.25"
   inkscape:showpageshadow="2"
   inkscape:pageopacity="0.0"
   inkscape:pagecheckerboard="0"
   inkscape:deskcolor="#d1d1d1"
   showgrid="false"
   inkscape:zoom="2.1960552"
   inkscape:cx="178.95725"
   inkscape:cy="78.549938"
   inkscape:window-width="1920"
   inkscape:window-height="991"
   inkscape:window-x="-9"
   inkscape:window-y="-9"
   inkscape:window-maximized="1"
   inkscape:current-layer="圖層_1" />
<style
   type="text/css"
   id="style203">
	.st0{fill:#2878B9;}
	.st1{fill:#9EC317;}
	.st2{fill:#FFFFFF;}
</style>
<g
   id="g265"
   transform="scale(1.6666667)">
		<path
   class="st0"
   d="M 33.7,8.5 C 34.1,8.1 34.4,7.9 35.2,8 35.7,8 36,8.1 36.7,8.7 l 18.4,26.7 h 4.4 C 59.8,33.7 60,31.9 60,30 60,13.4 46.6,0 30,0 13.4,0 0,13.4 0,30 c 0,0.5 0,1 0,1.5 h 10.2 c 4,-5.9 7.9,-11.8 11.8,-17.8 0.7,-0.7 1.2,-0.8 1.8,-0.6 l 3.1,3.3 -12.2,17.3 H 0.2 c 0.1,0.5 0.1,1 0.2,1.5 l 15.5,0.1 z"
   id="path253" />
		<path
   class="st1"
   d="m 34.8,27.5 -8.3,13 H 1.9 C 6.2,51.9 17.2,60 30,60 42.7,60 53.6,52.1 58,40.9 H 44.2 Z"
   id="path255" />
		<path
   class="st1"
   d="M 50.5,37.4 35.2,15.8 20.7,37.5 0.9,37.4 c 0.1,0.4 0.2,0.9 0.4,1.3 L 21.8,38.6 35.4,19.2 48.8,38.6 h 10 c 0.1,-0.4 0.2,-0.8 0.3,-1.2 z"
   id="path257" />
		<path
   class="st2"
   d="M 27,16.4 23.9,13.1 C 23.3,12.9 22.8,13 22.1,13.7 18.2,19.6 14.2,25.5 10.3,31.5 H 0 c 0,0.7 0.1,1.4 0.2,2.1 h 14.5 z"
   id="path259" />
		<path
   class="st2"
   d="M 35.3,19.2 21.8,38.6 1.3,38.7 c 0.2,0.6 0.4,1.2 0.6,1.9 h 24.6 l 8.3,-13 9.4,13.3 H 58 c 0.3,-0.7 0.6,-1.5 0.8,-2.3 h -10 z"
   id="path261" />
		<path
   class="st2"
   d="m 35.2,15.8 15.3,21.6 h 8.6 c 0.2,-0.7 0.3,-1.3 0.4,-2 H 55.1 L 36.7,8.7 C 36.1,8.1 35.7,8 35.3,7.9 34.5,7.8 34.2,8.1 33.8,8.4 L 15.9,35.1 H 0.4 c 0.1,0.8 0.3,1.6 0.5,2.3 l 19.8,0.1 z"
   id="path263" />
	</g>
</svg>
