<?xml version="1.0" encoding="utf-8"?>
<!-- Generator: Adobe Illustrator 27.2.0, SVG Export Plug-In . SVG Version: 6.00 Build 0)  -->
<svg version="1.1" id="圖層_1" xmlns="http://www.w3.org/2000/svg" xmlns:xlink="http://www.w3.org/1999/xlink" x="0px" y="0px"
	 viewBox="0 0 100 85.4" style="enable-background:new 0 0 100 85.4;" xml:space="preserve">
<style type="text/css">
	.st0{fill:#E2B200;}
</style>
<g>
	<path class="st0" d="M52,83.61c0,0.99-0.89,1.79-2.01,1.79c-1.11,0-2.01-0.8-2.01-1.79V69.88c0-0.99,0.9-1.8,2.01-1.8
		c1.12,0,2.01,0.81,2.01,1.8V83.61z"/>
	<path class="st0" d="M47.27,82.46c0,0.81-0.9,1.46-2,1.46c-1.12,0-2.01-0.65-2.01-1.46V71.24c0-0.81,0.89-1.46,2.01-1.46
		c1.1,0,2,0.65,2,1.46V82.46z"/>
	<path class="st0" d="M42.45,74.76c-0.07,0.43,0.14,1.23-2.27,0.72c-5.32-1.12-11.28-3.86-13.1-6.27c-1.93-2.56-2.41-5.91-1.77-7.51
		c0.64-1.61,1.56-1.67,1.35-1.09c-0.22,0.58-0.35,2.99,0.36,4.88c0.71,1.89,2.21,3.16,5.8,5.09c2.98,1.6,8.86,2.4,8.86,2.4
		C42.73,73.23,42.45,74.76,42.45,74.76"/>
	<path class="st0" d="M42.3,82.51c-0.36,1.02-4.23,0.08-8.01-1.09c-3.79-1.17-5.75-2.26-9.55-4.66c-3.79-2.4-5.25-1.24-5.25-1.24
		c-1.97,0.08-2.91,4.23-2.76,1.61c0.14-2.63,2.25-3.8,2.25-3.8c0.94-0.87,3.35-1.6,5.32-0.21c2.43,1.71,4.52,2.77,9.03,4.88
		c4.52,2.12,7.95,2.12,7.95,2.12C42.45,80.33,42.66,81.49,42.3,82.51"/>
	<path class="st0" d="M9.96,70.06c0,0,5.7-5.7,13.9-0.71c8.19,4.99,9.41,6.86,17.82,7.12c0.9,0.04,0.96,2.72-0.82,2.72
		c0,0-3.28,0.68-10.22-3.61C23.68,71.31,17.98,68.1,9.96,70.06"/>
	<path class="st0" d="M7.09,65.73c7.06-5.88,13.22,1.54,13.22,1.54C15.61,64.09,7.09,65.73,7.09,65.73"/>
	<path class="st0" d="M22.65,55.65c0,0-2.87,4.8,1.43,11.71c0,0-3.13-0.35-4.3-5.16C18.62,57.4,22.65,55.65,22.65,55.65"/>
	<path class="st0" d="M12.9,58.55c0,0-0.65,1.51-0.33,2.79c0,0-4.62-2.69-8.49-2.58C4.08,58.77,6.23,56.83,12.9,58.55"/>
	<path class="st0" d="M2.25,51.45c0,0,7.64,0.43,11.62,4.84l-1.41,0.75c0,0-0.75-0.86-2.79-0.65C9.67,56.4,6.34,53.06,2.25,51.45"/>
	<path class="st0" d="M15.26,55.97l-2.58-0.75l-0.97-2.58l-1.6-0.11C5.66,47.49,0,47.04,0,47.04c4.4-2.25,10.42,1.94,10.42,1.94
		s-0.54-2.15-0.11-3.22c0.44-1.07,2.69,2.15,2.69,2.15c0.54-2.26,3.33-3.76,3.33-3.76c-2.36,2.79-1.5,8.06-1.39,8.59
		c0.1,0.54,0.22,2.36,1.18,1.18c0.96-1.18,2.48-2.15,2.48-2.15c-2.58,6.24-0.65,11.08-1.08,10.54c-0.43-0.54-2.58-0.97-2.58-0.97
		C14.19,60.16,15.26,55.97,15.26,55.97"/>
	<path class="st0" d="M10.16,42.32c1.77,0,1.5,2.37,1.5,2.37c-1.5-0.65-1.93,0.75-1.93,0.75C9.41,44.58,8.98,42.32,10.16,42.32"/>
	<path class="st0" d="M8.32,43.68c0,0-0.18,1.49,0.34,2.19c0.53,0.7-2.45,0.48-3.67-3.16C4.99,42.72,5.99,44.03,8.32,43.68"/>
	<path class="st0" d="M14.14,41.57c0.87,1.63-1.09,4.74-1.01,4.03c0.09-0.7-0.56-2.05-0.56-2.05
		C13.13,43.02,14.14,41.57,14.14,41.57"/>
	<path class="st0" d="M8.84,41.84c-0.09-0.4-0.53-2.76,0.39-3.15c0.92-0.4,2.76,3.41,1.67,2.85c-1.09-0.57-1.97,0.35-1.97,0.35"/>
	<path class="st0" d="M7.53,40.27c0,0-0.48,0.96,0,1.72c0.49,0.74-2.37,0.54-3.42-2.46C3.76,38.51,5.03,39.96,7.53,40.27"/>
	<path class="st0" d="M11.87,39.82c1.27-0.7,1.71-3.42,1.89-2.27c0.46,3.06-1.54,4.86-1.46,4.11c0.09-0.73-0.39-1.74-0.39-1.74"/>
	<path class="st0" d="M10.2,37.9c-1.94-1.55-1.67,2.06-2.15,0.27C7.48,36,8.71,34.83,8.71,34.83C10.2,34.66,11.29,38.77,10.2,37.9"
		/>
	<path class="st0" d="M8.8,31.02c0.79,0.13,1.88,4.51,1.05,3.42c-0.83-1.1-2.06-0.27-2.06-0.27C6.83,35.05,8.01,30.89,8.8,31.02"/>
	<path class="st0" d="M8.76,27.74c0.87,0.13,1.79,3.85,0.92,2.76C8.8,29.4,7.7,30.45,7.7,30.45C6.92,30.85,7.88,27.61,8.76,27.74"/>
	<path class="st0" d="M9.81,23.01c0.48-0.14,0.87,4.51-0.31,3.51c-0.62-0.53-1.45-0.05-1.45-0.05C6.52,26.47,9.33,23.14,9.81,23.01"
		/>
	<path class="st0" d="M7,36.28c0,0-0.74,1.09,0.04,2.14c0.79,1.05-3.23,0.05-3.5-3.37C3.41,33.39,5.08,36.33,7,36.28"/>
	<path class="st0" d="M13.18,34c0.47,3.53-1.8,4.86-1.71,3.64c0.08-1.23-0.53-2.02-0.53-2.02C13,35.31,12.96,32.38,13.18,34"/>
	<path class="st0" d="M6.97,32.6c0,0-0.62,1.49-0.4,1.84c0.22,0.34-2.43-0.47-2.54-3.25C3.94,29.05,4.24,31.89,6.97,32.6"/>
	<path class="st0" d="M13.13,30.36c-0.06,2.29-2.45,5.48-2.23,3.64c0.22-1.84-0.57-2.28-0.57-2.28
		C11.69,31.99,13.18,28.88,13.13,30.36"/>
	<path class="st0" d="M7.14,28.48c0,0-0.79,1.45-0.31,1.88c0.48,0.44-2.09-0.34-2.41-3.63C4.29,25.37,5.34,27.69,7.14,28.48"/>
	<path class="st0" d="M13,27.14c-0.25,2.76-2.68,3.65-2.38,2.44c0.25-1.03-0.46-1.56-0.46-1.56C11.39,27.84,13.18,25.25,13,27.14"/>
	<path class="st0" d="M52.73,71.24c0-0.81,0.89-1.46,2-1.46c1.11,0,2.01,0.65,2.01,1.46v11.22c0,0.81-0.9,1.46-2.01,1.46
		c-1.11,0-2-0.65-2-1.46V71.24z"/>
	<path class="st0" d="M58.33,73c0,0,5.88-0.8,8.86-2.4c3.58-1.93,5.09-3.2,5.8-5.09c0.72-1.9,0.57-4.3,0.35-4.88
		c-0.21-0.58,0.71-0.51,1.35,1.09c0.64,1.6,0.17,4.95-1.76,7.5c-1.82,2.4-7.78,5.15-13.1,6.27c-2.41,0.51-2.2-0.3-2.27-0.72
		C57.55,74.76,57.27,73.23,58.33,73"/>
	<path class="st0" d="M58.71,80.12c0,0,3.43,0,7.95-2.12c4.51-2.11,6.6-3.17,9.03-4.88c1.97-1.39,4.37-0.66,5.32,0.21
		c0,0,2.11,1.17,2.25,3.8c0.15,2.62-0.8-1.53-2.76-1.61c0,0-1.46-1.17-5.25,1.24c-3.78,2.4-5.75,3.49-9.54,4.66
		c-3.79,1.17-7.65,2.11-8.02,1.09C57.33,81.49,57.55,80.33,58.71,80.12"/>
	<path class="st0" d="M69.36,75.58c-6.95,4.29-10.22,3.61-10.22,3.61c-1.79,0-1.72-2.68-0.83-2.72c8.41-0.26,9.62-2.14,17.82-7.12
		c8.2-4.99,13.9,0.71,13.9,0.71C82.02,68.1,76.32,71.31,69.36,75.58"/>
	<path class="st0" d="M79.67,67.26c0,0,6.17-7.41,13.23-1.54C92.9,65.73,84.38,64.09,79.67,67.26"/>
	<path class="st0" d="M80.21,62.21c-1.17,4.81-4.29,5.16-4.29,5.16c4.29-6.91,1.43-11.71,1.43-11.71S81.38,57.4,80.21,62.21"/>
	<path class="st0" d="M95.91,58.77c-3.86-0.11-8.49,2.58-8.49,2.58c0.33-1.29-0.32-2.79-0.32-2.79
		C93.76,56.83,95.91,58.77,95.91,58.77"/>
	<path class="st0" d="M90.32,56.4c-2.05-0.22-2.8,0.65-2.8,0.65l-1.4-0.76c3.98-4.41,11.61-4.84,11.61-4.84
		C93.66,53.06,90.32,56.4,90.32,56.4"/>
	<path class="st0" d="M85.05,61.35c0,0-2.15,0.43-2.58,0.97c-0.43,0.54,1.5-4.3-1.08-10.54c0,0,1.51,0.97,2.48,2.15
		c0.96,1.18,1.07-0.65,1.18-1.18c0.11-0.54,0.97-5.8-1.4-8.6c0,0,2.8,1.5,3.33,3.76c0,0,2.26-3.22,2.69-2.15
		c0.43,1.07-0.11,3.22-0.11,3.22s6.02-4.19,10.43-1.94c0,0-5.67,0.45-10.1,5.49l-1.62,0.11l-0.97,2.58l-2.58,0.75
		C84.73,55.97,85.81,60.16,85.05,61.35"/>
	<path class="st0" d="M90.27,45.44c0,0-0.43-1.4-1.94-0.75c0,0-0.27-2.37,1.51-2.37C91.01,42.32,90.59,44.58,90.27,45.44"/>
	<path class="st0" d="M95,42.71c-1.22,3.64-4.2,3.86-3.68,3.16c0.52-0.71,0.34-2.19,0.34-2.19C93.99,44.03,95,42.71,95,42.71"/>
	<path class="st0" d="M87.43,43.55c0,0-0.66,1.36-0.58,2.05c0.09,0.71-1.88-2.41-1-4.03C85.85,41.57,86.85,43.02,87.43,43.55"/>
	<path class="st0" d="M91.06,41.89c0,0-0.87-0.92-1.97-0.35c-1.1,0.56,0.74-3.25,1.66-2.85c0.92,0.39,0.48,2.75,0.4,3.15"/>
	<path class="st0" d="M95.88,39.52c-1.04,3-3.89,3.2-3.42,2.46c0.48-0.75,0-1.71,0-1.71C94.97,39.96,96.23,38.51,95.88,39.52"/>
	<path class="st0" d="M88.08,39.91c0,0-0.48,1.01-0.39,1.74c0.09,0.75-1.92-1.05-1.45-4.11c0.18-1.14,0.61,1.57,1.88,2.27"/>
	<path class="st0" d="M91.28,34.83c0,0,1.23,1.18,0.65,3.34c-0.48,1.79-0.21-1.82-2.14-0.27C88.69,38.77,89.79,34.66,91.28,34.83"/>
	<path class="st0" d="M92.19,34.18c0,0-1.22-0.83-2.05,0.27c-0.83,1.09,0.26-3.28,1.05-3.42C91.98,30.89,93.17,35.05,92.19,34.18"/>
	<path class="st0" d="M92.28,30.45c0,0-1.09-1.05-1.97,0.04c-0.87,1.09,0.04-2.63,0.92-2.76C92.11,27.61,93.07,30.85,92.28,30.45"/>
	<path class="st0" d="M91.94,26.47c0,0-0.83-0.49-1.44,0.05c-1.18,1-0.79-3.65-0.31-3.51C90.67,23.14,93.48,26.47,91.94,26.47"/>
	<path class="st0" d="M96.45,35.05c-0.27,3.43-4.3,4.42-3.51,3.37c0.79-1.05,0.05-2.14,0.05-2.14
		C94.92,36.33,96.58,33.39,96.45,35.05"/>
	<path class="st0" d="M89.04,35.62c0,0-0.62,0.79-0.52,2.02c0.08,1.22-2.19-0.1-1.71-3.64C87.03,32.38,86.98,35.31,89.04,35.62"/>
	<path class="st0" d="M95.97,31.19c-0.12,2.78-2.76,3.59-2.54,3.25c0.22-0.35-0.39-1.84-0.39-1.84
		C95.75,31.89,96.06,29.05,95.97,31.19"/>
	<path class="st0" d="M89.67,31.72c0,0-0.8,0.44-0.58,2.28c0.22,1.84-2.17-1.35-2.24-3.64C86.81,28.88,88.3,31.99,89.67,31.72"/>
	<path class="st0" d="M95.58,26.73c-0.33,3.3-2.89,4.07-2.41,3.63c0.48-0.43-0.31-1.88-0.31-1.88
		C94.66,27.69,95.7,25.37,95.58,26.73"/>
	<path class="st0" d="M89.83,28.01c0,0-0.72,0.53-0.46,1.56c0.3,1.21-2.14,0.33-2.39-2.44C86.82,25.25,88.62,27.84,89.83,28.01"/>
	<path class="st0" d="M58.99,47.66c0,0.57-0.47,1.04-1.04,1.04h-15.9c-0.58,0-1.04-0.47-1.04-1.04c0-0.58,0.46-1.03,1.04-1.03h15.9
		C58.52,46.62,58.99,47.08,58.99,47.66"/>
	<path class="st0" d="M57.3,44.85c0,0.57-0.38,1.04-0.84,1.04H43.54c-0.46,0-0.84-0.46-0.84-1.04c0-0.57,0.37-1.03,0.84-1.03h12.92
		C56.92,43.82,57.3,44.28,57.3,44.85"/>
	<path class="st0" d="M67.37,33.87l-3.92-9.3c0,0,0.01-0.01,0.01-0.03c0-0.24-0.19-0.43-0.43-0.43H51.77
		c-0.18-0.28-0.44-0.52-0.73-0.69v-1.46c0.5-0.5,0.82-1.34,0.82-2.3c0-1.53-0.83-2.76-1.86-2.76c-1.02,0-1.85,1.24-1.85,2.76
		c0,0.96,0.33,1.8,0.83,2.3v1.46c-0.31,0.18-0.56,0.41-0.74,0.69H36.97c-0.24,0-0.44,0.19-0.44,0.43c0,0.02,0.02,0.02,0.02,0.04
		l-0.01-0.01l-3.92,9.3H32.6v0.02v0.01h0.01c0.06,0.16,1.08,2.96,1.69,2.96c0.61,0,3.75-0.01,4.67-0.01c0.92,0,1.8-2.98,1.8-2.98
		h-0.03l-3.75-8.9h2.05c1.95,0.12,6.79,0.44,9.14,1.06c0.18,0.31,0.45,0.58,0.78,0.76v1.96c-0.32,0.44-0.53,1.06-0.53,1.76
		c0,0.69,0.21,1.32,0.53,1.76v1.79c-0.53,0.53-0.87,1.43-0.87,2.46c0,1.04,0.34,1.94,0.87,2.45v0.03c-0.31,0.67-0.93,1.61-2.14,1.89
		c-0.21,0.05-0.33,0.09-0.39,0.12h-1.6c-0.37,0-0.67,0.47-0.67,1.04c0,0.58,0.31,1.04,0.67,1.04h10.33c0.37,0,0.67-0.46,0.67-1.04
		c0-0.57-0.3-1.04-0.67-1.04h-1.6c-0.07-0.03-0.19-0.07-0.4-0.12c-1.21-0.28-1.84-1.22-2.13-1.89v-0.02
		c0.52-0.53,0.87-1.42,0.87-2.46c0-1.03-0.35-1.93-0.87-2.46v-1.79c0.31-0.43,0.52-1.06,0.52-1.76c0-0.71-0.21-1.33-0.52-1.76v-1.96
		c0.33-0.18,0.59-0.45,0.78-0.77c2.36-0.6,7.18-0.93,9.12-1.04h2.06l-3.75,8.9h-0.01c0,0,0,0.02,0.01,0.02l-0.01,0.01h0.01
		c0.05,0.16,1.09,2.96,1.69,2.96c0.61,0,3.75-0.01,4.67-0.01c0.92,0,1.8-2.98,1.8-2.98H67.37z M36.51,33.87H33l3.51-8.31V33.87z
		 M40.36,33.87h-3.5v-8.28L40.36,33.87z M63.13,33.87h-3.5l3.5-8.31V33.87z M63.49,33.87v-8.28l3.49,8.28H63.49z"/>
	<path class="st0" d="M82.31,27.53c0-7.73-6.28-14.01-14.01-14.01c-1.49,0-2.92,0.32-4.33,0.78c0.01-0.06,0.03-0.3,0.03-0.3
		C64,6.28,57.72,0,49.99,0c-7.72,0-14,6.28-14,14.01c0,0,0.02,0.23,0.03,0.3c-1.4-0.46-2.84-0.78-4.33-0.78
		c-7.72,0-14.01,6.28-14.01,14.01c0,6.24,4.06,11.55,9.87,13.33c-1.77,2.38-2.77,5.25-2.77,8.27c0,7.73,6.28,14.01,14,14.01
		c4.63,0,8.78-2.35,11.39-6.09c2.59,3.74,6.74,6.09,11.37,6.09c7.73,0,14.01-6.28,14.01-14.01c0-3.06-1.03-5.94-2.83-8.35
		C78.36,38.9,82.31,33.63,82.31,27.53 M70.37,38.89l-2.3,0.42l1.65,1.66c2.19,2.18,3.39,5.08,3.39,8.17
		c0,6.37-5.19,11.57-11.57,11.57c-4.35,0-8.3-2.43-10.29-6.32l-1.08-2.13l-1.1,2.13c-1.99,3.89-5.93,6.32-10.29,6.32
		c-6.37,0-11.56-5.2-11.56-11.57c0-3.07,1.2-5.95,3.35-8.13l1.69-1.7l-2.37-0.37c-5.65-0.88-9.76-5.69-9.76-11.4
		c0-6.38,5.17-11.57,11.56-11.57c1.79,0,3.53,0.42,5.17,1.24l1.96,0.98L38.6,15.9l-0.16-1.9c0-6.37,5.18-11.56,11.55-11.56
		c6.38,0,11.57,5.19,11.57,11.56l-0.37,4.09l1.95-0.89c1.63-0.82,3.37-1.24,5.16-1.24c6.38,0,11.56,5.19,11.56,11.57
		C79.87,33.12,75.87,37.9,70.37,38.89"/>
</g>
</svg>
