<?xml version="1.0" encoding="UTF-8" standalone="no"?>
<!-- Generator: Adobe Illustrator 16.0.0, SVG Export Plug-In . SVG Version: 6.00 Build 0)  -->

<svg
   xmlns:dc="http://purl.org/dc/elements/1.1/"
   xmlns:cc="http://creativecommons.org/ns#"
   xmlns:rdf="http://www.w3.org/1999/02/22-rdf-syntax-ns#"
   xmlns:svg="http://www.w3.org/2000/svg"
   xmlns="http://www.w3.org/2000/svg"
   xmlns:sodipodi="http://sodipodi.sourceforge.net/DTD/sodipodi-0.dtd"
   xmlns:inkscape="http://www.inkscape.org/namespaces/inkscape"
   version="1.1"
   id="圖層_1"
   x="0px"
   y="0px"
   width="200"
   height="176.85339"
   viewBox="0 0 200 176.85339"
   enable-background="new 0 0 1217.48 841.89"
   xml:space="preserve"
   inkscape:version="0.48.4 r9939"
   sodipodi:docname="主計總處.svg"><metadata
   id="metadata39"><rdf:RDF><cc:Work
       rdf:about=""><dc:format>image/svg+xml</dc:format><dc:type
         rdf:resource="http://purl.org/dc/dcmitype/StillImage" /></cc:Work></rdf:RDF></metadata><defs
   id="defs37">
	
	
	
	
	
</defs><sodipodi:namedview
   pagecolor="#ffffff"
   bordercolor="#666666"
   borderopacity="1"
   objecttolerance="10"
   gridtolerance="10"
   guidetolerance="10"
   inkscape:pageopacity="0"
   inkscape:pageshadow="2"
   inkscape:window-width="1440"
   inkscape:window-height="747"
   id="namedview35"
   showgrid="false"
   fit-margin-top="0"
   fit-margin-left="0"
   fit-margin-right="0"
   fit-margin-bottom="0"
   inkscape:zoom="1.5857387"
   inkscape:cx="79.577558"
   inkscape:cy="48.589618"
   inkscape:window-x="-8"
   inkscape:window-y="-8"
   inkscape:window-maximized="1"
   inkscape:current-layer="圖層_1" />


<g
   id="g3825"
   transform="matrix(2.1311722,0,0,2.1311722,-524.31312,-823.80574)"><g
     transform="translate(-2,-2)"
     style="fill:#bababa;fill-opacity:1"
     id="g3815"><path
       style="fill:#bababa;fill-opacity:1"
       inkscape:connector-curvature="0"
       id="path25"
       d="m 321.65504,439.25713 c -9.93337,-10.93436 -72.28967,32.27749 -72.28967,32.27749 0,0 29.69533,-33.57681 84.74696,-46.30019 8.9688,-2.07414 10.34016,3.17757 3.15464,10.22266 -6.86501,6.72407 -15.33252,14.754 -20.28277,16.75849 0,0 7.56251,-9.78086 4.67084,-12.95845" /><path
       style="fill:#bababa;fill-opacity:1"
       inkscape:connector-curvature="0"
       id="path27"
       d="m 298.84217,421.58426 c 0,0 11.81207,-11.23613 2.71935,-11.87335 -13.46919,-0.95087 -42.67211,16.85805 -42.67211,16.85805 0,0 11.99713,-15.67246 41.87857,-23.38915 29.88459,-7.71887 22.63718,10.20959 -1.92581,18.40445" /><path
       style="fill:#bababa;fill-opacity:1"
       inkscape:connector-curvature="0"
       id="path29"
       d="m 303.15916,435.81131 c 0,0 6.89461,-10.01454 0.5569,-10.50727 -9.3929,-0.72796 -27.52056,11.44292 -27.52056,11.44292 0,0 8.47851,-11.54782 29.03009,-18.44599 18.96146,-6.36201 15.05489,11.23523 -2.06643,17.51034" /><path
       style="fill:#bababa;fill-opacity:1"
       inkscape:connector-curvature="0"
       id="path31"
       d="m 284.78596,391.5715 c 0,0 10.06668,-4.15552 18.45106,-0.8737 l -0.90765,1.3839 c 0,0 5.31157,-0.36861 9.15646,4.15809 0,0 -0.48674,1.38773 -3.63186,1.38773 0,0 0.0671,7.36465 -7.48189,7.29194 -7.54517,-0.0689 -15.58612,-13.34796 -15.58612,-13.34796" /></g><g
     transform="translate(3.9467571e-6,8.0394352e-6)"
     id="g3027"><path
       d="m 316.394,435.867 c -9.67,-10.048 -70.373,29.661 -70.373,29.661 0,0 28.908,-30.855 82.5,-42.547 8.731,-1.906 10.066,2.92 3.071,9.394 -6.683,6.179 -14.926,13.558 -19.745,15.4 0,0 7.362,-8.988 4.547,-11.908"
       id="path3029"
       inkscape:connector-curvature="0"
       style="fill:#50a135" /><path
       d="m 293.982,417.801 c 0,0 11.298,-10.245 2.601,-10.826 -12.883,-0.867 -40.815,15.371 -40.815,15.371 0,0 11.475,-14.29 40.056,-21.326 28.584,-7.038 21.652,9.309 -1.842,16.781"
       id="path3031"
       inkscape:connector-curvature="0"
       style="fill:#0d57a7" /><path
       d="m 299.617,431.641 c 0,0 6.673,-9.451 0.539,-9.916 -9.091,-0.687 -26.636,10.799 -26.636,10.799 0,0 8.206,-10.898 28.097,-17.408 18.352,-6.004 14.571,10.603 -2,16.525"
       id="path3033"
       inkscape:connector-curvature="0"
       style="fill:#fff100" /><path
       d="m 284.563,388.225 c 0,0 7.797,-3.258 14.291,-0.685 l -0.703,1.085 c 0,0 4.114,-0.289 7.092,3.26 0,0 -0.377,1.088 -2.813,1.088 0,0 0.052,5.774 -5.795,5.717 -5.844,-0.054 -12.072,-10.465 -12.072,-10.465"
       id="path3035"
       inkscape:connector-curvature="0"
       style="fill:#e60012" /></g></g></svg>