<?xml version="1.0" encoding="UTF-8" standalone="no"?>
<!-- Created with Inkscape (http://www.inkscape.org/) -->

<svg
   width="100"
   height="100"
   id="svg3038"
   version="1.1"
   inkscape:version="1.2.2 (732a01da63, 2022-12-09)"
   sodipodi:docname="ROC_Ministry_of_Transportation_and_Communications_Flag.svg"
   xmlns:inkscape="http://www.inkscape.org/namespaces/inkscape"
   xmlns:sodipodi="http://sodipodi.sourceforge.net/DTD/sodipodi-0.dtd"
   xmlns="http://www.w3.org/2000/svg"
   xmlns:svg="http://www.w3.org/2000/svg"
   xmlns:rdf="http://www.w3.org/1999/02/22-rdf-syntax-ns#"
   xmlns:cc="http://creativecommons.org/ns#"
   xmlns:dc="http://purl.org/dc/elements/1.1/">
  <defs
     id="defs3040" />
  <sodipodi:namedview
     id="base"
     pagecolor="#ffffff"
     bordercolor="#666666"
     borderopacity="1.0"
     inkscape:pageopacity="0.0"
     inkscape:pageshadow="2"
     inkscape:zoom="0.82249999"
     inkscape:cx="198.17629"
     inkscape:cy="130.69909"
     inkscape:document-units="px"
     inkscape:current-layer="layer1"
     showgrid="false"
     inkscape:window-width="1920"
     inkscape:window-height="991"
     inkscape:window-x="-9"
     inkscape:window-y="-9"
     inkscape:window-maximized="1"
     showguides="true"
     inkscape:guide-bbox="true"
     fit-margin-top="0"
     fit-margin-left="0"
     fit-margin-right="0"
     fit-margin-bottom="0"
     inkscape:showpageshadow="2"
     inkscape:pagecheckerboard="0"
     inkscape:deskcolor="#d1d1d1" />
  <metadata
     id="metadata3043">
    <rdf:RDF>
      <cc:Work
         rdf:about="">
        <dc:format>image/svg+xml</dc:format>
        <dc:type
           rdf:resource="http://purl.org/dc/dcmitype/StillImage" />
        <dc:title />
      </cc:Work>
    </rdf:RDF>
  </metadata>
  <g
     inkscape:label="Layer 1"
     inkscape:groupmode="layer"
     id="layer1"
     transform="translate(-383.24852,235.47395)">
    <g
       transform="matrix(5.6082564,0,0,5.6127999,-1547.7747,-4210.0756)"
       id="g13525">
      <g
         transform="matrix(1.25,0,0,-1.25,361.919,717.0405)"
         id="g6978">
        <path
           id="path6980"
           style="fill:#ffffff;fill-opacity:1;fill-rule:nonzero;stroke:none"
           d="m 0,0 c 0,-3.839 -3.11,-6.949 -6.948,-6.949 -3.838,0 -6.949,3.11 -6.949,6.949 0,3.839 3.111,6.948 6.949,6.948 C -3.11,6.948 0,3.839 0,0"
           inkscape:connector-curvature="0" />
      </g>
      <g
         transform="matrix(1.25,0,0,-1.25,353.04325,718.98987)"
         id="g6982">
        <path
           id="path6984"
           style="fill:#d21577;fill-opacity:1;fill-rule:nonzero;stroke:none"
           d="m 0,0 0.029,1.117 c 0,0 -0.247,-0.024 -0.383,-0.246 C -0.489,0.651 -0.444,0.396 -0.366,0.276 -0.286,0.157 -0.163,0.036 0,0"
           inkscape:connector-curvature="0" />
      </g>
      <g
         transform="matrix(1.25,0,0,-1.25,353.33863,717.59338)"
         id="g6986">
        <path
           id="path6988"
           style="fill:#d21577;fill-opacity:1;fill-rule:nonzero;stroke:none"
           d="m 0,0 0.01,-1.119 c 0,0 0.348,0.078 0.43,0.386 0.081,0.307 -0.072,0.554 -0.223,0.644 0,0 -0.144,0.086 -0.217,0.089"
           inkscape:connector-curvature="0" />
      </g>
      <g
         transform="matrix(1.25,0,0,-1.25,353.46925,716.6645)"
         id="g6990">
        <path
           id="path6992"
           style="fill:#d21577;fill-opacity:1;fill-rule:nonzero;stroke:none"
           d="m 0,0 0.779,-0.001 c 0,0 0.027,-0.001 0.006,-0.11 0,0 -0.079,-0.218 -0.123,-0.225 0,0 -0.216,0.194 -0.379,0.254 C 0.156,-0.034 0.104,-0.019 0,0"
           inkscape:connector-curvature="0" />
      </g>
      <g
         transform="matrix(1.25,0,0,-1.25,358.02375,716.8085)"
         id="g6994">
        <path
           id="path6996"
           style="fill:#0f298f;fill-opacity:1;fill-rule:nonzero;stroke:none"
           d="m 0,0 c 0,0 -0.369,-0.299 -0.691,0.046 0,0 -0.512,-0.157 -0.538,0.35 0,0 -0.41,0.083 -0.555,0.337 0,0 -0.024,0.082 0.067,0.045 0,0 0.13,-0.015 0.159,-0.007 0,0 0.22,0.023 0.533,0.237 0,0 0.287,0.191 0.555,0.007 0,0 0.373,0.21 0.54,-0.234 0,0 0.268,-0.19 0.161,-0.45 C 0.231,0.331 0.317,0.066 0,0 m -6.396,0.377 c 0,0 -0.206,-0.331 -0.436,-0.28 0,0 -0.098,0.046 -0.187,-0.016 0,0 -0.636,-0.208 -0.752,0.422 0,0 -0.267,0.119 -0.102,0.463 0,0 0.095,0.076 0.16,0.071 0,0 0.061,0.179 0.45,0.126 0,0 0.067,-0.025 0.143,-0.083 0,0 0.029,-0.008 0.044,0.023 0,0 0.474,0.097 0.629,-0.355 0,0 0.164,-0.269 0.051,-0.371 M 0.055,1.636 -1.04,1.619 c 0,0 -0.057,-0.39 -0.516,-0.399 0,0 -0.341,-0.02 -0.503,0.342 h -0.202 c 0,0 -0.11,-0.316 -0.467,-0.342 -0.356,-0.028 -0.503,0.264 -0.544,0.356 L -3.414,1.578 V 1.318 H -4.343 L -4.347,1.576 -4.591,1.572 c 0,0 -0.099,-0.356 -0.499,-0.356 -0.364,0 -0.49,0.304 -0.507,0.37 L -5.733,1.582 c 0,0 -0.103,-0.382 -0.534,-0.362 -0.403,0.016 -0.475,0.329 -0.493,0.399 l -0.995,0.032 c 0,0 -0.757,-1.368 -0.24,-3.107 0.314,-1.058 1.43,-2.635 3.316,-2.969 0.976,-0.173 3.329,-0.207 4.646,2.243 0.998,1.854 0.2,3.594 0.088,3.818"
           inkscape:connector-curvature="0" />
      </g>
      <g
         transform="matrix(1.25,0,0,-1.25,354.46537,713.65913)"
         id="g6998">
        <path
           id="path7000"
           style="fill:#0f298f;fill-opacity:1;fill-rule:nonzero;stroke:none"
           d="m 0,0 -0.318,0.304 -0.41,-0.253 0.406,0.858 0.235,-0.306 0.604,0.409 z m -1.738,0.278 c 0,0 -0.1,-0.052 -0.345,-0.312 l -0.583,0.961 c 0,0 0.232,-0.036 0.583,-0.348 l 0.263,0.298 0.467,-0.8 z M 1.694,0.651 C 0.892,1.311 -0.043,1.485 -0.043,1.485 -0.061,1.443 -0.17,1.446 -0.17,1.446 -0.248,1.368 -0.392,1.393 -0.392,1.393 -0.562,1.205 -0.745,1.311 -0.745,1.311 -0.947,1.193 -0.941,0.9 -0.941,0.9 l -0.488,0.073 c -0.281,0.043 -0.04,0.112 -0.04,0.112 0.157,0.066 0.183,0.301 0.034,0.347 C -1.681,1.509 -1.677,1.529 -1.677,1.529 -2.833,1.373 -3.531,0.758 -3.706,0.639 -4.322,0.213 -4.807,-0.689 -4.807,-0.689 l 0.9,0.028 c 0.123,0.431 0.491,0.415 0.491,0.415 0.509,-0.021 0.533,-0.439 0.533,-0.439 l 0.129,0.001 c 0.084,0.478 0.509,0.427 0.509,0.427 0.49,-0.005 0.516,-0.418 0.516,-0.418 h 0.257 c 0.136,0.236 0.337,0.291 0.371,0.302 l -0.007,0.213 -0.5,0.001 0.003,0.131 h 0.511 l -0.002,0.447 c 0,0.019 0.027,0.035 0.027,0.035 h 0.128 c 0.029,-0.029 0.016,-0.032 0.016,-0.032 l 0.003,-0.456 0.453,0.006 v -0.127 l -0.456,-0.003 v -0.21 c 0.276,-0.071 0.35,-0.337 0.35,-0.337 h 0.146 c -0.003,0.013 0.048,0.448 0.503,0.448 0.497,0 0.542,-0.453 0.542,-0.453 l 0.162,-0.01 c 0,0.028 0.069,0.469 0.523,0.463 0.461,-0.004 0.518,-0.438 0.518,-0.438 L 2.827,-0.716 H 2.833 C 2.372,0.14 1.694,0.651 1.694,0.651"
           inkscape:connector-curvature="0" />
      </g>
      <g
         transform="matrix(1.25,0,0,-1.25,360.31013,714.7895)"
         id="g7002">
        <path
           id="path7004"
           style="fill:#231815;fill-opacity:1;fill-rule:nonzero;stroke:none"
           d="m 0,0 -0.989,-0.021 0.054,-0.127 0.135,0.032 c 0,0 0.055,-0.1 0.07,-0.163 l -0.151,-0.046 c 0,0 0.214,-0.73 0.202,-1.184 l 0.177,-0.001 0.009,-0.195 h -0.18 c 0,0 0.028,-0.772 -0.116,-1.206 l 0.18,-0.065 -0.051,-0.184 -0.169,0.048 c 0,0 -0.097,-0.567 -0.459,-1.103 L -1.12,-4.337 -1.217,-4.5 -1.374,-4.412 c 0,0 -0.472,-0.684 -0.68,-0.898 l 0.121,-0.145 -0.113,-0.122 -0.159,0.14 c 0,0 -0.393,-0.417 -0.903,-0.714 l 0.104,-0.168 -0.168,-0.104 -0.099,0.168 c 0,0 -0.765,-0.361 -1.037,-0.425 l 0.051,-0.178 -0.179,-0.047 -0.063,0.186 c 0,0 -0.731,-0.179 -1.096,-0.134 l -0.006,-0.23 -0.185,0.005 v 0.22 c 0,0 -0.812,0.029 -1.107,0.144 l -0.052,-0.18 -0.186,0.065 0.045,0.149 c 0,0 -0.851,0.297 -1.049,0.482 l -0.108,-0.18 -0.17,0.092 0.081,0.153 c 0,0 -0.684,0.527 -0.869,0.719 l -0.139,-0.128 -0.135,0.128 0.129,0.139 c 0,0 -0.481,0.537 -0.655,0.915 l -0.18,-0.104 -0.109,0.151 0.172,0.098 c 0,0 -0.359,0.747 -0.427,1.084 l -0.175,-0.034 -0.045,0.18 0.167,0.057 c 0,0 -0.156,0.747 -0.122,1.189 l -0.18,-0.005 -0.005,0.19 0.185,0.012 c 0,0 0.082,0.852 0.175,1.083 l -0.193,0.069 0.059,0.175 0.18,-0.046 c 0,0 0.039,0.207 0.081,0.254 l -0.98,0.042 c 0,0 -0.15,0 -0.063,0.144 0,0 0.046,0.053 0.109,0.057 l 1.044,0.03 c 0,0 0.174,0.405 0.255,0.51 l -0.15,0.111 0.103,0.15 0.151,-0.087 c 0,0 0.371,0.614 0.811,0.957 l -0.12,0.133 0.134,0.134 0.132,-0.123 c 0,0 0.695,0.522 1.05,0.678 l -0.065,0.163 0.151,0.087 0.104,-0.158 c 0,0 0.58,0.25 0.726,0.24 0,0 0.081,-0.047 0.061,-0.105 0,0 -0.681,-0.204 -0.735,-0.268 L -7.538,2.37 c 0,0 0.741,0.296 0.991,0.284 0,0 0.026,-0.171 0.144,-0.147 0,0 -0.072,-0.094 0.131,-0.134 0.064,-0.021 0.127,-0.025 0.164,-0.06 0,0 0.26,-0.183 -0.168,-0.371 -0.036,-0.013 0.051,-0.074 0.29,-0.099 l 0.38,-0.057 c 0,0 0.005,0.3 0.191,0.416 0,0 0.209,-0.122 0.359,0.082 0,0 0.14,-0.023 0.209,0.058 0,0 0.136,-0.025 0.231,0.156 0,0 0.065,-0.019 0.133,0.053 0,0 0.254,-0.036 0.58,-0.193 l 0.157,0.325 c 0,0 -0.139,0.124 -0.447,0.185 0,0 0.076,0.082 0.13,0.082 0,0 0.351,-0.111 0.364,-0.139 l 0.078,0.146 0.163,-0.07 -0.058,-0.146 c 0,0 0.833,-0.427 1.068,-0.702 l 0.13,0.128 0.12,-0.135 -0.103,-0.125 c 0,0 0.556,-0.536 0.725,-0.835 l 0.153,0.092 0.1,-0.162 -0.127,-0.093 c 0,0 0.207,-0.333 0.325,-0.643 l 1.072,-0.03 c 0,0 0.136,0.007 0.151,-0.12 C 0.098,0.116 0.091,0.011 0,0 m 0.721,-3.218 c 0.076,0.324 0.174,0.971 0.161,1.36 l -0.33,0.02 -0.013,0.441 0.338,0.01 c 0,0 -0.114,1.109 -0.221,1.321 L 0.322,-0.147 0.187,0.287 0.503,0.403 c 0,0 -0.408,1.104 -0.585,1.214 l -0.272,-0.165 -0.213,0.324 0.263,0.203 c 0.002,-0.021 -0.655,0.893 -0.833,0.969 l -0.26,-0.241 -0.324,0.297 0.226,0.254 c 0,0 -0.921,0.737 -1.281,0.842 l -0.15,-0.32 -0.375,0.179 0.122,0.317 c 0,0 -0.989,0.371 -1.352,0.39 L -4.624,4.34 -4.983,4.424 -4.924,4.729 c 0,0 -1.104,0.114 -1.394,0.006 L -6.322,4.399 -6.686,4.372 -6.732,4.675 c 0,0 -0.894,-0.092 -1.511,-0.432 l 0.131,-0.25 -0.362,-0.194 -0.14,0.274 c 0,0 -0.826,-0.398 -1.268,-0.819 l 0.2,-0.222 -0.272,-0.247 -0.22,0.21 c 0,0 -0.918,-0.927 -0.95,-1.128 l 0.243,-0.169 -0.206,-0.322 -0.261,0.146 c 0,0 -0.506,-0.927 -0.548,-1.2 l 0.296,-0.127 -0.112,-0.342 -0.305,0.076 c 0,0 -0.226,-1.007 -0.208,-1.282 l 0.316,-0.026 -0.01,-0.365 -0.318,-0.017 c 0,0 -0.014,-0.976 0.139,-1.415 l 0.33,0.066 0.081,-0.37 -0.31,-0.094 c 0,0 0.193,-0.709 0.511,-1.27 l 0.29,0.144 0.189,-0.312 -0.289,-0.175 c 0,0 0.632,-0.983 0.84,-1.099 l 0.224,0.213 0.286,-0.297 -0.205,-0.221 c 0,0 0.848,-0.757 1.015,-0.771 l 0.149,0.25 0.287,-0.189 -0.141,-0.237 c 0,0 0.887,-0.483 1.285,-0.536 l 0.081,0.281 0.368,-0.114 -0.065,-0.271 c 0,0 1.181,-0.266 1.291,-0.167 l 0.006,0.276 0.445,0.006 10e-4,-0.282 c 0,0 1.188,0.052 1.264,0.175 l -0.076,0.248 0.429,0.129 0.085,-0.252 c 0,0 0.943,0.263 1.123,0.468 l -0.129,0.227 0.289,0.178 0.147,-0.23 c 0,0 0.865,0.497 1.107,0.824 l -0.184,0.222 0.244,0.245 0.211,-0.196 c 0,0 0.818,0.934 0.818,1.066 l -0.255,0.187 0.178,0.325 0.288,-0.149 c 0,0 0.459,0.904 0.504,1.225 l -0.317,0.117 0.102,0.394 z"
           inkscape:connector-curvature="0" />
      </g>
      <g
         transform="matrix(1.25,0,0,-1.25,355.40037,716.99525)"
         id="g7006">
        <path
           id="path7008"
           style="fill:#231815;fill-opacity:1;fill-rule:nonzero;stroke:none"
           d="m 0,0 h -0.631 c -0.092,0.07 0.019,0.097 0.019,0.097 L 0.002,0.099 C 0.065,0.025 0,0 0,0 m -0.606,0.356 h 0.457 c 0.128,-0.055 0.038,-0.113 0.038,-0.113 h -0.493 c -0.092,0.049 -0.002,0.113 -0.002,0.113 m -0.57,-0.907 c 0,0 -0.189,0.004 -0.18,0.204 0,0 0.011,0.078 0.087,0.122 0,0 0.196,0.111 0.258,-0.148 0,0 -0.005,-0.161 -0.165,-0.178 m -0.139,-1.387 c 0,0 -0.191,0.004 -0.18,0.203 0,0 0.011,0.076 0.085,0.122 0,0 0.222,0.099 0.26,-0.151 0,0 -0.014,-0.169 -0.165,-0.174 m -1.07,1.415 c 0,0 -0.178,-0.024 -0.194,0.181 0,0 -0.007,0.113 0.133,0.163 0,0 0.159,0.024 0.209,-0.138 0,0 0.002,-0.19 -0.148,-0.206 m 0.114,-1.099 c 0,0 0.157,0.022 0.208,-0.139 0,0 0.02,-0.167 -0.146,-0.208 0,0 -0.18,-0.021 -0.196,0.184 0,0 -0.007,0.113 0.134,0.163 m -0.265,0.037 c 0,0 -0.182,-0.021 -0.197,0.182 0,0 -0.008,0.114 0.133,0.164 0,0 0.158,0.023 0.21,-0.138 0,0 0.001,-0.19 -0.146,-0.208 m -0.328,0.741 c 0,0 -0.007,0.113 0.134,0.164 0,0 0.157,0.023 0.209,-0.138 0,0 0.002,-0.19 -0.147,-0.206 0,0 -0.181,-0.024 -0.196,0.18 m -0.108,0.828 -0.597,0.001 c 0,0 -0.041,0.067 0.014,0.099 h 0.594 c 0,0 0.062,-0.043 -0.011,-0.1 M -3.428,0.33 h 0.432 c 0,0 0.091,-0.046 0.025,-0.101 l -0.5,0.003 c 0,0 -0.05,0.057 0.043,0.098 m 3.035,0.405 c 0,0 -0.54,0.474 -1.415,0.464 0,0 -0.75,0.072 -1.511,-0.551 0,0 -0.404,-0.314 -0.41,-0.482 0,0 -0.114,-0.353 0.157,-0.607 l 0.85,0.328 c 0,0 -0.123,0.288 -0.09,0.381 h 0.808 c 0,0 -1.004,-0.243 -1.023,-1.223 -0.006,-0.391 0.205,-1.133 1.123,-1.268 l 0.023,0.634 c 0,0 -0.522,0.136 -0.439,0.668 0,0 0.049,0.384 0.465,0.435 0,0 0.245,0.038 0.422,-0.078 0,0 0.377,-0.222 0.204,-0.701 0,0 -0.125,-0.288 -0.417,-0.333 l 0.013,-0.621 c 0,0 1.059,0.048 1.135,1.23 0,0 0.036,0.482 -0.352,0.897 l 0.884,-0.41 c 0,0 0.28,0.336 0.124,0.659 0,0 -0.263,0.403 -0.551,0.578"
           inkscape:connector-curvature="0" />
      </g>
      <g
         transform="matrix(1.25,0,0,-1.25,356.388,714.46963)"
         id="g7010">
        <path
           id="path7012"
           style="fill:#231815;fill-opacity:1;fill-rule:nonzero;stroke:none"
           d="m 0,0 c 0,0 0.011,-0.117 0.001,-0.137 -0.008,-0.016 -0.041,-0.021 -0.019,-0.062 0,0 0.025,-0.014 0.052,0.028 0,0 0.021,0.127 0.002,0.173 C 0.036,0.002 0.001,0.019 0,0"
           inkscape:connector-curvature="0" />
      </g>
      <g
         transform="matrix(1.25,0,0,-1.25,356.45625,714.43063)"
         id="g7014">
        <path
           id="path7016"
           style="fill:#231815;fill-opacity:1;fill-rule:nonzero;stroke:none"
           d="m 0,0 c 0.026,-0.06 0.008,-0.091 0.014,-0.128 0,0 -0.008,-0.153 -0.074,-0.181 0,0 -0.021,-0.049 0.041,-0.029 0,0 0.086,0.055 0.076,0.223 0,0 0.005,0.153 -0.034,0.153 C -0.014,0.038 0,0 0,0"
           inkscape:connector-curvature="0" />
      </g>
      <g
         transform="matrix(1.25,0,0,-1.25,356.554,714.339)"
         id="g7018">
        <path
           id="path7020"
           style="fill:#231815;fill-opacity:1;fill-rule:nonzero;stroke:none"
           d="m 0,0 c 0,0 0.07,-0.124 0.046,-0.346 0,0 -0.027,-0.178 -0.135,-0.156 0,0 -0.024,0.027 0.023,0.052 0,0 0.124,0.092 0.069,0.308 0,0 -0.037,0.121 -0.03,0.14 0,0 0.016,0.006 0.027,0.002"
           inkscape:connector-curvature="0" />
      </g>
      <g
         transform="matrix(1.25,0,0,-1.25,355.72025,714.45375)"
         id="g7022">
        <path
           id="path7024"
           style="fill:#231815;fill-opacity:1;fill-rule:nonzero;stroke:none"
           d="m 0,0 c 0,0 0.053,0.03 0.033,-0.031 0,0 -0.038,-0.143 0.002,-0.194 0,0 0.021,-0.064 -0.033,-0.04 0,0 -0.06,0.126 -0.002,0.265"
           inkscape:connector-curvature="0" />
      </g>
      <g
         transform="matrix(1.25,0,0,-1.25,355.66287,714.405)"
         id="g7026">
        <path
           id="path7028"
           style="fill:#231815;fill-opacity:1;fill-rule:nonzero;stroke:none"
           d="m 0,0 c 0,0 0.01,0.041 0.035,0.004 0,0 0.014,-0.013 -0.016,-0.047 0,0 -0.04,-0.238 0.004,-0.304 0,0 0.023,-0.043 -0.009,-0.045 0,0 -0.023,-0.011 -0.042,0.063 0,0 -0.026,0.282 0.028,0.329"
           inkscape:connector-curvature="0" />
      </g>
      <g
         transform="matrix(1.25,0,0,-1.25,355.60788,714.33412)"
         id="g7030">
        <path
           id="path7032"
           style="fill:#231815;fill-opacity:1;fill-rule:nonzero;stroke:none"
           d="m 0,0 c 0,0 0.016,0.031 0.048,0.005 0,0 0.015,-0.029 -0.024,-0.038 0,0 -0.116,-0.262 0.032,-0.45 0,0 0.015,-0.045 -0.008,-0.047 0,0 -0.061,0 -0.103,0.172 0,0 -0.021,0.284 0.055,0.358"
           inkscape:connector-curvature="0" />
      </g>
      <g
         transform="matrix(1.25,0,0,-1.25,351.95925,714.48425)"
         id="g7034">
        <path
           id="path7036"
           style="fill:#231815;fill-opacity:1;fill-rule:nonzero;stroke:none"
           d="m 0,0 c 0,0 0.01,-0.108 0.002,-0.125 -0.007,-0.018 -0.04,-0.021 -0.02,-0.062 0,0 0.025,-0.017 0.053,0.027 0,0 0.029,0.073 0.002,0.173 C 0.037,0.013 0.002,0.021 0,0"
           inkscape:connector-curvature="0" />
      </g>
      <g
         transform="matrix(1.25,0,0,-1.25,352.0325,714.444)"
         id="g7038">
        <path
           id="path7040"
           style="fill:#231815;fill-opacity:1;fill-rule:nonzero;stroke:none"
           d="m 0,0 c 0.024,-0.068 0.014,-0.13 0.014,-0.142 0,0 -0.012,-0.127 -0.076,-0.155 0,0 -0.022,-0.049 0.041,-0.029 0,0 0.075,0.018 0.078,0.193 0,0 0,0.183 -0.031,0.188 C -0.022,0.062 0,0 0,0"
           inkscape:connector-curvature="0" />
      </g>
      <g
         transform="matrix(1.25,0,0,-1.25,352.1265,714.34025)"
         id="g7042">
        <path
           id="path7044"
           style="fill:#231815;fill-opacity:1;fill-rule:nonzero;stroke:none"
           d="m 0,0 c 0,0 0.069,-0.075 0.054,-0.332 0,0 -0.008,-0.066 -0.033,-0.1 -0.03,-0.047 -0.065,-0.083 -0.108,-0.072 0,0 -0.027,0.028 0.022,0.053 0,0 0.113,0.066 0.068,0.31 0,0 -0.024,0.075 -0.029,0.1 0,0 -0.025,0.061 0.026,0.041"
           inkscape:connector-curvature="0" />
      </g>
      <g
         transform="matrix(1.25,0,0,-1.25,351.27925,714.477)"
         id="g7046">
        <path
           id="path7048"
           style="fill:#231815;fill-opacity:1;fill-rule:nonzero;stroke:none"
           d="m 0,0 c 0,0 0.012,0.031 0.028,0.031 0.024,0 0.028,-0.008 0.017,-0.045 0,0 -0.043,-0.13 -0.004,-0.176 0,0 0.021,-0.03 0.013,-0.049 -0.021,-0.015 -0.026,-0.016 -0.049,0.016 0,0 -0.049,0.089 -0.005,0.223"
           inkscape:connector-curvature="0" />
      </g>
      <g
         transform="matrix(1.25,0,0,-1.25,351.23412,714.405)"
         id="g7050">
        <path
           id="path7052"
           style="fill:#231815;fill-opacity:1;fill-rule:nonzero;stroke:none"
           d="m 0,0 c 0,0 0.022,0.04 0.042,0.014 0,0 0.014,-0.027 -0.016,-0.061 0,0 -0.049,-0.166 -10e-4,-0.302 0,0 0.021,-0.043 -0.009,-0.043 0,0 -0.028,-0.011 -0.043,0.06 C -0.069,-0.116 0.009,0.007 0,0"
           inkscape:connector-curvature="0" />
      </g>
      <g
         transform="matrix(1.25,0,0,-1.25,351.18162,714.33537)"
         id="g7054">
        <path
           id="path7056"
           style="fill:#231815;fill-opacity:1;fill-rule:nonzero;stroke:none"
           d="m 0,0 c 0,0 0.015,0.029 0.045,0.004 0,0 0.019,-0.004 -0.034,-0.078 0,0 -0.093,-0.257 0.045,-0.408 0,0 0.028,-0.034 -0.009,-0.049 0,0 -0.06,0 -0.103,0.172 0,0 -0.021,0.285 0.056,0.359"
           inkscape:connector-curvature="0" />
      </g>
      <g
         transform="matrix(1.25,0,0,-1.25,350.52487,714.4855)"
         id="g7058">
        <path
           id="path7060"
           style="fill:#231815;fill-opacity:1;fill-rule:nonzero;stroke:none"
           d="m 0,0 c 0,0 0.011,-0.11 0.003,-0.129 -0.006,-0.017 -0.043,-0.009 -0.019,-0.063 0,0 0.023,-0.015 0.05,0.029 0,0 0.036,0.1 0.003,0.174 C 0.032,0.025 -0.006,0.021 0,0"
           inkscape:connector-curvature="0" />
      </g>
      <g
         transform="matrix(1.25,0,0,-1.25,350.6055,714.4635)"
         id="g7062">
        <path
           id="path7064"
           style="fill:#231815;fill-opacity:1;fill-rule:nonzero;stroke:none"
           d="m 0,0 c 0.012,-0.042 0.009,-0.076 0.009,-0.106 0,0 0,-0.143 -0.069,-0.173 -0.011,-0.006 -0.026,-0.057 0.036,-0.039 0,0 0.086,0.057 0.076,0.224 0,0 0.004,0.156 -0.033,0.159 C -0.028,0.071 0,0 0,0"
           inkscape:connector-curvature="0" />
      </g>
      <g
         transform="matrix(1.25,0,0,-1.25,350.741,714.4465)"
         id="g7066">
        <path
           id="path7068"
           style="fill:#231815;fill-opacity:1;fill-rule:nonzero;stroke:none"
           d="m 0,0 c 0,0 0.037,-0.161 0.008,-0.259 0,0 -0.016,-0.13 -0.102,-0.155 -0.035,-0.01 -0.058,0.025 -0.01,0.05 0,0 0.125,0.092 0.07,0.308 0,0 -0.051,0.121 -0.029,0.14 0,0 0.022,0.041 0.063,-0.084"
           inkscape:connector-curvature="0" />
      </g>
      <g
         transform="matrix(1.25,0,0,-1.25,349.86087,714.45862)"
         id="g7070">
        <path
           id="path7072"
           style="fill:#231815;fill-opacity:1;fill-rule:nonzero;stroke:none"
           d="m 0,0 c 0.01,0.018 0.053,0.034 0.036,-0.031 0,0 -0.038,-0.116 0,-0.194 C 0.051,-0.252 0.04,-0.281 0.006,-0.261 -0.016,-0.248 -0.051,-0.119 0,0"
           inkscape:connector-curvature="0" />
      </g>
      <g
         transform="matrix(1.25,0,0,-1.25,349.7815,714.444)"
         id="g7074">
        <path
           id="path7076"
           style="fill:#231815;fill-opacity:1;fill-rule:nonzero;stroke:none"
           d="m 0,0 c 0,0 0.021,0.079 0.056,0.049 0,0 0.018,-0.007 -0.022,-0.104 -0.015,-0.033 -0.025,-0.207 0.008,-0.264 0,0 0.025,-0.039 -0.008,-0.047 0,0 -0.025,-0.009 -0.042,0.049 0,0 -0.044,0.13 0.008,0.317"
           inkscape:connector-curvature="0" />
      </g>
      <g
         transform="matrix(1.25,0,0,-1.25,349.74362,714.339)"
         id="g7078">
        <path
           id="path7080"
           style="fill:#231815;fill-opacity:1;fill-rule:nonzero;stroke:none"
           d="m 0,0 c 0,0 0.025,0.039 0.055,0.011 0.009,-0.008 0.004,-0.027 -0.03,-0.056 0,0 -0.112,-0.252 0.038,-0.439 0,0 0.02,-0.057 -0.029,-0.04 0,0 -0.063,0.053 -0.083,0.166 0,0 -0.042,0.251 0.049,0.358"
           inkscape:connector-curvature="0" />
      </g>
      <g
         transform="matrix(1.25,0,0,-1.25,354.87425,714.52825)"
         id="g7082">
        <path
           id="path7084"
           style="fill:#231815;fill-opacity:1;fill-rule:nonzero;stroke:none"
           d="m 0,0 c 0,0 -0.023,0.068 0.031,0.047 0,0 0.03,-0.11 0,-0.175 0,0 -0.043,-0.045 -0.054,-0.008 -0.009,0.021 0.005,0.033 0.021,0.044 0,0 0.009,0.059 0.002,0.092"
           inkscape:connector-curvature="0" />
      </g>
      <g
         transform="matrix(1.25,0,0,-1.25,354.93525,714.43912)"
         id="g7086">
        <path
           id="path7088"
           style="fill:#231815;fill-opacity:1;fill-rule:nonzero;stroke:none"
           d="m 0,0 c 0,0 -0.008,0.071 0.04,0.045 0.017,-0.014 0.064,-0.329 -0.061,-0.376 -0.017,-0.008 -0.048,0.019 -0.015,0.04 0,0 0.076,0.051 0.054,0.243 z"
           inkscape:connector-curvature="0" />
      </g>
      <g
         transform="matrix(1.25,0,0,-1.25,355.00612,714.40737)"
         id="g7090">
        <path
           id="path7092"
           style="fill:#231815;fill-opacity:1;fill-rule:nonzero;stroke:none"
           d="m 0,0 c 0,0 -0.041,0.065 0.024,0.055 0,0 0.084,-0.109 0.044,-0.359 0,0 -0.038,-0.154 -0.116,-0.142 -0.014,0.003 -0.032,0.04 0.009,0.05 0,0 0.096,0.057 0.071,0.302 0,0 -0.026,0.087 -0.032,0.094"
           inkscape:connector-curvature="0" />
      </g>
      <g
         transform="matrix(1.25,0,0,-1.25,354.19062,714.48188)"
         id="g7094">
        <path
           id="path7096"
           style="fill:#231815;fill-opacity:1;fill-rule:nonzero;stroke:none"
           d="m 0,0 c 0,0 0.011,0.041 0.043,0.017 0,0 0.009,-0.022 -0.008,-0.054 0,0 -0.02,-0.08 0.004,-0.15 0,0 0.021,-0.059 -0.006,-0.063 0,0 -0.039,0.004 -0.047,0.081 0,0 -10e-4,0.144 0.014,0.169"
           inkscape:connector-curvature="0" />
      </g>
      <g
         transform="matrix(1.25,0,0,-1.25,354.14913,714.39275)"
         id="g7098">
        <path
           id="path7100"
           style="fill:#231815;fill-opacity:1;fill-rule:nonzero;stroke:none"
           d="m 0,0 c 0,0 0.01,0.022 0.033,0.009 0,0 0.017,-0.031 -0.014,-0.062 0,0 -0.044,-0.212 0.002,-0.309 0,0 0.014,-0.054 -0.024,-0.042 0,0 -0.054,-0.009 -0.026,0.307 0,0 0.012,0.087 0.029,0.097"
           inkscape:connector-curvature="0" />
      </g>
      <g
         transform="matrix(1.25,0,0,-1.25,354.08075,714.3415)"
         id="g7102">
        <path
           id="path7104"
           style="fill:#231815;fill-opacity:1;fill-rule:nonzero;stroke:none"
           d="m 0,0 c 0,0 0.02,0.034 0.055,0.013 0,0 0.015,-0.028 -0.027,-0.06 0,0 -0.078,-0.199 -0.019,-0.342 0,0 0.023,-0.053 0.057,-0.089 0,0 0.022,-0.042 -0.012,-0.042 0,0 -0.021,-0.004 -0.045,0.033 0,0 -0.101,0.119 -0.053,0.365 0,0 0.019,0.092 0.044,0.122"
           inkscape:connector-curvature="0" />
      </g>
      <g
         transform="matrix(1.25,0,0,-1.25,356.23175,715.19713)"
         id="g7106">
        <path
           id="path7108"
           style="fill:#231815;fill-opacity:1;fill-rule:nonzero;stroke:none"
           d="m 0,0 c 0,0 -0.457,-0.123 -0.589,0.377 0,0 -0.061,0.318 0.235,0.494 0,0 0.366,0.208 0.613,-0.128 C 0.518,0.391 0.197,0.025 0,0 m -1.198,0.006 c 0,0 -0.461,-0.137 -0.595,0.352 0,0 -0.107,0.343 0.212,0.516 0,0 0.414,0.182 0.636,-0.152 C -0.701,0.35 -1.028,0.029 -1.198,0.006 m -1.424,0.47 c 0,0 0.061,0.135 0.2,0.125 0,0 0.142,-0.01 0.172,-0.125 z m -0.905,-0.47 c 0,0 -0.456,-0.129 -0.595,0.348 0,0 -0.069,0.348 0.226,0.508 0,0 0.389,0.175 0.618,-0.136 0.262,-0.357 -0.085,-0.701 -0.249,-0.72 M -4.67,0.003 c 0,0 -0.476,-0.126 -0.602,0.363 0,0 -0.08,0.323 0.231,0.501 0,0 0.378,0.199 0.616,-0.137 C -4.188,0.397 -4.481,0.047 -4.67,0.003 M 3.228,0.497 0.41,0.543 C 0.321,1.002 -0.084,0.988 -0.084,0.988 -0.614,0.989 -0.641,0.533 -0.641,0.533 H -0.797 C -0.802,0.569 -0.857,0.981 -1.335,0.99 -1.831,1.002 -1.852,0.543 -1.852,0.543 h -0.143 c -0.073,0.263 -0.337,0.319 -0.337,0.319 v 0.201 h 0.456 l 0.004,0.144 h -0.457 l -0.008,0.445 c 0,0.025 -0.023,0.035 -0.023,0.035 H -2.475 C -2.512,1.69 -2.512,1.661 -2.512,1.661 L -2.509,1.207 H -3.021 V 1.063 l 0.496,0.003 0.004,-0.204 C -2.761,0.801 -2.892,0.559 -2.892,0.559 H -3.137 C -3.18,0.976 -3.62,0.988 -3.62,0.988 -4.136,1.021 -4.18,0.554 -4.18,0.554 H -4.281 C -4.288,0.575 -4.349,0.997 -4.809,0.988 -5.268,0.979 -5.329,0.587 -5.329,0.587 L -8.093,0.492 C -8.188,0.456 -8.119,0.414 -8.1,0.41 c 0.019,-0.004 1.12,-0.044 1.205,-0.044 0.327,0 1.566,-0.038 1.566,-0.038 0,0 0.072,-0.403 0.509,-0.401 0.436,0.001 0.521,0.364 0.521,0.364 l 0.138,0.005 c 0.011,-0.018 0.072,-0.364 0.512,-0.368 0.421,-0.001 0.492,0.356 0.492,0.356 l 0.24,0.003 0.006,-0.259 0.932,0.001 0.001,0.258 0.142,-0.003 c 0.026,-0.02 0.115,-0.374 0.521,-0.357 0.41,0.017 0.495,0.342 0.495,0.342 l 0.195,0.003 c 0.159,-0.36 0.496,-0.344 0.496,-0.344 0.45,0.008 0.528,0.398 0.528,0.398 L 3.256,0.374 C 3.31,0.379 3.32,0.424 3.32,0.424 3.329,0.48 3.228,0.497 3.228,0.497"
           inkscape:connector-curvature="0" />
      </g>
      <g
         transform="matrix(1.25,0,0,-1.25,358.43875,714.83587)"
         id="g7110">
        <path
           id="path7112"
           style="fill:#231815;fill-opacity:1;fill-rule:nonzero;stroke:none"
           d="m 0,0 0.387,0.008 c 0,0 0.063,-0.132 0.067,-0.159 l -0.35,-0.113 z"
           inkscape:connector-curvature="0" />
      </g>
      <g
         transform="matrix(1.25,0,0,-1.25,358.26662,714.45862)"
         id="g7114">
        <path
           id="path7116"
           style="fill:#231815;fill-opacity:1;fill-rule:nonzero;stroke:none"
           d="m 0,0 0.388,-0.005 c 0,0 -0.071,0.261 -0.307,0.593 L -0.229,0.397 C -0.11,0.215 0,0 0,0"
           inkscape:connector-curvature="0" />
      </g>
      <g
         transform="matrix(1.25,0,0,-1.25,357.03975,712.86075)"
         id="g7118">
        <path
           id="path7120"
           style="fill:#231815;fill-opacity:1;fill-rule:nonzero;stroke:none"
           d="m 0,0 c 0,0 0.374,-0.332 0.628,-0.729 l 0.325,0.202 c 0,0 -0.45,0.626 -0.705,0.798 z"
           inkscape:connector-curvature="0" />
      </g>
      <g
         transform="matrix(1.25,0,0,-1.25,355.67012,711.93425)"
         id="g7122">
        <path
           id="path7124"
           style="fill:#231815;fill-opacity:1;fill-rule:nonzero;stroke:none"
           d="m 0,0 c 0,0 0.608,-0.297 0.948,-0.625 l 0.243,0.278 c 0,0 -0.583,0.532 -1.037,0.686 z"
           inkscape:connector-curvature="0" />
      </g>
      <g
         transform="matrix(1.25,0,0,-1.25,350.45163,711.51437)"
         id="g7126">
        <path
           id="path7128"
           style="fill:#231815;fill-opacity:1;fill-rule:nonzero;stroke:none"
           d="m 0,0 0.166,-0.322 c 0,0 -0.877,-0.541 -0.91,-0.615 l -0.262,0.28 c 0,0 0.716,0.557 1.006,0.657"
           inkscape:connector-curvature="0" />
      </g>
      <g
         transform="matrix(1.25,0,0,-1.25,349.00025,712.51525)"
         id="g7130">
        <path
           id="path7132"
           style="fill:#231815;fill-opacity:1;fill-rule:nonzero;stroke:none"
           d="m 0,0 0.256,-0.264 c 0,0 -0.656,-0.679 -0.729,-0.876 l -0.316,0.193 c 0,0 0.383,0.623 0.789,0.947"
           inkscape:connector-curvature="0" />
      </g>
      <g
         transform="matrix(1.25,0,0,-1.25,347.88938,713.92038)"
         id="g7134">
        <path
           id="path7136"
           style="fill:#231815;fill-opacity:1;fill-rule:nonzero;stroke:none"
           d="m 0,0 c 0,0 -0.219,-0.378 -0.221,-0.429 l 0.409,0.011 c 0,0 0.113,0.222 0.12,0.226 z"
           inkscape:connector-curvature="0" />
      </g>
      <g
         transform="matrix(1.25,0,0,-1.25,347.478,714.80287)"
         id="g7138">
        <path
           id="path7140"
           style="fill:#231815;fill-opacity:1;fill-rule:nonzero;stroke:none"
           d="m 0,0 0.375,-0.018 c 0,0 -0.139,-0.336 -0.144,-0.357 l -0.335,0.089 c 0,0 0.076,0.268 0.104,0.286"
           inkscape:connector-curvature="0" />
      </g>
      <g
         transform="matrix(1.25,0,0,-1.25,347.2815,715.39125)"
         id="g7142">
        <path
           id="path7144"
           style="fill:#231815;fill-opacity:1;fill-rule:nonzero;stroke:none"
           d="m 0,0 0.354,-0.106 c 0,0 -0.181,-0.656 -0.168,-0.961 l -0.357,-0.005 c 0,0 0.04,0.803 0.171,1.072"
           inkscape:connector-curvature="0" />
      </g>
      <g
         transform="matrix(1.25,0,0,-1.25,347.0495,716.98913)"
         id="g7146">
        <path
           id="path7148"
           style="fill:#231815;fill-opacity:1;fill-rule:nonzero;stroke:none"
           d="m 0,0 0.367,-0.005 c 0,0 0.045,-0.849 0.102,-1.034 L 0.14,-1.143 c 0,0 -0.158,0.594 -0.14,1.143"
           inkscape:connector-curvature="0" />
      </g>
      <g
         transform="matrix(1.25,0,0,-1.25,347.2815,718.66038)"
         id="g7150">
        <path
           id="path7152"
           style="fill:#231815;fill-opacity:1;fill-rule:nonzero;stroke:none"
           d="m 0,0 0.334,0.104 c 0,0 0.245,-0.788 0.404,-0.981 L 0.424,-1.061 c 0,0 -0.431,0.883 -0.424,1.061"
           inkscape:connector-curvature="0" />
      </g>
      <g
         transform="matrix(1.25,0,0,-1.25,347.93088,720.196)"
         id="g7154">
        <path
           id="path7156"
           style="fill:#231815;fill-opacity:1;fill-rule:nonzero;stroke:none"
           d="m 0,0 0.306,0.172 c 0,0 0.478,-0.651 0.613,-0.783 l -0.253,-0.26 c 0,0 -0.604,0.69 -0.666,0.871"
           inkscape:connector-curvature="0" />
      </g>
      <g
         transform="matrix(1.25,0,0,-1.25,349.265,721.11275)"
         id="g7158">
        <path
           id="path7160"
           style="fill:#231815;fill-opacity:1;fill-rule:nonzero;stroke:none"
           d="M 0,0 C 0,0 0.451,-0.508 0.767,-0.623 L 0.583,-0.949 c 0,0 -0.748,0.477 -0.847,0.675 z"
           inkscape:connector-curvature="0" />
      </g>
      <g
         transform="matrix(1.25,0,0,-1.25,350.44675,722.03062)"
         id="g7162">
        <path
           id="path7164"
           style="fill:#231815;fill-opacity:1;fill-rule:nonzero;stroke:none"
           d="m 0,0 -0.19,-0.323 c 0,0 0.8,-0.463 1.044,-0.442 l 0.107,0.347 C 0.961,-0.418 0.199,-0.15 0,0"
           inkscape:connector-curvature="0" />
      </g>
      <g
         transform="matrix(1.25,0,0,-1.25,351.89087,722.60812)"
         id="g7166">
        <path
           id="path7168"
           style="fill:#231815;fill-opacity:1;fill-rule:nonzero;stroke:none"
           d="m 0,0 -0.107,-0.35 c 0,0 0.603,-0.178 1.07,-0.157 V -0.14 C 0.963,-0.14 0.16,-0.098 0,0"
           inkscape:connector-curvature="0" />
      </g>
      <g
         transform="matrix(1.25,0,0,-1.25,353.33375,722.76675)"
         id="g7170">
        <path
           id="path7172"
           style="fill:#231815;fill-opacity:1;fill-rule:nonzero;stroke:none"
           d="m 0,0 0.004,-0.374 c 0,0 0.843,0.01 1.066,0.16 L 0.973,0.13 C 0.973,0.13 0.289,-0.013 0,0"
           inkscape:connector-curvature="0" />
      </g>
      <g
         transform="matrix(1.25,0,0,-1.25,354.79,722.53725)"
         id="g7174">
        <path
           id="path7176"
           style="fill:#231815;fill-opacity:1;fill-rule:nonzero;stroke:none"
           d="m 0,0 0.107,-0.351 c 0,0 0.619,0.136 0.982,0.416 L 0.922,0.371 C 0.922,0.371 0.328,0.045 0,0"
           inkscape:connector-curvature="0" />
      </g>
      <g
         transform="matrix(1.25,0,0,-1.25,356.14,721.94163)"
         id="g7178">
        <path
           id="path7180"
           style="fill:#231815;fill-opacity:1;fill-rule:nonzero;stroke:none"
           d="m 0,0 0.204,-0.325 c 0,0 0.525,0.288 0.866,0.674 L 0.792,0.617 C 0.792,0.617 0.349,0.162 0,0"
           inkscape:connector-curvature="0" />
      </g>
      <g
         transform="matrix(1.25,0,0,-1.25,358.07612,719.99088)"
         id="g7182">
        <path
           id="path7184"
           style="fill:#231815;fill-opacity:1;fill-rule:nonzero;stroke:none"
           d="m 0,0 0.321,-0.188 c 0,0 -0.481,-0.77 -0.667,-0.876 l -0.263,0.258 c 0,0 0.42,0.426 0.609,0.806"
           inkscape:connector-curvature="0" />
      </g>
      <g
         transform="matrix(1.25,0,0,-1.25,358.69625,718.50038)"
         id="g7186">
        <path
           id="path7188"
           style="fill:#231815;fill-opacity:1;fill-rule:nonzero;stroke:none"
           d="m 0,0 c 0,0 -0.104,-0.553 -0.398,-1.004 l 0.306,-0.195 c 0,0 0.32,0.418 0.437,1.096 z"
           inkscape:connector-curvature="0" />
      </g>
      <g
         transform="matrix(1.25,0,0,-1.25,358.87937,716.93175)"
         id="g7190">
        <path
           id="path7192"
           style="fill:#231815;fill-opacity:1;fill-rule:nonzero;stroke:none"
           d="M 0,0 C 0,0 0.061,-0.534 -0.096,-1.032 L 0.26,-1.148 c 0,0 0.136,0.431 0.113,1.144 z"
           inkscape:connector-curvature="0" />
      </g>
      <g
         transform="matrix(1.25,0,0,-1.25,358.63775,715.40225)"
         id="g7194">
        <path
           id="path7196"
           style="fill:#231815;fill-opacity:1;fill-rule:nonzero;stroke:none"
           d="m 0,0 c 0,0 0.183,-0.522 0.193,-1.026 l 0.359,0.007 c 0,0 0.008,0.509 -0.198,1.135 z"
           inkscape:connector-curvature="0" />
      </g>
      <g
         transform="matrix(1.25,0,0,-1.25,358.9295,714.83338)"
         id="g7198">
        <path
           id="path7200"
           style="fill:#231815;fill-opacity:1;fill-rule:nonzero;stroke:none"
           d="m 0,0 c 0,0 0.053,-0.116 0.062,-0.153 l -0.351,-0.113 -0.104,0.264 0.387,0.008"
           inkscape:connector-curvature="0" />
      </g>
      <g
         transform="matrix(1.25,0,0,-1.25,355.40037,716.99525)"
         id="g7202">
        <path
           id="path7204"
           style="fill:#ffffff;fill-opacity:1;fill-rule:nonzero;stroke:none"
           d="m 0,0 h -0.631 c -0.092,0.07 0.019,0.097 0.019,0.097 L 0.002,0.099 C 0.065,0.025 0,0 0,0 m -0.606,0.356 h 0.457 c 0.128,-0.055 0.038,-0.113 0.038,-0.113 h -0.493 c -0.092,0.049 -0.002,0.113 -0.002,0.113 m -0.57,-0.907 c 0,0 -0.189,0.004 -0.18,0.204 0,0 0.011,0.078 0.087,0.122 0,0 0.196,0.111 0.258,-0.148 0,0 -0.005,-0.161 -0.165,-0.178 m -0.139,-1.387 c 0,0 -0.191,0.004 -0.18,0.203 0,0 0.011,0.076 0.085,0.122 0,0 0.197,0.11 0.26,-0.151 0,0 -0.007,-0.157 -0.165,-0.174 m -1.07,1.415 c 0,0 -0.178,-0.024 -0.194,0.181 0,0 -0.007,0.113 0.133,0.163 0,0 0.159,0.024 0.209,-0.138 0,0 0.002,-0.19 -0.148,-0.206 m 0.114,-1.099 c 0,0 0.157,0.022 0.208,-0.139 0,0 0.002,-0.189 -0.146,-0.208 0,0 -0.18,-0.021 -0.196,0.184 0,0 -0.007,0.113 0.134,0.163 m -0.265,0.037 c 0,0 -0.182,-0.021 -0.197,0.182 0,0 -0.008,0.114 0.133,0.164 0,0 0.158,0.023 0.21,-0.138 0,0 0.001,-0.19 -0.146,-0.208 m -0.328,0.741 c 0,0 -0.007,0.113 0.134,0.164 0,0 0.157,0.023 0.209,-0.138 0,0 0.002,-0.19 -0.147,-0.206 0,0 -0.181,-0.024 -0.196,0.18 m -0.108,0.828 -0.597,0.001 c 0,0 -0.041,0.067 0.014,0.099 h 0.594 c 0,0 0.062,-0.043 -0.011,-0.1 M -3.428,0.33 h 0.432 c 0,0 0.091,-0.046 0.025,-0.101 l -0.5,0.003 c 0,0 -0.05,0.057 0.043,0.098"
           inkscape:connector-curvature="0" />
      </g>
      <g
         transform="matrix(1.25,0,0,-1.25,353.04325,718.98987)"
         id="g7206">
        <path
           id="path7208"
           style="fill:#d71718;fill-opacity:1;fill-rule:nonzero;stroke:none"
           d="m 0,0 0.039,1.116 c 0,0 -0.282,-0.011 -0.407,-0.24 -0.126,-0.227 -0.1,-0.432 0.002,-0.6 C -0.291,0.153 -0.163,0.036 0,0"
           inkscape:connector-curvature="0" />
      </g>
      <g
         transform="matrix(1.25,0,0,-1.25,353.33863,717.59338)"
         id="g7210">
        <path
           id="path7212"
           style="fill:#d71718;fill-opacity:1;fill-rule:nonzero;stroke:none"
           d="m 0,0 0.01,-1.119 c 0,0 0.308,0.014 0.43,0.386 0.104,0.324 -0.059,0.57 -0.211,0.659 0,0 -0.13,0.078 -0.229,0.074"
           inkscape:connector-curvature="0" />
      </g>
      <g
         transform="matrix(1.25,0,0,-1.25,353.46925,716.6645)"
         id="g7214">
        <path
           id="path7216"
           style="fill:#ff0000;fill-opacity:1;fill-rule:nonzero;stroke:none"
           d="m 0,0 0.779,-0.001 c 0,0 0.027,-0.001 0.006,-0.11 0,0 -0.079,-0.218 -0.123,-0.225 0,0 -0.216,0.194 -0.379,0.254 C 0.156,-0.034 0.104,-0.019 0,0"
           inkscape:connector-curvature="0" />
      </g>
      <g
         transform="matrix(1.25,0,0,-1.25,354.342,717.14662)"
         id="g7218">
        <path
           id="path7220"
           style="fill:#ff0000;fill-opacity:1;fill-rule:nonzero;stroke:none"
           d="m 0,0 c 0.354,-0.352 0.345,-0.837 0.345,-0.837 0,-0.513 -0.279,-0.807 -0.279,-0.807 -0.408,-0.466 -0.854,-0.452 -0.854,-0.452 -0.011,-0.047 0.01,-0.691 0.01,-0.691 0.089,-0.51 0.629,-0.414 0.629,-0.414 0.44,0.106 0.703,0.702 0.703,0.702 L 0.429,-2.406 0.853,-2 0.938,-2.607 0.758,-2.555 C 0.581,-3.033 0.137,-3.391 0.137,-3.391 c -0.245,-0.218 -0.624,-0.321 -0.624,-0.321 -0.23,-0.018 -0.438,-0.152 -0.438,-0.152 -0.062,0.084 -0.329,0.113 -0.329,0.113 -0.36,0.077 -0.728,0.341 -0.728,0.341 -0.403,0.271 -0.692,0.857 -0.692,0.857 l -0.131,-0.026 0.065,0.604 0.447,-0.422 -0.21,-0.083 c 0.223,-0.495 0.78,-0.705 0.78,-0.705 0.555,-0.153 0.63,0.399 0.641,0.436 0.008,0.039 0.022,0.647 0.022,0.647 -0.622,0.089 -0.89,0.541 -0.89,0.541 -0.124,0.168 -0.224,0.417 -0.221,0.74 0.006,0.512 0.36,0.842 0.36,0.842 0.249,0.245 0.68,0.371 0.68,0.371 L -1.975,0.396 C -2.011,0.324 -1.878,0.007 -1.878,0.007 l -0.845,-0.319 c -0.05,0.02 -0.125,0.167 -0.125,0.167 -0.132,0.363 0.039,0.581 0.039,0.581 0.033,0.051 0.336,0.335 0.336,0.335 0.257,0.208 0.701,0.404 0.701,0.404 0.164,0.075 0.666,0.192 1.135,0.121 C -0.166,1.224 0.102,1.062 0.232,0.999 0.359,0.933 0.746,0.681 0.993,0.29 1.175,-0.005 0.883,-0.369 0.883,-0.369 l -0.878,0.4 C 0.007,0.009 0,0 0,0 M 1.329,0.396 C 0.713,1.368 -0.605,1.49 -0.605,1.49 -1.68,1.627 -2.509,0.953 -2.509,0.953 -3.475,0.218 -3.59,-0.862 -3.59,-0.862 c -0.252,-1.523 0.931,-2.452 0.931,-2.452 0.795,-0.748 1.9,-0.662 1.9,-0.662 1.171,-0.051 2.022,1.004 2.022,1.004 0.149,0.091 0.586,0.947 0.591,1.362 0.009,0.727 0.092,1.033 -0.525,2.006"
           inkscape:connector-curvature="0" />
      </g>
      <g
         transform="matrix(1.25,0,0,-1.25,361.45025,719.40125)"
         id="g7222">
        <path
           id="path7224"
           style="fill:#ff0000;fill-opacity:1;fill-rule:nonzero;stroke:none"
           d="m 0,0 c -0.096,-0.356 -0.615,-1.914 -1.772,-2.993 -0.853,-0.797 -2.043,-1.579 -3.559,-1.856 -0.981,-0.179 -2.729,-0.27 -4.592,0.77 -1.449,0.809 -2.449,2.1 -2.948,3.277 -0.184,0.429 -0.777,2.075 -0.455,3.834 0.319,1.758 1.315,3.083 1.624,3.385 0.266,0.262 1.206,1.369 2.968,1.959 0.624,0.209 1.477,0.372 2.157,0.372 0,0 1.612,-0.039 2.686,-0.572 C -2.819,7.644 -1.914,7.147 -0.949,5.767 -0.406,4.99 0.013,4.059 0.181,2.975 0.348,1.888 0.328,1.202 0,0 M 0.551,2.209 C 0.515,2.782 0.416,3.36 0.367,3.549 0.239,4.034 -0.002,4.66 -0.002,4.66 -0.262,5.324 -0.777,6.048 -0.777,6.048 -1.158,6.614 -1.91,7.285 -1.91,7.285 -2.231,7.589 -3.065,8.102 -3.065,8.102 -3.21,8.228 -4.091,8.58 -4.091,8.58 -4.253,8.669 -5.085,8.861 -5.085,8.861 -6.707,9.236 -8.276,8.811 -8.276,8.811 -9.502,8.475 -9.878,8.201 -10.17,8.049 c -0.684,-0.356 -1.548,-1.212 -1.759,-1.446 -0.786,-0.861 -1.243,-2.009 -1.265,-2.062 -0.331,-0.839 -0.451,-1.726 -0.451,-1.726 0.002,-0.048 -0.089,-0.572 -0.052,-1.185 0.052,-0.828 0.123,-1.092 0.162,-1.306 0.133,-0.706 0.536,-1.536 0.536,-1.536 0.07,-0.225 0.618,-1.062 0.766,-1.248 0.784,-0.995 1.42,-1.358 1.539,-1.474 0.117,-0.114 0.847,-0.538 1.308,-0.739 1.144,-0.499 2.315,-0.549 2.315,-0.549 0.967,-0.044 1.335,0.009 1.916,0.116 0.578,0.106 1.395,0.435 1.395,0.435 0.86,0.339 1.718,1.057 1.718,1.057 0.704,0.572 1.098,1.128 1.19,1.25 0.603,0.811 0.791,1.355 0.895,1.587 C 0.311,-0.176 0.48,0.86 0.48,0.86 0.493,0.88 0.586,1.639 0.551,2.209"
           inkscape:connector-curvature="0" />
      </g>
      <g
         transform="matrix(1.25,0,0,-1.25,353.4485,711.38)"
         id="g7226">
        <path
           id="path7228"
           style="fill:#ffff00;fill-opacity:1;fill-rule:nonzero;stroke:none"
           d="m 0,0 0.317,0.119 c 0,0 0.058,0.032 0.038,-0.049 C 0.336,-0.013 0.242,-0.191 0.242,-0.191 l -0.248,0.125 c 0,0 -0.057,0.038 0.006,0.066"
           inkscape:connector-curvature="0" />
      </g>
      <g
         transform="matrix(1.25,0,0,-1.25,354.0125,711.26038)"
         id="g7230">
        <path
           id="path7232"
           style="fill:#ffff00;fill-opacity:1;fill-rule:nonzero;stroke:none"
           d="M 0,0 -0.06,-0.145 0.119,-0.263 Z"
           inkscape:connector-curvature="0" />
      </g>
      <g
         transform="matrix(1.25,0,0,-1.25,353.9075,711.51675)"
         id="g7234">
        <path
           id="path7236"
           style="fill:#ffff00;fill-opacity:1;fill-rule:nonzero;stroke:none"
           d="m 0,0 0.177,-0.111 -0.484,-0.189 0.045,0.209 0.173,-0.064 z"
           inkscape:connector-curvature="0" />
      </g>
      <g
         transform="matrix(1.25,0,0,-1.25,353.5205,711.59975)"
         id="g7238">
        <path
           id="path7240"
           style="fill:#ffff00;fill-opacity:1;fill-rule:nonzero;stroke:none"
           d="m 0,0 -0.038,-0.165 -0.113,0.24 z"
           inkscape:connector-curvature="0" />
      </g>
      <g
         transform="matrix(1.25,0,0,-1.25,354.2725,711.66687)"
         id="g7242">
        <path
           id="path7244"
           style="fill:#ffff00;fill-opacity:1;fill-rule:nonzero;stroke:none"
           d="m 0,0 -0.196,0.472 c 0,0 -0.008,0.116 0.152,0.163 l 0.68,0.299 c 0,0 0.181,0.078 0.178,0.051 0,0 -0.101,-0.157 -0.335,-0.262 0,0 -0.084,-0.031 -0.034,-0.088 0,0 0.034,-0.031 0.083,0.013 0,0 0.216,0.121 0.312,0.229 0,0 0.103,0.079 0.064,-0.044 0,0 -0.175,-0.225 -0.469,-0.28 0,0 -0.147,-0.027 -0.142,-0.102 0,0 -0.01,-0.057 0.113,-0.019 0,0 0.256,0.109 0.295,0.146 0,0 0.086,0.03 0,-0.052 0,0 -0.171,-0.168 -0.465,-0.182 0,0 -0.088,-0.072 0.006,-0.09 0,0 0.052,-0.005 0.109,0.02 0,0 0.014,0.01 0.023,0.002 C 0.389,0.267 0.394,0.246 0.302,0.214 0.245,0.196 0.217,0.181 0.175,0.174 c 0,0 -0.065,-0.014 -0.023,-0.066 0,0 0.094,-0.025 -0.004,-0.083 0,0 -0.055,-0.135 -0.18,-0.116 -0.068,-0.04 -0.133,-0.072 -0.221,-0.059 0,0 -0.163,-0.181 -0.271,-0.079 z"
           inkscape:connector-curvature="0" />
      </g>
      <g
         transform="matrix(1.25,0,0,-1.25,353.48013,711.06263)"
         id="g7246">
        <path
           id="path7248"
           style="fill:#ffff00;fill-opacity:1;fill-rule:nonzero;stroke:none"
           d="m 0,0 c 0,0 -0.013,-0.052 -0.072,-0.025 0,0 -0.056,0.068 0.008,0.094 C -0.048,0.075 0.02,0.074 0,0 m -0.546,-0.164 c -0.018,-0.02 -0.037,-0.02 -0.037,-0.02 -0.024,0.017 -0.053,0.094 -0.053,0.094 -0.024,0.063 -0.195,0.141 -0.195,0.141 -0.062,0.029 -0.004,0.069 0.025,0.056 0.293,-0.126 0.26,-0.271 0.26,-0.271 m 0.609,0.227 c -0.203,0.167 -0.311,-0.139 -0.311,-0.139 -0.043,-0.108 -0.107,-0.035 -0.107,-0.035 -0.038,0.034 -0.228,0.244 -0.191,0.198 -0.057,0.102 -0.431,0.239 -0.431,0.239 -0.177,0.038 -0.744,0.442 -0.744,0.442 -0.077,0.076 -0.063,0.006 -0.063,0.006 0.121,-0.225 0.666,-0.47 0.666,-0.47 0.066,-0.054 0.014,-0.091 -0.057,-0.05 -0.291,0.166 -0.297,0.112 -0.297,0.112 0.018,-0.03 0.285,-0.189 0.285,-0.189 0.109,-0.07 0.057,-0.09 0.057,-0.09 -0.026,-0.029 -0.171,0.069 -0.171,0.069 -0.327,0.263 -0.286,0.173 -0.286,0.173 0.132,-0.204 0.425,-0.321 0.425,-0.321 0.072,-0.03 0.075,-0.051 0.07,-0.072 -0.01,-0.038 -0.083,-0.006 -0.083,-0.006 -0.311,0.206 -0.214,0.072 -0.214,0.072 0.034,-0.065 0.201,-0.145 0.201,-0.145 0.083,-0.024 0.181,-0.173 0.181,-0.173 0.036,-0.117 0.109,-0.096 0.109,-0.096 0.107,0.006 0.117,-0.11 0.117,-0.11 0.311,-0.096 0.305,-0.279 0.305,-0.279 -0.022,-0.175 -0.128,-0.221 -0.128,-0.221 l 0.387,-0.088 c -0.018,0.144 0.204,0.366 0.204,0.366 l -0.216,0.471 0.388,0.183 C 0.184,-0.052 0.063,0.063 0.063,0.063"
           inkscape:connector-curvature="0" />
      </g>
      <g
         transform="matrix(1.25,0,0,-1.25,352.87725,716.13225)"
         id="g7250">
        <path
           id="path7252"
           style="fill:#ffff00;fill-opacity:1;fill-rule:nonzero;stroke:none"
           d="m 0,0 c 0,0 0.007,0.095 0.062,0.147 0,0 0.197,0.181 0.346,-0.048 0,0 0.103,-0.226 -0.129,-0.304 0,0 -0.26,-0.082 -0.279,0.205 M 2.029,-2.812 1.606,-3.214 1.733,-3.309 C 1.615,-3.565 1.461,-3.729 1.342,-3.835 1.047,-4.09 0.84,-4.041 0.61,-3.934 0.373,-3.786 0.394,-3.518 0.394,-3.518 L 0.361,-0.862 H 0.615 L 0.608,-0.687 0.373,-0.682 0.369,-0.344 C 0.68,-0.23 0.621,0.099 0.621,0.099 0.526,0.481 0.166,0.443 0.166,0.443 -0.215,0.385 -0.19,0.037 -0.19,0.037 -0.215,-0.337 0.178,-0.376 0.178,-0.376 l -0.006,-0.306 -0.28,-0.005 0.012,-0.175 h 0.268 c 0.006,-0.06 -0.078,-2.693 -0.078,-2.693 -0.09,-0.586 -0.609,-0.459 -0.609,-0.459 -0.654,0.268 -0.813,0.724 -0.813,0.724 l 0.205,0.082 -0.443,0.424 -0.059,-0.607 0.126,0.033 c 0.02,-0.084 0.324,-0.502 0.324,-0.502 0.356,-0.516 1.1,-0.705 1.1,-0.705 0.233,-0.013 0.329,-0.108 0.329,-0.108 0.045,0.049 0.361,0.147 0.361,0.147 0.224,0.017 0.432,0.157 0.432,0.157 0.609,0.299 0.889,1.004 0.889,1.004 l 0.177,-0.052 z"
           inkscape:connector-curvature="0" />
      </g>
    </g>
  </g>
</svg>
