<?xml version="1.0" encoding="UTF-8" standalone="no"?>
<!-- Generator: Adobe Illustrator 16.0.0, SVG Export Plug-In . SVG Version: 6.00 Build 0)  -->

<svg
   xmlns:dc="http://purl.org/dc/elements/1.1/"
   xmlns:cc="http://creativecommons.org/ns#"
   xmlns:rdf="http://www.w3.org/1999/02/22-rdf-syntax-ns#"
   xmlns:svg="http://www.w3.org/2000/svg"
   xmlns="http://www.w3.org/2000/svg"
   xmlns:sodipodi="http://sodipodi.sourceforge.net/DTD/sodipodi-0.dtd"
   xmlns:inkscape="http://www.inkscape.org/namespaces/inkscape"
   version="1.1"
   id="圖層_1"
   x="0px"
   y="0px"
   width="200.00003"
   height="200.00003"
   viewBox="0 0 200.00003 200.00002"
   enable-background="new 0 0 576 575.999"
   xml:space="preserve"
   inkscape:version="0.48.4 r9939"
   sodipodi:docname="ROC_Ministry_of_Finance_Flag.svg"><metadata
   id="metadata107"><rdf:RDF><cc:Work
       rdf:about=""><dc:format>image/svg+xml</dc:format><dc:type
         rdf:resource="http://purl.org/dc/dcmitype/StillImage" /><dc:title /></cc:Work></rdf:RDF></metadata><defs
   id="defs105">
	
	
	
<clipPath
   id="SVGID_2_-1"><circle
     id="use15"
     cx="313.284"
     cy="313.28299"
     r="313.284"
     sodipodi:cx="313.284"
     sodipodi:cy="313.28299"
     sodipodi:rx="313.284"
     sodipodi:ry="313.284" /></clipPath></defs><sodipodi:namedview
   pagecolor="#ffffff"
   bordercolor="#666666"
   borderopacity="1"
   objecttolerance="10"
   gridtolerance="10"
   guidetolerance="10"
   inkscape:pageopacity="0"
   inkscape:pageshadow="2"
   inkscape:window-width="1920"
   inkscape:window-height="1017"
   id="namedview103"
   showgrid="false"
   fit-margin-top="0"
   fit-margin-left="0"
   fit-margin-right="0"
   fit-margin-bottom="0"
   inkscape:zoom="4.6354856"
   inkscape:cx="93.848034"
   inkscape:cy="146.85975"
   inkscape:window-x="-8"
   inkscape:window-y="-8"
   inkscape:window-maximized="1"
   inkscape:current-layer="圖層_1" />












<g
   style="fill-rule:evenodd"
   id="部徽-曲線.cdr"
   transform="matrix(0.02339729,0,0,0.02338908,-715.86348,-131.25954)"><g
     id="g51"><g
       id="g53"><path
         style="fill:#c6951c;fill-rule:nonzero"
         inkscape:connector-curvature="0"
         id="path55"
         d="m 34869,5612 3,0 c 466,1 914,76 1334,213 l -2672,0 c 420,-137 869,-212 1335,-213 z"
         class="fil4" /><path
         style="fill:#c6951c;fill-rule:nonzero"
         inkscape:connector-curvature="0"
         id="path57"
         d="m 33069,6009 3602,0 c 138,65 272,136 401,214 l -4404,0 c 130,-78 263,-149 401,-214 z"
         class="fil4" /><path
         style="fill:#c6951c;fill-rule:nonzero"
         inkscape:connector-curvature="0"
         id="path59"
         d="m 32388,6406 4964,0 c 95,68 186,139 274,214 l -5512,0 c 88,-75 180,-146 274,-214 z"
         class="fil4" /><path
         style="fill:#c6951c;fill-rule:nonzero"
         inkscape:connector-curvature="0"
         id="path61"
         d="m 31910,6803 5921,0 c 71,69 140,140 207,214 l -6336,0 c 67,-74 136,-145 208,-214 z"
         class="fil4" /><path
         style="fill:#c6951c;fill-rule:nonzero"
         inkscape:connector-curvature="0"
         id="path63"
         d="m 31545,7201 6650,0 c 56,69 111,140 162,213 l -6974,0 c 52,-73 106,-144 162,-213 z"
         class="fil4" /><path
         style="fill:#c6951c;fill-rule:nonzero"
         inkscape:connector-curvature="0"
         id="path65"
         d="m 31260,7598 7221,0 c 44,69 86,140 127,213 l -7475,0 c 40,-73 82,-144 127,-213 z"
         class="fil4" /><path
         style="fill:#c6951c;fill-rule:nonzero"
         inkscape:connector-curvature="0"
         id="path67"
         d="m 31036,7995 7668,0 c 35,70 68,141 99,213 l -7865,0 c 31,-72 63,-143 98,-213 z"
         class="fil4" /><path
         style="fill:#c6951c;fill-rule:nonzero"
         inkscape:connector-curvature="0"
         id="path69"
         d="m 30864,8392 8012,0 c 26,70 51,141 74,213 l -8159,0 c 22,-72 47,-143 73,-213 z"
         class="fil4" /><path
         style="fill:#c6951c;fill-rule:nonzero"
         inkscape:connector-curvature="0"
         id="path71"
         d="m 30738,8789 8265,0 c 18,70 35,141 50,213 l -8366,0 c 15,-72 32,-143 51,-213 z"
         class="fil4" /><path
         style="fill:#c6951c;fill-rule:nonzero"
         inkscape:connector-curvature="0"
         id="path73"
         d="m 30653,9186 8435,0 c 11,70 21,141 30,213 l -8495,0 c 8,-72 18,-143 30,-213 z"
         class="fil4" /><path
         style="fill:#c6951c;fill-rule:nonzero"
         inkscape:connector-curvature="0"
         id="path75"
         d="m 30606,9583 8529,0 c 5,70 8,141 9,213 l -8548,0 c 2,-72 5,-143 10,-213 z"
         class="fil4" /><path
         style="fill:#c6951c;fill-rule:nonzero"
         inkscape:connector-curvature="0"
         id="path77"
         d="m 30596,9980 8548,0 c -1,71 -4,142 -9,213 l -8529,0 c -5,-71 -8,-142 -10,-213 z"
         class="fil4" /><path
         style="fill:#c6951c;fill-rule:nonzero"
         inkscape:connector-curvature="0"
         id="path79"
         d="m 30623,10377 8495,0 c -9,71 -19,142 -30,213 l -8435,0 c -12,-71 -22,-142 -30,-213 z"
         class="fil4" /><path
         style="fill:#c6951c;fill-rule:nonzero"
         inkscape:connector-curvature="0"
         id="path81"
         d="m 30687,10774 8366,0 c -15,71 -32,143 -50,213 l -8265,0 c -19,-70 -36,-142 -51,-213 z"
         class="fil4" /><path
         style="fill:#c6951c;fill-rule:nonzero"
         inkscape:connector-curvature="0"
         id="path83"
         d="m 30791,11171 8159,0 c -23,72 -48,143 -74,213 l -8012,0 c -26,-70 -51,-141 -73,-213 z"
         class="fil4" /><path
         style="fill:#c6951c;fill-rule:nonzero"
         inkscape:connector-curvature="0"
         id="path85"
         d="m 30938,11568 7865,0 c -31,72 -64,143 -99,213 l -7668,0 c -34,-70 -67,-141 -98,-213 z"
         class="fil4" /><path
         style="fill:#c6951c;fill-rule:nonzero"
         inkscape:connector-curvature="0"
         id="path87"
         d="m 31133,11965 7475,0 c -41,72 -83,143 -127,213 l -7221,0 c -45,-70 -87,-141 -127,-213 z"
         class="fil4" /><path
         style="fill:#c6951c;fill-rule:nonzero"
         inkscape:connector-curvature="0"
         id="path89"
         d="m 31383,12362 6974,0 c -51,73 -106,144 -162,213 l -6650,0 c -56,-69 -110,-140 -162,-213 z"
         class="fil4" /><path
         style="fill:#c6951c;fill-rule:nonzero"
         inkscape:connector-curvature="0"
         id="path91"
         d="m 31702,12759 6336,0 c -67,73 -136,144 -207,213 l -5921,0 c -72,-69 -141,-140 -208,-213 z"
         class="fil4" /><path
         style="fill:#c6951c;fill-rule:nonzero"
         inkscape:connector-curvature="0"
         id="path93"
         d="m 32114,13156 5512,0 c -88,75 -179,146 -274,213 l -4964,0 c -94,-67 -185,-138 -274,-213 z"
         class="fil4" /><path
         style="fill:#c6951c;fill-rule:nonzero"
         inkscape:connector-curvature="0"
         id="path95"
         d="m 32668,13553 4404,0 c -129,78 -263,149 -401,213 l -3602,0 c -138,-64 -271,-135 -401,-213 z"
         class="fil4" /><path
         style="fill:#c6951c;fill-rule:nonzero"
         inkscape:connector-curvature="0"
         id="path98"
         d="m 33535,13950 2671,0 c -420,138 -869,213 -1336,213 -466,0 -915,-75 -1335,-213 z"
         class="fil4" /></g></g><g
     id="g100"><path
       style="fill:#2a2854;fill-rule:nonzero"
       inkscape:connector-curvature="0"
       id="path102"
       d="m 33655,6407 c -17,2 -26,13 -23,39 31,361 240,724 212,1120 2,24 -11,31 -35,31 l -922,0 c -22,0 -27,7 -27,28 96,1774 85,3407 -717,5323 -1,21 7,24 25,24 l 2036,0 c 22,0 40,-6 40,-27 91,-292 91,-290 159,-733 1,-16 15,-19 28,-19 l 439,0 439,0 c 14,0 27,3 29,19 67,443 67,441 158,733 0,21 18,27 40,27 l 2036,0 c 18,0 26,-3 26,-24 -803,-1916 -814,-3549 -718,-5323 0,-21 -5,-28 -27,-28 l -921,0 c -24,0 -37,-7 -35,-31 -29,-396 181,-759 211,-1120 4,-35 -13,-43 -44,-38 l -1194,0 -1194,0 c -7,-1 -15,-2 -21,-1 z"
       class="fil5" /><path
       style="fill:#c6951c;fill-rule:nonzero"
       inkscape:connector-curvature="0"
       id="path104"
       d="m 34870,6752 c -52,0 -100,30 -100,105 l 0,420 c 0,24 -12,30 -35,30 l -336,0 c -24,0 -32,3 -47,18 -42,45 -51,128 0,170 18,17 20,15 47,15 l 336,0 c 30,4 36,12 35,39 l 0,3979 c -3,34 8,64 -30,66 l -72,0 c -55,1 -93,7 -116,57 -14,28 -16,66 0,89 16,43 64,59 116,56 l 72,0 c 36,1 29,26 30,82 1,41 -9,85 20,124 17,24 59,39 80,39 21,0 63,-15 81,-39 28,-39 19,-83 20,-124 1,-56 -6,-81 29,-82 l 72,0 c 52,3 101,-13 117,-56 15,-23 13,-61 0,-89 -24,-50 -61,-56 -117,-57 l -72,0 c -37,-2 -27,-32 -29,-66 l 0,-3979 c -1,-27 4,-35 35,-39 l 335,0 c 27,0 29,2 47,-15 51,-42 42,-125 0,-170 -15,-15 -23,-18 -47,-18 l -335,0 c -24,0 -36,-6 -35,-30 l 0,-420 c -1,-75 -48,-105 -101,-105 z"
       class="fil4" /><path
       style="fill:#c6951c;fill-rule:nonzero"
       inkscape:connector-curvature="0"
       id="path106"
       d="m 33645,8590 c -44,61 -61,128 -59,202 l 0,1534 c -3,153 35,280 145,355 40,26 41,26 15,66 l -310,496 c -19,32 -18,70 2,103 19,31 48,50 86,45 34,-5 63,-24 81,-51 l 352,-570 c 11,-27 15,-28 28,0 l 354,570 c 18,27 47,46 80,51 38,5 67,-14 86,-45 21,-33 20,-71 1,-103 l -309,-496 c -27,-40 -24,-40 15,-66 111,-75 149,-202 146,-355 l 0,-1534 c 1,-74 -16,-141 -61,-202 -65,-86 -209,-129 -325,-129 -117,0 -262,48 -327,129 z m 543,258 0,0 0,297 c 0,23 -7,34 -31,33 -124,-1 -248,-1 -370,0 -24,1 -32,-10 -31,-33 l 0,-297 c 33,-333 442,-232 432,0 z m -31,525 0,0 c 27,1 29,13 31,37 l 0,405 c 0,24 -7,30 -31,30 -126,-1 -250,-4 -370,0 -24,0 -32,-6 -31,-30 l 0,-405 c 1,-24 3,-36 31,-37 125,-5 247,-2 370,0 z m -370,674 0,0 c 125,-1 249,2 370,0 27,0 31,9 31,37 l 0,272 c -33,335 -419,248 -432,0 l 0,-272 c -1,-28 4,-37 31,-37 z"
       class="fil4" /><path
       style="fill:#c6951c;fill-rule:nonzero"
       inkscape:connector-curvature="0"
       id="path108"
       d="m 35779,8503 c -61,-2 -83,23 -106,79 l -343,971 c 0,52 42,107 102,103 l 229,0 c 21,-1 26,6 26,26 l 0,513 c 1,12 1,11 -11,23 l -417,455 c -14,18 -25,34 -33,56 -29,81 33,140 107,125 17,-6 32,-14 45,-24 l 299,-331 c 4,-8 10,-6 10,7 2,260 -5,539 0,773 1,35 5,73 36,103 16,14 30,21 56,21 25,0 38,-7 54,-21 31,-30 35,-68 36,-103 5,-234 -2,-513 0,-773 0,-13 6,-15 10,-7 l 299,331 c 13,10 28,18 45,24 74,15 136,-44 107,-125 -8,-22 -19,-38 -33,-56 l -416,-455 c -12,-12 -13,-11 -12,-23 l 0,-513 c 0,-20 5,-27 26,-26 l 230,0 c 60,4 101,-51 101,-103 l -343,-971 c -23,-56 -44,-81 -104,-79 z m 0,392 0,0 c 9,0 13,6 15,13 l 175,516 c 6,28 -3,28 -23,28 l -167,0 -169,0 c -20,0 -29,0 -23,-28 l 175,-516 c 2,-7 8,-13 17,-13 z"
       class="fil4" /></g></g>

</svg>