<svg enable-background="new 0 0 100 98.92" height="314.369408" viewBox="0 0 100 98.92" width="318.097109" xmlns="http://www.w3.org/2000/svg" xmlns:xlink="http://www.w3.org/1999/xlink"><clipPath id="a"><path d="m0 0h100v98.92h-100z"/></clipPath><path clip-path="url(#a)" clip-rule="evenodd" d="m16.09 74.81-3.08-.62-.28-2.39-.33-.68-1.7.89-2.46-1.37.47-2.38-.81-.95-1.22.54-2.67-2.1 1.03-3.2 2.11-.55-.14-.89-1.97-2.18 1.02-2.79 1.58-.21-.14-.96-1.5-2.52s1.37-2.04 1.5-2.38c.2-.33-5.73-.14-5.73-.14l3.55-4.9-3.28-.68 3.34-3.95-2.93-1.02 3.96-3.55-.69-5.38 2.66.96-.21-5.18 3 1.43.34-6 4.79 3.68.34-3 2.38-.47.96-.96-1.37-1.5.96-2.79 2.59-.34.48-.41-1.3-1.84 1.24-2.59 3-.2 1.16 2.04.48-.55 1.29-2.18 2.53.28 1.29 2.52.82-.35 1.43-2.38 2.72.54-1.84-6.4 5.66 1.56-.34-3.27 4.84 1.98-.2-3.14 4.58 2.8 5.25-2.86-.28 3 4.65-1.57-.42 3.28 6.01-1.64-2.32 6.27 2.18-.61 1.24 2.44 1.09.35 1.15-2.25 2.73-.27 1.1 2.25.54.27 1.23-1.77 3.07.07 1.17 2.73-1.44 1.84.54.41 2.6.41.2.14.68 2.59-1.36 1.49.82.96 2.72.68.07 2.46 4.85-3.75.33 6.06 3.01-1.49-.21 5.04 2.86-.82-.88 5.11 4.02 3.62-3 1.02 3.62 3.88-3.41.89 3.82 4.77-6.21.28 1.43 1.97-1.22 2.32-.14.67 2.05.21 1.29 2.32-2.03 1.74-.27.89 2.25.61.96 2.85-2.46 2.11-1.92-.95-.4 1.08.54 2.8-1.98 1.43-1.77-.68-.2.61v2.39l-2.46 1.01 5.39 3.48-5.66 2.32 2.46 2.39-4.91 1.64 1.97 2.11-5.32 1.02-2.05 5.12-1.84-2.37-2.59 4.69-1.85-2.92-3.27 5.11-2.39-5.8-2.18 3.08-3.28-1.1-.54.27.4 1.7-2.39 2.12-3.2-1.23-1.03.13.21 1.24-3.21 1.97-3.55-1.77.28-2.46-.35-.07-2.73 1.3-2.18-1.91.33-2.18-.75-.07-3.61 1.16-1.78-2.18-2.8 6.82-3.41-4.57-1.77 2.86-2.46-4.42-1.83 2.17-2.06-5.04-5.18-.81 1.7-1.99-4.98-1.62 2.25-2.26-5.52-2.38z" fill="#fff" fill-rule="evenodd"/><path clip-path="url(#a)" clip-rule="evenodd" d="m31.91 69.55 1.78 1.51-.54.96 3.07 1.97-10.79 16.84-1.77 2.38-2.12-4.98-5.25-.82 1.92-2.25z" fill="#1d2088" fill-rule="evenodd"/><path clip-path="url(#a)" d="m31.91 69.55 1.78 1.51-.54.96 3.07 1.97-10.79 16.84-1.77 2.38-2.12-4.98-5.25-.82 1.92-2.25z" fill="none" stroke="#000" stroke-width=".067"/><path clip-path="url(#a)" clip-rule="evenodd" d="m65.01 73.24 2.18-1.57.14-.07-.61-.82s1.7-1.57 2.11-1.97l16.1 16.69-5.26.96-2.04 4.97-1.92-2.32-10.77-15.94z" fill="#1d2088" fill-rule="evenodd"/><path clip-path="url(#a)" d="m65.01 73.24 2.18-1.57.14-.07-.61-.82s1.7-1.57 2.11-1.97l16.1 16.69-5.26.96-2.04 4.97-1.92-2.32-10.77-15.94z" fill="none" stroke="#000" stroke-width=".067"/><g clip-rule="evenodd" fill-rule="evenodd"><path clip-path="url(#a)" d="m70.34 67.04.68-.88.89.54.89-1.16 18.21 11.31-5.59 2.46z" fill="#dd0717"/><path clip-path="url(#a)" d="m68.09 96-8.2-20.24 2.87-1.22 8.6 16.42z" fill="#dd0717"/><path clip-path="url(#a)" d="m40.18 74.81 1.23.47-8.13 21.95-3.48-4.64z" fill="#dd0717"/><path clip-path="url(#a)" d="m10.01 79.1 17.81-12.6 1.51 1.9-13.8 12.95z" fill="#dd0717"/><path clip-path="url(#a)" d="m94.76 44.89 3.55 4.77-21.09.48s.14-2.6-.2-3.62z" fill="#dd0717"/><path clip-path="url(#a)" d="m88.15 21.52.34 6.13-14.74 9.2-1.64-2.72z" fill="#dd0717"/><path clip-path="url(#a)" d="m94.08 30.17-.75 5.39 3.89 3.55-2.8 1.01-18.56 4.43-1.43-4.22 16.78-8.92z" fill="#1d2088"/></g><path clip-path="url(#a)" d="m94.08 30.17-.75 5.39 3.89 3.55-2.8 1.01-18.56 4.43-1.43-4.22 16.78-8.92z" fill="none" stroke="#000" stroke-width=".067"/><path clip-path="url(#a)" clip-rule="evenodd" d="m45.29 1.69 4.71 3 5.39-3-2.8 21.26-2.65-.07-2.81.14z" fill="#1d2088" fill-rule="evenodd"/><path clip-path="url(#a)" d="m45.29 1.69 4.71 3 5.39-3-2.8 21.26-2.65-.07-2.81.14z" fill="none" stroke="#000" stroke-width=".067"/><path clip-path="url(#a)" clip-rule="evenodd" d="m59.08 6.66 6.14-1.77-7.51 20.11-2.12-.62z" fill="#dd0717" fill-rule="evenodd"/><path clip-path="url(#a)" clip-rule="evenodd" d="m35.4 4.83 5.73 1.49 3.14 18.06-2.19.68z" fill="#dd0717" fill-rule="evenodd"/><path clip-path="url(#a)" clip-rule="evenodd" d="m5.57 30.38 2.53.89.75.47 16.38 9.34-1.09 3.55s-10.11-2.32-11.19-2.53c-4.78-.88-10.44-2.72-10.44-2.72l3.95-3.62z" fill="#1d2088" fill-rule="evenodd"/><path clip-path="url(#a)" d="m5.57 30.38 2.53.89.75.47 16.38 9.34-1.09 3.55s-10.11-2.32-11.19-2.53c-4.78-.88-10.44-2.72-10.44-2.72l3.95-3.62z" fill="none" stroke="#000" stroke-width=".067"/><path clip-path="url(#a)" clip-rule="evenodd" d="m11.17 27.59.2-6.01 16.45 12.35v.2l-1.56 2.65z" fill="#dd0717" fill-rule="evenodd"/><path clip-path="url(#a)" clip-rule="evenodd" d="m1.69 49.94h.06l3.56-4.98 17.46 1.43-.27 3.61z" fill="#dd0717" fill-rule="evenodd"/><path clip-path="url(#a)" clip-rule="evenodd" d="m39.83 25.88s3.14-1.43 6.63-1.84l-.14-.95s4.36-.54 7.03 0l-.07.95s3.61.41 6.49 1.77l.4-.75s3.14 1.17 6.56 3.82l-.62.75s2.6 2.11 4.58 4.64l.95-.75s2.73 3.81 3.62 6.26l-.82.54s1.43 3.54 1.7 6.2h.89s.54 1.84.14 7.77l-1.23-.07s-.07 1.7-1.16 4.9l.95.21s-.95 3.81-3.82 7.42l-.74-.61s-2.06 2.72-4.44 4.55l.61.89s-3.82 2.93-7.37 4.16l-.33-.95s-1.1.74-5.26 1.49l.14.89s-3.96.82-8.73.13l.21-1.02s-2.39-.06-5.87-1.49l-.41.88s-4.23-1.78-6.55-3.68l.54-.96s-2.25-1.71-3.4-3.14l-.82.54s-3.55-4.08-5.12-8.24l1.03-.55s-1.03-2.59-1.43-5.32l-.95.28s-1.03-4.9-.14-8.18l1.02.07s.14-2.52 1.44-5.52l-.96-.54s1.64-3.95 3.76-6.54l.82.68s1.36-1.97 3.89-4.15l-.75-.95s4.24-3.4 7.31-4.43z" fill="#eda800" fill-rule="evenodd"/><path clip-path="url(#a)" d="m39.83 25.88s3.14-1.43 6.63-1.84l-.14-.95s4.36-.54 7.03 0l-.07.95s3.61.41 6.49 1.77l.4-.75s3.14 1.17 6.56 3.82l-.62.75s2.6 2.11 4.58 4.64l.95-.75s2.73 3.81 3.62 6.26l-.82.54s1.43 3.54 1.7 6.2h.89s.54 1.84.14 7.77l-1.23-.07s-.07 1.7-1.16 4.9l.95.21s-.95 3.81-3.82 7.42l-.74-.61s-2.06 2.72-4.44 4.55l.61.89s-3.82 2.93-7.37 4.16l-.33-.95s-1.1.74-5.26 1.49l.14.89s-3.96.82-8.73.13l.21-1.02s-2.39-.06-5.87-1.49l-.41.88s-4.23-1.78-6.55-3.68l.54-.96s-2.25-1.71-3.4-3.14l-.82.54s-3.55-4.08-5.12-8.24l1.03-.55s-1.03-2.59-1.43-5.32l-.95.28s-1.03-4.9-.14-8.18l1.02.07s.14-2.52 1.44-5.52l-.96-.54s1.64-3.95 3.76-6.54l.82.68s1.36-1.97 3.89-4.15l-.75-.95s4.24-3.4 7.31-4.43z" fill="none" stroke="#000" stroke-width=".067"/><path clip-path="url(#a)" clip-rule="evenodd" d="m73.68 50.34c0 13.08-10.72 23.65-23.74 23.65-13.04 0-23.68-10.57-23.68-23.65s10.64-23.78 23.68-23.78c13.02.01 23.74 10.7 23.74 23.78" fill="#00a6df" fill-rule="evenodd"/><path clip-path="url(#a)" clip-rule="evenodd" d="m66.24 50.34c0 8.92-7.3 16.29-16.3 16.29-9.01 0-16.25-7.37-16.25-16.29 0-8.99 7.24-16.35 16.25-16.35 9 0 16.3 7.36 16.3 16.35" fill="#1d2088" fill-rule="evenodd"/><path clip-path="url(#a)" d="m66.24 50.34c0 8.92-7.3 16.29-16.3 16.29-9.01 0-16.25-7.37-16.25-16.29 0-8.99 7.24-16.35 16.25-16.35 9 0 16.3 7.36 16.3 16.35z" fill="none" stroke="#000" stroke-width=".1"/><path clip-path="url(#a)" clip-rule="evenodd" d="m56.96 41.14c3.14.07 6.01 2.32 6.97 5.59.75 2.93-.34 6-2.59 7.77.89 3-.27 6.4-3.14 8.25-2.6 1.64-5.87 1.56-8.19 0-2.53 1.76-6.14 1.64-8.81-.41-2.46-1.98-3.28-5.19-2.52-7.84-2.46-1.97-3.48-5.45-2.32-8.52 1.16-3 3.83-4.76 6.76-4.84.95-2.93 3.96-5.04 7.3-4.9 3.06.2 5.65 2.25 6.54 4.9m-7.02 9.47c-.08.07-.08.14-.08.21.08.13.08.2.14.2.07 0 .13-.07.2-.2 0-.07-.07-.14-.07-.21z" fill="#fff100" fill-rule="evenodd"/><path clip-path="url(#a)" d="m56.96 41.14c3.14.07 6.01 2.32 6.97 5.59.75 2.93-.34 6-2.59 7.77.89 3-.27 6.4-3.14 8.25-2.6 1.64-5.87 1.56-8.19 0-2.53 1.76-6.14 1.64-8.81-.41-2.46-1.98-3.28-5.19-2.52-7.84-2.46-1.97-3.48-5.45-2.32-8.52 1.16-3 3.83-4.76 6.76-4.84.95-2.93 3.96-5.04 7.3-4.9 3.06.2 5.65 2.25 6.54 4.9zm-7.02 9.47c-.08.07-.08.14-.08.21.08.13.08.2.14.2.07 0 .13-.07.2-.2 0-.07-.07-.14-.07-.21z" fill="none" stroke="#000" stroke-width=".053"/><path clip-path="url(#a)" clip-rule="evenodd" d="m50 50.14h9.62c0 1.43-.28 3-1.03 4.43h-1.43c.54-1.02 1.02-2.04 1.09-3h-7.65v1.64h6.01c-.14.4-.35.95-.75 1.36h-3.55l3.48 3.26c-.41.34-.82.62-1.3.76l-3.89-3.61v4.64c-.14.14-.34.07-.61.07-.21 0-.42.07-.56-.07v-4.64l-3.82 3.61c-.54-.14-.96-.42-1.36-.76l3.48-3.26h-3.53c-.48-.41-.61-.96-.82-1.36h6.07v-1.64h-7.63c.13.96.47 1.98 1.08 3h-1.43c-.75-1.43-1.03-3-1.03-4.43zm-6-5.45v-1.84c-1.44 1.16-2.73 3.13-3.21 5.04h2.73l-1.09 1.3 1.23.54 1.71-1.84 1.98 1.71 1.43-.35-1.57-1.36h1.78v-7.02c-.48 0-.89.14-1.43.27v5.25h-1.02v-4.97c-.48.14-.96.41-1.43.75v4.23h-2.32c.11-.34.39-.7 1.21-1.71m11.46 0v-1.84c1.43 1.16 2.72 3.13 3.2 5.04h-2.73l1.17 1.3-1.3.54-1.7-1.84-1.92 1.71-1.5-.35 1.58-1.36h-1.78v-7.02c.48 0 .89.14 1.43.27v5.25h1.02v-4.97c.48.14 1.03.41 1.44.75v4.23h2.39c-.2-.34-.49-.7-1.3-1.71" fill="#dd0717" fill-rule="evenodd"/><path clip-path="url(#a)" clip-rule="evenodd" d="m41.95 25.2-.75.28-6.14-14.85 2.32.61zm-8.67-12.27 6.55 13.16.89-.34-6.48-14.65zm5.13 12.62-7.37-14.73-2.12-.2 8.67 15.32zm-11.07-12.69 8.47 14.11.89-.47-8.54-15.54zm7.92 14.59-9.69-16.21-2.6.07 11.47 16.62zm-13.92-13.43.96-2.18 11.54 16.49-.82.61zm11.46 16.43-.54.48-12.28-14.31 2.18-.34zm-14.19-11.05.68-2.11 12.01 14.52-.68.68zm11.6 13.57-.61.68-12.69-11.38 2.11-.41zm-13.99-7.56.27-2.39 12.76 11.04-.34.41-.75-.54-.34.34z" fill="#c28700" fill-rule="evenodd"/><path clip-path="url(#a)" clip-rule="evenodd" d="m65.9 90.28-1.78 1.97-5.46-17.1.89-.34.47 1.28zm-9.48-14.52 3.75 16.49 2.39.68-5.12-17.51zm3.61 18.33-4.64-18.06-1.09.21 3.89 19.48zm-7.23-16.69.94-.07 3.01 18.54-2.32-.89zm.82 18.95-2.06-18.82h-1.15l.75 20.32zm-5.05-18.82h1.22l-.35 20.25-2.58-1.23zm-2.18 16.7 1.43-16.7-1.3-.13-2.25 17.85zm-1.65-18.2 1.1.28-2.05 18.8-1.91-1.7zm-3.27 15.13 2.8-15.19-1.02-.27-4.16 16.21zm.14-15.95-5.73 14.73 1.5 1.84 5.11-16.21z" fill="#c28700" fill-rule="evenodd"/><path clip-path="url(#a)" clip-rule="evenodd" d="m62.63 11.23 2.11-.47-6.42 14.65-.88-.35zm-2.74 14.72 6.56-12.88-1.03-1.91-6.55 14.39zm8.81-15-7.58 14.52.96.41 8.73-14.99zm-4.92 15.89 8.6-13.77-.82-1.84-8.66 15.07zm10.38-15.33-9.7 15.67.75.55 11.46-16.08zm-7.85 18.18-.34-.2.69-.75-.89-.54 11.6-16.14 1.03 2.32zm11.19-13.07 2.19.33-12.22 13.84-.55-.48zm-8.46 15.67-.68-.68 12.01-13.97.68 2.11zm11.47-10.09 2.11.48-12.5 10.84-.6-.68zm-8.54 12.13-.41-.61-.75.61-.34-.4 12.62-10.5.14 2.38z" fill="#c28700" fill-rule="evenodd"/><path clip-path="url(#a)" clip-rule="evenodd" d="m92.1 49.93 1.3 1.78-16.24-.55v-1.09zm-15.07 2.93.14-1.02 16.03.55-.96 1.84zm17.18 2.25-17.26-1.57v.61h-1.03l-.13.75 19.38 2.12zm-18.68 1.3.19-1.02 19.12 2.39-1.5 1.5zm19.85 4.22.82 2.32-21.01-5.25.2-.82zm-20.68-1.5 19.25 6.54 2.04-1.76-20.95-5.8zm16.99 6.68-16.3-5.71-.34.96 16.99 6.94zm-17.53-3.06 15.96 7.36 1.64-1.23-17.06-7.09zm14.05 7.15-.06 2.11-14.55-8.04.41-.75zm-15.55-4.56.68-.95 14.53 8.11-2.18.87z" fill="#c28700" fill-rule="evenodd"/><path clip-path="url(#a)" clip-rule="evenodd" d="m15.96 74.81-2.47-.54 13.86-8.66.68.81zm10.7-10.42-13.92 7.42.27 2.19 14.06-8.8zm-15.9 7.69 15.36-8.52-.41-.8-16.86 8.23zm14.13-11.03-16.17 7.15-.42 2.17 17-8.38zm-18.22 6.8 18.7-8.17-.28-1.03-20.53 7.64zm17.94-10.69.28 1.09-20.54 6.82.61-2.53zm-17.6 3.89-1.64-1.64 18.84-3.82.2.96zm15.83-7.44-16.85 2.6-.62 2.04 17.75-3.61zm-15.21 1.3-1.31-1.77 16.45-1.43.07.89zm14.94-5.17h-14.88l-1.37 2.38 16.31-1.16z" fill="#c28700" fill-rule="evenodd"/><path clip-path="url(#a)" d="m77.02 46.53 17.67-1.57m-.27-4.84-18.62 4.43m17.33-9.07-17.88 7.09m15.97-11.1-16.79 8.86m14.2-12.74-14.67 9.2m1.29 2.99c-.82-1.85-1.84-3.75-3.14-5.52l16.04-12.74.34 6.13 2.93-1.56-.14 5.32 2.79-1.1-.75 5.45m-18.96 4.36c.82 2.18 1.57 4.29 1.78 6.41h.89c.27 1.23.27 2.32.27 3.55l21.02-.34-3.62-4.84 3.28-.68-3.55-3.95 2.87-1.02-4.16-3.68" fill="none" stroke="#000" stroke-width=".067"/><path clip-path="url(#a)" d="m30.21 67.85c1.09 1.17 2.25 2.33 3.47 3.21l-.54.96c1.78 1.43 4.44 2.86 6.55 3.75l.41-.95 1.36.54-8.12 21.88-3.69-4.78-1.57 3.01-2.66-4.63-1.78 2.52-2.11-5.18m8.75-20.26-.82.54-1.57-1.83-17.95 12.47 5.67 2.25-2.46 2.25 5.06 1.57-1.91 2.32 5.39.96m7.64-19.98-13.86 12.95m16.44-11.79-13.65 15.4m14.88-13.01-11.67 16.15m3.97 2.71 10.78-16.88m-6.42 18.59 9.89-16.83" fill="none" stroke="#000" stroke-width=".067"/><path clip-path="url(#a)" d="m62.76 74.47 8.6 16.55m4.44-1.83-10.79-15.95m2.18-1.64 12.49 14.79m-10.91-17.58 14.12 14.38m-12.55-16.07 15.28 12.33m-14.67-13.37.82.62.96-1.16 18.35 11.31-5.66 2.45 2.59 2.25-5.11 1.64 2.05 2.31-5.46 1.09m-8.47-20.31c-.9 1.17-2.87 3.42-4.37 4.43.27.35.47.62.68.89-2.39 1.85-4.57 3-7.37 4.16l8.13 20.3 3.41-5.11 1.64 2.86 2.59-4.62 1.84 2.37 2.05-5.17" fill="none" stroke="#000" stroke-width=".067"/><path clip-path="url(#a)" d="m22.77 46.39-17.54-1.36m18.92-.4-18.78-4.3m1.23-4.77 18.01 7.09m-16.17-11.11 16.79 9.54m1.03-4.29-15.3-9.2m14.34 13.28c-1.16 3.14-1.1 3.41-1.44 5.65l-1.09-.13c-.2 1.15-.27 2.32-.27 3.61l-20.81-.06 3.62-4.97-3.27-.61 3.41-4.02-2.93-.95 4.15-3.68m17.67 4.76c.96-2.25 2.25-4.43 3.55-6.4l-16.52-12.48-.2 6.14-3-1.57.28 5.31-2.87-1.09.89 5.45" fill="none" stroke="#000" stroke-width=".067"/><path clip-path="url(#a)" d="m52.38 23.02c-1.35-.21-4.7-.14-6.07.2l.14.89c-1.5.2-2.94.41-4.37.95l-6.68-20.23 5.8 1.5-.41-3.27 4.84 1.98-.34-3.34 4.71 3m2.32 18.25 1.09.14-.14.96c1.7.2 3.14.61 4.64 1.02l7.3-20.17-6.01 1.7.47-3.26-4.84 1.56.54-3.2-5.37 3.06m9.08 1.83-3.36 17.79m-3.13-1.36 2.25-17.99m-4.9 17.99v-18.33m-2.8 18.53-1.5-18.19m-4.58 1.29 3.21 18.06" fill="none" stroke="#000" stroke-width=".067"/><path clip-path="url(#a)" d="m39.97 25.88s3.14-1.43 6.55-1.84l-.14-.95s4.43-.54 7.03 0l-.07.95s3.61.41 6.48 1.77l.48-.75s3.14 1.17 6.48 3.82l-.54.75s2.53 2.11 4.58 4.64l.88-.75s2.73 3.81 3.69 6.26l-.89.54s1.43 3.54 1.71 6.2h.96s.48 1.84.06 7.77l-1.15-.07s-.14 1.7-1.24 4.9l.96.21s-.96 3.81-3.82 7.42l-.75-.61s-2.05 2.72-4.44 4.55l.62.89s-3.82 2.93-7.37 4.16l-.34-.95s-1.09.74-5.25 1.49l.2.89s-4.03.82-8.8.13l.21-1.02s-2.39-.06-5.87-1.49l-.41.88s-4.23-1.78-6.48-3.68l.48-.96s-2.19-1.71-3.42-3.14l-.81.54s-3.55-4.08-5.12-8.24l1.03-.55s-1.03-2.59-1.43-5.32l-.89.28s-1.03-4.9-.21-8.18l1.02.07s.21-2.52 1.43-5.52l-.96-.54s1.64-3.95 3.75-6.54l.82.68s1.36-1.97 3.96-4.15l-.82-.95s4.22-3.4 7.3-4.43z" fill="none" stroke="#000" stroke-width=".067"/><path clip-path="url(#a)" d="m66.24 50.34c0 8.92-7.3 16.29-16.3 16.29-9.01 0-16.25-7.37-16.25-16.29 0-8.99 7.24-16.35 16.25-16.35 9 0 16.3 7.36 16.3 16.35z" fill="none" stroke="#000" stroke-width=".06"/><path clip-path="url(#a)" clip-rule="evenodd" d="m27.89 51.91c.48.27 1.98 1.03 2.32.54.34-.54-.55-1.43-1.3-1.97-.68-.49-1.91-.75-2.11-.41-.14.34.68 1.5 1.09 1.84m28.94 19.08c-.41-.21-1.85-1.16-1.65-1.71.35-.47 1.65-.27 2.39.21.74.34 1.63 1.29 1.36 1.57-.2.33-1.7.2-2.1-.07m-2.05-3.47c-.07.41-.34 1.7.2 1.77.55.21.96-.68 1.17-1.36.28-.61.07-1.85-.27-1.91-.29-.07-1.04 1.09-1.1 1.5m3.95-1.5c0-.4.35-1.77.55-1.85.41 0 .89 1.03.89 1.78 0 .68-.07 1.57-.54 1.64-.55.13-.76-1.16-.9-1.57m2.94 3c.48.13 1.91 0 2.12-.27.07-.34-.88-1.16-1.7-1.36-.89-.27-2.12-.27-2.32.2-.14.61 1.35 1.29 1.9 1.43m3.41-2.86c-.4-.08-2.18-.41-2.11-.96.14-.61 1.36-.89 2.25-.82.82.13 1.98.68 1.91 1.02-.07.35-1.5.76-2.05.76m-3.34-2.53c.14.48.47 1.71 1.02 1.57.48-.13.48-1.03.41-1.78-.07-.68-.75-1.69-1.08-1.64-.28.08-.42 1.51-.35 1.85m2.52-2.31c-.14-.35-.41-1.78-.28-1.91.34-.21 1.23.55 1.58 1.23.33.68.54 1.5.06 1.84-.4.27-1.16-.82-1.36-1.16m3.83 1.63c.47-.07 1.77-.75 1.77-1.1 0-.41-1.16-.74-2.04-.67-.83.14-2.06.61-2.06 1.22.14.55 1.78.69 2.33.55m-2.06-4.43c.27.28 1.09 1.24 1.51.89.47-.27.12-1.09-.35-1.71-.28-.61-1.3-1.29-1.63-1.02-.21.14.2 1.5.47 1.84m3.97 1.16c-.47.08-2.18.28-2.25-.34-.2-.47 1.03-1.16 1.84-1.36.89-.14 2.04 0 2.11.34 0 .34-1.16 1.22-1.7 1.36m-2.8-4.23c-.28-.2-.96-1.5-.81-1.63.26-.28 1.35.13 1.83.68.56.48 1.03 1.22.69 1.64-.36.41-1.37-.42-1.71-.69m4.16.35c.41-.21 1.43-1.22 1.37-1.56-.07-.35-1.37-.35-2.11.06-.82.35-1.78 1.15-1.57 1.77.2.48 1.9 0 2.31-.27m-3.54-3.68c-.35-.27-1.24-1.37-1.1-1.63.2-.34 1.36 0 1.97.47.47.41 1.16 1.08.89 1.5-.33.48-1.43-.2-1.76-.34m4.15-.27c.35-.28 1.29-1.5 1.1-1.77-.14-.34-1.44-.08-2.12.41-.76.47-1.57 1.43-1.3 1.97.35.48 1.91-.28 2.32-.61m-4.3-3.14c-.34-.14-1.36-1.17-1.28-1.43.19-.34 1.35-.2 1.97.21.55.33 1.29.82 1.17 1.36-.28.48-1.44-.01-1.86-.14m4.1-.61c.34-.34 1.03-1.7.82-2.04-.2-.27-1.36.27-2.05.82-.61.61-1.29 1.7-.89 2.11.35.54 1.85-.62 2.12-.89m-4.57-2.59c-.41-.07-1.63-.75-1.57-.89 0-.41 1.16-.68 1.85-.54.75.2 1.63.54 1.57 1.08-.14.55-1.38.48-1.85.35m3.69-1.91c.28-.47.47-1.91.28-2.11-.28-.27-1.31.48-1.78 1.16-.47.82-.83 2.04-.34 2.39.47.33 1.63-1.04 1.84-1.44m-1.72-4.22c-.13.4-1.02 1.97-1.5 1.76-.61-.27-.47-1.56-.12-2.38.33-.82 1.23-1.64 1.56-1.5.27.2.27 1.64.06 2.12m-3.75 2.31c.34 0 1.71 0 1.71-.54 0-.61-.82-.82-1.56-.89-.69-.14-1.78.21-1.92.61 0 .27 1.36.82 1.77.82m1.16-5.86c-.14.55-.82 2.11-1.36 1.98-.54-.21-.54-1.43-.34-2.32.2-.81 1.02-1.83 1.36-1.63.34.07.48 1.56.34 1.97m-3.41 2.87c.41 0 1.78-.14 1.71-.69 0-.54-.95-.74-1.71-.74-.68 0-1.77.41-1.77.88-.01.13 1.43.55 1.77.55m.07-6c0 .47-.14 2.25-.75 2.25s-.96-1.29-1.02-2.11c0-.89.41-2.05.75-2.05s.95 1.43 1.02 1.91m-2.52 3.68c.34-.21 1.56-.68 1.43-1.23-.27-.47-1.09-.41-1.84-.2-.67.14-1.64.88-1.43 1.22.06.27 1.5.27 1.84.21m-1.3-5.87c.14.41 0 2.18-.55 2.32-.61 0-1.16-1.23-1.23-2.05-.07-.96.35-2.11.68-2.11.34.01 1.03 1.37 1.1 1.84m-2.25 3.82c-.34.14-1.78.35-1.92.07-.14-.34.68-1.15 1.36-1.43.61-.27 1.57-.48 1.77 0 .28.55-.88 1.09-1.21 1.36m-4.58-4.36c1.23.2 2.39 1.16 2.39 1.57 0 .54-1.7.82-2.65.68-1.03-.28-2.12-1.09-2.12-1.57-.01-.54 1.16-.89 2.38-.68m-9.48 41.09c.41-.28 1.84-1.23 1.57-1.78-.34-.47-1.57-.27-2.39.21-.75.34-1.57 1.29-1.36 1.57.2.33 1.63.2 2.18 0m1.97-3.54c.14.41.35 1.7-.19 1.77-.56.21-.96-.68-1.17-1.36-.2-.61-.06-1.85.28-1.91.26-.07 1.02 1.16 1.08 1.5m-3.95-1.5c0-.35-.34-1.77-.48-1.85-.47 0-.96 1.03-.96 1.78-.07.75.07 1.57.62 1.64.48.13.75-1.16.82-1.57m-2.86 3c-.54.13-1.98 0-2.12-.27-.07-.28.82-1.16 1.71-1.36.75-.27 2.11-.27 2.25.2.21.61-1.37 1.35-1.84 1.43m-3.49-2.86c.41 0 2.19-.41 2.11-.96-.07-.61-1.36-.89-2.18-.82-.89.13-2.05.68-1.98 1.02.08.35 1.51.76 2.05.76m3.42-2.39c-.21.34-.55 1.57-1.02 1.49-.55-.19-.55-1.09-.47-1.76.13-.75.68-1.77 1.16-1.71.19.07.4 1.5.33 1.98m-2.6-2.45c.21-.35.48-1.78.28-1.91-.35-.21-1.3.61-1.5 1.23-.35.68-.61 1.5-.14 1.84.48.27 1.16-.82 1.36-1.16m-3.82 1.63c-.47-.07-1.84-.75-1.84-1.1 0-.33 1.29-.74 2.11-.67.89.14 2.05.61 2.05 1.22-.08.55-1.78.69-2.32.55m2.05-4.43c-.21.35-1.1 1.37-1.51 1.02-.41-.34-.06-1.22.34-1.84.34-.61 1.36-1.29 1.71-1.02.14.14-.27 1.5-.54 1.84m-3.96 1.16c.41.21 2.18.28 2.25-.27.2-.54-.96-1.23-1.85-1.43-.82-.14-2.04 0-2.12.34.01.34 1.18 1.22 1.72 1.36m2.8-4.23c.34-.2 1.02-1.5.82-1.63-.2-.28-1.36.13-1.84.68-.47.48-1.02 1.22-.68 1.64.34.41 1.35-.42 1.7-.69m-4.16.35c-.41-.14-1.43-1.22-1.37-1.56.07-.35 1.37-.28 2.11.06.89.35 1.78 1.15 1.64 1.77-.27.48-1.98 0-2.38-.27m3.54-3.68c-.34.14-1.5.82-1.77.34-.27-.41.41-1.08.95-1.5.55-.47 1.78-.68 1.91-.34.21.13-.75 1.23-1.09 1.5m.21-3.41c.33-.14 1.36-1.17 1.22-1.3-.13-.47-1.36-.27-1.91.07-.61.33-1.36.88-1.23 1.36.28.49 1.44.08 1.92-.13m-4.16-.61c-.34-.34-1.03-1.7-.75-1.98.14-.28 1.36.2 1.91.75.68.61 1.37 1.7.96 2.18s-1.78-.55-2.12-.95m4.57-2.59c.34 0 1.71-.61 1.57-.89-.07-.41-1.16-.62-1.84-.54-.75.2-1.57.54-1.5 1.08.06.55 1.36.48 1.77.35m-3.62-1.91c-.28-.4-.62-1.91-.28-2.11.28-.27 1.23.48 1.78 1.3.4.68.75 1.9.34 2.25-.55.33-1.7-1.04-1.84-1.44m1.64-4.22c.2.54 1.02 2.04 1.57 1.76.47-.27.4-1.5.06-2.38-.34-.75-1.15-1.64-1.5-1.5-.26.2-.26 1.7-.13 2.12m3.76 2.31c-.35 0-1.71 0-1.71-.54 0-.61.88-.82 1.64-.89.68-.14 1.77.21 1.84.61-.01.27-1.37.82-1.77.82m-1.1-5.79c.06.48.75 2.04 1.36 1.9.47-.21.47-1.43.34-2.32-.27-.81-1.03-1.83-1.37-1.63-.33.08-.54 1.57-.33 2.05m3.35 2.8c-.41 0-1.78-.14-1.64-.69 0-.54.89-.74 1.64-.74.68 0 1.84.41 1.84.88 0 .13-1.51.61-1.84.55m-.08-6c0 .47.21 2.25.75 2.25.61 0 .95-1.29 1.03-2.11 0-.89-.41-2.05-.75-2.05s-.95 1.43-1.03 1.91m3.83-2.19c-.07.41 0 2.18.61 2.32.55 0 1.02-1.23 1.16-2.05.07-.82-.34-2.11-.68-2.11s-1.02 1.37-1.09 1.84m2.32 3.82c-.34-.2-1.57-.81-1.3-1.36.27-.41 1.09-.27 1.78 0 .68.28 1.5 1.09 1.37 1.43-.08.28-1.51.07-1.85-.07m4.57-4.36c-1.29.2-2.39 1.16-2.39 1.57 0 .54 1.71.82 2.6.68 1.03-.28 2.12-1.09 2.12-1.57-.01-.48-1.17-.89-2.33-.68m-8.19 6.41c-.34-.21-1.57-.68-1.43-1.23.27-.47 1.09-.41 1.77-.2.82.14 1.71.88 1.57 1.22-.13.27-1.57.27-1.91.21" fill="#ac6a00" fill-rule="evenodd"/><path clip-path="url(#a)" d="m51.56 68.07c.61-.48 1.78-.88 2.12-.27.34.48-.33 1.23-.95 1.5-.48.27-1.85.61-2.26.2-.47-.48.48-1.03 1.09-1.43z" fill="none" stroke="#ac6a00" stroke-width=".067"/><path clip-path="url(#a)" d="m50.14 69.55c-.34.41-1.71 0-2.25-.27s-1.22-1.02-.88-1.57c.34-.54 1.57-.13 2.11.35.54.41 1.49 1.09 1.02 1.49z" fill="none" stroke="#ac6a00" stroke-width=".067"/><path clip-path="url(#a)" d="m49.94 69.7c-10.79 0-19.45-8.73-19.45-19.43 0-10.83 8.66-19.55 19.45-19.55 10.7 0 19.51 8.72 19.51 19.55 0 10.7-8.81 19.43-19.51 19.43z" fill="none" stroke="#ac6a00" stroke-width=".2"/><path clip-path="url(#a)" d="m46.18 71.95c2.93-2.73 5.65-2.93 8.26 0" fill="none" stroke="#ac6a00" stroke-width=".067"/><path clip-path="url(#a)" d="m56.96 41.14c3.14.07 6.01 2.32 6.97 5.59.75 2.93-.35 6-2.59 7.77.88 3-.28 6.41-3.14 8.25-2.6 1.64-5.87 1.56-8.18 0-2.53 1.76-6.14 1.64-8.81-.41-2.45-1.98-3.27-5.19-2.52-7.84-2.46-1.97-3.48-5.45-2.32-8.52 1.16-3 3.82-4.76 6.76-4.84.95-2.93 3.96-5.04 7.31-4.9 3.04.2 5.63 2.25 6.52 4.9z" fill="none" stroke="#000" stroke-width=".1"/></svg>