<?xml version="1.0" encoding="UTF-8" standalone="no"?>
<!-- Created with Inkscape (http://www.inkscape.org/) -->

<svg
   xmlns:dc="http://purl.org/dc/elements/1.1/"
   xmlns:cc="http://creativecommons.org/ns#"
   xmlns:rdf="http://www.w3.org/1999/02/22-rdf-syntax-ns#"
   xmlns:svg="http://www.w3.org/2000/svg"
   xmlns="http://www.w3.org/2000/svg"
   version="1.1"
   width="307.69531"
   height="307.69531"
   viewBox="0 0 307.69531 307.6953"
   id="svg2"
   xml:space="preserve"><metadata
     id="metadata8"><rdf:RDF><cc:Work
         rdf:about=""><dc:format>image/svg+xml</dc:format><dc:type
           rdf:resource="http://purl.org/dc/dcmitype/StillImage" /><dc:title></dc:title></cc:Work></rdf:RDF></metadata><defs
     id="defs6"><clipPath
       id="clipPath12"><path
         d="m 0,0 595.276,0 0,841.89 L 0,841.89 0,0 z"
         id="path14" /></clipPath><clipPath
       id="clipPath20"><path
         d="m 0,841.89 595.276,0 L 595.276,0 0,0 0,841.89 z"
         id="path22" /></clipPath></defs><g
     transform="matrix(1.25,0,0,-1.25,-349.6875,988.39843)"
     clip-path="url(#clipPath12)"
     id="g10"><g
       id="g16"><g
         clip-path="url(#clipPath20)"
         id="g18"><path
           d="m 524.811,667.647 c 0,-67.371 -54.616,-121.984 -121.985,-121.984 -67.369,0 -121.984,54.613 -121.984,121.984 0,67.371 54.615,121.985 121.984,121.985 67.369,0 121.985,-54.614 121.985,-121.985"
           id="path58"
           style="fill:#fbc829;fill-opacity:1;fill-rule:nonzero;stroke:none" /><path
           d="m 524.811,667.647 c 0,-67.371 -54.616,-121.984 -121.985,-121.984 -67.369,0 -121.984,54.613 -121.984,121.984 0,67.371 54.615,121.985 121.984,121.985 67.369,0 121.985,-54.614 121.985,-121.985 z"
           id="path60"
           style="fill:none;stroke:#2350a9;stroke-width:2.19700003;stroke-linecap:butt;stroke-linejoin:miter;stroke-miterlimit:4;stroke-opacity:1;stroke-dasharray:none" /><path
           d="m 309.939,714.06 -9.464,6.006 1.304,2.056 8.258,-1.8 1.712,-0.399 c -0.272,0.342 -0.661,0.847 -1.168,1.514 l -5.014,6.656 1.168,1.842 9.467,-6.006 -0.836,-1.316 -7.922,5.026 6.012,-8.038 -0.781,-1.23 -9.958,2.118 8.058,-5.113 -0.836,-1.316 z"
           id="path62"
           style="fill:#4f4c4d;fill-opacity:1;fill-rule:nonzero;stroke:none" /><path
           d="m 317.807,725.972 -6.536,4.813 0.887,1.207 6.538,-4.813 -0.889,-1.207 z m -7.749,5.706 -1.275,0.938 0.89,1.207 1.273,-0.939 -0.888,-1.206 z"
           id="path64"
           style="fill:#4f4c4d;fill-opacity:1;fill-rule:nonzero;stroke:none" /><path
           d="m 320.192,729.232 -6.266,5.164 0.86,1.045 0.893,-0.734 c -0.14,0.537 -0.145,1.058 -0.016,1.564 0.129,0.504 0.389,0.994 0.777,1.465 0.302,0.367 0.636,0.661 1.001,0.885 0.366,0.222 0.714,0.357 1.047,0.404 0.332,0.047 0.678,0.003 1.035,-0.133 0.357,-0.136 0.825,-0.442 1.403,-0.918 l 3.853,-3.175 -0.96,-1.164 -3.81,3.141 c -0.461,0.379 -0.84,0.604 -1.139,0.674 -0.3,0.071 -0.599,0.042 -0.898,-0.085 -0.299,-0.127 -0.57,-0.338 -0.813,-0.631 -0.457,-0.555 -0.667,-1.127 -0.628,-1.713 0.038,-0.586 0.436,-1.19 1.191,-1.813 l 3.423,-2.82 -0.953,-1.156 z"
           id="path66"
           style="fill:#4f4c4d;fill-opacity:1;fill-rule:nonzero;stroke:none" /><path
           d="m 326.475,736.627 -5.959,5.51 1.017,1.1 5.959,-5.509 -1.017,-1.101 z m -7.065,6.532 -1.161,1.074 1.017,1.1 1.161,-1.075 -1.017,-1.099 z"
           id="path68"
           style="fill:#4f4c4d;fill-opacity:1;fill-rule:nonzero;stroke:none" /><path
           d="m 327.118,740.935 0.922,1.187 c 0.46,-0.349 0.929,-0.486 1.404,-0.412 0.477,0.075 0.949,0.339 1.418,0.792 0.469,0.454 0.747,0.891 0.835,1.312 0.089,0.423 0.003,0.767 -0.255,1.035 -0.223,0.231 -0.507,0.304 -0.85,0.219 -0.237,-0.058 -0.709,-0.302 -1.418,-0.732 -1.028,-0.619 -1.748,-0.997 -2.162,-1.135 -0.415,-0.138 -0.811,-0.17 -1.186,-0.094 -0.377,0.076 -0.704,0.259 -0.983,0.548 -0.483,0.499 -0.661,1.109 -0.537,1.831 0.124,0.722 0.561,1.447 1.313,2.174 0.475,0.458 0.952,0.797 1.436,1.015 0.482,0.22 0.924,0.313 1.324,0.281 0.398,-0.032 0.83,-0.214 1.293,-0.546 l -0.928,-1.152 c -0.714,0.543 -1.483,0.415 -2.308,-0.383 -0.469,-0.453 -0.75,-0.861 -0.844,-1.225 -0.094,-0.362 -0.033,-0.654 0.179,-0.874 0.209,-0.216 0.483,-0.28 0.824,-0.192 0.203,0.055 0.707,0.315 1.511,0.782 1.103,0.648 1.848,1.036 2.234,1.165 0.386,0.129 0.757,0.155 1.115,0.079 0.357,-0.077 0.681,-0.265 0.972,-0.566 0.538,-0.556 0.737,-1.234 0.599,-2.035 -0.138,-0.8 -0.615,-1.594 -1.43,-2.383 -1.53,-1.478 -3.022,-1.709 -4.478,-0.691"
           id="path70"
           style="fill:#4f4c4d;fill-opacity:1;fill-rule:nonzero;stroke:none" /><path
           d="m 337.348,748.685 0.942,-0.793 c -0.263,-0.331 -0.519,-0.604 -0.773,-0.82 -0.399,-0.34 -0.769,-0.554 -1.114,-0.642 -0.343,-0.09 -0.648,-0.07 -0.913,0.058 -0.266,0.129 -0.66,0.499 -1.181,1.112 l -3.03,3.553 -0.838,-0.714 -0.694,0.814 0.838,0.714 -1.303,1.53 0.605,1.6 1.839,-2.158 1.156,0.985 0.693,-0.814 -1.156,-0.985 3.079,-3.611 c 0.284,-0.334 0.501,-0.52 0.651,-0.56 0.216,-0.056 0.459,0.03 0.729,0.26 0.129,0.11 0.286,0.267 0.47,0.471"
           id="path72"
           style="fill:#4f4c4d;fill-opacity:1;fill-rule:nonzero;stroke:none" /><path
           d="m 339.402,748.754 -4.939,6.444 1.076,0.825 0.749,-0.977 c -0.072,0.664 -0.051,1.158 0.065,1.481 0.116,0.323 0.317,0.595 0.602,0.814 0.399,0.305 0.897,0.5 1.492,0.584 l 0.372,-1.323 c -0.418,-0.07 -0.766,-0.212 -1.047,-0.427 -0.253,-0.195 -0.433,-0.439 -0.543,-0.734 -0.106,-0.295 -0.113,-0.595 -0.016,-0.899 0.169,-0.533 0.433,-1.033 0.793,-1.503 l 2.586,-3.374 -1.19,-0.911 z"
           id="path74"
           style="fill:#4f4c4d;fill-opacity:1;fill-rule:nonzero;stroke:none" /><path
           d="m 345.816,749.704 -0.845,0.99 c 0.323,0.115 0.584,0.237 0.782,0.368 0.268,0.175 0.462,0.359 0.581,0.554 0.12,0.195 0.182,0.414 0.183,0.659 10e-4,0.086 -0.081,0.568 -0.245,1.449 l -7.28,4.941 1.355,0.89 4.129,-2.909 c 0.513,-0.362 1.037,-0.769 1.568,-1.218 -0.205,0.621 -0.373,1.248 -0.504,1.881 l -1.013,4.993 1.262,0.828 1.709,-8.748 c 0.218,-1.136 0.319,-1.924 0.304,-2.364 -0.017,-0.44 -0.115,-0.814 -0.298,-1.123 -0.184,-0.31 -0.445,-0.576 -0.786,-0.8 -0.239,-0.157 -0.539,-0.286 -0.902,-0.391"
           id="path76"
           style="fill:#4f4c4d;fill-opacity:1;fill-rule:nonzero;stroke:none" /><path
           d="m 355.041,763.539 c 0.441,-0.953 1.002,-1.554 1.68,-1.804 0.677,-0.25 1.359,-0.216 2.044,0.102 0.64,0.297 1.082,0.787 1.323,1.47 0.241,0.682 0.143,1.495 -0.294,2.437 -0.44,0.948 -0.999,1.547 -1.677,1.797 -0.679,0.25 -1.359,0.216 -2.044,-0.102 -0.647,-0.3 -1.091,-0.79 -1.329,-1.468 -0.239,-0.679 -0.14,-1.49 0.297,-2.432 m -1.396,-0.649 c -0.59,1.272 -0.679,2.396 -0.267,3.373 0.41,0.978 1.162,1.719 2.254,2.226 1.072,0.498 2.119,0.591 3.14,0.279 1.023,-0.313 1.817,-1.079 2.383,-2.3 0.614,-1.322 0.715,-2.47 0.308,-3.447 -0.409,-0.976 -1.162,-1.718 -2.261,-2.228 -1.078,-0.501 -2.127,-0.593 -3.146,-0.276 -1.02,0.316 -1.823,1.107 -2.411,2.373"
           id="path78"
           style="fill:#4f4c4d;fill-opacity:1;fill-rule:nonzero;stroke:none" /><path
           d="m 365.16,763.521 -2.463,6.599 -1.251,-0.467 -0.374,1.002 1.251,0.466 -0.302,0.81 c -0.223,0.595 -0.306,1.074 -0.252,1.434 0.053,0.36 0.221,0.682 0.502,0.967 0.282,0.285 0.68,0.523 1.196,0.715 0.401,0.15 0.856,0.271 1.366,0.364 l 0.21,-1.203 c -0.312,-0.062 -0.597,-0.141 -0.858,-0.238 -0.419,-0.157 -0.69,-0.352 -0.81,-0.584 -0.119,-0.232 -0.093,-0.58 0.08,-1.042 l 0.261,-0.702 1.623,0.606 0.374,-1.002 -1.623,-0.606 2.465,-6.599 -1.395,-0.52 z"
           id="path80"
           style="fill:#4f4c4d;fill-opacity:1;fill-rule:nonzero;stroke:none" /><path
           d="m 374.375,766.649 -2.396,10.949 1.584,0.345 0.983,-4.496 6.221,1.362 -0.984,4.496 1.582,0.346 2.396,-10.949 -1.583,-0.347 -1.128,5.161 -6.222,-1.36 1.129,-5.161 -1.582,-0.346 z"
           id="path82"
           style="fill:#4f4c4d;fill-opacity:1;fill-rule:nonzero;stroke:none" /><path
           d="m 387.091,774.007 4.926,0.526 c -0.143,0.691 -0.399,1.192 -0.766,1.501 -0.533,0.45 -1.171,0.636 -1.915,0.557 -0.669,-0.072 -1.217,-0.342 -1.645,-0.81 -0.429,-0.469 -0.628,-1.06 -0.6,-1.774 m 5.151,-1.687 1.56,-0.01 c -0.166,-0.889 -0.562,-1.588 -1.187,-2.098 -0.626,-0.51 -1.434,-0.818 -2.427,-0.924 -1.25,-0.133 -2.3,0.115 -3.149,0.744 -0.851,0.629 -1.347,1.614 -1.49,2.957 -0.149,1.393 0.128,2.497 0.83,3.312 0.703,0.816 1.651,1.288 2.847,1.415 1.141,0.122 2.133,-0.136 2.973,-0.774 0.841,-0.638 1.334,-1.638 1.479,-3.001 l 0.029,-0.365 -6.588,-0.704 c 0.157,-0.9 0.511,-1.554 1.061,-1.962 0.549,-0.407 1.182,-0.573 1.897,-0.496 1.122,0.119 1.843,0.755 2.165,1.906"
           id="path84"
           style="fill:#4f4c4d;fill-opacity:1;fill-rule:nonzero;stroke:none" /><path
           d="m 401.762,774.171 c -0.547,-0.213 -1.363,-0.401 -2.447,-0.564 -0.629,-0.092 -1.069,-0.193 -1.319,-0.302 -0.249,-0.109 -0.442,-0.26 -0.577,-0.453 -0.136,-0.194 -0.202,-0.415 -0.197,-0.664 0.007,-0.388 0.172,-0.695 0.494,-0.92 0.324,-0.226 0.767,-0.334 1.331,-0.324 0.537,0.01 1.022,0.122 1.457,0.339 0.434,0.217 0.756,0.502 0.968,0.854 0.21,0.353 0.31,0.863 0.299,1.53 l -0.009,0.504 z m 0.176,-3.068 c -0.496,-0.402 -1.012,-0.706 -1.552,-0.915 -0.54,-0.209 -1.102,-0.317 -1.686,-0.328 -0.925,-0.017 -1.665,0.18 -2.221,0.587 -0.558,0.408 -0.843,0.965 -0.856,1.673 -0.009,0.469 0.112,0.886 0.364,1.252 0.252,0.366 0.6,0.655 1.044,0.867 0.446,0.212 1.121,0.374 2.031,0.488 1.219,0.153 2.114,0.328 2.679,0.521 l 0.006,0.352 c -0.011,0.555 -0.15,0.942 -0.419,1.161 -0.38,0.32 -0.957,0.472 -1.731,0.458 -0.7,-0.012 -1.22,-0.13 -1.563,-0.352 -0.343,-0.223 -0.59,-0.634 -0.742,-1.232 l -1.48,0.156 c 0.195,0.875 0.61,1.517 1.244,1.925 0.634,0.409 1.549,0.624 2.745,0.645 0.931,0.017 1.663,-0.101 2.197,-0.354 0.535,-0.253 0.875,-0.571 1.022,-0.956 0.145,-0.384 0.225,-0.948 0.238,-1.692 l 0.033,-1.833 c 0.022,-1.283 0.069,-2.091 0.141,-2.423 0.07,-0.333 0.203,-0.655 0.399,-0.968 l -1.569,-0.028 c -0.16,0.277 -0.269,0.609 -0.324,0.996"
           id="path86"
           style="fill:#4f4c4d;fill-opacity:1;fill-rule:nonzero;stroke:none" /><path
           d="m 405.869,770.023 0.409,11.192 1.497,-0.054 -0.409,-11.193 -1.497,0.055 z"
           id="path88"
           style="fill:#4f4c4d;fill-opacity:1;fill-rule:nonzero;stroke:none" /><path
           d="m 413.33,770.833 0.117,-1.227 c -0.42,-0.052 -0.795,-0.066 -1.126,-0.043 -0.522,0.038 -0.936,0.145 -1.244,0.323 -0.307,0.177 -0.511,0.406 -0.61,0.683 -0.1,0.278 -0.12,0.819 -0.064,1.622 l 0.333,4.659 -1.097,0.078 0.075,1.068 1.099,-0.079 0.142,2.005 1.553,0.717 -0.201,-2.828 1.513,-0.108 -0.076,-1.068 -1.515,0.108 -0.336,-4.735 c -0.032,-0.437 -0.008,-0.722 0.071,-0.856 0.115,-0.192 0.349,-0.301 0.702,-0.326 0.17,-0.012 0.391,-0.01 0.664,0.007"
           id="path90"
           style="fill:#4f4c4d;fill-opacity:1;fill-rule:nonzero;stroke:none" /><path
           d="m 414.846,769.493 1.47,11.105 1.486,-0.197 -0.528,-3.985 c 0.399,0.323 0.831,0.547 1.298,0.672 0.465,0.126 0.964,0.154 1.496,0.084 0.937,-0.125 1.646,-0.446 2.13,-0.964 0.483,-0.52 0.645,-1.375 0.488,-2.566 l -0.676,-5.099 -1.486,0.197 0.676,5.099 c 0.093,0.696 -0.007,1.218 -0.297,1.565 -0.289,0.346 -0.724,0.558 -1.303,0.636 -0.647,0.085 -1.223,-0.037 -1.73,-0.365 -0.506,-0.329 -0.824,-0.988 -0.956,-1.978 l -0.583,-4.401 -1.485,0.197 z"
           id="path92"
           style="fill:#4f4c4d;fill-opacity:1;fill-rule:nonzero;stroke:none" /><path
           d="m 435.897,769.526 c -0.584,-0.052 -1.42,-0.003 -2.506,0.146 -0.632,0.088 -1.083,0.115 -1.353,0.08 -0.269,-0.035 -0.497,-0.126 -0.683,-0.273 -0.184,-0.148 -0.309,-0.342 -0.376,-0.583 -0.101,-0.374 -0.029,-0.715 0.218,-1.022 0.247,-0.309 0.643,-0.537 1.188,-0.686 0.517,-0.141 1.014,-0.169 1.493,-0.083 0.477,0.086 0.868,0.27 1.169,0.549 0.303,0.28 0.542,0.742 0.718,1.386 l 0.132,0.486 z m -0.692,-2.997 c -0.588,-0.246 -1.172,-0.393 -1.748,-0.442 -0.576,-0.049 -1.147,0.004 -1.712,0.159 -0.891,0.243 -1.547,0.639 -1.968,1.187 -0.421,0.548 -0.539,1.164 -0.35,1.848 0.123,0.452 0.356,0.819 0.702,1.1 0.344,0.281 0.759,0.461 1.245,0.539 0.487,0.079 1.183,0.044 2.087,-0.103 1.215,-0.194 2.121,-0.278 2.72,-0.251 l 0.103,0.336 c 0.146,0.536 0.121,0.947 -0.075,1.234 -0.275,0.413 -0.786,0.721 -1.533,0.926 -0.675,0.185 -1.208,0.217 -1.6,0.1 -0.391,-0.118 -0.744,-0.442 -1.059,-0.975 l -1.378,0.566 c 0.433,0.786 1.012,1.286 1.736,1.5 0.725,0.214 1.663,0.164 2.817,-0.152 0.898,-0.245 1.569,-0.564 2.011,-0.957 0.442,-0.394 0.68,-0.795 0.712,-1.206 0.031,-0.41 -0.05,-0.974 -0.246,-1.692 l -0.483,-1.77 c -0.339,-1.239 -0.522,-2.028 -0.547,-2.367 -0.027,-0.339 0.011,-0.686 0.112,-1.041 l -1.515,0.414 c -0.077,0.311 -0.087,0.661 -0.031,1.047"
           id="path94"
           style="fill:#4f4c4d;fill-opacity:1;fill-rule:nonzero;stroke:none" /><path
           d="m 438.71,764.414 2.897,7.583 1.265,-0.483 -0.411,-1.078 c 0.465,0.302 0.957,0.473 1.477,0.511 0.521,0.038 1.066,-0.051 1.638,-0.269 0.444,-0.17 0.829,-0.392 1.157,-0.668 0.328,-0.275 0.567,-0.562 0.718,-0.863 0.151,-0.3 0.219,-0.641 0.204,-1.023 -0.015,-0.381 -0.156,-0.922 -0.424,-1.622 l -1.78,-4.662 -1.409,0.538 1.762,4.613 c 0.213,0.556 0.304,0.988 0.275,1.293 -0.028,0.305 -0.15,0.58 -0.366,0.823 -0.217,0.244 -0.502,0.434 -0.858,0.57 -0.672,0.257 -1.282,0.273 -1.825,0.05 -0.543,-0.223 -0.989,-0.791 -1.339,-1.706 l -1.582,-4.141 -1.399,0.534 z"
           id="path96"
           style="fill:#4f4c4d;fill-opacity:1;fill-rule:nonzero;stroke:none" /><path
           d="m 450.465,763.999 c -0.475,-0.936 -0.61,-1.742 -0.405,-2.416 0.204,-0.673 0.593,-1.155 1.169,-1.447 0.569,-0.288 1.173,-0.319 1.812,-0.094 0.639,0.226 1.182,0.779 1.628,1.661 0.512,1.014 0.677,1.86 0.494,2.538 -0.183,0.677 -0.592,1.176 -1.228,1.498 -0.565,0.285 -1.163,0.306 -1.795,0.063 -0.632,-0.242 -1.191,-0.844 -1.675,-1.803 m 2.418,-5.761 0.462,0.914 c -0.419,-0.227 -0.866,-0.336 -1.342,-0.328 -0.475,0.009 -0.934,0.125 -1.376,0.349 -0.933,0.471 -1.573,1.21 -1.921,2.217 -0.348,1.006 -0.219,2.11 0.389,3.31 0.416,0.823 0.92,1.445 1.512,1.864 0.593,0.419 1.212,0.641 1.859,0.663 0.646,0.021 1.278,-0.124 1.896,-0.437 0.443,-0.224 0.809,-0.519 1.1,-0.885 0.29,-0.367 0.48,-0.77 0.57,-1.209 l 1.814,3.588 1.345,-0.68 -5.053,-10 -1.255,0.634 z"
           id="path98"
           style="fill:#4f4c4d;fill-opacity:1;fill-rule:nonzero;stroke:none" /><path
           d="m 462.583,752.366 4.347,10.834 1.307,-1.023 -3.058,-6.938 c -0.31,-0.716 -0.645,-1.425 -1.005,-2.127 l 1.711,1.294 6.502,4.526 1.54,-1.204 -2.115,-5.55 c -0.514,-1.352 -1.078,-2.591 -1.691,-3.717 0.572,0.479 1.232,0.996 1.977,1.552 l 5.954,4.488 1.284,-1.004 -9.555,-6.76 -1.227,0.96 3.223,8.323 0.505,1.275 c -0.392,-0.314 -0.756,-0.587 -1.091,-0.817 l -7.308,-5.128 -1.3,1.016 z"
           id="path100"
           style="fill:#4f4c4d;fill-opacity:1;fill-rule:nonzero;stroke:none" /><path
           d="m 477.38,746.215 3.457,-3.546 c 0.456,0.539 0.691,1.05 0.707,1.53 0.024,0.697 -0.225,1.313 -0.746,1.848 -0.469,0.482 -1.02,0.746 -1.653,0.793 -0.632,0.047 -1.221,-0.161 -1.765,-0.625 m 1.857,-5.09 0.955,-1.232 c -0.799,-0.42 -1.593,-0.542 -2.381,-0.365 -0.788,0.176 -1.53,0.621 -2.227,1.337 -0.877,0.9 -1.331,1.878 -1.36,2.934 -0.032,1.056 0.436,2.056 1.404,2.998 1.003,0.978 2.042,1.443 3.116,1.395 1.074,-0.047 2.031,-0.502 2.871,-1.362 0.802,-0.823 1.211,-1.761 1.229,-2.815 0.017,-1.055 -0.464,-2.061 -1.446,-3.017 l -0.268,-0.249 -4.624,4.742 c -0.61,-0.68 -0.905,-1.362 -0.887,-2.046 0.019,-0.683 0.279,-1.283 0.782,-1.799 0.787,-0.807 1.733,-0.98 2.836,-0.521"
           id="path102"
           style="fill:#4f4c4d;fill-opacity:1;fill-rule:nonzero;stroke:none" /><path
           d="m 479.762,736.591 8.543,7.247 0.968,-1.143 -8.542,-7.246 -0.969,1.142 z"
           id="path104"
           style="fill:#4f4c4d;fill-opacity:1;fill-rule:nonzero;stroke:none" /><path
           d="m 482.614,733.128 5.567,4.32 -0.818,1.055 0.844,0.656 0.819,-1.055 0.683,0.529 c 0.502,0.391 0.934,0.614 1.294,0.669 0.359,0.056 0.718,-0.008 1.073,-0.192 0.357,-0.184 0.702,-0.493 1.04,-0.928 0.263,-0.338 0.513,-0.737 0.753,-1.195 l -1.085,-0.559 c -0.151,0.278 -0.312,0.527 -0.483,0.747 -0.275,0.354 -0.541,0.554 -0.799,0.599 -0.258,0.045 -0.582,-0.084 -0.972,-0.386 l -0.592,-0.459 1.062,-1.369 -0.845,-0.656 -1.062,1.369 -5.568,-4.32 -0.911,1.175 z"
           id="path106"
           style="fill:#4f4c4d;fill-opacity:1;fill-rule:nonzero;stroke:none" /><path
           d="m 491.93,727.116 c -0.477,0.343 -1.077,0.926 -1.8,1.748 -0.421,0.479 -0.744,0.794 -0.971,0.944 -0.226,0.15 -0.459,0.231 -0.695,0.24 -0.236,0.009 -0.457,-0.057 -0.664,-0.195 -0.322,-0.216 -0.49,-0.521 -0.506,-0.916 -0.014,-0.395 0.136,-0.826 0.451,-1.293 0.299,-0.446 0.657,-0.792 1.074,-1.04 0.418,-0.247 0.832,-0.363 1.244,-0.349 0.411,0.014 0.893,0.207 1.449,0.579 l 0.418,0.282 z m -2.484,-1.815 c -0.606,0.199 -1.142,0.468 -1.61,0.808 -0.469,0.341 -0.865,0.753 -1.19,1.238 -0.516,0.767 -0.753,1.495 -0.712,2.185 0.04,0.69 0.353,1.232 0.941,1.627 0.391,0.261 0.807,0.386 1.251,0.373 0.444,-0.012 0.876,-0.148 1.295,-0.407 0.42,-0.258 0.923,-0.738 1.511,-1.44 0.792,-0.94 1.422,-1.597 1.893,-1.968 l 0.297,0.188 c 0.461,0.31 0.712,0.637 0.75,0.982 0.064,0.491 -0.122,1.059 -0.554,1.702 -0.389,0.581 -0.771,0.954 -1.144,1.121 -0.373,0.167 -0.853,0.152 -1.439,-0.045 l -0.671,1.328 c 0.841,0.311 1.606,0.311 2.293,0 0.688,-0.311 1.365,-0.963 2.033,-1.955 0.518,-0.772 0.815,-1.452 0.893,-2.038 0.077,-0.586 -0.006,-1.045 -0.25,-1.377 -0.243,-0.331 -0.675,-0.705 -1.292,-1.12 l -1.524,-1.023 c -1.066,-0.715 -1.719,-1.193 -1.961,-1.433 -0.241,-0.24 -0.44,-0.526 -0.596,-0.86 l -0.875,1.302 c 0.146,0.286 0.365,0.556 0.661,0.812"
           id="path108"
           style="fill:#4f4c4d;fill-opacity:1;fill-rule:nonzero;stroke:none" /><path
           d="m 490.686,721.383 7.037,4.046 0.675,-1.175 -1.066,-0.613 c 0.667,-0.016 1.153,-0.103 1.459,-0.261 0.305,-0.157 0.547,-0.392 0.726,-0.704 0.251,-0.436 0.379,-0.955 0.382,-1.555 l -1.359,-0.194 c -0.015,0.423 -0.109,0.787 -0.286,1.093 -0.158,0.277 -0.377,0.488 -0.655,0.634 -0.279,0.146 -0.575,0.191 -0.889,0.136 -0.55,-0.097 -1.08,-0.293 -1.593,-0.587 l -3.683,-2.119 -0.748,1.299 z"
           id="path110"
           style="fill:#4f4c4d;fill-opacity:1;fill-rule:nonzero;stroke:none" /><path
           d="m 498.456,717.367 2.179,-4.447 c 0.602,0.371 0.985,0.782 1.15,1.233 0.241,0.655 0.197,1.318 -0.132,1.989 -0.296,0.605 -0.737,1.027 -1.324,1.269 -0.587,0.242 -1.211,0.227 -1.873,-0.044 m 0.177,-5.416 0.522,-1.469 c -0.891,-0.149 -1.683,-0.017 -2.377,0.396 -0.693,0.413 -1.258,1.068 -1.698,1.964 -0.553,1.128 -0.68,2.2 -0.378,3.213 0.301,1.014 1.058,1.817 2.271,2.412 1.258,0.616 2.391,0.735 3.398,0.354 1.006,-0.381 1.775,-1.111 2.303,-2.19 0.505,-1.03 0.601,-2.05 0.288,-3.058 -0.312,-1.007 -1.083,-1.813 -2.314,-2.416 l -0.335,-0.153 -2.913,5.947 c -0.792,-0.456 -1.286,-1.011 -1.481,-1.667 -0.195,-0.655 -0.135,-1.306 0.182,-1.953 0.496,-1.013 1.339,-1.472 2.532,-1.38"
           id="path112"
           style="fill:#4f4c4d;fill-opacity:1;fill-rule:nonzero;stroke:none" /><path
           d="m 360.918,573.043 3.02,-1.462 c 0.131,-0.064 0.163,-0.166 0.094,-0.306 l -0.217,-0.45 c -0.073,-0.15 -0.174,-0.193 -0.306,-0.13 l -3.02,1.463 c -0.132,0.063 -0.161,0.17 -0.088,0.32 l 0.218,0.45 c 0.069,0.14 0.168,0.178 0.299,0.115 m -5.859,0.027 1.92,-0.929 0.627,1.296 -1.624,0.787 c -0.326,-0.422 -0.633,-0.807 -0.923,-1.154 m 3.737,-2.726 4.142,-2.007 c 0.131,-0.063 0.164,-0.166 0.095,-0.306 l -0.218,-0.449 c -0.072,-0.149 -0.174,-0.193 -0.305,-0.13 l -1.182,0.573 -3.46,-7.143 c -0.324,-0.67 -1.122,-0.696 -2.395,-0.08 l -0.527,0.255 c -0.065,0.031 -0.057,0.131 0.024,0.299 0.084,0.2 0.119,0.47 0.108,0.809 l 0.026,0.056 c 0.239,-0.208 0.483,-0.372 0.735,-0.494 0.568,-0.275 0.932,-0.251 1.09,0.075 l 3.277,6.766 -1.839,0.89 c -0.132,0.064 -0.161,0.17 -0.088,0.321 l 0.218,0.449 c 0.067,0.141 0.168,0.179 0.299,0.116 m -3.288,-1.764 0.483,0.995 -3.272,1.585 -0.483,-0.996 3.272,-1.584 z m -1.787,7.695 1.74,-0.842 c 0.268,0.329 0.533,0.682 0.797,1.061 0.069,0.058 0.152,0.063 0.251,0.015 l 0.808,-0.632 c 0.129,-0.097 0.166,-0.201 0.113,-0.313 -0.064,-0.13 -0.166,-0.161 -0.309,-0.092 -0.1,0.014 -0.19,-0.017 -0.268,-0.094 -0.119,-0.161 -0.227,-0.315 -0.326,-0.462 l 2.315,-1.121 c 0.175,-0.085 0.235,-0.183 0.18,-0.295 l -0.92,-1.903 0.524,-0.254 c 0.099,-0.048 0.121,-0.127 0.067,-0.238 l -0.22,-0.456 c -0.049,-0.101 -0.123,-0.128 -0.221,-0.081 l -6.303,3.053 c -0.088,0.042 -0.106,0.114 -0.057,0.216 l 0.221,0.456 c 0.053,0.111 0.123,0.145 0.211,0.102 l 1.707,-0.827 c 0.279,0.352 0.581,0.739 0.907,1.162 l -1.592,0.771 c -0.087,0.042 -0.105,0.119 -0.051,0.229 l 0.215,0.443 c 0.053,0.111 0.124,0.144 0.211,0.102 m -1.48,-3.909 4.991,-2.416 c 0.176,-0.086 0.235,-0.188 0.175,-0.309 l -1.071,-2.215 c -0.059,-0.12 -0.176,-0.138 -0.351,-0.052 l -4.991,2.416 c -0.176,0.085 -0.233,0.188 -0.175,0.308 l 1.072,2.215 c 0.059,0.121 0.175,0.139 0.35,0.053 m -1.494,-4.915 -0.544,-1.122 2.039,-0.988 0.544,1.122 -2.039,0.988 z m 1.67,10.966 c 0.69,-0.805 1.02,-1.24 0.988,-1.305 -0.04,-0.084 -0.098,-0.107 -0.175,-0.07 -0.173,0.061 -0.315,0.061 -0.426,0 -0.793,-0.466 -1.499,-0.767 -2.118,-0.903 -0.349,-0.107 -0.921,-0.214 -1.717,-0.323 -0.12,0.059 -0.206,0.146 -0.258,0.262 -0.095,0.195 -0.205,0.386 -0.33,0.574 -0.054,0.083 -0.068,0.154 -0.04,0.209 0.425,0.069 0.852,0.144 1.283,0.223 0.557,0.12 1.078,0.303 1.564,0.551 0.439,0.212 0.81,0.446 1.11,0.703 0.046,0.069 0.086,0.096 0.119,0.079 m 1.491,-12.497 -0.544,-1.122 1.97,-0.954 c 0.087,-0.042 0.104,-0.119 0.05,-0.232 l -0.217,-0.446 c -0.071,-0.148 -0.151,-0.202 -0.238,-0.16 l -1.97,0.954 -0.622,-1.284 c -0.059,-0.12 -0.17,-0.14 -0.335,-0.061 l -0.677,0.328 c -0.132,0.064 -0.169,0.156 -0.11,0.277 l 0.622,1.283 -4.278,2.072 c -0.087,0.042 -0.095,0.138 -0.023,0.287 l 0.217,0.448 c 0.054,0.11 0.125,0.145 0.212,0.103 l 1.116,-0.54 0.867,1.79 c 0.049,0.102 0.14,0.122 0.272,0.058 l 2.964,-1.436 0.384,0.796 c 0.037,0.074 0.121,0.079 0.253,0.016 0.791,-0.383 1.159,-0.632 1.106,-0.743 -0.059,-0.121 -0.134,-0.165 -0.226,-0.131 -0.093,0.032 -0.177,-0.03 -0.254,-0.188 l -0.141,-0.292 1.707,-0.827 c 0.098,-0.048 0.123,-0.124 0.074,-0.225 l -0.223,-0.46 c -0.068,-0.14 -0.151,-0.185 -0.249,-0.137 l -1.707,0.826 z m -3.105,9.008 c 0.69,-0.805 1.02,-1.241 0.988,-1.305 -0.04,-0.084 -0.099,-0.108 -0.176,-0.071 -0.173,0.061 -0.312,0.066 -0.418,0.014 -0.622,-0.445 -1.198,-0.799 -1.728,-1.057 l -3.311,-6.837 c -0.059,-0.12 -0.176,-0.138 -0.351,-0.052 l -0.661,0.319 c -0.132,0.063 -0.169,0.156 -0.111,0.277 l 2.744,5.664 c -0.411,-0.123 -0.931,-0.25 -1.562,-0.38 -0.11,0.053 -0.198,0.147 -0.268,0.285 -0.093,0.17 -0.199,0.354 -0.32,0.551 -0.055,0.082 -0.066,0.158 -0.034,0.223 0.527,0.111 1.065,0.247 1.615,0.405 0.715,0.195 1.393,0.474 2.031,0.843 0.56,0.314 1.041,0.661 1.442,1.041 0.046,0.069 0.087,0.096 0.12,0.08"
           id="path114"
           style="fill:#4f4c4d;fill-opacity:1;fill-rule:nonzero;stroke:none" /><path
           d="m 375.793,568.707 1.223,-0.653 c 0.114,-0.108 0.164,-0.193 0.151,-0.254 -0.027,-0.132 -0.116,-0.197 -0.265,-0.197 -0.143,0.029 -0.247,-0.022 -0.312,-0.156 -0.351,-0.602 -0.654,-1.104 -0.912,-1.503 l 4.336,-0.912 0.577,2.746 c 0.026,0.12 0.134,0.161 0.325,0.121 0.905,-0.191 1.346,-0.346 1.32,-0.467 -0.03,-0.142 -0.106,-0.21 -0.23,-0.205 -0.12,0.014 -0.201,-0.074 -0.241,-0.266 l -0.463,-2.2 5.996,-1.261 c 0.143,-0.029 0.202,-0.1 0.179,-0.214 l -0.13,-0.619 c -0.035,-0.166 -0.123,-0.233 -0.267,-0.203 l -5.996,1.261 -0.727,-3.455 5.14,-1.081 c 0.144,-0.03 0.198,-0.121 0.167,-0.272 l -0.105,-0.503 c -0.033,-0.151 -0.12,-0.213 -0.263,-0.183 l -5.14,1.081 -0.864,-4.116 6.853,-1.44 c 0.142,-0.029 0.2,-0.11 0.172,-0.243 l -0.128,-0.609 c -0.032,-0.154 -0.12,-0.214 -0.262,-0.184 l -15.851,3.33 c -0.142,0.032 -0.198,0.123 -0.166,0.275 l 0.128,0.61 c 0.027,0.131 0.113,0.183 0.256,0.152 l 7.71,-1.62 0.865,4.116 -5.568,1.169 c -0.143,0.03 -0.198,0.122 -0.166,0.274 l 0.104,0.502 c 0.032,0.152 0.12,0.212 0.263,0.182 l 5.567,-1.169 0.728,3.455 -4.802,1.009 c -0.353,-0.444 -0.715,-0.859 -1.081,-1.246 -0.419,-0.398 -0.858,-0.744 -1.317,-1.038 -0.156,0.032 -0.287,0.081 -0.399,0.147 -0.23,0.143 -0.463,0.277 -0.698,0.4 -0.075,0.058 -0.109,0.102 -0.103,0.132 0.015,0.071 0.05,0.117 0.104,0.138 0.712,0.43 1.379,1.003 2.001,1.717 0.373,0.416 0.716,0.869 1.03,1.357 0.343,0.509 0.706,1.172 1.089,1.989 0.055,0.083 0.111,0.118 0.172,0.106"
           id="path116"
           style="fill:#4f4c4d;fill-opacity:1;fill-rule:nonzero;stroke:none" /><path
           d="m 410.52,553.169 2.625,0.043 -0.028,1.609 -2.624,-0.043 0.027,-1.609 z m -0.069,4.156 0.026,-1.547 2.625,0.043 -0.026,1.547 -2.625,-0.043 z m 1.92,3.078 -0.03,1.797 -5.249,-0.086 0.029,-1.797 5.25,0.086 z m -5.867,-7.3 2.703,0.044 -0.026,1.609 -2.703,-0.044 0.026,-1.609 z m -0.043,2.609 2.703,0.044 -0.025,1.547 -2.702,-0.044 0.024,-1.547 z m -0.406,7.37 7.291,0.119 c 0.194,0.004 0.293,-0.057 0.295,-0.181 l 0.055,-3.395 c 0.002,-0.133 -0.094,-0.201 -0.289,-0.205 l -7.291,-0.119 c -0.194,-0.003 -0.292,0.062 -0.295,0.196 l -0.054,3.395 c -0.002,0.123 0.093,0.187 0.288,0.19 m -0.656,-4.839 8.682,0.141 c 0.194,0.003 0.293,-0.057 0.294,-0.181 l 0.108,-6.574 c 0.002,-0.134 -0.094,-0.203 -0.289,-0.207 l -0.729,-0.011 c -0.194,-0.003 -0.292,0.062 -0.294,0.197 l -0.011,0.62 -6.639,-0.109 0.009,-0.62 c 0.003,-0.134 -0.093,-0.203 -0.288,-0.206 l -0.729,-0.012 c -0.195,-0.003 -0.292,0.062 -0.294,0.196 l -0.107,6.498 c -0.003,0.175 0.093,0.264 0.287,0.268 m -0.109,6.874 8.825,0.144 c 0.146,0.002 0.22,-0.078 0.223,-0.242 l 0.008,-0.493 c 0.003,-0.164 -0.069,-0.248 -0.214,-0.249 l -8.825,-0.144 c -0.147,-0.004 -0.221,0.078 -0.224,0.242 l -0.008,0.492 c -0.003,0.164 0.07,0.247 0.215,0.25 m -2.098,-5.553 0.657,0.012 c 0.194,0.002 0.293,-0.084 0.296,-0.259 -0.136,-0.591 -0.2,-1.167 -0.191,-1.725 0.025,-1.529 0.267,-2.936 0.725,-4.219 0.002,-0.073 -0.059,-0.126 -0.179,-0.158 -0.632,-0.063 -0.983,-0.094 -1.057,-0.096 l -0.113,0.231 c -0.25,1.908 -0.392,3.89 -0.426,5.947 -0.003,0.176 0.094,0.265 0.288,0.267 m -4.536,5.257 4.741,0.077 c 0.146,0.003 0.219,-0.079 0.222,-0.242 l 0.009,-0.492 c 0.003,-0.175 -0.069,-0.263 -0.215,-0.266 l -4.74,-0.077 c -0.147,-0.003 -0.221,0.084 -0.223,0.259 l -0.009,0.492 c -0.003,0.164 0.07,0.246 0.215,0.249 m -0.133,-5.27 1.335,-0.243 c 0.135,-0.05 0.204,-0.109 0.205,-0.182 0.001,-0.124 -0.052,-0.192 -0.162,-0.205 -0.181,-0.065 -0.294,-0.242 -0.338,-0.532 0.032,-1.89 -0.002,-3.198 -0.099,-3.923 -0.123,-0.695 -0.253,-1.312 -0.39,-1.852 0.002,-0.093 -0.07,-0.14 -0.217,-0.143 -0.732,0.184 -1.098,0.307 -1.099,0.37 0.265,0.841 0.43,1.526 0.495,2.054 0.093,1.004 0.136,2.503 0.127,4.498 -0.002,0.104 0.046,0.155 0.143,0.158 m -0.687,2.162 6.417,0.105 c 0.146,0.002 0.221,-0.078 0.224,-0.242 l 0.006,-0.492 c 0.003,-0.164 -0.068,-0.248 -0.213,-0.251 l -2.408,-0.039 0.154,-9.361 c 0.002,-0.134 -0.095,-0.202 -0.289,-0.206 l -0.729,-0.012 c -0.194,-0.003 -0.293,0.063 -0.295,0.197 l -0.153,9.361 -2.698,-0.044 c -0.146,-0.002 -0.221,0.079 -0.223,0.243 l -0.009,0.492 c -0.002,0.164 0.069,0.246 0.216,0.249"
           id="path118"
           style="fill:#4f4c4d;fill-opacity:1;fill-rule:nonzero;stroke:none" /><path
           d="m 436.967,570.494 1.574,0.246 c 0.181,-0.016 0.275,-0.038 0.282,-0.069 0.031,-0.109 -0.043,-0.188 -0.219,-0.235 -0.235,-0.16 -0.292,-0.458 -0.174,-0.898 l 3.008,-11.197 c 0.217,-0.809 -0.331,-1.389 -1.643,-1.742 l -1.269,-0.341 c -0.093,-0.025 -0.168,0.063 -0.221,0.262 -0.1,0.187 -0.284,0.399 -0.549,0.639 -0.032,0.12 -0.002,0.192 0.093,0.216 0.584,0.03 1.092,0.102 1.527,0.22 0.517,0.138 0.727,0.387 0.63,0.746 l -2.928,10.898 c -0.089,0.329 -0.168,0.575 -0.236,0.739 -0.059,0.124 -0.099,0.225 -0.12,0.305 -0.024,0.09 0.057,0.159 0.245,0.211 m -3.221,-2.664 c 0.896,0.241 1.358,0.301 1.391,0.181 0.038,-0.14 10e-4,-0.235 -0.112,-0.286 -0.114,-0.041 -0.146,-0.158 -0.095,-0.347 l 2.076,-7.724 c 0.032,-0.121 -0.047,-0.206 -0.235,-0.256 l -0.708,-0.19 c -0.189,-0.051 -0.299,-0.017 -0.331,0.104 l -2.22,8.263 c -0.033,0.119 0.045,0.204 0.234,0.255 m -2.821,0.12 c -0.071,-0.019 -0.166,-0.061 -0.287,-0.125 -0.448,-0.303 -0.999,-0.617 -1.655,-0.943 -0.118,-0.074 -0.239,-0.139 -0.363,-0.194 l 0.72,-2.68 3.382,0.909 c 0.14,0.039 0.232,-0.024 0.276,-0.184 l 0.129,-0.482 c 0.043,-0.16 -0.006,-0.258 -0.147,-0.297 l -3.187,-0.856 c 0.538,-0.552 1.012,-0.98 1.422,-1.287 0.542,-0.422 1.38,-0.849 2.516,-1.282 0.117,-0.012 0.183,-0.049 0.199,-0.108 0.01,-0.039 -0.019,-0.096 -0.087,-0.168 -0.092,-0.174 -0.227,-0.376 -0.405,-0.606 -0.048,-0.099 -0.102,-0.156 -0.161,-0.171 -0.07,-0.02 -0.184,-0.018 -0.34,0.004 -0.786,0.346 -1.514,0.782 -2.183,1.309 -0.241,0.191 -0.479,0.395 -0.713,0.61 l 1.831,-6.811 c 0.029,-0.109 -0.05,-0.191 -0.239,-0.241 l -0.707,-0.19 c -0.19,-0.051 -0.299,-0.021 -0.328,0.089 l -1.705,6.347 c -0.041,-0.129 -0.079,-0.246 -0.114,-0.351 -0.25,-0.711 -0.545,-1.393 -0.884,-2.052 -0.392,-0.694 -0.813,-1.31 -1.259,-1.847 -0.141,-0.038 -0.255,-0.036 -0.341,0.005 -0.274,0.129 -0.551,0.242 -0.828,0.339 -0.054,0.061 -0.085,0.105 -0.093,0.136 0.428,0.467 0.771,0.902 1.028,1.303 0.371,0.538 0.729,1.223 1.072,2.053 0.202,0.514 0.444,1.344 0.728,2.491 l -3.821,-1.026 c -0.142,-0.039 -0.234,0.023 -0.277,0.184 l -0.128,0.482 c -0.044,0.16 0.004,0.258 0.146,0.297 l 3.944,1.06 -0.663,2.47 c -0.204,-0.087 -0.402,-0.168 -0.596,-0.241 -0.813,-0.304 -1.559,-0.547 -2.24,-0.73 -0.2,-0.054 -0.347,-0.018 -0.444,0.105 -0.203,0.149 -0.435,0.311 -0.697,0.487 -0.03,0.109 0.026,0.184 0.167,0.221 l 1.056,0.285 c 0.846,0.226 1.568,0.468 2.165,0.726 0.555,0.191 1.09,0.431 1.607,0.721 0.608,0.313 1.101,0.653 1.481,1.022 0.051,0.047 0.088,0.073 0.112,0.08 0.14,0.038 0.247,0.04 0.319,0.005 0.829,-0.323 1.262,-0.549 1.296,-0.679 0.029,-0.11 -0.025,-0.183 -0.166,-0.221 l -0.538,0.032 z"
           id="path120"
           style="fill:#4f4c4d;fill-opacity:1;fill-rule:nonzero;stroke:none" /><path
           d="m 457.469,578.979 6.315,-10.958 c 0.068,-0.118 0.011,-0.228 -0.169,-0.331 l -0.634,-0.365 c -0.168,-0.097 -0.287,-0.088 -0.353,0.028 l -6.687,11.601 c -0.061,0.107 -0.007,0.209 0.162,0.307 l 4.426,2.552 c 0.19,0.108 0.342,0.16 0.457,0.155 0.372,-0.011 0.578,-0.052 0.619,-0.124 l -0.039,-5.155 c 0.015,-0.122 0.036,-0.207 0.061,-0.251 0.036,-0.063 0.114,-0.113 0.234,-0.151 0.811,-0.165 1.594,-0.477 2.35,-0.936 0.77,-0.486 1.357,-1.078 1.761,-1.776 0.272,-0.475 0.402,-0.956 0.387,-1.441 -0.015,-0.51 -0.202,-0.964 -0.562,-1.361 -0.192,-0.326 -0.63,-0.686 -1.315,-1.079 -0.273,-0.159 -0.457,-0.157 -0.549,0.005 -0.255,0.295 -0.492,0.485 -0.71,0.574 -0.063,0.107 -0.03,0.198 0.096,0.271 l 0.82,0.33 c 0.507,0.291 0.792,0.622 0.858,0.994 0.087,0.337 0.027,0.684 -0.18,1.041 -0.289,0.502 -0.758,0.977 -1.409,1.425 -0.766,0.477 -1.695,0.836 -2.788,1.076 -0.126,-10e-4 -0.207,0.031 -0.244,0.092 -0.025,0.046 -0.046,0.129 -0.061,0.252 l 0.171,4.964 -3.017,-1.739 z m -3.261,-3.683 1.134,0.224 c 0.188,0.037 0.308,0.012 0.361,-0.079 0.035,-0.062 0.014,-0.134 -0.065,-0.215 -0.106,-0.061 -0.144,-0.155 -0.114,-0.281 0.133,-0.961 0.164,-1.742 0.09,-2.346 -0.002,-0.143 -0.023,-0.227 -0.065,-0.251 -0.073,-0.043 -0.182,-0.063 -0.323,-0.061 -0.273,-0.038 -0.522,-0.081 -0.747,-0.127 -0.1,-0.022 -0.155,-0.023 -0.166,-0.006 -0.015,0.027 -0.017,0.068 -0.006,0.122 0.062,0.548 0.082,1.013 0.059,1.393 -0.007,0.498 -0.07,0.962 -0.192,1.393 -0.03,0.125 -0.019,0.203 0.034,0.234 m 0.35,-10.588 4.318,2.488 -1.387,2.406 -4.318,-2.489 1.387,-2.405 z m -2.782,2.772 6.079,3.504 c 0.169,0.098 0.285,0.092 0.346,-0.016 l 2.67,-4.632 c 0.067,-0.116 0.016,-0.223 -0.152,-0.32 l -0.635,-0.366 c -0.159,-0.091 -0.271,-0.079 -0.339,0.038 l -0.371,0.644 -4.318,-2.488 0.371,-0.645 c 0.067,-0.116 0.015,-0.223 -0.153,-0.32 l -0.634,-0.367 c -0.169,-0.096 -0.287,-0.087 -0.355,0.03 l -2.638,4.577 c -0.083,0.144 -0.04,0.264 0.129,0.361 m -2.105,1.335 8.231,4.744 c 0.117,0.067 0.213,0.033 0.29,-0.102 l 0.249,-0.431 c 0.083,-0.143 0.067,-0.248 -0.049,-0.316 l -8.232,-4.743 c -0.127,-0.073 -0.231,-0.038 -0.314,0.106 l -0.248,0.43 c -0.078,0.136 -0.053,0.239 0.073,0.312 m 0.404,3.973 c 0.542,-0.308 1.006,-0.612 1.391,-0.915 0.38,-0.246 0.739,-0.54 1.076,-0.882 0.021,-0.036 -0.283,-0.336 -0.911,-0.902 -0.193,0.236 -0.462,0.497 -0.811,0.786 -0.4,0.329 -0.848,0.631 -1.343,0.907 -0.047,0.081 0.153,0.416 0.598,1.006 m 0.196,3.901 c 0.802,0.463 1.234,0.641 1.296,0.534 0.073,-0.126 0.059,-0.224 -0.042,-0.294 -0.095,-0.078 -0.093,-0.202 0.005,-0.373 l 0.619,-1.075 3.096,1.786 c 0.126,0.073 0.232,0.037 0.315,-0.106 l 0.249,-0.432 c 0.083,-0.145 0.061,-0.253 -0.066,-0.326 l -7.523,-4.336 c -0.116,-0.067 -0.216,-0.028 -0.299,0.116 l -0.248,0.431 c -0.084,0.144 -0.068,0.25 0.049,0.317 l 3.286,1.893 -0.898,1.558 c -0.062,0.108 -0.008,0.21 0.161,0.307"
           id="path122"
           style="fill:#4f4c4d;fill-opacity:1;fill-rule:nonzero;stroke:none" /><path
           d="m 499.771,667.939 c 0,-53.733 -43.556,-97.295 -97.292,-97.295 -53.731,0 -97.288,43.562 -97.288,97.295 0,53.728 43.557,97.288 97.288,97.288 53.736,0 97.292,-43.56 97.292,-97.288"
           id="path124"
           style="fill:#73d2f6;fill-opacity:1;fill-rule:nonzero;stroke:none" /><path
           d="m 446.654,724.823 c -4.496,0.111 -8.99,0.313 -13.39,0.149 -1.28,-0.295 -2.563,-0.498 -3.746,-0.885 -5.875,-1.839 -8.487,-4.173 -10.557,-9.983 -1.871,-10.298 1.941,-22.619 4.664,-32.896 1.859,-3.695 3.012,-6.327 7.623,-7.461 1.83,0.173 1.83,0.173 2.193,0.301 2.434,2.827 2.563,6.22 1.866,9.528 -0.772,2.483 -1.453,4.909 -2.139,7.377 -2.389,6.101 -5.582,12.564 -6.967,18.684 -0.006,2.841 0.045,2.294 2.022,4.252 5,2.189 11.707,1.196 17.558,2.3 1.731,0.761 4.006,1.807 4.989,3.567 1.226,3.411 -1.819,4.463 -4.116,5.067"
           id="path126"
           style="fill:#2350a9;fill-opacity:1;fill-rule:nonzero;stroke:none" /><path
           d="m 383.453,715.914 c -0.637,0.815 -1.258,1.724 -1.879,2.538 -2.457,2.436 -5.265,3.673 -7.961,4.913 -1.365,0.345 -1.365,0.345 -1.744,0.522 -7.01,1.722 -14.219,2.247 -21.109,1.86 -0.955,-2.217 0.549,-5.491 1.879,-7.489 3.138,-2.699 6.453,-2.738 10.769,-3.218 4.938,-0.196 11.319,0.732 13.477,-5.284 0.326,-6.966 -2.713,-13.617 -4.889,-20.252 -1.359,-5.526 -3.873,-11.946 3.387,-14.435 2.373,0.186 2.805,0.073 4.662,1.708 2.291,4.311 2.834,9.053 3.719,13.837 0.734,5.418 1.017,10.652 1.191,15.88 -0.047,2.749 -0.047,2.749 -0.246,5.497 -0.445,1.278 -0.871,2.554 -1.256,3.923"
           id="path128"
           style="fill:#2350a9;fill-opacity:1;fill-rule:nonzero;stroke:none" /><path
           d="m 451.27,739.097 c -2.788,2.246 -6.28,2.832 -9.405,3.239 -4.674,-0.166 -9.799,-0.707 -10.447,-6.128 0.232,-2.931 0.049,-3.025 2.924,-4.721 1.922,-0.335 3.951,-0.666 6.244,-0.905 3.939,0.339 7.887,0.033 11.137,3.018 1.433,2.133 0.763,3.866 -0.453,5.497"
           id="path130"
           style="fill:#2350a9;fill-opacity:1;fill-rule:nonzero;stroke:none" /><path
           d="m 354.273,732.957 c 3.022,-0.686 5.665,-1.01 9.161,-1.044 2.545,0.132 5.015,0.081 7.386,1.86 2.641,3.987 -1.578,6.209 -4.558,7.447 -5.895,1.189 -15.141,3.515 -16.551,-4.579 0.437,-2.651 1.926,-2.718 4.562,-3.684"
           id="path132"
           style="fill:#2350a9;fill-opacity:1;fill-rule:nonzero;stroke:none" /><path
           d="m 408.902,730.448 0.077,-0.183 c -1.758,-1.311 -3.073,-1.946 -4.844,-2.707 -0.139,3.207 -0.205,6.267 -0.072,9.387 2.205,0.127 5.451,-1.357 6.031,-3.271 0.058,-1.006 -0.059,-2.564 -1.192,-3.226 m 0.248,-25.579 c 0.61,-1.181 0.6,-2.467 -0.511,-3.494 -1.391,-0.755 -2.332,-0.959 -3.608,-1.254 l -0.306,0.147 c -0.147,2.2 -0.024,4.549 -0.004,6.622 1.638,-0.063 3.15,-0.391 4.429,-2.021 m -6.822,-22.136 -1.068,0.157 c -4.072,1.146 -7.758,4.668 -6.307,8.911 1.479,2.318 4.377,3.102 7.074,3.417 0.198,-6.919 0.434,-7.451 0.301,-12.485 m -0.625,29.279 -1.174,0.235 c -1.148,0.257 -2.367,0.606 -3.211,0.866 -0.994,0.716 -0.994,0.716 -1.244,0.711 l 0,0.186 -0.207,0.089 c -1.892,3.637 0.992,4.784 3.799,6.022 l 2.012,0.499 c 0.127,-1.83 0.078,-2.554 0.025,-8.608 m -8.182,28.915 -1.535,-0.667 c -0.664,0.813 -0.789,0.811 -1.613,0.798 l -0.473,-1.472 c -0.75,-0.194 -0.75,-0.194 -1.627,-0.303 -1.314,0.62 -0.953,0.992 -0.398,1.736 2.012,1.132 3.223,1.245 5.635,0.551 l 0.011,-0.643 z m 10.87,4.248 0.015,1.154 c 0.055,4.771 0.055,4.771 -0.138,16.778 -0.235,1.189 -2.172,0.793 -2.791,0.414 l -0.25,-0.462 c 0.3,-12.832 0.3,-12.832 0.281,-17.327 -4.512,0.204 -12.414,1.177 -15.205,-3.272 -0.899,-2.673 -0.53,-2.301 -3.145,-3.352 l -0.031,-0.365 c 0.67,-0.173 1.764,-0.156 2.764,-0.231 l -1.942,-1.224 -0.078,-0.278 c 0.705,-0.171 1.752,0.121 2.697,-0.231 4.147,-2.409 8.02,-0.695 12.77,0.391 l 2.262,-0.042 c 0.058,-3.666 0.054,-7.166 0.148,-10.738 l -1.221,-0.936 c -3.703,-1.347 -6.672,-2.494 -9.418,-5.29 -2.154,-3.977 -1.248,-7.081 1.957,-10.327 l 0.25,-0.091 0.002,-0.184 c 1.631,-0.888 3.307,-1.871 5.424,-2.294 1.082,-0.165 2.213,-0.238 3.319,-0.311 0.111,-2.202 -0.053,-4.357 0.179,-6.879 -7.674,-1.59 -13.353,-4.064 -10.636,-13.1 0.462,-0.91 0.976,-1.911 1.486,-2.846 1.783,-2.117 3.726,-3.306 6.334,-4.658 1.236,-0.081 2.215,-1.05 3.129,-1.237 0.092,-2.476 0.183,-4.606 0.174,-6.192 0.472,-0.043 0.951,-0.072 1.435,-0.063 0.475,0.007 0.943,0.044 1.404,0.104 -0.052,0.639 -0.033,6.277 0.278,6.859 2.697,1.072 5.386,1.594 8.051,3.212 1.816,1.893 2.439,3.608 2.673,6.05 l -0.761,-0.288 c -1.061,-1.484 -1.991,-2.664 -3.461,-3.794 -1.325,-0.438 -5.647,-2.294 -6.731,-1.322 -0.117,4.216 -0.595,8.672 -0.406,12.667 3.893,0.8 6.934,1.282 9.443,4.903 2.311,4.99 0.178,8.072 -4.066,10.203 -1.838,0.43 -4.334,0.885 -6.15,1.317 -0.184,3.296 -0.258,6.282 -0.354,9.399 0.994,0.471 3.42,1.156 6.053,2.118 4.113,1.989 6.412,3.768 7.572,8.372 0.066,1.468 0.096,2.752 -0.123,3.943 -1.758,5.471 -8.443,8.244 -13.193,9.45"
           id="path134"
           style="fill:#2350a9;fill-opacity:1;fill-rule:nonzero;stroke:none" /><path
           d="m 484.176,676.994 c -0.185,0.235 -0.518,0.293 -0.771,0.133 -0.12,-0.076 -12.135,-7.752 -22.712,-23.214 -9.759,-14.267 -20.274,-38.281 -14.949,-71.663 0.049,-0.311 0.335,-0.526 0.647,-0.488 0.311,0.037 0.537,0.315 0.511,0.628 -0.045,0.536 -3.956,54.12 37.22,93.823 0.215,0.208 0.238,0.545 0.054,0.781 m -35.943,-24.21 c 0,2.443 -0.95,4.739 -2.677,6.466 -1.727,1.726 -4.023,2.677 -6.466,2.677 -5.042,0 -9.144,-4.102 -9.144,-9.143 0,-5.043 4.102,-9.145 9.144,-9.145 5.042,0 9.143,4.102 9.143,9.145 m -124.519,24.343 c -0.254,0.16 -0.586,0.102 -0.771,-0.133 -0.184,-0.236 -0.162,-0.573 0.054,-0.781 41.191,-39.718 37.263,-93.287 37.218,-93.823 -0.026,-0.313 0.2,-0.591 0.512,-0.628 0.311,-0.038 0.597,0.177 0.646,0.488 5.326,33.382 -5.188,57.396 -14.947,71.663 -10.576,15.462 -22.592,23.138 -22.712,23.214 m 53.459,-24.343 c 0,5.041 -4.102,9.143 -9.144,9.143 -5.042,0 -9.143,-4.102 -9.143,-9.143 0,-5.043 4.101,-9.145 9.143,-9.145 5.042,0 9.144,4.102 9.144,9.145 m 55.103,-14.273 c 0.215,0.208 0.239,0.545 0.054,0.781 -0.184,0.235 -0.517,0.293 -0.77,0.133 -0.149,-0.093 -1.939,-1.242 -4.489,-3.485 -2.844,7.113 -6.258,13.11 -9.584,17.973 -4.032,5.895 -8.271,10.654 -11.983,14.295 2.334,2.716 4.845,5.391 7.556,8.005 0.214,0.208 0.238,0.545 0.053,0.781 -0.184,0.235 -0.517,0.293 -0.77,0.133 -0.067,-0.042 -3.737,-2.39 -8.784,-7.064 -5.047,4.674 -8.718,7.022 -8.785,7.064 -0.253,0.16 -0.586,0.102 -0.77,-0.133 -0.185,-0.236 -0.162,-0.573 0.054,-0.781 2.711,-2.614 5.221,-5.29 7.555,-8.005 -3.711,-3.641 -7.95,-8.4 -11.982,-14.295 -3.247,-4.747 -6.574,-10.579 -9.378,-17.47 -2.239,1.913 -3.773,2.896 -3.91,2.982 -0.254,0.16 -0.586,0.102 -0.771,-0.133 -0.184,-0.236 -0.161,-0.573 0.054,-0.781 1.369,-1.32 2.642,-2.668 3.855,-4.031 -5.16,-13.556 -8.186,-30.994 -4.797,-52.23 0.048,-0.311 0.335,-0.526 0.646,-0.488 0.312,0.037 0.537,0.315 0.512,0.628 -0.029,0.337 -1.584,21.679 7.52,47.348 17.417,-23.211 15.511,-49.454 15.486,-49.75 -0.026,-0.313 0.2,-0.591 0.511,-0.628 0.312,-0.038 0.598,0.178 0.647,0.488 3.343,20.956 -3.261,36.034 -9.389,44.992 -2.09,3.055 -4.245,5.609 -6.229,7.685 4.142,10.874 10.236,22.4 19.171,33.357 9.102,-11.16 15.254,-22.907 19.4,-33.955 -1.828,-1.965 -3.776,-4.314 -5.673,-7.087 -6.128,-8.958 -12.73,-24.036 -9.386,-44.992 0.049,-0.31 0.335,-0.526 0.647,-0.488 0.311,0.038 0.537,0.315 0.512,0.628 -0.025,0.293 -1.898,26.024 14.949,49.05 8.833,-25.359 7.298,-46.314 7.269,-46.648 -0.025,-0.313 0.201,-0.591 0.512,-0.628 0.312,-0.038 0.598,0.177 0.647,0.488 3.337,20.917 0.454,38.156 -4.566,51.624 1.369,1.571 2.833,3.121 4.406,4.637 m -22.476,-14.5 c 0,3.226 -2.623,5.85 -5.847,5.85 -3.225,0 -5.849,-2.624 -5.849,-5.85 0,-3.225 2.624,-5.849 5.849,-5.849 3.224,0 5.847,2.624 5.847,5.849"
           id="path136"
           style="fill:#fbc829;fill-opacity:1;fill-rule:nonzero;stroke:none" /></g></g></g></svg>