<?xml version="1.0" encoding="UTF-8"?>
<!-- Generator: Adobe Illustrator 16.0.0, SVG Export Plug-In . SVG Version: 6.00 Build 0)  -->
<svg width="150" height="148.47" enable-background="new 0 0 340.2 77.5" version="1.1" viewBox="0 0 150 148.47" xml:space="preserve" xmlns="http://www.w3.org/2000/svg">
<g transform="scale(1.9133)">
		<path d="m78.4 38.8c0 21.4-17.6 38.8-39.2 38.8-21.6-0.1-39.2-17.4-39.2-38.8s17.6-38.8 39.2-38.8c21.7 0 39.2 17.4 39.2 38.8z" fill="#731d1a"/>
		<g fill="#c7b05a">
			<path d="m39.1 38.9c0-13.5 6.1-24.8 14.3-27.7l0.2-0.1c0.2-0.1 0.4-0.4 0.4-0.6 0-0.3-0.3-0.6-0.6-0.7-1.6-0.4-3.4-0.1-3.4-0.1-1.6 0.2-3.1 0.5-4.6 1.1-11.1 4-17.6 17.1-15.5 31.2 0 0 0.1 0.3 0.2 0.9v0.1c0 0.2-0.1 0.4-0.4 0.4-0.2 0-0.3-0.2-0.4-0.3-0.3-0.9-0.6-2.1-0.6-2.1-0.8-2.7-1.2-5.6-1.2-9 0-7.4 2.8-15.1 7.5-20.8 0.4-0.5 1.2-1.2 1.2-1.2l0.4-0.4c0.2-0.2 0.3-0.4 0.2-0.5 0-0.3-0.2-0.6-0.6-0.7-0.8-0.2-2-0.1-1.9-0.1-7.1 0.6-13.8 4.1-18.6 9.7-4.9 5.7-7.6 13.1-7.6 20.8 0 13.4 8 25.1 20 29.1 0 0 1.8 0.6 3.3 0.6 0 0 1.2 0.1 1.1-0.7 0-0.2-0.1-0.3-0.1-0.4-0.1-0.2-0.4-0.4-0.4-0.4l-0.9-0.6c-8.4-5.8-13.5-15.4-13.5-25.8 0-0.9 0-1.8 0.1-2.7 0 0 0.1-0.7 0.1-1 0 0 0.1-0.4 0.4-0.4 0 0 0.3 0 0.4 0.4 0 0 0.1 0.4 0.2 1.1 2 16.1 15.2 28.9 31.4 30.2 0 0 1.9 0.2 3.2-0.2 0.5-0.2 0.7-0.4 0.7-0.7s-0.2-0.5-0.5-0.6l-0.2-0.1c-8.2-2.9-14.3-14.2-14.3-27.7"/>
			<path d="m61.5 60.4h-0.2c-2.4-0.3-4.5-2.3-4.5-2.3-2.1-2-3.5-5.2-3.5-5.2-2.8-6.6-2.7-13.9-2.7-13.9v-0.4s-0.2-7.2 2.7-13.8c0 0 1.4-3.3 3.5-5.2 0 0 2-1.9 4.5-2.3h0.2c0.3-0.1 0.5-0.3 0.5-0.6 0-0.2-0.2-0.4-0.3-0.5s-0.1-0.1-0.3-0.1c-4.9-1.3-9.6 2.3-9.6 2.3-4.3 3.2-6.5 9.1-6.5 9.1-2 5.2-1.9 11.1-1.9 11.1v0.5s-0.1 5.9 1.9 11.1c0 0 2.1 5.9 6.5 9.1 0 0 4.6 3.6 9.6 2.3 0.2-0.1 0.2-0.1 0.3-0.1 0.2-0.1 0.3-0.3 0.3-0.5 0-0.3-0.2-0.5-0.5-0.6"/>
			<path d="m67.9 54.9s-0.1-0.1-0.2-0.1c-0.3-0.1-0.7-0.3-0.7-0.3-3.9-1.5-6.2-8.1-6.2-15.6v-0.2c0-7.5 2.4-14.1 6.2-15.6 0 0 0.4-0.2 0.7-0.3 0.1 0 0.2-0.1 0.2-0.1 0.2-0.1 0.3-0.2 0.3-0.5 0-0.2-0.1-0.3-0.2-0.4-0.1 0-0.1-0.1-0.1-0.1-0.9-0.5-2.6-0.2-2.6-0.2-5.9 0.8-10.5 8-10.6 17v0.5c0.1 9 4.7 16.3 10.6 17 0 0 1.6 0.2 2.6-0.2 0 0 0.1 0 0.1-0.1 0.1-0.1 0.2-0.3 0.2-0.4 0-0.2-0.2-0.4-0.3-0.4"/>
		</g>
	</g>
</svg>
