<?xml version="1.0" encoding="UTF-8" standalone="no"?>
<!-- Generator: Adobe Illustrator 16.0.0, SVG Export Plug-In . SVG Version: 6.00 Build 0)  -->

<svg
   xmlns:dc="http://purl.org/dc/elements/1.1/"
   xmlns:cc="http://creativecommons.org/ns#"
   xmlns:rdf="http://www.w3.org/1999/02/22-rdf-syntax-ns#"
   xmlns:svg="http://www.w3.org/2000/svg"
   xmlns="http://www.w3.org/2000/svg"
   xmlns:sodipodi="http://sodipodi.sourceforge.net/DTD/sodipodi-0.dtd"
   xmlns:inkscape="http://www.inkscape.org/namespaces/inkscape"
   version="1.1"
   id="圖層_1"
   sodipodi:docname="僑委會旗-3.wmf"
   inkscape:version="0.48.4 r9939"
   x="0px"
   y="0px"
   width="1125"
   height="750"
   viewBox="0 0 1125 750"
   enable-background="new 0 0 595.281 841.891"
   xml:space="preserve"><metadata
   id="metadata210"><rdf:RDF><cc:Work
       rdf:about=""><dc:format>image/svg+xml</dc:format><dc:type
         rdf:resource="http://purl.org/dc/dcmitype/StillImage" /><dc:title></dc:title></cc:Work></rdf:RDF></metadata><defs
   id="defs208">
	
	
	
	

		
		
		
		
		
		
		
		
		
		
		
		
		
		
		
		
		
		
		
	</defs>
<sodipodi:namedview
   inkscape:cy="-64.950129"
   inkscape:cx="274.68789"
   inkscape:zoom="1"
   showgrid="false"
   guidetolerance="10"
   gridtolerance="10"
   objecttolerance="10"
   bordercolor="#666666"
   pagecolor="#ffffff"
   borderopacity="1"
   id="namedview203"
   inkscape:current-layer="圖層_1"
   inkscape:window-maximized="1"
   inkscape:window-y="-8"
   inkscape:window-x="-8"
   inkscape:window-height="705"
   inkscape:window-width="1366"
   inkscape:pageshadow="2"
   inkscape:pageopacity="0"
   fit-margin-top="0"
   fit-margin-left="0"
   fit-margin-right="0"
   fit-margin-bottom="0">
	</sodipodi:namedview>




<rect
   style="fill:#ffffff;fill-opacity:1"
   id="rect4292"
   width="1125"
   height="750"
   x="0"
   y="0" /><g
   id="g3452"
   transform="matrix(2.5,0,0,2.5,-1202.8863,-719.3172)"><g
     id="g3376"><path
       id="path39"
       inkscape:connector-curvature="0"
       enable-background="new    "
       d="m 760.654,313.62 c 7.221,3.756 12.342,9.605 14.924,17.995 -7.424,-3.542 -12.272,-9.664 -14.924,-17.995 z"
       style="fill:#896d2c" /><path
       id="path41"
       inkscape:connector-curvature="0"
       enable-background="new    "
       d="m 650.644,315.817 c -2.281,7.965 -7.447,14.31 -14.629,17.847 2.027,-8.224 7.609,-13.895 14.48,-17.847 0.038,-0.018 0.108,0.019 0.149,0 z"
       style="fill:#896d2c" /><path
       id="path43"
       inkscape:connector-curvature="0"
       enable-background="new    "
       d="m 780.408,325.625 c 3.252,4.3 4.855,12.027 3.217,18.724 -8.602,-2.026 -14.787,-6.476 -18.43,-13.465 5.846,1.076 9.926,3.938 14.041,6.727 -0.459,-4.286 -0.08,-8.934 1.17,-11.985 h 0.002 z"
       style="fill:#896d2c" /><path
       id="path45"
       inkscape:connector-curvature="0"
       enable-background="new    "
       d="m 631.185,327.965 c 1.463,2.869 1.729,7.569 1.32,11.852 4.242,-2.638 8.043,-5.704 14.041,-6.585 -3.656,6.972 -9.939,11.317 -18.434,13.45 -1.622,-6.377 -0.036,-14.473 3.073,-18.717 z"
       style="fill:#896d2c" /><path
       id="path47"
       inkscape:connector-curvature="0"
       enable-background="new    "
       d="m 620.943,342.448 c 2.299,2.968 3.615,6.916 4.395,11.41 3.273,-2.811 7.047,-5.138 11.559,-6.735 -0.711,4.206 -3.463,7.27 -6.148,9.957 -2.695,2.686 -5.939,5.248 -9.805,6.586 -2.523,-6.076 -1.948,-15.005 -10e-4,-21.218 l 0,0 z"
       style="fill:#896d2c" /><path
       id="path49"
       inkscape:connector-curvature="0"
       enable-background="new    "
       d="m 792.251,379.755 c -4.916,-5.271 -9.479,-10.913 -10.092,-20.48 4.125,2.207 6.506,6.166 9.074,9.944 1.961,-3.894 3.807,-8.676 7.459,-10.393 0.436,7.839 -2.079,16.38 -6.441,20.929 l 0,0 z"
       style="fill:#896d2c" /><path
       id="path51"
       inkscape:connector-curvature="0"
       enable-background="new    "
       d="m 613.484,361.017 c 3.691,2.266 5.607,6.294 7.309,10.541 2.854,-3.588 5.08,-7.795 9.369,-9.953 -0.697,8.978 -5.148,15.435 -10.242,20.479 -4.28,-4.875 -6.631,-11.695 -6.436,-21.067 z"
       style="fill:#896d2c" /><path
       id="path53"
       inkscape:connector-curvature="0"
       enable-background="new    "
       d="m 784.507,376.83 c 3.373,2.468 5.588,6.093 7.166,10.376 2.424,-4.153 5.166,-8.001 9.654,-10.09 -1.836,7.726 -4.428,14.69 -10.242,18.427 -3.447,-4.926 -6.189,-11.656 -6.578,-18.713 l 0,0 z"
       style="fill:#896d2c" /><path
       id="path55"
       inkscape:connector-curvature="0"
       enable-background="new    "
       d="m 621.964,398.036 c -6.184,-3.652 -9.172,-11.141 -10.822,-18.869 4.322,2.25 7.355,5.805 9.508,10.249 1.607,-4.313 3.908,-7.906 7.164,-10.544 0.805,8.55 -2.656,14.101 -5.85,19.164 l 0,0 z"
       style="fill:#896d2c" /><path
       id="path57"
       inkscape:connector-curvature="0"
       enable-background="new    "
       d="m 784.357,391.89 c 2.797,2.859 4.408,6.896 5.414,11.563 3.123,-2.53 5.428,-5.891 10.385,-6.59 -2.629,7.215 -7.268,12.438 -13.02,16.536 -2.822,-5.397 -4.062,-13.691 -2.779,-21.509 l 0,0 z"
       style="fill:#896d2c" /><path
       id="path59"
       inkscape:connector-curvature="0"
       enable-background="new    "
       d="m 628.554,394.527 c 1.85,7.242 -0.068,15.765 -2.342,21.499 -5.91,-3.982 -10.57,-9.235 -13.166,-16.526 4.908,0.697 7.285,3.934 10.24,6.578 0.969,-4.429 2.596,-8.46 5.268,-11.551 l 0,0 z"
       style="fill:#896d2c" /><path
       id="path61"
       inkscape:connector-curvature="0"
       enable-background="new    "
       d="m 727.011,469.864 c -4.4,1.018 -9.869,-0.377 -13.459,-1.61 -0.045,-1.344 0.291,-3.472 0.145,-5.406 4.402,-0.573 9.703,-1.479 13.166,-2.348 1.357,-0.34 0.822,3.362 0.73,4.537 -0.148,1.969 -0.14,3.542 -0.582,4.827 z"
       style="fill:#896d2c" /><path
       id="path63"
       inkscape:connector-curvature="0"
       enable-background="new    "
       d="m 700.242,462.997 c 0.514,1.466 0.682,4.214 0.58,5.402 -3.975,1.295 -8.375,2.161 -13.313,2.497 -1.4,-2.074 -1.551,-6.762 -1.023,-9.817 0.109,-0.126 0.26,-0.201 0.439,-0.283 4.184,0.983 8.942,1.402 13.317,2.201 z"
       style="fill:#896d2c" /><path
       id="path65"
       inkscape:connector-curvature="0"
       enable-background="new    "
       d="m 710.333,462.552 c 0.865,1.661 0.434,5.007 -0.439,6.29 -1.85,0.44 -4.209,0.538 -5.996,0 -0.758,-1.399 -0.895,-4.174 -0.586,-6.141 2.146,0.064 4.902,-0.304 7.021,-0.149 l 0,0 z"
       style="fill:#896d2c" /><path
       id="path67"
       inkscape:connector-curvature="0"
       enable-background="new    "
       d="m 704.187,471.476 c -2.379,4.982 -4.891,9.842 -6.145,15.943 -1.322,-1.301 -2.021,-3.233 -3.512,-4.389 -2.217,0.558 -4.164,1.396 -5.852,2.497 1.813,-5.263 5.061,-10.351 8.633,-14.347 2.14,0.436 4.829,0.125 6.876,0.296 l 0,0 z"
       style="fill:#896d2c" /><path
       id="path69"
       inkscape:connector-curvature="0"
       enable-background="new    "
       d="m 710.041,471.476 c 2.197,-0.15 5.34,0.021 7.605,0.289 3.514,3.907 6.418,8.406 8.633,13.62 -2.07,-0.042 -3.936,-2.784 -5.998,-2.499 -1.896,0.265 -1.678,3.292 -3.221,4.248 -1.902,-5.657 -3.959,-11.155 -7.019,-15.658 l 0,0 z"
       style="fill:#896d2c" /><path
       id="path71"
       inkscape:connector-curvature="0"
       enable-background="new    "
       d="m 774.699,344.788 c 4.348,1.154 8.678,3.606 11.564,6.733 1.029,-4.336 2.426,-8.311 4.381,-11.705 2.35,5.536 2.598,15.568 0.297,21.356 -7.662,-3.213 -13.33,-8.419 -16.242,-16.384 l 0,0 z"
       style="fill:#896d2c" /><path
       id="path73"
       inkscape:connector-curvature="0"
       enable-background="new    "
       d="m 778.212,439.441 c 0.902,1.009 1.963,1.411 1.754,3.652 -0.547,6.025 -8.23,10.679 -11.988,13.459 0.93,-1.127 2.771,-2.669 4.529,-4.685 1.367,-1.555 3.652,-3.95 3.365,-6.139 -0.48,-3.597 -4.213,0.958 -4.969,1.756 -3.383,3.565 -7.049,6.493 -10.682,9.504 1.582,1.047 3.086,2.031 2.775,4.697 -0.32,2.705 -3.932,5.518 -6.58,7.01 -4.242,2.405 -8.777,3.097 -15.066,2.93 5.66,-1.78 10.514,-3.701 14.629,-7.167 0.947,-1.49 1.348,-3.581 -1.756,-3.228 -1.455,0.174 -3.619,1.497 -5.414,2.355 -4.939,2.317 -11.17,5.338 -16.533,6.133 -0.398,-0.998 -0.398,-2.799 0,-3.801 3.523,-1.371 8.859,-2.526 12.723,-4.536 1.141,-0.587 3.703,-2.053 2.492,-3.511 -0.623,-0.762 -2.834,-0.059 -4.094,0.292 -2.951,0.818 -7.809,1.759 -11.119,0.291 2.895,-0.99 5.83,-1.671 9.072,-3.066 2.703,-1.171 5.467,-3.744 8.34,-3.664 2.141,0.063 3.82,2.089 3.068,5.121 3.883,-2.327 8.568,-5.248 12.145,-8.92 0.717,-0.749 4.4,-5.164 1.313,-5.705 -1.225,-0.218 -2.826,1.139 -3.801,1.761 -3.494,2.189 -7.02,4.382 -11.561,4.819 4.424,-2.732 9.002,-7.247 13.607,-10.975 1.463,-1.176 3.586,-2.95 5.414,-2.771 2.055,0.19 2.627,2.276 2.348,4.82 1.887,-1.213 3.344,-3.54 4.822,-5.703 1.691,-2.484 3.838,-5.145 3.363,-9.076 -0.73,-1.596 -3.113,-0.33 -4.098,0.438 -2.012,1.57 -4.313,4.744 -5.406,6.44 1.145,-4.349 3.854,-10.263 7.309,-13.896 1.08,-1.137 2.701,-2.876 4.096,-2.933 2.838,-0.098 3.096,3.937 2.635,7.176 1.236,-0.568 1.891,-2.031 2.783,-3.212 0.828,-1.117 1.682,-2.342 2.631,-3.522 1.887,-2.356 4.275,-5.696 8.193,-5.701 1.342,0.777 2.123,2.034 2.342,3.944 0.695,6.244 -3.297,12.617 -5.271,16.688 0.117,-3.435 1.705,-7.765 0.297,-11.271 -3.459,-1.168 -5.281,2.72 -7.027,4.691 2.154,0.967 2.838,3.48 2.494,6.729 -0.879,8.001 -6.832,16.114 -10.977,20.476 -0.301,0.161 -0.311,0.151 -0.143,-0.148 2.141,-4.135 5.547,-8.966 6,-14.773 0.1,-1.366 0.107,-4.032 -1.027,-4.387 -2.035,-0.642 -3.193,2.315 -3.951,3.359 -1.177,1.596 -2.234,2.726 -3.076,4.249 l 0,0 z"
       style="fill:#896d2c" /><path
       id="path75"
       inkscape:connector-curvature="0"
       enable-background="new    "
       d="m 642.005,441.778 c -0.473,-2.53 0.182,-4.728 2.197,-4.975 1.711,-0.211 4.113,1.536 5.559,2.638 4.537,3.415 9.268,7.939 13.896,10.387 -3.344,-0.105 -5.955,-1.194 -8.477,-2.491 -2.391,-1.221 -4.549,-3.406 -7.607,-3.211 -1.813,1.255 0.789,4.22 1.902,5.26 3.549,3.33 8.553,6.426 12.434,8.628 -0.605,-2.532 0.666,-5.066 2.922,-5.266 2.686,-0.228 5.959,2.266 8.637,3.363 3.24,1.346 6.158,1.955 9.213,2.631 -4.545,2.766 -10.705,-0.468 -15.359,0 -0.672,1.738 1.033,2.791 2.199,3.375 3.754,1.866 9.064,2.813 13.303,4.092 0.367,1.009 0.809,3.072 0,3.944 -5.998,-1.114 -11.863,-3.336 -17.551,-5.853 -1.176,-0.517 -6.566,-3.624 -7.023,-0.715 -0.205,1.309 1.742,2.876 2.633,3.51 3.676,2.598 8.295,3.827 13.023,5.104 -5.816,0.901 -11.195,-0.172 -15.656,-2.628 -3.951,-2.177 -9.57,-7.548 -3.66,-10.978 -3.57,-3.126 -7.436,-5.734 -11.115,-9.358 -0.691,-0.68 -2.271,-3.232 -3.953,-2.774 -2.863,0.775 1.348,5.939 1.904,6.577 1.76,2.061 3.512,3.477 5.408,4.974 -3.527,-1.652 -9.545,-5.858 -11.695,-10.235 -0.846,-1.711 -1.414,-5.493 1.021,-6.001 -0.891,-1.496 -1.988,-2.53 -3.219,-4.093 -0.828,-1.06 -2.578,-4.71 -4.535,-3.223 -0.727,0.55 -0.674,2.813 -0.592,3.961 0.434,5.623 4.494,11.229 6.734,14.911 -4.332,-3.363 -10.516,-11.849 -11.994,-19.604 -0.525,-2.758 -0.232,-6.371 2.197,-7.166 -0.613,-1.215 -1.486,-1.997 -2.639,-3.063 -0.781,-0.736 -2.854,-2.753 -4.242,-1.613 -2.4,1.964 0.451,8.727 0.586,11.262 -2.33,-3.94 -7.617,-11.343 -5.852,-17.854 0.502,-1.866 2.367,-3.33 4.828,-2.196 2.258,1.055 4.098,3.489 5.852,5.561 1.82,2.16 3.6,4.341 5.119,6.29 0.082,-2.863 -0.51,-7.384 2.344,-7.601 2.844,-0.225 6.551,5.04 7.75,6.875 2.254,3.432 3.41,6.769 4.834,9.654 -1.316,-1.15 -3.469,-4.426 -5.418,-5.99 -0.916,-0.757 -2.879,-1.952 -4.096,-1.18 -1.332,0.864 -0.506,3.387 0,4.537 1.88,4.29 5.079,7.705 8.188,10.534 l 0,0 z"
       style="fill:#896d2c" /></g><g
     id="g9"
     transform="matrix(0.92923133,0,0,0.92765675,435.04237,51.850178)">
		<path
   id="path11"
   inkscape:connector-curvature="0"
   d="m 290.838,282.304 c 0,3.852 0,7.725 0,11.577 -3.59,0.142 -7.203,-1.021 -10.032,-2.157 2.255,-3.416 4.784,-6.542 7.571,-9.42 0.813,0 1.637,0 2.461,0 z"
   style="fill:#015b9b" />
		<path
   id="path13"
   inkscape:connector-curvature="0"
   d="m 302.882,291.723 c -2.852,1.112 -6.47,2.269 -10.032,2.158 0,-3.852 0,-7.726 0,-11.577 2.539,-0.526 3.245,0.743 4.477,2.16 1.91,2.197 4.059,4.984 5.555,7.259 z"
   style="fill:#015b9b" />
		<path
   id="path15"
   inkscape:connector-curvature="0"
   d="m 284.821,282.618 c 0.105,0.661 -0.725,1.216 -1.234,1.845 -1.515,1.849 -3.252,4.259 -4.79,6.174 -2.669,-1.442 -5.625,-3.423 -6.947,-5.708 4.13,-0.965 8.29,-1.902 12.971,-2.311 z"
   style="fill:#015b9b" />
		<path
   id="path17"
   inkscape:connector-curvature="0"
   d="m 298.556,282.763 c 4.551,-0.02 9.126,1.28 13.28,2.168 -1.379,2.278 -4.271,4.372 -7.102,5.708 -1.892,-2.79 -3.922,-5.449 -6.178,-7.876 z"
   style="fill:#015b9b" />
		<path
   id="path19"
   inkscape:connector-curvature="0"
   d="m 277.565,292.334 c -4.41,7.287 -8.7,14.671 -11.583,23.472 0.368,0.357 1.391,0.055 2.011,0.153 3.104,-8.222 7.031,-15.606 11.419,-22.534 3.325,1.352 6.882,2.487 11.426,2.623 0,6.634 0,13.276 0,19.911 0.622,0 1.236,0 1.854,0 0.364,-6.335 0.055,-13.334 0.158,-19.911 4.496,-0.137 8.031,-1.23 11.264,-2.623 4.529,6.793 8.496,14.146 11.43,22.534 0.715,0 1.44,0 2.157,0 -2.808,-8.918 -7.205,-16.255 -11.577,-23.625 3.315,-1.52 6.022,-4.472 8.336,-6.481 20.104,6.604 34.319,19.097 43.536,36.587 -11.119,0 -22.225,0 -33.344,0 0,0.618 0,1.231 0,1.854 11.167,0.36 22.997,0.049 34.424,0.157 4.359,8.708 7.342,18.795 7.563,31.646 -13.847,0 -27.686,0 -41.529,0 -0.66,-0.114 -0.143,-1.402 -0.305,-2.009 -0.359,1.751 -0.057,4.167 -0.153,6.173 0.448,-0.365 -0.147,-1.799 0.307,-2.155 13.896,0 27.793,0 41.682,0 -0.252,13.428 -3.437,23.934 -8.183,32.873 -7.411,0 -14.818,0 -22.227,0 0,0.624 0,1.243 0,1.856 6.741,0.355 14.146,0.051 21.145,0.152 -8.998,16.594 -23.354,29.136 -43.067,35.505 -2.329,-2.617 -5.017,-4.865 -8.185,-6.632 3.275,-5.469 6.625,-10.869 9.105,-17.136 -0.704,-0.131 -1.387,1.077 -2.619,0.935 -2.495,5.376 -5.255,10.479 -8.496,15.122 -3.285,-1.339 -6.947,-2.311 -11.264,-2.629 0,-2.148 0,-4.311 0,-6.482 -0.422,-0.707 -1.291,-0.981 -2.011,-1.383 0,2.618 0,5.243 0,7.865 -4.271,0.318 -7.972,1.182 -11.119,2.629 -3.037,-3.747 -5.286,-8.292 -7.563,-12.82 -0.858,-0.061 -1.604,-0.24 -2.314,-0.457 1.761,4.985 5.047,9.783 7.724,14.356 -3.193,1.75 -5.856,4.026 -8.185,6.632 -19.73,-6.358 -34.08,-18.911 -43.067,-35.505 6.791,0 13.582,0 20.373,0 0,-0.613 0,-1.225 0,-1.854 -6.894,-0.363 -14.459,-0.046 -21.607,-0.154 -4.498,-9.143 -7.886,-19.391 -8.027,-32.873 13.37,0 26.757,0 40.133,0 -0.107,-0.704 0.172,-1.574 0,-1.861 -13.072,-0.351 -26.807,-0.048 -40.133,-0.148 0.13,-12.887 3.292,-22.736 7.403,-31.645 10.915,0 21.822,0 32.73,0 0,-0.623 0,-1.241 0,-1.855 -10.192,-0.36 -21.046,-0.054 -31.494,-0.157 9.12,-17.643 23.646,-29.878 43.532,-36.746 2.486,2.512 4.962,5.034 8.34,6.64 l 0,0 z m -18.679,70.558 c 0.404,5.863 0.891,11.668 2.001,16.816 0.679,0 1.341,0 2.009,0 -1.061,-5.266 -1.583,-11.064 -2.009,-16.971 -0.654,0.064 -1.587,-0.144 -2.001,0.155 z m 31.952,-0.154 c 0,3.03 0,6.068 0,9.101 0.666,0 1.339,0 2.011,0 0,-3.033 0,-6.07 0,-9.101 -0.672,0 -1.344,0 -2.011,0 z m 32.113,0 c -0.828,5.808 -1.045,12.232 -2.314,17.598 0.668,0 1.339,0 2.001,0 1.143,-5.3 1.946,-11.749 2.014,-17.598 -0.57,0 -1.136,0 -1.701,0 z m -7.256,20.219 c -3.479,-1.645 -5.33,-6.934 -9.881,-8.027 -3.664,-0.891 -12.71,0.118 -16.054,0.157 -3.859,2.369 -7.577,5.543 -11.117,8.173 -1.177,0.88 -2.848,1.458 -3.243,2.939 2.919,0.905 5.793,2.208 8.956,1.389 1.078,-0.282 2.529,-1.358 3.554,-2.165 1.143,-0.895 2.415,-2.317 3.395,-2.312 0.7,0 2.156,1.299 3.241,2.008 5.805,3.783 10.356,7.084 15.745,10.647 1.501,0.986 5.063,3.846 6.484,4.167 2.718,0.611 5.793,0 8.485,0 2.69,0 5.311,0 8.494,0 0,-5.667 0,-11.315 0,-16.976 -6.017,0 -12.033,0 -18.059,0 l 0,0 z m -38.899,-4.629 c -2.56,0.505 -5.213,3.426 -8.494,4.014 -3.006,0.533 -6.495,0 -9.73,0 -3.144,0 -6.339,-0.126 -9.723,0.158 0.353,4.893 0.055,11.763 0.151,17.434 5.15,0 10.293,0 15.438,0 2.613,-2.082 8.841,-6.988 10.497,-1.376 2.56,-1.563 6.127,-0.093 6.488,2.468 1.312,-1.037 3.966,0.142 5.246,-0.782 3.432,2.104 6.903,4.983 10.495,7.103 1.156,0.678 3.937,1.397 4.019,-0.456 0.044,-1.03 -2.161,-2.164 -2.627,-2.476 -3.388,-2.24 -6.602,-3.947 -9.259,-6.318 0.227,-0.552 0.879,-0.675 1.23,-1.085 4.141,2.344 8.189,5.516 12.353,8.027 1.158,0.694 4.452,1.75 4.628,-0.312 0.114,-1.273 -2.51,-2.411 -3.083,-2.78 -3.79,-2.483 -7.26,-4.636 -10.497,-7.104 1.366,-2.343 3.739,0.319 5.408,1.4 3.006,1.934 4.937,3.079 8.027,5.088 0.921,0.599 2.705,2.402 4.471,2.16 1.211,-0.164 1.9,-1.413 1.698,-2.464 -0.263,-1.38 -3.714,-2.85 -5.248,-3.869 -4.134,-2.741 -6.825,-4.684 -10.812,-7.409 -1.375,-0.93 -4.458,-3.42 -5.868,-3.392 -0.786,0.019 -2.007,1.027 -2.77,1.537 -0.988,0.662 -1.869,1.35 -2.777,1.708 -2.941,1.15 -6.781,0.463 -9.727,-0.162 -1.948,-0.412 -5.135,-0.777 -5.253,-2.778 -0.118,-2.096 3.109,-3.64 4.481,-4.626 1.497,-1.081 2.766,-1.83 4.013,-2.78 0.263,-0.199 0.935,-0.5 0.771,-0.924 -0.929,0.166 -2.403,-0.237 -3.546,-0.004 z m -8.649,24.235 c 0.866,-0.251 4.231,-2.653 4.168,-3.558 -0.036,-0.45 -0.908,-1.552 -1.703,-1.07 -1.328,0.799 -4.223,2.57 -4.628,4.157 0.376,0.643 1.343,0.701 2.163,0.471 z m 2.16,2.16 c 0.324,2.891 4.315,-0.039 5.402,-0.774 1.158,-0.76 3.483,-1.643 2.934,-3.232 -0.376,-1.11 -1.866,-0.707 -2.312,-0.622 -1.187,0.221 -6.19,3.167 -6.024,4.628 l 0,0 z m 8.027,-0.149 c -0.671,0.427 -2.819,1.741 -2.774,2.616 0.137,2.979 4.7,0.321 5.864,-0.465 1.154,-0.765 3.34,-1.791 3.088,-3.236 -0.248,-1.413 -1.856,-1.053 -2.47,-0.924 -1.251,0.251 -2.644,1.312 -3.708,2.009 z m 9.263,-0.162 c 2.192,0.284 3.359,1.583 3.55,3.865 1.23,0.76 3.712,2.763 4.944,0.77 -2.552,-2.349 -5.719,-4.053 -8.645,-6.026 -0.048,0.571 0.025,1.014 0.151,1.391 z m -6.331,5.41 c 0,1.25 1.196,1.837 2.623,1.696 1.553,-0.155 4.763,-2.358 4.639,-3.859 -0.122,-1.439 -1.383,-1.629 -2.627,-1.391 -1.364,0.26 -4.635,2.156 -4.635,3.554 z"
   style="fill:#015b9b" />
		<path
   id="path21"
   inkscape:connector-curvature="0"
   d="m 260.887,362.738 c 0.427,5.906 0.948,11.705 2.009,16.971 -0.668,0 -1.33,0 -2.009,0 -1.11,-5.148 -1.597,-10.954 -2.001,-16.816 0.414,-0.3 1.347,-0.092 2.001,-0.155 z"
   style="fill:#ffffff" />
		<path
   id="path23"
   inkscape:connector-curvature="0"
   d="m 292.85,362.738 c 0,3.03 0,6.068 0,9.101 -0.673,0 -1.345,0 -2.011,0 0,-3.033 0,-6.07 0,-9.101 0.666,0 1.338,0 2.011,0 z"
   style="fill:#ffffff" />
		<path
   id="path25"
   inkscape:connector-curvature="0"
   d="m 324.651,362.738 c -0.067,5.85 -0.872,12.298 -2.016,17.598 -0.66,0 -1.333,0 -1.999,0 1.27,-5.367 1.484,-11.79 2.314,-17.598 0.566,0 1.132,0 1.701,0 z"
   style="fill:#ffffff" />
		<g
   id="g27">
			<path
   id="path29"
   inkscape:connector-curvature="0"
   d="m 290.838,420.468 c 0,3.808 0,7.624 0,11.422 -2.583,0.566 -3.262,-0.77 -4.477,-2.162 -1.938,-2.224 -4.183,-4.891 -5.555,-7.247 3.002,-0.919 6.278,-2.37 10.032,-2.013 z"
   style="fill:#015b9b" />
			<path
   id="path31"
   inkscape:connector-curvature="0"
   d="m 302.727,422.481 c -1.742,3.246 -4.729,6.588 -7.405,9.409 -0.83,0 -1.648,0 -2.472,0 0,-3.862 0,-7.712 0,-11.577 3.941,0.068 6.961,1.062 9.877,2.168 z"
   style="fill:#015b9b" />
			<path
   id="path33"
   inkscape:connector-curvature="0"
   d="m 285.125,431.578 c -4.464,-0.16 -9.307,-1.285 -13.425,-2.313 1.776,-2.431 4.427,-4.005 6.943,-5.706 2.329,2.509 4.101,5.576 6.482,8.019 l 0,0 z"
   style="fill:#015b9b" />
			<path
   id="path35"
   inkscape:connector-curvature="0"
   d="m 311.989,429.267 c -4.132,1.119 -8.62,1.875 -13.275,2.477 1.545,-2.574 4.294,-5.273 6.02,-8.183 2.829,1.493 5.381,3.263 7.255,5.706 l 0,0 z"
   style="fill:#015b9b" />
		</g>
	</g><g
     id="g77"
     transform="matrix(0.92779305,0,0,0.92765675,435.64212,51.850178)">
		<rect
   id="rect79"
   x="256.323"
   y="315.836"
   width="70.658997"
   height="47.112"
   style="fill:#ff0000" />
		<g
   id="g81">
			<rect
   id="rect83"
   x="256.323"
   y="315.836"
   width="35.910999"
   height="23.757"
   style="fill:#000095" />
			<g
   id="g85">
				<g
   id="g87">
					<path
   id="path89"
   inkscape:connector-curvature="0"
   d="m 271.008,324.16 c 0.52,-0.476 1.139,-0.846 1.836,-1.064 l -1.191,-1.179 -1.646,-1.607 0.585,2.225 0.416,1.625 0,0 z"
   style="fill:#ffffff" />
					<path
   id="path91"
   inkscape:connector-curvature="0"
   d="m 274.294,322.88 c 0.362,0 0.72,0.042 1.063,0.111 l -0.446,-1.614 -0.617,-2.214 -0.613,2.214 -0.446,1.614 c 0.337,-0.069 0.693,-0.111 1.059,-0.111 l 0,0 z"
   style="fill:#ffffff" />
					<path
   id="path93"
   inkscape:connector-curvature="0"
   d="m 278.923,326.261 1.151,-1.172 1.608,-1.634 -2.225,0.57 -1.591,0.419 c 0.47,0.517 0.841,1.136 1.057,1.817 z"
   style="fill:#ffffff" />
					<path
   id="path95"
   inkscape:connector-curvature="0"
   d="m 280.614,328.35 2.212,-0.618 -2.212,-0.62 -1.573,-0.428 c 0.067,0.331 0.109,0.686 0.109,1.049 0,0.358 -0.042,0.706 -0.109,1.044 l 1.573,-0.427 0,0 z"
   style="fill:#ffffff" />
					<path
   id="path97"
   inkscape:connector-curvature="0"
   d="m 269.661,326.266 c 0.221,-0.687 0.594,-1.305 1.078,-1.83 l -1.638,-0.422 -2.231,-0.576 1.619,1.64 1.172,1.188 0,0 z"
   style="fill:#ffffff" />
					<path
   id="path99"
   inkscape:connector-curvature="0"
   d="m 277.57,324.147 0.41,-1.603 0.579,-2.224 -1.644,1.616 -1.181,1.151 c 0.688,0.226 1.314,0.585 1.836,1.06 z"
   style="fill:#ffffff" />
					<path
   id="path101"
   inkscape:connector-curvature="0"
   d="m 277.559,331.331 c -0.524,0.463 -1.143,0.828 -1.823,1.042 l 1.164,1.144 1.646,1.618 -0.579,-2.231 -0.408,-1.573 z"
   style="fill:#ffffff" />
					<path
   id="path103"
   inkscape:connector-curvature="0"
   d="m 269.547,328.776 c -0.069,-0.338 -0.112,-0.692 -0.112,-1.044 0,-0.377 0.044,-0.735 0.133,-1.079 l -1.627,0.456 -2.219,0.601 2.219,0.614 1.606,0.452 z"
   style="fill:#ffffff" />
					<path
   id="path105"
   inkscape:connector-curvature="0"
   d="m 278.923,329.208 c -0.219,0.687 -0.587,1.297 -1.055,1.81 l 1.579,0.417 2.227,0.574 -1.608,-1.638 -1.143,-1.163 z"
   style="fill:#ffffff" />
					<path
   id="path107"
   inkscape:connector-curvature="0"
   d="m 274.294,332.591 c -0.366,0 -0.735,-0.044 -1.084,-0.127 l 0.438,1.594 0.617,2.219 0.613,-2.219 0.436,-1.581 c -0.329,0.07 -0.67,0.114 -1.02,0.114 l 0,0 z"
   style="fill:#ffffff" />
					<path
   id="path109"
   inkscape:connector-curvature="0"
   d="m 270.987,331.281 -0.421,1.614 -0.577,2.225 1.646,-1.613 1.168,-1.15 c -0.681,-0.222 -1.304,-0.592 -1.816,-1.076 l 0,0 z"
   style="fill:#ffffff" />
					<path
   id="path111"
   inkscape:connector-curvature="0"
   d="m 269.65,329.157 -1.175,1.194 -1.61,1.643 2.221,-0.583 1.608,-0.417 c -0.471,-0.523 -0.833,-1.149 -1.044,-1.837 l 0,0 z"
   style="fill:#ffffff" />
				</g>
				<path
   id="path113"
   inkscape:connector-curvature="0"
   d="m 278.66,327.732 c 0,2.415 -1.954,4.367 -4.366,4.367 -2.406,0 -4.364,-1.952 -4.364,-4.367 0,-2.407 1.958,-4.366 4.364,-4.366 2.413,0 4.366,1.959 4.366,4.366 z"
   style="fill:#ffffff" />
			</g>
		</g>
	</g><g
     id="g115"
     transform="matrix(0.92923133,0,0,0.92765675,435.04237,51.850178)">
		<path
   id="path117"
   inkscape:connector-curvature="0"
   d="M 335.572,379.923 H 317.44 c -0.986,-0.607 -1.938,-1.718 -2.943,-2.874 -1.85,-2.142 -3.939,-4.559 -7.319,-5.372 -1.217,-0.292 -2.919,-0.428 -5.194,-0.428 -2.59,0 -5.562,0.177 -7.951,0.328 -1.654,0.101 -3.081,0.184 -4.008,0.195 l -0.618,0.022 -0.523,0.321 c -1.56,0.945 -3.09,2.01 -4.582,3.126 l -4.082,0.132 h -0.04 c -0.248,0 -0.607,-0.054 -1.001,-0.118 -0.559,-0.085 -1.196,-0.191 -1.869,-0.191 -0.393,0 -0.765,0.048 -1.118,0.109 -1.623,0.321 -3.102,1.251 -4.532,2.135 -1.385,0.872 -2.812,1.76 -4.21,2.012 -0.795,0.135 -1.726,0.213 -2.854,0.213 -1.053,0 -2.146,-0.066 -3.294,-0.12 -1.152,-0.062 -2.35,-0.128 -3.523,-0.128 -0.763,0 -1.534,-0.012 -2.312,-0.021 -0.801,0 -1.6,-0.013 -2.409,-0.013 -1.476,0 -3.437,0.022 -5.528,0.204 l -2.19,0.174 0.158,2.202 c 0.221,3.058 0.191,7.017 0.162,10.847 -0.023,2.373 -0.046,4.827 0,7.083 l 0.034,2.182 h 2.188 15.274 l -0.078,0.35 0.45,0.792 c 0.633,1.085 1.824,1.704 3.266,1.704 0.303,0 0.603,-0.038 0.908,-0.083 0,0.071 0,0.138 0.015,0.205 0.212,1.994 1.568,3.28 3.451,3.28 0.664,0 1.33,-0.168 2.005,-0.426 0.269,1.872 1.671,3.101 3.605,3.101 0.742,0 1.532,-0.176 2.295,-0.445 0.244,2.069 2.054,3.528 4.479,3.528 0.212,0 0.422,-0.017 0.639,-0.037 1.73,-0.173 4.588,-1.721 5.986,-3.761 l 0.132,0.081 c 0.13,0.074 0.271,0.174 0.433,0.277 1.049,0.696 2.638,1.745 4.353,1.745 1.417,0 2.623,-0.692 3.397,-1.95 l 0.111,-0.188 c 0.551,0.142 1.141,0.238 1.724,0.238 1.942,0 3.355,-1.074 3.689,-2.747 0.866,0.312 1.856,0.53 2.762,0.53 2.022,0 3.47,-1.118 3.8,-2.878 0.601,0.226 1.265,0.38 1.963,0.38 0.216,0 0.437,-0.018 0.649,-0.037 1.15,-0.172 2.171,-0.785 2.865,-1.749 0.462,-0.652 0.744,-1.401 0.818,-2.161 0.225,0.076 0.437,0.148 0.637,0.201 1.005,0.227 2.119,0.338 3.397,0.338 1.089,0 2.152,-0.088 3.189,-0.155 0.946,-0.071 1.854,-0.133 2.686,-0.133 h 8.792 2.222 v -2.221 -17.574 -2.223 h -2.224 v -0.002 z"
   style="fill:#896d2c" />
		<g
   id="g119">
			<path
   id="path121"
   inkscape:connector-curvature="0"
   d="m 287.576,402.914 c 3.027,2.031 6.306,3.795 8.939,6.23 -1.265,2.06 -3.84,-0.02 -5.108,-0.803 -0.2,-2.361 -1.406,-3.7 -3.678,-3.99 -0.132,-0.401 -0.205,-0.862 -0.153,-1.437 l 0,0 z"
   style="fill:#f0b63b" />
			<g
   id="g123">
				<g
   id="g125">
					<path
   id="path127"
   inkscape:connector-curvature="0"
   d="m 335.488,382.148 c 0,5.857 0,11.709 0,17.574 -3.289,0 -5.997,0 -8.782,0 -2.796,0 -5.974,0.625 -8.786,0 -1.478,-0.334 -5.158,-3.295 -6.709,-4.328 -5.581,-3.675 -10.282,-7.095 -16.294,-11.014 -1.114,-0.725 -2.617,-2.063 -3.348,-2.079 -1.011,0 -2.335,1.476 -3.519,2.398 -1.053,0.832 -2.562,1.944 -3.676,2.232 -3.273,0.86 -6.243,-0.5 -9.263,-1.435 0.408,-1.53 2.138,-2.124 3.359,-3.028 3.657,-2.722 7.5,-6.021 11.495,-8.468 3.46,-0.028 12.826,-1.079 16.613,-0.155 4.702,1.135 6.627,6.595 10.226,8.302 6.231,0.001 12.459,0.001 18.684,0.001 z"
   style="fill:#f0b63b" />
				</g>
				<g
   id="g129">
					<path
   id="path131"
   inkscape:connector-curvature="0"
   d="m 280.224,377.355 c 0.177,0.454 -0.53,0.752 -0.801,0.958 -1.284,0.978 -2.598,1.749 -4.153,2.876 -1.412,1.031 -4.757,2.621 -4.63,4.795 0.124,2.06 3.416,2.442 5.431,2.864 3.046,0.646 7.02,1.353 10.066,0.174 0.942,-0.373 1.854,-1.079 2.873,-1.763 0.794,-0.53 2.06,-1.588 2.877,-1.601 1.446,-0.022 4.641,2.542 6.07,3.519 4.12,2.814 6.905,4.823 11.18,7.667 1.587,1.062 5.158,2.562 5.435,3.996 0.204,1.086 -0.517,2.372 -1.763,2.552 -1.833,0.256 -3.666,-1.605 -4.633,-2.236 -3.191,-2.085 -5.19,-3.251 -8.302,-5.278 -1.726,-1.103 -4.172,-3.861 -5.591,-1.427 3.352,2.547 6.93,4.769 10.858,7.344 0.591,0.393 3.31,1.559 3.191,2.874 -0.177,2.128 -3.592,1.043 -4.786,0.325 -4.309,-2.585 -8.502,-5.882 -12.779,-8.312 -0.37,0.43 -1.043,0.557 -1.286,1.121 2.76,2.467 6.085,4.225 9.591,6.548 0.481,0.317 2.766,1.497 2.72,2.553 -0.093,1.92 -2.97,1.184 -4.155,0.476 -3.722,-2.19 -7.312,-5.173 -10.867,-7.333 -1.32,0.939 -4.065,-0.277 -5.425,0.794 -0.372,-2.641 -4.059,-4.178 -6.711,-2.555 -1.711,-5.803 -8.159,-0.726 -10.858,1.437 -5.322,0 -10.652,0 -15.974,0 -0.103,-5.867 0.206,-12.977 -0.162,-18.055 3.502,-0.297 6.81,-0.159 10.068,-0.159 3.338,0 6.953,0.559 10.057,0 3.403,-0.607 6.142,-3.623 8.792,-4.153 1.185,-0.239 2.704,0.183 3.667,-10e-4 l 0,0 z"
   style="fill:#f0b63b" />
				</g>
				<g
   id="g133">
					<path
   id="path135"
   inkscape:connector-curvature="0"
   d="m 265.374,401.953 c 0.412,-1.638 3.407,-3.489 4.784,-4.31 0.815,-0.487 1.73,0.647 1.766,1.12 0.061,0.922 -3.426,3.418 -4.315,3.673 -0.85,0.245 -1.852,0.171 -2.235,-0.483 z"
   style="fill:#f0b63b" />
				</g>
				<g
   id="g137">
					<path
   id="path139"
   inkscape:connector-curvature="0"
   d="m 276.068,399.881 c 0.467,-0.091 2.011,-0.498 2.402,0.637 0.57,1.649 -1.839,2.555 -3.039,3.354 -1.122,0.74 -5.263,3.781 -5.591,0.795 -0.165,-1.51 5.003,-4.558 6.228,-4.786 z"
   style="fill:#f0b63b" />
				</g>
				<g
   id="g141">
					<path
   id="path143"
   inkscape:connector-curvature="0"
   d="m 281.983,402.436 c 0.639,-0.129 2.299,-0.509 2.552,0.956 0.256,1.494 -1.993,2.548 -3.191,3.359 -1.204,0.799 -5.932,3.55 -6.074,0.476 -0.038,-0.901 2.19,-2.268 2.88,-2.716 1.099,-0.717 2.54,-1.81 3.833,-2.075 z"
   style="fill:#f0b63b" />
				</g>
				<g
   id="g145">
					<path
   id="path147"
   inkscape:connector-curvature="0"
   d="m 285.972,406.268 c 1.293,-0.252 2.604,-0.048 2.716,1.437 0.13,1.553 -3.182,3.833 -4.788,3.987 -1.476,0.155 -2.716,-0.463 -2.716,-1.743 0,-1.45 3.384,-3.407 4.788,-3.681 z"
   style="fill:#f0b63b" />
				</g>
			</g>
		</g>
	</g></g><g
   id="g76"
   style="fill:#323288;fill-opacity:1"
   transform="matrix(2.5,0,0,2.5,-1206.373,-719.3172)">
	<path
   inkscape:connector-curvature="0"
   d="m 612.584,516.886 h -0.359 l -0.067,0.457 c -0.066,0.284 -0.268,0.24 -0.604,-0.129 -0.335,-0.328 -0.537,-0.763 -0.626,-1.308 -0.425,-1.765 -0.919,-3.18 -1.521,-4.247 -0.18,-0.263 -0.226,-0.437 -0.113,-0.566 0.09,-0.131 0.494,-0.109 1.164,0.043 0.202,0.044 1.275,-0.065 3.157,-0.306 l 2.149,-0.305 V 508 c -0.024,-0.523 -0.246,-0.98 -0.718,-1.352 -0.223,-0.195 -0.246,-0.348 -0.067,-0.5 0.2,-0.239 0.472,-0.284 0.785,-0.197 0.716,0.174 1.251,0.413 1.678,0.741 0.314,0.219 0.402,0.479 0.289,0.74 -0.289,0.436 -0.47,1.417 -0.514,2.919 l 3.404,-0.5 c 0.962,-0.305 1.589,-0.328 1.835,-0.11 0.47,0.284 0.896,0.589 1.318,0.937 0.472,0.326 0.518,0.676 0.137,1.047 -0.583,0.457 -1.008,1.045 -1.299,1.763 l -0.648,1.636 c 0.425,0.326 0.648,0.565 0.648,0.718 -0.023,0.132 -0.156,0.219 -0.358,0.239 -1.947,0.066 -3.692,0.153 -5.172,0.306 0,5.313 -0.156,8.319 -0.446,8.951 -0.135,0.35 -0.313,0.394 -0.561,0.131 l -0.09,-0.174 c -0.2,-0.37 -0.268,-3.332 -0.222,-8.801 -1.275,0.11 -2.33,0.24 -3.179,0.392 z m 3.201,-5.64 c -0.561,0.021 -1.188,0.108 -1.836,0.217 -1.656,0.218 -2.572,0.437 -2.707,0.567 l 0.827,3.572 0.067,0.348 3.648,-0.348 v -4.356 z m 1.296,4.225 3.472,-0.545 c 0.895,-2.243 1.252,-3.572 1.051,-3.964 -0.11,-0.174 -0.291,-0.239 -0.604,-0.219 l -3.805,0.327 -0.114,4.401 z"
   id="path78"
   style="fill:#323288;fill-opacity:1" />
	<path
   inkscape:connector-curvature="0"
   d="m 637.913,521.068 c -1.499,0.153 -2.889,0.371 -4.231,0.721 -0.246,0.063 -0.492,0.063 -0.807,-0.023 -0.268,-0.087 -0.49,-0.239 -0.692,-0.413 -0.246,-0.239 -0.202,-0.392 0.135,-0.413 l 5.798,-0.654 0.021,-1.786 -2.619,0.37 c -0.291,0.087 -0.537,0.066 -0.739,-0.065 l -0.514,-0.37 c -0.291,-0.24 -0.246,-0.393 0.133,-0.414 l 1.928,-0.152 1.834,-0.174 V 515.1 c -0.918,0.044 -1.745,0.176 -2.419,0.328 l 0.135,1.523 c -0.044,0.174 -0.177,0.197 -0.379,0.044 -0.179,-0.152 -0.404,-0.631 -0.672,-1.438 -1.343,0.218 -2.598,0.479 -3.806,0.807 -0.246,0.063 -0.537,0.063 -0.874,-0.023 -0.29,-0.087 -0.516,-0.239 -0.736,-0.457 -0.247,-0.239 -0.202,-0.393 0.133,-0.435 l 5.059,-0.523 c -0.178,-0.479 -0.448,-0.893 -0.826,-1.263 -0.248,-0.239 -0.225,-0.437 0.021,-0.567 0.335,-0.13 0.783,-0.064 1.32,0.152 0.27,0.065 0.402,0.218 0.402,0.502 l 0.135,1.023 2.507,-0.306 c 0,-0.937 -0.179,-1.765 -0.516,-2.482 h -0.133 c -0.806,0.196 -1.478,0.131 -2.015,-0.219 -0.337,-0.239 -0.27,-0.392 0.224,-0.435 0.873,-0.065 1.97,-0.262 3.29,-0.522 1.478,-0.414 2.419,-0.61 2.775,-0.523 0.359,0.109 0.605,0.218 0.717,0.37 0.067,0.108 0.021,0.219 -0.111,0.327 -0.157,0.087 -1.343,0.37 -3.492,0.763 0.47,0.261 0.694,0.544 0.648,0.805 l -0.224,1.765 2.732,-0.37 c 0.178,-0.979 0.178,-1.655 0.021,-1.96 -0.113,-0.152 -0.113,-0.284 0.044,-0.371 0.246,-0.129 0.493,-0.129 0.716,0.023 0.495,0.239 0.829,0.456 1.009,0.674 0.156,0.152 0.109,0.328 -0.091,0.545 l -0.47,0.915 2.396,-0.437 c 1.029,-0.261 1.991,-0.087 2.842,0.567 0.268,0.195 0.357,0.392 0.268,0.587 -0.067,0.132 -0.268,0.197 -0.581,0.197 l -5.35,0.087 c -0.47,1.133 -0.872,1.852 -1.097,2.025 -0.202,0.087 -0.313,0.065 -0.359,-0.087 -0.021,-0.261 0.134,-0.915 0.447,-1.895 -0.938,0.021 -1.789,0.064 -2.551,0.174 l -0.045,2.505 0.716,-0.153 c 1.344,-0.37 2.262,-0.392 2.732,-0.042 0.313,0.152 0.446,0.326 0.424,0.457 -0.135,0.174 -0.268,0.24 -0.402,0.217 l -3.47,0.371 v 1.785 l 4.364,-0.696 c 0.516,-0.108 1.188,0.087 1.949,0.654 0.247,0.195 0.335,0.369 0.247,0.544 -0.068,0.108 -0.247,0.174 -0.539,0.174 -3.089,0 -5.104,0.045 -5.998,0.132 l -0.089,3.419 c -0.046,0.763 -0.181,1.264 -0.448,1.437 -0.111,0.023 -0.203,0 -0.313,-0.129 -0.226,-0.392 -0.313,-1.917 -0.313,-4.598 h -0.201 z m -0.47,-10.824 c -0.046,0.174 -0.181,0.195 -0.359,0.043 -0.178,-0.174 -0.379,-0.632 -0.603,-1.328 l -3.268,0.783 c -0.248,0.066 -0.494,0.045 -0.72,-0.107 -0.379,-0.132 -0.69,-0.328 -0.895,-0.545 -0.089,-0.131 -0.109,-0.263 -0.067,-0.371 0.024,-0.065 0.092,-0.087 0.248,-0.065 h 1.388 l 3.09,-0.413 c -0.137,-0.523 -0.427,-0.98 -0.852,-1.417 -0.224,-0.217 -0.201,-0.413 0.046,-0.565 0.288,-0.132 0.737,-0.066 1.297,0.196 0.292,0.064 0.425,0.239 0.425,0.5 l 0.113,1.155 0.984,-0.153 c 0.179,0.045 0.292,0.108 0.313,0.197 0.021,0.087 0,0.174 -0.112,0.239 -0.248,0.13 -0.469,0.217 -0.671,0.217 l -0.426,0.109 c 0.092,0.829 0.114,1.349 0.069,1.525 z m 2.91,-0.241 c -0.201,0.11 -0.314,0.065 -0.336,-0.107 -0.022,-0.261 0.11,-0.806 0.382,-1.59 l -0.313,-0.218 c -0.226,-0.197 -0.18,-0.306 0.177,-0.328 h 0.27 c 0.223,-1.023 0.269,-1.763 0.111,-2.112 -0.111,-0.152 -0.089,-0.261 0.067,-0.348 0.225,-0.11 0.448,-0.11 0.672,0.021 0.469,0.239 0.783,0.479 0.94,0.696 0.156,0.132 0.112,0.306 -0.09,0.501 -0.335,0.546 -0.537,0.938 -0.581,1.154 l 2.014,-0.239 c 1.163,-0.261 2.082,-0.108 2.708,0.436 0.137,0.195 0.179,0.348 0.137,0.501 -0.067,0.109 -0.226,0.152 -0.427,0.131 -1.209,-0.239 -2.597,-0.239 -4.186,0.021 h -0.65 c -0.359,0.807 -0.672,1.307 -0.895,1.481 z"
   id="path80"
   style="fill:#323288;fill-opacity:1" />
	<path
   inkscape:connector-curvature="0"
   d="m 659.973,516.604 c -0.895,0.239 -1.722,0.195 -2.417,-0.131 -0.47,-0.239 -0.381,-0.437 0.2,-0.589 1.344,-0.174 2.577,-0.435 3.674,-0.761 l 0.133,-0.045 -0.38,-1.11 c -0.225,-0.741 -0.562,-1.285 -0.984,-1.678 l -0.069,-0.152 c -1.163,0.152 -2.08,0.326 -2.775,0.523 h -0.604 c 0,2.33 -0.156,4.944 -0.448,7.862 0,0.239 0.135,0.305 0.403,0.176 2.173,-1.025 3.402,-1.525 3.604,-1.525 0.179,0.021 0.2,0.108 0.157,0.261 -0.092,0.131 -0.313,0.326 -0.673,0.544 -2.842,2.005 -4.432,3.246 -4.769,3.77 -0.2,0.283 -0.423,0.348 -0.648,0.218 l -0.179,-0.197 c -0.559,-0.696 -0.672,-1.328 -0.27,-1.785 0.716,-0.829 1.097,-1.655 1.164,-2.505 0.627,-4.966 0.606,-8.43 -0.067,-10.39 v -0.044 l -0.2,-0.523 c -0.156,-0.261 -0.156,-0.458 0.045,-0.566 0.134,-0.107 0.381,-0.087 0.715,0.045 0.293,0.152 0.628,0.369 0.987,0.652 2.527,-0.457 4.632,-1.045 6.289,-1.741 0.269,-0.11 0.492,-0.11 0.76,-0.089 0.739,0.241 1.412,0.61 1.971,1.067 0.246,0.306 0.2,0.61 -0.089,0.895 -0.47,0.261 -1.008,0.957 -1.545,2.067 0.337,0.219 0.516,0.394 0.516,0.502 -0.023,0.132 -0.113,0.219 -0.27,0.239 -1.074,0.108 -2.015,0.219 -2.842,0.371 l 0.223,0.087 c 0.693,0.261 1.007,0.565 0.939,0.915 -0.089,0.5 -0.044,1.11 0.113,1.786 l 1.701,-0.676 c 0.491,-0.195 0.985,-0.261 1.499,-0.195 0.472,0.087 0.783,0.195 0.92,0.393 0.089,0.129 0.065,0.261 -0.069,0.413 -0.111,0.108 -0.583,0.305 -1.432,0.523 l -2.284,0.631 c 0.581,1.373 1.501,2.744 2.687,4.051 0.718,0.808 1.434,1.46 2.217,1.918 0.692,0.457 1.208,0.696 1.543,0.676 0.225,0.021 0.448,-0.284 0.694,-0.916 l 0.581,-1.415 c 0.047,-0.197 0.091,-0.305 0.204,-0.305 0.089,0.021 0.133,0.129 0.156,0.326 0.065,2.112 0.2,3.419 0.357,3.898 0.135,0.479 -0.022,0.784 -0.448,0.85 -0.537,-0.043 -1.252,-0.306 -2.17,-0.806 -0.807,-0.392 -1.522,-0.894 -2.173,-1.438 -2.038,-1.786 -3.603,-4.008 -4.678,-6.6 l -1.969,0.523 z m -3.223,-4.705 c 1.7,-0.261 3.649,-0.653 5.798,-1.242 h 0.135 l 0.625,-1.917 c 0.024,-0.218 0,-0.392 -0.089,-0.523 -0.2,-0.174 -0.514,-0.194 -0.94,-0.063 l -5.192,1.219 -0.157,0.044 v 0.087 c -0.156,0.632 -0.2,1.35 -0.179,2.136 v 0.259 z"
   id="path82"
   style="fill:#323288;fill-opacity:1" />
	<path
   inkscape:connector-curvature="0"
   d="m 677.693,523.943 c -0.181,0.197 -0.358,0.197 -0.537,-0.021 -0.648,-0.74 -0.807,-1.59 -0.56,-2.526 0.268,-0.915 0.446,-1.785 0.538,-2.571 0.289,-3.246 0.356,-6.076 0.154,-8.451 l -0.603,-2.221 c -0.111,-0.218 -0.09,-0.371 0.043,-0.437 0.202,-0.065 0.381,-0.065 0.56,0 0.313,0.108 0.583,0.261 0.762,0.437 l 1.499,-0.089 c 2.821,-0.5 5.396,-0.892 7.769,-1.176 0.807,-0.108 1.32,-0.239 1.588,-0.348 l 0.427,-0.087 c 0.179,-0.044 0.716,0.195 1.522,0.719 0.492,0.326 0.76,0.587 0.783,0.783 0.022,0.108 -0.067,0.284 -0.245,0.502 l -0.113,0.174 c -0.357,0.501 -0.357,3.878 0,10.13 0.335,2.765 0.27,4.573 -0.2,5.423 -0.137,0.304 -0.313,0.479 -0.516,0.501 -0.202,0.021 -0.404,-0.153 -0.56,-0.501 -0.358,-0.696 -0.672,-1.198 -0.985,-1.504 -4.857,0.087 -8.417,0.306 -10.722,0.676 h -0.314 c -0.044,0.195 -0.133,0.393 -0.29,0.587 z m 11.886,-1.72 c 0.067,0 0.156,-0.087 0.226,-0.282 0.155,-0.305 0.223,-0.807 0.155,-1.525 l -0.113,-5.14 c 0,-4.553 -0.2,-7.036 -0.581,-7.428 -0.089,-0.176 -0.335,-0.263 -0.738,-0.24 -1.813,0.13 -3.896,0.393 -6.289,0.806 l -3.158,0.61 -0.604,0.129 v 0.153 l -0.291,11.109 -0.088,2.047 c 2.865,-0.108 6.086,-0.413 9.669,-0.958 0.559,-0.087 0.939,-0.044 1.231,0.152 l 0.581,0.567 z m -6.066,-4.639 c 0.156,-0.043 0.247,-0.043 0.314,0.022 0,0.108 -0.067,0.174 -0.226,0.282 -0.156,0.152 -0.335,0.284 -0.583,0.392 -1.701,0.916 -2.685,1.46 -2.887,1.634 -0.111,0.11 -0.246,0.131 -0.357,0.11 l -0.985,-0.523 c -0.111,-0.087 -0.157,-0.195 -0.135,-0.348 0,-0.131 0.091,-0.197 0.246,-0.218 0.447,0 2.015,-0.458 4.613,-1.351 z m -3,0 c -0.066,0.152 -0.203,0.131 -0.403,-0.108 -0.156,-0.197 -0.268,-0.458 -0.313,-0.741 -0.202,-1.002 -0.449,-1.786 -0.737,-2.418 -0.113,-0.174 -0.113,-0.282 -0.046,-0.348 l 0.246,-0.044 0.604,0.152 1.209,-0.305 c 0.381,-0.108 0.718,-0.24 0.985,-0.437 0.224,-0.15 0.448,-0.15 0.694,-0.021 l 0.829,0.502 c 0.268,0.152 0.268,0.369 0,0.674 -0.248,0.263 -0.494,0.828 -0.694,1.723 0.268,0.174 0.426,0.305 0.426,0.392 0,0.108 -0.069,0.174 -0.226,0.195 -0.603,0.022 -1.455,0.174 -2.506,0.392 l -0.068,0.392 z m 3.18,-5.619 -2.865,0.652 c -0.314,0.11 -0.739,0 -1.166,-0.305 -0.289,-0.174 -0.268,-0.305 0.09,-0.371 l 3.783,-0.739 c -0.268,-1.35 -0.516,-2.069 -0.67,-2.112 -0.248,-0.239 -0.225,-0.415 0.043,-0.502 h 0.202 c 0.157,0 0.379,0.065 0.65,0.218 0.268,0.153 0.446,0.261 0.514,0.371 0.067,0.13 0.044,0.348 -0.067,0.632 l 0.09,1.154 h 0.066 c 1.008,-0.393 1.747,-0.458 2.148,-0.174 0.27,0.108 0.428,0.239 0.402,0.392 l -0.088,0.108 -2.35,0.502 c 0.381,1.786 0.827,3.18 1.254,4.094 0.603,-1.242 0.805,-2.155 0.624,-2.723 -0.065,-0.152 -0.021,-0.261 0.092,-0.282 0.133,-0.065 0.313,-0.065 0.603,0 0.246,0.043 0.472,0.13 0.648,0.282 0.181,0.11 0.293,0.239 0.339,0.37 l -0.339,0.676 c -0.535,1.11 -1.051,2.005 -1.453,2.657 0.649,0.98 1.165,1.568 1.411,1.743 0.223,0.153 0.56,-0.241 0.895,-1.198 0.111,-0.284 0.224,-0.437 0.313,-0.414 0.11,0.021 0.135,0.195 0.089,0.521 -0.046,0.589 -0.046,1.308 0.046,2.114 0.111,0.5 0.111,0.806 0.021,0.893 -0.089,0.152 -0.224,0.196 -0.402,0.176 -0.135,0 -0.402,-0.132 -0.739,-0.371 -0.783,-0.567 -1.523,-1.46 -2.193,-2.614 l -0.091,0.108 c -1.185,1.591 -2.237,2.527 -3.109,2.724 -0.157,-0.022 -0.179,-0.065 -0.067,-0.109 1.411,-1.547 2.348,-2.744 2.843,-3.594 -0.605,-1.329 -1.165,-2.962 -1.567,-4.879 z m -1.68,4.137 c 0.179,-1.132 0.225,-1.765 0.179,-1.808 -0.067,-0.109 -0.226,-0.131 -0.493,-0.087 l -1.478,0.348 0.292,2.005 1.32,-0.413 0.18,-0.045 z m 4.006,-6.969 c -0.021,-0.153 0,-0.24 0.067,-0.306 0.225,-0.087 0.739,0.045 1.568,0.393 0.381,0.152 0.603,0.349 0.67,0.589 0.113,0.347 0.134,0.609 0.067,0.762 -0.067,0.153 -0.156,0.24 -0.291,0.261 -0.179,0 -0.357,-0.065 -0.537,-0.218 l -0.985,-0.913 c -0.334,-0.22 -0.513,-0.416 -0.559,-0.568 z"
   id="path84"
   style="fill:#323288;fill-opacity:1" />
	<path
   inkscape:connector-curvature="0"
   d="m 699.216,513.751 c -1.343,1.741 -2.328,2.701 -2.955,2.854 -0.222,0.043 -0.313,-0.023 -0.246,-0.197 l 0.269,-0.37 c 1.074,-1.284 1.993,-2.505 2.754,-3.681 0.805,-1.198 1.478,-2.461 1.971,-3.747 0.177,-0.369 0.155,-0.806 -0.067,-1.242 -0.135,-0.326 -0.069,-0.521 0.223,-0.544 0.293,-0.021 0.648,0.11 1.076,0.392 0.425,0.328 0.67,0.567 0.738,0.763 0.089,0.197 0.067,0.393 -0.09,0.567 -0.337,0.306 -0.695,0.827 -1.076,1.523 l -1.924,2.833 0.873,0.892 c 0.156,0.153 0.156,0.415 0.045,0.808 -0.135,0.828 -0.202,3.136 -0.248,6.926 0.024,0.676 -0.089,1.286 -0.311,1.852 -0.181,0.415 -0.405,0.479 -0.652,0.239 l -0.065,-0.065 c -0.516,-0.697 -0.694,-1.394 -0.536,-2.047 l 0.514,-2.352 c 0.335,-2.636 0.27,-4.466 -0.226,-5.489 l -0.067,0.085 z m 7.007,2.983 c -0.023,0.152 -0.156,0.109 -0.382,-0.108 -0.155,-0.152 -0.269,-0.371 -0.312,-0.632 -0.204,-0.783 -0.425,-1.415 -0.694,-1.917 -0.426,0.502 -0.828,0.915 -1.275,1.221 -0.896,0.676 -1.501,1.002 -1.79,0.915 -0.137,-0.023 -0.113,-0.132 0.042,-0.306 1.613,-1.372 2.845,-2.854 3.582,-4.4 l -0.717,0.195 c -0.694,0.219 -1.252,0.152 -1.656,-0.152 -0.222,-0.195 -0.2,-0.304 0.067,-0.348 l 2.709,-0.523 c 0.426,-0.979 0.516,-1.612 0.358,-1.894 -1.007,0.305 -1.657,0.457 -1.834,0.457 -0.067,-0.044 -0.067,-0.131 0,-0.239 2.84,-1.243 4.251,-2.18 4.251,-2.767 0,-0.152 0.067,-0.239 0.179,-0.306 0.181,-0.021 0.359,0.021 0.583,0.132 0.627,0.239 1.073,0.456 1.366,0.674 0.179,0.131 0.223,0.284 0.179,0.437 -0.044,0.107 -0.202,0.174 -0.446,0.194 -0.539,0.11 -1.122,0.284 -1.747,0.523 l -1.612,0.632 c 0.427,0.218 0.694,0.48 0.738,0.72 0.045,0.108 0,0.217 -0.111,0.326 l -0.583,0.85 0.492,-0.109 3.091,-0.761 c 0.783,-0.241 1.566,-0.153 2.284,0.281 0.222,0.153 0.313,0.326 0.246,0.479 l -0.271,0.152 -4.229,0.392 c 1.142,0.895 2.352,1.744 3.627,2.483 l 4.116,1.482 c 0.181,0.064 0.271,0.13 0.248,0.217 -0.022,0.065 -0.155,0.109 -0.381,0.131 -0.918,0.219 -1.834,0.326 -2.73,0.306 -0.516,0 -0.896,-0.153 -1.208,-0.437 -1.411,-1.219 -2.754,-2.525 -4.053,-3.898 l -0.179,-0.195 c -0.426,0.021 -0.941,0.13 -1.499,0.282 -0.516,1.023 -1.031,1.873 -1.455,2.417 l 0.604,0.152 c 1.186,-0.129 2.126,-0.413 2.774,-0.739 0.248,-0.131 0.448,-0.131 0.672,0.021 l 0.827,0.544 c 0.293,0.197 0.27,0.437 -0.042,0.697 -0.204,0.174 -0.428,0.566 -0.674,1.176 0.202,0.153 0.313,0.263 0.313,0.35 -0.021,0.087 -0.088,0.132 -0.225,0.152 -1.297,0.066 -2.213,0.174 -2.796,0.306 h -0.404 l -0.043,0.435 z m -3.805,1.307 c -0.091,-0.152 -0.046,-0.239 0.11,-0.305 0.225,0 0.538,0.087 0.919,0.263 l 2.506,-0.306 3.718,-0.502 c 0.983,-0.108 1.656,-0.195 2.013,-0.305 0.225,-0.108 0.472,-0.13 0.762,-0.043 0.604,0.239 1.007,0.458 1.188,0.61 0.111,0.152 0.089,0.305 -0.046,0.5 -0.201,0.263 -0.268,1.373 -0.224,3.29 0,1.219 -0.179,2.178 -0.493,2.81 -0.179,0.435 -0.357,0.719 -0.492,0.784 -0.179,0.087 -0.359,0.044 -0.514,-0.108 -0.313,-0.458 -0.74,-0.894 -1.277,-1.33 -0.447,-0.261 -0.67,-0.5 -0.716,-0.653 -0.065,-0.152 0.022,-0.196 0.248,-0.173 l 1.208,0.107 c 0.356,0 0.514,-0.194 0.537,-0.544 0.2,-1.525 0.268,-2.701 0.223,-3.551 -0.022,-0.348 -0.157,-0.566 -0.379,-0.653 -0.181,-0.152 -0.427,-0.218 -0.74,-0.218 -4.32,0.305 -6.737,0.632 -7.231,0.937 l -0.089,3.027 c 0,1.047 -0.2,1.721 -0.581,2.004 -0.111,0.087 -0.225,0.045 -0.313,-0.131 -0.47,-0.521 -0.561,-1.132 -0.246,-1.763 0.402,-1.308 0.402,-2.44 0.021,-3.422 l -0.043,-0.174 -0.069,-0.151 z m 3.738,4.552 c -0.067,0.174 -0.202,0.132 -0.402,-0.107 -0.156,-0.176 -0.246,-0.371 -0.27,-0.655 -0.158,-0.85 -0.357,-1.525 -0.627,-2.069 -0.112,-0.195 -0.112,-0.304 -0.045,-0.369 0.045,-0.065 0.135,-0.065 0.293,-0.022 0.357,0.065 0.603,0.131 0.736,0.196 1.434,-0.239 2.418,-0.544 2.956,-0.85 l 0.291,-0.087 1.275,0.74 c 0.291,0.175 0.291,0.436 -0.044,0.741 -0.268,0.194 -0.514,0.609 -0.807,1.285 0.246,0.174 0.358,0.304 0.358,0.393 -0.023,0.108 -0.091,0.152 -0.224,0.174 -1.41,0.065 -2.439,0.174 -3.067,0.305 h -0.357 l -0.066,0.325 z m 2.082,-7.34 h 0.225 l 0.2,-0.739 c 0.067,-0.284 0.089,-0.437 0.023,-0.479 -0.091,-0.175 -0.337,-0.218 -0.739,-0.131 l -1.969,0.413 0.222,1.395 2.038,-0.435 v -0.024 z m 0.292,5.968 0.289,-0.85 c 0.135,-0.327 0.157,-0.545 0.09,-0.61 -0.09,-0.174 -0.357,-0.217 -0.783,-0.13 l -2.104,0.458 0.179,1.567 2.217,-0.436 h 0.112 z"
   id="path86"
   style="fill:#323288;fill-opacity:1" />
	<path
   inkscape:connector-curvature="0"
   d="m 720.496,515.253 c -0.627,0.219 -1.054,0.197 -1.277,-0.065 -0.312,-0.261 -0.27,-0.435 0.09,-0.5 1.769,-0.326 3.693,-0.763 5.775,-1.329 1.231,-0.37 2.015,-0.501 2.305,-0.37 1.03,0.437 1.522,0.763 1.546,0.937 0.021,0.174 -0.113,0.305 -0.426,0.392 -0.425,0.152 -1.12,0.61 -2.149,1.373 -0.157,0.174 -0.29,0.218 -0.403,0.174 -0.11,-0.043 -0.089,-0.174 0.022,-0.392 0.381,-0.742 0.583,-1.242 0.583,-1.438 -0.046,-0.196 -0.292,-0.241 -0.74,-0.131 l -1.497,0.326 c 0.334,0.239 0.56,0.545 0.76,0.937 0.335,0.589 0.49,1.547 0.516,2.875 0.089,1.896 -0.046,3.398 -0.427,4.532 -0.268,0.718 -0.561,1.176 -0.896,1.328 -0.246,0.108 -0.492,0.042 -0.738,-0.239 -0.291,-0.502 -0.716,-1.089 -1.276,-1.721 -0.202,-0.176 -0.27,-0.284 -0.202,-0.305 0.067,-0.045 0.18,-0.045 0.335,0.021 l 1.457,0.153 c 0.179,-0.153 0.357,-0.566 0.472,-1.308 0.334,-1.415 0.313,-2.962 -0.047,-4.618 -1.254,2.243 -2.463,3.79 -3.56,4.618 -1.051,0.85 -1.745,1.221 -2.082,1.134 -0.133,-0.023 -0.11,-0.11 0.046,-0.284 2.575,-2.396 4.253,-4.705 4.992,-6.926 l -3.179,0.826 z m 5.908,-6.229 c 0.09,-0.174 0.044,-0.326 -0.112,-0.437 -0.246,-0.174 -1.299,0.087 -3.111,0.784 -0.402,0.218 -0.827,0.239 -1.188,0.022 -0.246,-0.152 -0.423,-0.305 -0.514,-0.457 -0.111,-0.263 0,-0.371 0.293,-0.35 0.716,0.021 1.251,0.021 1.564,-0.065 1.166,-0.306 2.149,-0.587 2.911,-0.85 0.291,-0.108 0.537,-0.108 0.783,0.022 0.851,0.414 1.299,0.74 1.343,0.914 0.091,0.196 0,0.35 -0.248,0.437 -0.402,0.152 -1.318,0.937 -2.707,2.309 0.155,0.108 0.27,0.261 0.313,0.413 0.089,0.35 0.089,0.589 0.023,0.763 -0.067,0.153 -0.156,0.24 -0.291,0.24 -0.202,0 -0.381,-0.087 -0.539,-0.24 l -1.029,-1.044 c -0.313,-0.219 -0.492,-0.415 -0.535,-0.568 -0.024,-0.152 0.021,-0.239 0.089,-0.305 l 0.402,0.044 1.275,0.479 1.278,-2.111 z m 2.62,9.977 c -0.292,0.108 -0.585,0.063 -0.94,-0.152 -0.36,-0.153 -0.493,-0.263 -0.472,-0.371 0.023,-0.131 0.158,-0.197 0.404,-0.218 0.805,-0.087 1.699,-0.24 2.64,-0.458 0.158,-0.676 0.18,-1.308 0.067,-1.917 -0.044,-0.195 0.023,-0.348 0.202,-0.413 0.135,-0.043 0.358,0 0.672,0.152 0.425,0.196 0.694,0.35 0.783,0.479 0.111,0.132 0.111,0.263 0,0.415 l -0.402,0.958 c 1.007,-0.261 1.656,-0.479 1.947,-0.676 0.291,-0.174 0.559,-0.195 0.872,-0.087 0.74,0.305 1.187,0.544 1.301,0.697 0.109,0.152 0.065,0.305 -0.114,0.502 -0.268,0.368 -0.446,0.892 -0.56,1.633 -0.268,2.068 -0.627,3.462 -1.029,4.117 -0.313,0.565 -0.739,1.002 -1.188,1.328 -0.288,0.261 -0.581,0.218 -0.872,-0.087 -0.246,-0.502 -0.649,-1.047 -1.208,-1.721 -0.246,-0.35 -0.179,-0.48 0.177,-0.328 l 0.941,0.35 c 0.359,0.065 0.694,-0.087 0.94,-0.502 0.402,-0.697 0.739,-1.895 0.983,-3.572 0.093,-0.565 0.093,-1.002 -0.042,-1.241 -0.067,-0.087 -0.246,-0.108 -0.539,-0.065 -0.604,0.089 -1.229,0.218 -1.88,0.415 -0.692,1.938 -1.566,3.354 -2.617,4.248 -1.277,1.196 -2.174,1.741 -2.62,1.654 -0.112,-0.021 -0.112,-0.087 0,-0.197 l 0.223,-0.216 c 1.838,-1.743 3.091,-3.485 3.762,-5.142 l -1.431,0.415 z m 3.2,-5.142 c -0.873,1.023 -2.17,1.743 -3.785,2.135 -0.155,0.043 -0.268,0.043 -0.355,-0.021 -0.091,-0.045 -0.067,-0.089 0.042,-0.176 1.568,-0.937 2.732,-1.873 3.45,-2.723 l 0.156,-0.195 c -1.009,-0.894 -1.725,-1.46 -2.082,-1.591 l -0.112,-0.087 c -0.492,0.523 -0.852,0.85 -1.006,0.893 -0.181,0.065 -0.248,0.022 -0.226,-0.13 l 0.202,-0.35 c 1.725,-2.81 2.35,-4.574 1.925,-5.271 -0.158,-0.261 -0.091,-0.414 0.135,-0.458 0.246,-0.021 0.536,0.023 0.895,0.218 0.402,0.24 0.648,0.458 0.716,0.61 0.091,0.132 0.091,0.306 -0.021,0.458 -0.2,0.194 -0.381,0.5 -0.56,0.892 l -0.807,1.395 2.777,-0.545 c 1.297,-0.435 2.148,-0.631 2.505,-0.565 0.381,0.087 0.628,0.218 0.741,0.35 0.065,0.107 0.044,0.216 -0.067,0.326 -0.067,0.065 -0.381,0.174 -0.896,0.305 l -2.282,0.5 c 0.401,0.132 0.694,0.393 0.873,0.763 0.067,0.152 0.043,0.284 -0.09,0.393 l -0.559,0.763 -0.74,1.133 0.066,0.043 c 1.009,0.589 2.373,1.133 4.03,1.546 1.162,0.24 1.768,0.414 1.789,0.502 0.067,0.087 -0.109,0.195 -0.581,0.306 -0.783,0.195 -1.656,0.326 -2.598,0.392 -0.783,0 -1.903,-0.697 -3.312,-2.069 l -0.223,0.258 z m -0.046,-1.612 c 0.494,-0.893 0.762,-1.655 0.762,-2.286 l -1.589,0.194 -0.828,-0.303 -0.248,0.369 -0.49,0.631 c 0.425,-0.021 0.851,0.176 1.364,0.589 l 1.029,0.806 z"
   id="path88"
   style="fill:#323288;fill-opacity:1" />
	<path
   inkscape:connector-curvature="0"
   d="m 748.039,520.437 c -0.246,-0.021 -0.402,-0.132 -0.446,-0.282 -0.044,-0.176 0,-0.394 0.157,-0.633 0.222,-0.306 0.447,-0.697 0.626,-1.176 -1.68,0.152 -3.244,0.392 -4.767,0.741 -0.605,0.129 -1.166,-0.045 -1.703,-0.545 -0.225,-0.283 -0.2,-0.457 0.156,-0.479 l 6.604,-0.502 c 0.335,-0.981 0.425,-1.678 0.292,-1.96 -0.113,-0.218 -0.067,-0.35 0.109,-0.415 0.137,-0.063 0.314,-0.021 0.472,0.11 0.56,0.392 0.851,0.676 0.941,0.87 l -0.65,1.308 c 0.337,-0.087 1.231,-0.197 2.596,-0.284 l -0.065,-0.174 c -0.091,-0.218 -0.023,-0.348 0.179,-0.392 0.425,-0.065 0.874,0.087 1.297,0.413 l 4.007,-0.545 c 0.627,-0.129 1.367,0.153 2.217,0.829 0.292,0.239 0.359,0.436 0.27,0.631 -0.091,0.132 -0.805,0.174 -2.06,0.132 l -4.299,-0.066 c -0.135,0.219 -0.29,0.566 -0.448,1.003 -0.291,0.828 -0.692,1.567 -1.253,2.286 2.419,0.959 3.737,1.698 3.962,2.113 0.402,0.653 0.582,1.132 0.582,1.416 -0.021,0.261 -0.18,0.413 -0.469,0.413 -0.248,0 -0.56,-0.152 -0.919,-0.435 -1.478,-1.176 -2.73,-2.091 -3.761,-2.701 -1.498,1.634 -3.56,2.265 -6.199,1.917 -0.293,-0.065 -0.314,-0.152 -0.047,-0.263 2.306,-0.5 4.053,-1.263 5.195,-2.243 -0.652,-0.411 -1.524,-0.804 -2.576,-1.087 z m 3.292,-6.971 c 0.044,1.023 -0.023,1.657 -0.248,1.831 -0.18,0.107 -0.335,0.065 -0.469,-0.153 -0.225,-0.502 -0.338,-0.85 -0.313,-1.002 0.089,-0.413 0.134,-1.198 0.156,-2.33 l -1.366,1.589 c -0.581,0.545 -1.095,0.96 -1.612,1.286 -0.559,0.348 -1.14,0.61 -1.745,0.763 -0.561,0.195 -0.941,0.261 -1.098,0.239 -0.223,-0.044 -0.199,-0.152 0.047,-0.305 2.551,-1.46 4.117,-2.81 4.656,-3.965 -1.121,0.13 -2.172,0.348 -3.179,0.632 -0.248,0.065 -0.516,0.065 -0.785,-0.021 -0.244,-0.065 -0.491,-0.196 -0.692,-0.392 -0.226,-0.241 -0.204,-0.35 0.109,-0.393 l 5.554,-0.763 h 0.089 c 0,-0.849 -0.134,-1.48 -0.358,-1.852 l -0.044,-0.131 -3.023,0.305 c -0.067,-0.044 -0.067,-0.131 0.046,-0.239 l 0.224,-0.065 c 3.067,-0.937 4.678,-1.678 4.723,-2.136 0.022,-0.15 0.111,-0.261 0.225,-0.281 0.2,0 0.402,0.065 0.604,0.218 0.583,0.326 1.006,0.61 1.275,0.892 0.156,0.174 0.202,0.35 0.111,0.502 -0.067,0.087 -0.223,0.108 -0.448,0.087 -0.849,0.021 -1.813,0.219 -2.907,0.566 0.356,0.131 0.69,0.305 0.983,0.544 0.135,0.174 0.179,0.327 0.111,0.458 -0.223,0.326 -0.335,0.652 -0.357,0.958 l 2.73,-0.521 c 0.851,-0.219 1.678,-0.045 2.439,0.521 0.246,0.175 0.337,0.349 0.246,0.502 -0.066,0.131 -0.246,0.194 -0.514,0.194 -2.149,0 -3.806,0.045 -4.991,0.176 l 1.007,0.697 0.313,0.195 c 1.432,0.915 3.448,1.699 5.975,2.288 0.204,0.065 0.292,0.129 0.271,0.239 -0.023,0.065 -0.158,0.129 -0.404,0.174 -0.962,0.218 -1.925,0.35 -2.887,0.37 -0.494,0.021 -0.94,-0.109 -1.255,-0.392 -1.075,-0.96 -2.126,-1.962 -3.134,-3.027 l -0.065,1.742 z m 1.141,4.598 c -1.949,0.021 -2.977,0.108 -3.067,0.195 l -0.604,1.241 c -0.179,0.283 -0.113,0.479 0.226,0.544 0.603,0.197 1.341,0.437 2.192,0.808 0.381,-0.458 0.694,-1.025 0.919,-1.656 0.199,-0.435 0.313,-0.806 0.334,-1.132 z"
   id="path90"
   style="fill:#323288;fill-opacity:1" />
	<path
   inkscape:connector-curvature="0"
   d="m 771.398,520.676 c 0.182,-0.043 0.516,0.044 0.987,0.263 0.402,0.152 0.628,0.348 0.67,0.544 0.023,0.153 -0.042,0.306 -0.246,0.501 -0.47,0.305 -0.962,0.718 -1.386,1.176 -1.836,1.438 -3.246,2.114 -4.141,2.069 -0.45,0.021 -0.472,-0.065 -0.114,-0.261 2.306,-1.612 3.628,-2.919 3.941,-3.942 0.066,-0.219 0.156,-0.326 0.289,-0.35 z m -0.314,-10.215 v 0.35 c -0.042,0.239 -0.222,0.218 -0.492,-0.066 -0.245,-0.196 -0.424,-0.457 -0.514,-0.805 -0.381,-1.134 -0.805,-2.004 -1.276,-2.659 -0.135,-0.216 -0.179,-0.368 -0.088,-0.479 0.021,-0.065 0.111,-0.087 0.313,-0.065 2.73,0 5.193,-0.371 7.317,-1.002 0.36,-0.108 0.672,-0.087 0.941,0.065 0.783,0.437 1.275,0.784 1.522,1.002 0.202,0.305 0.155,0.589 -0.135,0.85 -0.448,0.152 -0.896,0.697 -1.388,1.547 0.244,0.152 0.381,0.283 0.381,0.37 -0.023,0.132 -0.111,0.195 -0.27,0.219 -2.707,0.195 -4.699,0.413 -5.932,0.674 h -0.356 -0.023 z m -0.983,10.15 c -0.135,0.218 -0.292,0.218 -0.448,0.022 -0.179,-0.175 -0.337,-0.479 -0.492,-0.98 -0.089,-0.239 0,-0.85 0.246,-1.765 0.27,-2.723 0.156,-4.616 -0.379,-5.598 -0.113,-0.131 -0.158,-0.239 -0.091,-0.326 0.091,-0.131 0.202,-0.174 0.337,-0.152 0.246,0.065 0.468,0.152 0.716,0.305 2.685,-0.109 4.88,-0.523 6.49,-1.154 0.381,-0.152 0.695,-0.174 0.963,-0.065 0.762,0.326 1.389,0.676 1.836,1.067 0.134,0.152 0.113,0.348 -0.068,0.61 -0.29,0.5 -0.446,1.002 -0.425,1.546 0,1.916 0.091,3.507 0.27,4.704 0.044,0.35 -0.044,0.72 -0.312,1.178 -0.248,0.521 -0.518,0.826 -0.741,0.85 -0.157,0.021 -0.379,-0.197 -0.627,-0.676 -0.156,-0.239 -0.222,-0.479 -0.222,-0.697 l -6.404,0.5 h -0.334 c -0.069,0.283 -0.18,0.479 -0.315,0.631 z m 5.998,-11.697 c 0.428,-1.132 0.583,-1.808 0.448,-1.98 -0.155,-0.153 -0.448,-0.197 -0.873,-0.132 l -4.878,0.654 -0.428,0.087 0.628,2.221 c 1.478,-0.174 3.155,-0.435 5.015,-0.85 h 0.088 z m 1.144,9.802 c 0.088,-0.763 0.088,-2.31 0,-4.661 0,-0.98 -0.114,-1.633 -0.36,-1.896 -0.155,-0.282 -0.49,-0.369 -0.983,-0.282 -1.434,0.195 -3.134,0.479 -5.128,0.937 h -0.088 l -0.068,1.828 c 2.508,-0.652 3.985,-0.957 4.432,-0.913 0.383,0.063 0.674,0.217 0.83,0.435 0.135,0.197 0.022,0.326 -0.358,0.392 l -4.187,0.589 c -0.335,0.066 -0.582,0.021 -0.717,-0.087 v 1.742 l 3.113,-0.632 c 0.626,-0.131 1.142,-0.152 1.522,-0.087 0.356,0.087 0.648,0.24 0.805,0.479 0.111,0.196 0,0.305 -0.381,0.349 l -4.544,0.521 h -0.516 l -0.065,1.831 4.834,-0.632 c 0.672,-0.109 1.164,-0.109 1.546,-0.021 l 0.313,0.108 z m -2.106,2.178 c 0.046,-0.194 0.135,-0.261 0.27,-0.152 2.619,1.221 4.027,2.331 4.231,3.29 0.156,0.697 0.133,1.11 -0.091,1.306 -0.135,0.152 -0.269,0.218 -0.402,0.197 -0.225,-0.087 -0.471,-0.306 -0.716,-0.61 -1.119,-1.373 -2.149,-2.525 -3.111,-3.485 -0.135,-0.132 -0.202,-0.327 -0.181,-0.546 z"
   id="path92"
   style="fill:#323288;fill-opacity:1" />
	<path
   inkscape:connector-curvature="0"
   d="m 792.429,511.486 -1.9,1.546 0.762,0.13 2.686,-0.371 3.313,-0.479 1.97,-0.305 c 0.224,-0.087 0.47,-0.043 0.783,0.109 0.604,0.393 1.03,0.719 1.255,0.979 0.133,0.196 0.133,0.392 -0.067,0.567 -0.359,0.348 -0.627,0.718 -0.762,1.176 -0.446,1.284 -0.761,2.025 -0.918,2.265 -0.248,0.326 -0.448,0.413 -0.604,0.284 -0.202,-0.11 -0.402,-0.326 -0.627,-0.632 -1.522,0.087 -3.291,0.261 -5.306,0.521 -0.357,0.045 -0.649,0.023 -0.851,-0.087 l -0.066,0.437 c -0.045,0.218 -0.224,0.195 -0.491,-0.11 -0.246,-0.239 -0.404,-0.565 -0.45,-0.957 -0.291,-1.263 -0.625,-2.286 -1.029,-3.049 l -0.089,-0.153 -0.402,0.24 c -0.694,0.413 -1.412,0.718 -2.195,0.98 -0.425,0.195 -0.739,0.282 -0.916,0.282 -0.135,-0.043 -0.157,-0.108 -0.023,-0.174 1.88,-1.221 3.224,-2.178 4.007,-2.833 0.785,-0.608 1.545,-1.371 2.261,-2.243 0.628,-0.719 1.186,-1.568 1.703,-2.547 0.156,-0.415 0.224,-0.786 0.2,-1.112 -0.023,-0.174 0.044,-0.261 0.181,-0.282 0.154,-0.022 0.402,0.043 0.716,0.195 0.268,0.087 0.514,0.261 0.716,0.5 0.154,0.197 0.246,0.395 0.268,0.523 0.023,0.152 -0.044,0.284 -0.179,0.35 l -0.202,0.174 1.075,0.828 c 0.985,0.739 1.969,1.371 2.998,1.915 0.807,0.437 1.748,0.85 2.823,1.199 l 2.661,0.784 c 0.226,0.065 0.313,0.131 0.293,0.239 -0.021,0.065 -0.158,0.132 -0.449,0.174 -1.006,0.263 -2.014,0.393 -3.022,0.393 -0.535,0.022 -0.983,-0.13 -1.318,-0.456 -1.86,-1.46 -3.671,-3.029 -5.417,-4.706 -1.372,1.657 -2.514,2.877 -3.388,3.706 z m -0.601,2.396 h -0.202 l 0.448,2.505 0.065,0.392 2.8,-0.392 v -2.594 l -0.047,-0.435 -0.066,-0.086 c -1.188,0.173 -2.193,0.368 -2.998,0.61 z m 7.138,11.086 c -0.246,0.435 -0.47,0.697 -0.716,0.719 -0.157,0 -0.291,-0.132 -0.425,-0.393 l -1.076,-1.546 c -1.564,0.065 -2.729,0.174 -3.489,0.326 h -0.271 c -0.067,0.326 -0.178,0.589 -0.313,0.741 -0.133,0.174 -0.268,0.174 -0.424,0.021 -0.157,-0.152 -0.27,-0.458 -0.381,-0.871 -0.067,-0.239 -0.067,-0.545 0.044,-0.873 0.135,-0.413 0.18,-0.848 0.18,-1.263 v -1.807 l -0.045,-0.523 -0.157,-0.479 c -0.112,-0.132 -0.133,-0.24 -0.089,-0.327 0.067,-0.087 0.179,-0.131 0.291,-0.109 0.292,0.044 0.56,0.176 0.806,0.37 l 1.925,-0.305 c 0.962,-0.174 1.747,-0.392 2.372,-0.676 0.226,-0.13 0.472,-0.13 0.718,0 0.737,0.371 1.253,0.676 1.543,0.96 0.114,0.152 0.114,0.305 -0.021,0.5 -0.247,0.283 -0.382,0.654 -0.358,1.089 l 0.246,2.636 c 0.043,0.656 -0.068,1.266 -0.36,1.81 z m -6.29,-10.52 c 0.024,-0.153 0.09,-0.197 0.203,-0.174 l 0.783,0.305 c 0.222,0.087 0.358,0.217 0.47,0.369 0.111,0.218 0.133,0.437 0.111,0.589 -0.088,0.218 -0.223,0.305 -0.359,0.283 -0.2,-0.022 -0.402,-0.131 -0.603,-0.328 l -0.516,-0.739 c -0.064,-0.111 -0.11,-0.198 -0.089,-0.305 z m 2.105,-3.659 1.074,-0.284 c 0.404,-0.152 0.806,-0.196 1.208,-0.108 0.381,0.064 0.628,0.195 0.718,0.348 0.067,0.108 0.023,0.219 -0.09,0.327 l -0.515,0.175 -1.991,0.369 c -0.404,0.11 -0.807,0.132 -1.209,0.065 l -0.74,-0.261 c -0.356,-0.196 -0.289,-0.349 0.202,-0.436 l 1.343,-0.195 z m -1.454,10.911 h -0.18 v 1.243 l -0.044,0.435 2.709,-0.479 c 0.402,-0.108 0.737,-0.087 0.938,0.044 l 0.381,0.261 0.113,0.065 c 0.268,0.152 0.447,0.065 0.493,-0.196 0.044,-0.153 0.067,-0.479 0.044,-0.958 v -1.96 c -0.044,-0.61 -0.09,-0.938 -0.179,-1.002 -0.158,-0.131 -0.404,-0.176 -0.739,-0.11 l -2.665,0.458 -0.895,0.11 -0.111,1.457 1.099,-0.368 c 0.625,-0.153 1.118,-0.219 1.497,-0.153 0.381,0.064 0.673,0.195 0.829,0.435 0.133,0.197 0.023,0.327 -0.357,0.371 l -2.933,0.347 z m 2.282,-8.538 0.359,0.35 c 0.111,0.107 0.133,0.281 0,0.479 v 0.239 l -0.156,2.025 1.23,-0.194 c 0.516,-0.087 0.917,-0.087 1.231,0 0.223,-0.023 0.357,-0.132 0.425,-0.306 0.111,-0.196 0.313,-0.915 0.581,-2.223 0.067,-0.196 0,-0.37 -0.155,-0.457 -0.226,-0.195 -0.582,-0.261 -1.142,-0.195 l -2.373,0.282 z m 1.612,0.391 c -0.023,-0.174 0.046,-0.261 0.202,-0.281 0.223,0.021 0.402,0.107 0.602,0.281 0.204,0.176 0.339,0.328 0.406,0.48 0.043,0.087 -0.024,0.151 -0.202,0.217 -0.337,0.152 -0.853,0.458 -1.521,0.894 l -0.226,0.043 c -0.067,-0.063 -0.067,-0.13 0,-0.195 l 0.674,-1.002 c 0.065,-0.152 0.088,-0.284 0.065,-0.437 z"
   id="path94"
   style="fill:#323288;fill-opacity:1" />
</g><g
   id="g96"
   style="fill:#323288;fill-opacity:1"
   transform="matrix(2.5,0,0,2.5,-1203.8288,-719.3172)">
	<path
   inkscape:connector-curvature="0"
   d="m 561.382,540.045 v -7.126 c 0,-1.437 0.854,-2.154 2.563,-2.154 1.684,0 2.526,0.713 2.526,2.139 v 7.126 c 0,0.644 -0.235,1.139 -0.704,1.486 -0.47,0.348 -1.082,0.521 -1.837,0.521 -1.698,0 -2.548,-0.664 -2.548,-1.992 z m 2.913,0.116 v -7.543 c 0,-0.222 -0.121,-0.332 -0.361,-0.332 -0.251,0 -0.376,0.11 -0.376,0.332 v 7.543 c 0,0.221 0.125,0.332 0.376,0.332 0.24,0 0.361,-0.111 0.361,-0.332 z"
   id="path98"
   style="fill:#323288;fill-opacity:1" />
	<path
   inkscape:connector-curvature="0"
   d="m 575.849,532.972 -1.476,8.964 h -2.436 l -1.489,-8.964 h 2.03 l 0.698,5.297 0.677,-5.297 h 1.996 z"
   id="path100"
   style="fill:#323288;fill-opacity:1" />
	<path
   inkscape:connector-curvature="0"
   d="m 584.553,538.137 h -2.708 v 2.093 c 0,0.304 0.116,0.455 0.348,0.455 0.227,0 0.34,-0.151 0.34,-0.455 v -1.807 h 2.021 v 1.822 c 0,1.209 -0.792,1.813 -2.374,1.813 -1.569,0 -2.354,-0.63 -2.354,-1.891 v -5.366 c 0,-1.261 0.784,-1.892 2.354,-1.892 1.582,0 2.374,0.604 2.374,1.814 v 3.414 z m -2.02,-1.342 v -2.054 c 0,-0.294 -0.113,-0.44 -0.34,-0.44 -0.231,0 -0.348,0.146 -0.348,0.44 v 2.054 h 0.688 z"
   id="path102"
   style="fill:#323288;fill-opacity:1" />
	<path
   inkscape:connector-curvature="0"
   d="m 593.492,536.686 h -2.021 v -1.945 c 0,-0.273 -0.115,-0.409 -0.347,-0.409 -0.232,0 -0.348,0.131 -0.348,0.394 v 7.211 h -2.02 v -8.964 h 2.02 v 0.302 c 0.27,-0.242 0.686,-0.363 1.247,-0.363 0.402,0 0.747,0.117 1.035,0.352 0.288,0.235 0.433,0.542 0.433,0.923 v 2.499 z"
   id="path104"
   style="fill:#323288;fill-opacity:1" />
	<path
   inkscape:connector-curvature="0"
   d="m 597.561,538.331 h 2.02 v 1.899 c 0,0.304 0.113,0.455 0.34,0.455 0.227,0 0.341,-0.29 0.341,-0.872 0,-0.757 -0.14,-1.246 -0.419,-1.467 -1.053,-0.603 -1.688,-1.023 -1.906,-1.263 -0.217,-0.239 -0.325,-0.599 -0.325,-1.077 v -1.204 c 0,-1.261 0.784,-1.892 2.353,-1.892 1.525,0 2.289,0.604 2.289,1.814 v 1.768 h -1.971 l 0.043,-1.073 c 0,-0.746 -0.125,-1.119 -0.376,-1.119 -0.25,0 -0.375,0.234 -0.375,0.703 0,0.483 0.055,0.849 0.166,1.096 0.111,0.247 0.729,0.672 1.854,1.274 0.468,0.365 0.701,0.849 0.701,1.451 v 1.344 c 0,1.261 -0.797,1.891 -2.392,1.891 -1.562,0 -2.342,-0.604 -2.342,-1.813 v -1.915 z"
   id="path106"
   style="fill:#323288;fill-opacity:1" />
	<path
   inkscape:connector-curvature="0"
   d="m 611.141,538.137 h -2.708 v 2.093 c 0,0.304 0.116,0.455 0.348,0.455 0.227,0 0.34,-0.151 0.34,-0.455 v -1.807 h 2.021 v 1.822 c 0,1.209 -0.792,1.813 -2.374,1.813 -1.569,0 -2.354,-0.63 -2.354,-1.891 v -5.366 c 0,-1.261 0.784,-1.892 2.354,-1.892 1.582,0 2.374,0.604 2.374,1.814 v 3.414 z m -2.02,-1.342 v -2.054 c 0,-0.294 -0.113,-0.44 -0.34,-0.44 -0.231,0 -0.348,0.146 -0.348,0.44 v 2.054 h 0.688 z"
   id="path108"
   style="fill:#323288;fill-opacity:1" />
	<path
   inkscape:connector-curvature="0"
   d="m 620.057,541.936 h -1.786 v -0.348 c -0.151,0.314 -0.583,0.471 -1.297,0.471 -1.101,0 -1.651,-0.468 -1.651,-1.404 v -1.799 c 0,-0.402 0.134,-0.752 0.4,-1.051 0.268,-0.298 0.805,-0.671 1.612,-1.119 0.468,-0.257 0.702,-0.463 0.702,-0.617 v -1.328 c 0,-0.294 -0.116,-0.44 -0.348,-0.44 -0.265,0 -0.396,0.357 -0.396,1.073 0,0.129 0.007,0.319 0.021,0.571 0.02,0.252 0.028,0.442 0.028,0.571 h -1.948 v -1.791 c 0,-1.21 0.803,-1.814 2.409,-1.814 1.503,0 2.254,0.631 2.254,1.892 v 7.133 z m -2.019,-1.676 v -2.308 c -0.464,0.123 -0.695,0.35 -0.695,0.679 v 1.629 c 0,0.273 0.121,0.409 0.362,0.409 0.221,10e-4 0.333,-0.135 0.333,-0.409 z"
   id="path110"
   style="fill:#323288;fill-opacity:1" />
	<path
   inkscape:connector-curvature="0"
   d="m 624.219,538.331 h 2.02 v 1.899 c 0,0.304 0.113,0.455 0.34,0.455 0.227,0 0.341,-0.29 0.341,-0.872 0,-0.757 -0.14,-1.246 -0.419,-1.467 -1.053,-0.603 -1.688,-1.023 -1.906,-1.263 -0.217,-0.239 -0.325,-0.599 -0.325,-1.077 v -1.204 c 0,-1.261 0.784,-1.892 2.353,-1.892 1.525,0 2.289,0.604 2.289,1.814 v 1.768 h -1.971 l 0.043,-1.073 c 0,-0.746 -0.125,-1.119 -0.376,-1.119 -0.25,0 -0.375,0.234 -0.375,0.703 0,0.483 0.055,0.849 0.166,1.096 0.111,0.247 0.729,0.672 1.854,1.274 0.468,0.365 0.701,0.849 0.701,1.451 v 1.344 c 0,1.261 -0.797,1.891 -2.392,1.891 -1.562,0 -2.342,-0.604 -2.342,-1.813 v -1.915 z"
   id="path112"
   style="fill:#323288;fill-opacity:1" />
	<path
   inkscape:connector-curvature="0"
   d="m 645.497,534.733 h -2.026 v -2.192 c 0,-0.181 -0.104,-0.271 -0.309,-0.271 -0.215,0 -0.322,0.09 -0.322,0.271 v 7.682 c 0,0.18 0.107,0.271 0.322,0.271 0.205,0 0.309,-0.091 0.309,-0.271 v -2.733 h 2.026 v 2.811 c 0,0.525 -0.236,0.945 -0.709,1.263 -0.473,0.316 -1.006,0.475 -1.602,0.475 -1.72,0 -2.579,-0.664 -2.579,-1.992 v -7.126 c 0,-1.437 0.859,-2.154 2.579,-2.154 1.54,0 2.311,0.654 2.311,1.961 v 2.005 z"
   id="path114"
   style="fill:#323288;fill-opacity:1" />
	<path
   inkscape:connector-curvature="0"
   d="m 649.624,540.169 v -5.366 c 0,-1.261 0.801,-1.892 2.402,-1.892 0.618,0 1.163,0.146 1.633,0.44 0.471,0.293 0.706,0.751 0.706,1.374 v 5.521 c 0,1.209 -0.78,1.813 -2.339,1.813 -1.601,0 -2.402,-0.63 -2.402,-1.89 z m 2.721,0.061 v -5.489 c 0,-0.294 -0.115,-0.44 -0.347,-0.44 -0.236,0 -0.354,0.146 -0.354,0.44 v 5.489 c 0,0.304 0.118,0.455 0.354,0.455 0.232,0 0.347,-0.151 0.347,-0.455 z"
   id="path116"
   style="fill:#323288;fill-opacity:1" />
	<path
   inkscape:connector-curvature="0"
   d="m 665.94,541.936 h -2.02 v -7.165 c 0,-0.272 -0.115,-0.409 -0.344,-0.409 -0.234,0 -0.352,0.132 -0.352,0.395 v 7.18 h -2.02 v -7.18 c 0,-0.273 -0.114,-0.409 -0.344,-0.409 -0.233,0 -0.351,0.131 -0.351,0.394 v 7.195 h -2.02 v -8.964 h 2.02 v 0.316 c 0.278,-0.252 0.696,-0.378 1.254,-0.378 0.468,0 0.893,0.203 1.275,0.61 0.354,-0.407 0.839,-0.61 1.453,-0.61 0.35,0 0.678,0.114 0.985,0.344 0.307,0.229 0.461,0.547 0.461,0.953 v 7.728 z"
   id="path118"
   style="fill:#323288;fill-opacity:1" />
	<path
   inkscape:connector-curvature="0"
   d="m 677.564,541.936 h -2.02 v -7.165 c 0,-0.272 -0.115,-0.409 -0.344,-0.409 -0.234,0 -0.352,0.132 -0.352,0.395 v 7.18 h -2.02 v -7.18 c 0,-0.273 -0.114,-0.409 -0.344,-0.409 -0.233,0 -0.351,0.131 -0.351,0.394 v 7.195 h -2.02 v -8.964 h 2.02 v 0.316 c 0.278,-0.252 0.696,-0.378 1.254,-0.378 0.468,0 0.893,0.203 1.275,0.61 0.354,-0.407 0.839,-0.61 1.453,-0.61 0.35,0 0.678,0.114 0.985,0.344 0.307,0.229 0.461,0.547 0.461,0.953 v 7.728 z"
   id="path120"
   style="fill:#323288;fill-opacity:1" />
	<path
   inkscape:connector-curvature="0"
   d="m 686.453,541.936 h -2.021 v -0.301 c -0.26,0.283 -0.677,0.424 -1.25,0.424 -0.398,0 -0.743,-0.114 -1.034,-0.343 -0.291,-0.229 -0.437,-0.529 -0.437,-0.899 v -7.845 h 2.02 v 7.288 c 0,0.273 0.118,0.409 0.354,0.409 0.231,0 0.347,-0.131 0.347,-0.394 v -7.304 h 2.021 v 8.965 z"
   id="path122"
   style="fill:#323288;fill-opacity:1" />
	<path
   inkscape:connector-curvature="0"
   d="m 695.32,541.936 h -2.021 v -7.195 c 0,-0.273 -0.116,-0.409 -0.351,-0.409 -0.233,0 -0.351,0.131 -0.351,0.394 v 7.211 h -2.02 v -8.964 h 2.02 v 0.302 c 0.27,-0.242 0.687,-0.363 1.25,-0.363 0.365,0 0.701,0.108 1.01,0.324 0.308,0.216 0.462,0.533 0.462,0.95 v 7.75 z"
   id="path124"
   style="fill:#323288;fill-opacity:1" />
	<path
   inkscape:connector-curvature="0"
   d="m 701.444,532.478 h -2.02 v -1.613 h 2.02 v 1.613 z m 0,9.458 h -2.02 v -8.964 h 2.02 v 8.964 z"
   id="path126"
   style="fill:#323288;fill-opacity:1" />
	<path
   inkscape:connector-curvature="0"
   d="m 709.567,541.936 h -1.275 c -0.912,0 -1.458,-0.149 -1.637,-0.448 -0.18,-0.298 -0.27,-0.872 -0.27,-1.722 V 534.3 h -0.9 v -1.328 h 0.9 v -1.807 h 2.02 v 1.807 h 1.092 v 1.328 h -1.092 v 5.451 c 0,0.262 0.072,0.438 0.216,0.528 0.145,0.09 0.46,0.136 0.946,0.136 v 1.521 z"
   id="path128"
   style="fill:#323288;fill-opacity:1" />
	<path
   inkscape:connector-curvature="0"
   d="m 718.973,532.972 -1.566,8.918 c -0.16,0.91 -0.376,1.463 -0.648,1.655 -0.271,0.193 -0.648,0.29 -1.13,0.29 h -1.41 v -1.204 c 0.529,0 0.857,-0.029 0.984,-0.085 0.128,-0.057 0.191,-0.225 0.191,-0.502 0,-0.278 -0.29,-1.728 -0.871,-4.347 l -1.049,-4.726 h 2.021 l 0.843,4.735 0.665,-4.735 h 1.97 z"
   id="path130"
   style="fill:#323288;fill-opacity:1" />
	<path
   inkscape:connector-curvature="0"
   d="m 739.434,541.936 h -2.212 l -0.377,-2.973 h -0.991 l -0.381,2.973 h -2.212 l 1.669,-11.071 h 2.831 l 1.673,11.071 z m -2.769,-4.509 -0.321,-3.305 -0.305,3.305 h 0.626 z"
   id="path132"
   style="fill:#323288;fill-opacity:1" />
	<path
   inkscape:connector-curvature="0"
   d="m 747.259,534.3 h -1.155 v 7.636 h -2.02 V 534.3 h -0.681 v -1.328 h 0.681 c 0,-0.787 0.091,-1.335 0.272,-1.645 0.182,-0.309 0.724,-0.463 1.626,-0.463 h 1.276 v 1.204 h -0.388 c -0.343,0 -0.557,0.071 -0.641,0.213 -0.085,0.142 -0.127,0.372 -0.127,0.69 h 1.155 v 1.329 z"
   id="path134"
   style="fill:#323288;fill-opacity:1" />
	<path
   inkscape:connector-curvature="0"
   d="m 754.993,534.3 h -1.155 v 7.636 h -2.02 V 534.3 h -0.681 v -1.328 h 0.681 c 0,-0.787 0.091,-1.335 0.272,-1.645 0.182,-0.309 0.724,-0.463 1.626,-0.463 h 1.276 v 1.204 h -0.388 c -0.343,0 -0.557,0.071 -0.641,0.213 -0.085,0.142 -0.127,0.372 -0.127,0.69 h 1.155 v 1.329 z"
   id="path136"
   style="fill:#323288;fill-opacity:1" />
	<path
   inkscape:connector-curvature="0"
   d="m 763.697,541.936 h -1.786 v -0.348 c -0.151,0.314 -0.583,0.471 -1.297,0.471 -1.101,0 -1.651,-0.468 -1.651,-1.404 v -1.799 c 0,-0.402 0.134,-0.752 0.4,-1.051 0.268,-0.298 0.805,-0.671 1.612,-1.119 0.468,-0.257 0.702,-0.463 0.702,-0.617 v -1.328 c 0,-0.294 -0.116,-0.44 -0.348,-0.44 -0.265,0 -0.396,0.357 -0.396,1.073 0,0.129 0.007,0.319 0.021,0.571 0.02,0.252 0.028,0.442 0.028,0.571 h -1.948 v -1.791 c 0,-1.21 0.803,-1.814 2.409,-1.814 1.503,0 2.254,0.631 2.254,1.892 v 7.133 z m -2.02,-1.676 v -2.308 c -0.464,0.123 -0.695,0.35 -0.695,0.679 v 1.629 c 0,0.273 0.121,0.409 0.362,0.409 0.222,10e-4 0.333,-0.135 0.333,-0.409 z"
   id="path138"
   style="fill:#323288;fill-opacity:1" />
	<path
   inkscape:connector-curvature="0"
   d="m 769.857,532.478 h -2.02 v -1.613 h 2.02 v 1.613 z m 0,9.458 h -2.02 v -8.964 h 2.02 v 8.964 z"
   id="path140"
   style="fill:#323288;fill-opacity:1" />
	<path
   inkscape:connector-curvature="0"
   d="m 778.767,536.686 h -2.021 v -1.945 c 0,-0.273 -0.115,-0.409 -0.347,-0.409 -0.232,0 -0.348,0.131 -0.348,0.394 v 7.211 h -2.02 v -8.964 h 2.02 v 0.302 c 0.27,-0.242 0.686,-0.363 1.247,-0.363 0.402,0 0.747,0.117 1.035,0.352 0.288,0.235 0.433,0.542 0.433,0.923 v 2.499 z"
   id="path142"
   style="fill:#323288;fill-opacity:1" />
	<path
   inkscape:connector-curvature="0"
   d="m 782.836,538.331 h 2.02 v 1.899 c 0,0.304 0.113,0.455 0.34,0.455 0.227,0 0.341,-0.29 0.341,-0.872 0,-0.757 -0.14,-1.246 -0.419,-1.467 -1.053,-0.603 -1.688,-1.023 -1.906,-1.263 -0.217,-0.239 -0.325,-0.599 -0.325,-1.077 v -1.204 c 0,-1.261 0.784,-1.892 2.353,-1.892 1.525,0 2.289,0.604 2.289,1.814 v 1.768 h -1.971 l 0.043,-1.073 c 0,-0.746 -0.125,-1.119 -0.376,-1.119 -0.25,0 -0.375,0.234 -0.375,0.703 0,0.483 0.055,0.849 0.166,1.096 0.111,0.247 0.729,0.672 1.854,1.274 0.468,0.365 0.701,0.849 0.701,1.451 v 1.344 c 0,1.261 -0.797,1.891 -2.392,1.891 -1.562,0 -2.342,-0.604 -2.342,-1.813 v -1.915 z"
   id="path144"
   style="fill:#323288;fill-opacity:1" />
	<path
   inkscape:connector-curvature="0"
   d="m 804.115,534.733 h -2.026 v -2.192 c 0,-0.181 -0.104,-0.271 -0.309,-0.271 -0.215,0 -0.322,0.09 -0.322,0.271 v 7.682 c 0,0.18 0.107,0.271 0.322,0.271 0.205,0 0.309,-0.091 0.309,-0.271 v -2.733 h 2.026 v 2.811 c 0,0.525 -0.236,0.945 -0.709,1.263 -0.473,0.316 -1.006,0.475 -1.602,0.475 -1.72,0 -2.579,-0.664 -2.579,-1.992 v -7.126 c 0,-1.437 0.859,-2.154 2.579,-2.154 1.54,0 2.311,0.654 2.311,1.961 v 2.005 z"
   id="path146"
   style="fill:#323288;fill-opacity:1" />
	<path
   inkscape:connector-curvature="0"
   d="m 808.242,540.169 v -5.366 c 0,-1.261 0.801,-1.892 2.402,-1.892 0.618,0 1.163,0.146 1.633,0.44 0.471,0.293 0.706,0.751 0.706,1.374 v 5.521 c 0,1.209 -0.78,1.813 -2.339,1.813 -1.602,0 -2.402,-0.63 -2.402,-1.89 z m 2.72,0.061 v -5.489 c 0,-0.294 -0.115,-0.44 -0.347,-0.44 -0.236,0 -0.354,0.146 -0.354,0.44 v 5.489 c 0,0.304 0.118,0.455 0.354,0.455 0.232,0 0.347,-0.151 0.347,-0.455 z"
   id="path148"
   style="fill:#323288;fill-opacity:1" />
	<path
   inkscape:connector-curvature="0"
   d="m 821.822,541.936 h -2.021 v -0.301 c -0.26,0.283 -0.677,0.424 -1.25,0.424 -0.398,0 -0.743,-0.114 -1.034,-0.343 -0.291,-0.229 -0.437,-0.529 -0.437,-0.899 v -7.845 h 2.02 v 7.288 c 0,0.273 0.118,0.409 0.354,0.409 0.231,0 0.347,-0.131 0.347,-0.394 v -7.304 h 2.021 v 8.965 z"
   id="path150"
   style="fill:#323288;fill-opacity:1" />
	<path
   inkscape:connector-curvature="0"
   d="m 830.689,541.936 h -2.021 v -7.195 c 0,-0.273 -0.116,-0.409 -0.351,-0.409 -0.233,0 -0.351,0.131 -0.351,0.394 v 7.211 h -2.02 v -8.964 h 2.02 v 0.302 c 0.27,-0.242 0.687,-0.363 1.25,-0.363 0.365,0 0.701,0.108 1.01,0.324 0.308,0.216 0.462,0.533 0.462,0.95 v 7.75 z"
   id="path152"
   style="fill:#323288;fill-opacity:1" />
	<path
   inkscape:connector-curvature="0"
   d="m 839.548,536.941 h -2.02 v -2.2 c 0,-0.294 -0.113,-0.44 -0.34,-0.44 -0.231,0 -0.348,0.146 -0.348,0.44 v 5.489 c 0,0.304 0.116,0.455 0.348,0.455 0.227,0 0.34,-0.151 0.34,-0.455 v -2.17 h 2.02 v 2.186 c 0,1.209 -0.777,1.813 -2.331,1.813 -1.598,0 -2.396,-0.63 -2.396,-1.891 v -5.366 c 0,-1.261 0.798,-1.892 2.396,-1.892 1.554,0 2.331,0.604 2.331,1.814 v 2.217 z"
   id="path154"
   style="fill:#323288;fill-opacity:1" />
	<path
   inkscape:connector-curvature="0"
   d="m 845.68,532.478 h -2.02 v -1.613 h 2.02 v 1.613 z m 0,9.458 h -2.02 v -8.964 h 2.02 v 8.964 z"
   id="path156"
   style="fill:#323288;fill-opacity:1" />
	<path
   inkscape:connector-curvature="0"
   d="m 851.841,541.936 h -2.02 v -11.071 h 2.02 v 11.071 z"
   id="path158"
   style="fill:#323288;fill-opacity:1" />
</g><g
   id="g160"
   style="fill:#323288;fill-opacity:1"
   transform="matrix(2.5,0,0,2.5,-1204.0288,-719.3172)">
	<path
   inkscape:connector-curvature="0"
   d="m 608.042,559.952 h -2.232 c -0.241,-0.314 -0.361,-1.205 -0.361,-2.672 v -0.015 l 0.014,-0.664 c 0.015,-0.922 0.021,-1.393 0.021,-1.413 0,-0.376 -0.231,-0.563 -0.694,-0.563 v 5.312 h -2.232 v -11.071 h 2.757 c 0.628,0 1.175,0.157 1.641,0.471 0.465,0.314 0.698,0.811 0.698,1.49 v 1.328 c 0,0.859 -0.461,1.441 -1.382,1.745 0.926,0.236 1.389,0.847 1.389,1.829 l -0.035,1.213 c -0.002,1.77 0.137,2.773 0.416,3.01 z m -2.565,-7.259 v -1.827 c 0,-0.387 -0.229,-0.58 -0.688,-0.58 v 2.995 c 0.458,0 0.688,-0.196 0.688,-0.588 z"
   id="path162"
   style="fill:#323288;fill-opacity:1" />
	<path
   inkscape:connector-curvature="0"
   d="m 616.754,556.137 h -2.708 v 2.093 c 0,0.304 0.116,0.455 0.348,0.455 0.227,0 0.34,-0.151 0.34,-0.455 v -1.807 h 2.021 v 1.822 c 0,1.209 -0.792,1.813 -2.374,1.813 -1.569,0 -2.354,-0.63 -2.354,-1.891 v -5.366 c 0,-1.261 0.784,-1.892 2.354,-1.892 1.582,0 2.374,0.604 2.374,1.814 v 3.414 z m -2.02,-1.342 v -2.054 c 0,-0.294 -0.113,-0.44 -0.34,-0.44 -0.231,0 -0.348,0.146 -0.348,0.44 v 2.054 h 0.688 z"
   id="path164"
   style="fill:#323288;fill-opacity:1" />
	<path
   inkscape:connector-curvature="0"
   d="m 622.914,559.728 v 2.107 h -2.02 v -10.863 h 1.528 l 0.171,0.363 c 0.332,-0.283 0.725,-0.425 1.18,-0.425 0.46,0 0.885,0.126 1.275,0.378 0.391,0.253 0.587,0.615 0.587,1.089 v 6.439 c 0,0.375 -0.143,0.677 -0.427,0.903 -0.284,0.226 -0.63,0.339 -1.037,0.339 -0.563,10e-4 -0.983,-0.109 -1.257,-0.33 z m 0.701,-1.468 v -5.551 c 0,-0.272 -0.115,-0.409 -0.347,-0.409 -0.236,0 -0.354,0.137 -0.354,0.409 v 5.566 c 0,0.263 0.118,0.394 0.354,0.394 0.231,10e-4 0.347,-0.135 0.347,-0.409 z"
   id="path166"
   style="fill:#323288;fill-opacity:1" />
	<path
   inkscape:connector-curvature="0"
   d="m 634.502,559.936 h -2.021 v -0.301 c -0.26,0.283 -0.677,0.424 -1.25,0.424 -0.398,0 -0.743,-0.114 -1.034,-0.343 -0.291,-0.229 -0.437,-0.529 -0.437,-0.899 v -7.845 h 2.02 v 7.288 c 0,0.273 0.118,0.409 0.354,0.409 0.231,0 0.347,-0.131 0.347,-0.394 v -7.304 h 2.021 v 8.965 z"
   id="path168"
   style="fill:#323288;fill-opacity:1" />
	<path
   inkscape:connector-curvature="0"
   d="m 640.329,559.635 -0.171,0.301 h -1.528 v -11.071 h 2.02 v 2.378 c 0.241,-0.222 0.661,-0.332 1.258,-0.332 0.364,0 0.699,0.107 1.005,0.32 0.306,0.214 0.459,0.521 0.459,0.923 v 6.438 c 0,0.453 -0.183,0.811 -0.548,1.073 -0.364,0.263 -0.803,0.394 -1.314,0.394 -0.399,0 -0.793,-0.14 -1.181,-0.424 z m 1.021,-1.375 v -5.551 c 0,-0.272 -0.115,-0.409 -0.347,-0.409 -0.236,0 -0.354,0.132 -0.354,0.394 v 5.566 c 0,0.273 0.118,0.409 0.354,0.409 0.232,10e-4 0.347,-0.135 0.347,-0.409 z"
   id="path170"
   style="fill:#323288;fill-opacity:1" />
	<path
   inkscape:connector-curvature="0"
   d="m 649.544,559.936 h -2.02 v -11.071 h 2.02 v 11.071 z"
   id="path172"
   style="fill:#323288;fill-opacity:1" />
	<path
   inkscape:connector-curvature="0"
   d="m 655.69,550.478 h -2.02 v -1.613 h 2.02 v 1.613 z m 0,9.458 h -2.02 v -8.964 h 2.02 v 8.964 z"
   id="path174"
   style="fill:#323288;fill-opacity:1" />
	<path
   inkscape:connector-curvature="0"
   d="m 664.536,554.941 h -2.02 v -2.2 c 0,-0.294 -0.113,-0.44 -0.34,-0.44 -0.231,0 -0.348,0.146 -0.348,0.44 v 5.489 c 0,0.304 0.116,0.455 0.348,0.455 0.227,0 0.34,-0.151 0.34,-0.455 v -2.17 h 2.02 v 2.186 c 0,1.209 -0.777,1.813 -2.331,1.813 -1.598,0 -2.396,-0.63 -2.396,-1.891 v -5.366 c 0,-1.261 0.798,-1.892 2.396,-1.892 1.554,0 2.331,0.604 2.331,1.814 v 2.217 z"
   id="path176"
   style="fill:#323288;fill-opacity:1" />
	<path
   inkscape:connector-curvature="0"
   d="m 674.929,558.169 v -5.366 c 0,-1.261 0.801,-1.892 2.402,-1.892 0.618,0 1.163,0.146 1.633,0.44 0.471,0.293 0.706,0.751 0.706,1.374 v 5.521 c 0,1.209 -0.78,1.813 -2.339,1.813 -1.601,0 -2.402,-0.63 -2.402,-1.89 z m 2.721,0.061 v -5.489 c 0,-0.294 -0.115,-0.44 -0.347,-0.44 -0.236,0 -0.354,0.146 -0.354,0.44 v 5.489 c 0,0.304 0.118,0.455 0.354,0.455 0.232,0 0.347,-0.151 0.347,-0.455 z"
   id="path178"
   style="fill:#323288;fill-opacity:1" />
	<path
   inkscape:connector-curvature="0"
   d="m 687.574,552.3 h -1.155 v 7.636 h -2.02 V 552.3 h -0.681 v -1.328 h 0.681 c 0,-0.787 0.091,-1.335 0.272,-1.645 0.182,-0.309 0.724,-0.463 1.626,-0.463 h 1.276 v 1.204 h -0.388 c -0.343,0 -0.557,0.071 -0.641,0.213 -0.085,0.142 -0.127,0.372 -0.127,0.69 h 1.155 v 1.329 z"
   id="path180"
   style="fill:#323288;fill-opacity:1" />
	<path
   inkscape:connector-curvature="0"
   d="m 704.231,552.733 h -2.026 v -2.192 c 0,-0.181 -0.104,-0.271 -0.309,-0.271 -0.215,0 -0.322,0.09 -0.322,0.271 v 7.682 c 0,0.18 0.107,0.271 0.322,0.271 0.205,0 0.309,-0.091 0.309,-0.271 v -2.733 h 2.026 v 2.811 c 0,0.525 -0.236,0.945 -0.709,1.263 -0.473,0.316 -1.006,0.475 -1.602,0.475 -1.72,0 -2.579,-0.664 -2.579,-1.992 v -7.126 c 0,-1.437 0.859,-2.154 2.579,-2.154 1.54,0 2.311,0.654 2.311,1.961 v 2.005 z"
   id="path182"
   style="fill:#323288;fill-opacity:1" />
	<path
   inkscape:connector-curvature="0"
   d="m 713.134,559.936 h -2.02 v -7.227 c 0,-0.272 -0.114,-0.409 -0.341,-0.409 -0.231,0 -0.347,0.132 -0.347,0.394 v 7.242 h -2.021 v -11.071 h 2.021 v 2.378 c 0.24,-0.222 0.657,-0.332 1.251,-0.332 0.396,0 0.737,0.113 1.024,0.34 0.288,0.227 0.432,0.527 0.432,0.903 v 7.782 z"
   id="path184"
   style="fill:#323288;fill-opacity:1" />
	<path
   inkscape:connector-curvature="0"
   d="m 719.28,550.478 h -2.02 v -1.613 h 2.02 v 1.613 z m 0,9.458 h -2.02 v -8.964 h 2.02 v 8.964 z"
   id="path186"
   style="fill:#323288;fill-opacity:1" />
	<path
   inkscape:connector-curvature="0"
   d="m 728.133,559.936 h -2.021 v -7.195 c 0,-0.273 -0.116,-0.409 -0.351,-0.409 -0.233,0 -0.351,0.131 -0.351,0.394 v 7.211 h -2.02 v -8.964 h 2.02 v 0.302 c 0.27,-0.242 0.687,-0.363 1.25,-0.363 0.365,0 0.701,0.108 1.01,0.324 0.308,0.216 0.462,0.533 0.462,0.95 v 7.75 z"
   id="path188"
   style="fill:#323288;fill-opacity:1" />
	<path
   inkscape:connector-curvature="0"
   d="m 737.036,559.936 h -1.786 v -0.348 c -0.151,0.314 -0.583,0.471 -1.297,0.471 -1.101,0 -1.651,-0.468 -1.651,-1.404 v -1.799 c 0,-0.402 0.134,-0.752 0.4,-1.051 0.268,-0.298 0.805,-0.671 1.612,-1.119 0.468,-0.257 0.702,-0.463 0.702,-0.617 v -1.328 c 0,-0.294 -0.116,-0.44 -0.348,-0.44 -0.265,0 -0.396,0.357 -0.396,1.073 0,0.129 0.007,0.319 0.021,0.571 0.02,0.252 0.028,0.442 0.028,0.571 h -1.948 v -1.791 c 0,-1.21 0.803,-1.814 2.409,-1.814 1.503,0 2.254,0.631 2.254,1.892 v 7.133 z m -2.02,-1.676 v -2.308 c -0.464,0.123 -0.695,0.35 -0.695,0.679 v 1.629 c 0,0.273 0.121,0.409 0.362,0.409 0.222,10e-4 0.333,-0.135 0.333,-0.409 z"
   id="path190"
   style="fill:#323288;fill-opacity:1" />
	<path
   inkscape:connector-curvature="0"
   d="m 750.909,559.936 h -1.871 v -11.071 h 1.871 v 0.603 h -0.957 v 9.897 h 0.957 v 0.571 z"
   id="path192"
   style="fill:#323288;fill-opacity:1" />
	<path
   inkscape:connector-curvature="0"
   d="m 759.683,550.308 h -1.247 v 9.628 h -2.232 v -9.628 h -1.248 v -1.443 h 4.728 v 1.443 z"
   id="path194"
   style="fill:#323288;fill-opacity:1" />
	<path
   inkscape:connector-curvature="0"
   d="m 768.55,559.936 h -1.786 v -0.348 c -0.151,0.314 -0.583,0.471 -1.297,0.471 -1.101,0 -1.651,-0.468 -1.651,-1.404 v -1.799 c 0,-0.402 0.134,-0.752 0.4,-1.051 0.268,-0.298 0.805,-0.671 1.612,-1.119 0.468,-0.257 0.702,-0.463 0.702,-0.617 v -1.328 c 0,-0.294 -0.116,-0.44 -0.348,-0.44 -0.265,0 -0.396,0.357 -0.396,1.073 0,0.129 0.007,0.319 0.021,0.571 0.02,0.252 0.028,0.442 0.028,0.571 h -1.948 v -1.791 c 0,-1.21 0.803,-1.814 2.409,-1.814 1.503,0 2.254,0.631 2.254,1.892 v 7.133 z m -2.019,-1.676 v -2.308 c -0.464,0.123 -0.695,0.35 -0.695,0.679 v 1.629 c 0,0.273 0.121,0.409 0.362,0.409 0.221,10e-4 0.333,-0.135 0.333,-0.409 z"
   id="path196"
   style="fill:#323288;fill-opacity:1" />
	<path
   inkscape:connector-curvature="0"
   d="m 774.71,550.478 h -2.02 v -1.613 h 2.02 v 1.613 z m 0,9.458 h -2.02 v -8.964 h 2.02 v 8.964 z"
   id="path198"
   style="fill:#323288;fill-opacity:1" />
	<path
   inkscape:connector-curvature="0"
   d="m 787.227,550.972 -1.41,8.964 h -2.218 l -0.631,-3.667 -0.574,3.667 h -2.324 l -1.41,-8.964 h 1.948 l 0.694,4.872 0.624,-4.872 h 2.034 l 0.624,4.872 0.694,-4.872 h 1.949 z"
   id="path200"
   style="fill:#323288;fill-opacity:1" />
	<path
   inkscape:connector-curvature="0"
   d="m 795.967,559.936 h -1.786 v -0.348 c -0.151,0.314 -0.583,0.471 -1.297,0.471 -1.101,0 -1.651,-0.468 -1.651,-1.404 v -1.799 c 0,-0.402 0.134,-0.752 0.4,-1.051 0.268,-0.298 0.805,-0.671 1.612,-1.119 0.468,-0.257 0.702,-0.463 0.702,-0.617 v -1.328 c 0,-0.294 -0.116,-0.44 -0.348,-0.44 -0.265,0 -0.396,0.357 -0.396,1.073 0,0.129 0.007,0.319 0.021,0.571 0.02,0.252 0.028,0.442 0.028,0.571 h -1.948 v -1.791 c 0,-1.21 0.803,-1.814 2.409,-1.814 1.503,0 2.254,0.631 2.254,1.892 v 7.133 z m -2.019,-1.676 v -2.308 c -0.464,0.123 -0.695,0.35 -0.695,0.679 v 1.629 c 0,0.273 0.121,0.409 0.362,0.409 0.221,10e-4 0.333,-0.135 0.333,-0.409 z"
   id="path202"
   style="fill:#323288;fill-opacity:1" />
	<path
   inkscape:connector-curvature="0"
   d="m 804.871,559.936 h -2.021 v -7.195 c 0,-0.273 -0.116,-0.409 -0.351,-0.409 -0.233,0 -0.351,0.131 -0.351,0.394 v 7.211 h -2.02 v -8.964 h 2.02 v 0.302 c 0.27,-0.242 0.687,-0.363 1.25,-0.363 0.365,0 0.701,0.108 1.01,0.324 0.308,0.216 0.462,0.533 0.462,0.95 v 7.75 z"
   id="path204"
   style="fill:#323288;fill-opacity:1" />
	<path
   inkscape:connector-curvature="0"
   d="m 810.825,559.936 h -1.871 v -0.571 h 0.957 v -9.897 h -0.957 v -0.603 h 1.871 v 11.071 z"
   id="path206"
   style="fill:#323288;fill-opacity:1" />
</g>
</svg>