<?xml version="1.0" encoding="UTF-8" standalone="no"?>
<!-- Generator: Adobe Illustrator 27.2.0, SVG Export Plug-In . SVG Version: 6.00 Build 0)  -->

<svg
   version="1.1"
   id="圖層_1"
   x="0px"
   y="0px"
   viewBox="0 0 100.01324 129.3"
   xml:space="preserve"
   sodipodi:docname="a2f9f886-020b-415b-8069-14d14b60f2b2.svg"
   width="100.01324"
   height="129.3"
   inkscape:version="1.2.2 (732a01da63, 2022-12-09)"
   xmlns:inkscape="http://www.inkscape.org/namespaces/inkscape"
   xmlns:sodipodi="http://sodipodi.sourceforge.net/DTD/sodipodi-0.dtd"
   xmlns:xlink="http://www.w3.org/1999/xlink"
   xmlns="http://www.w3.org/2000/svg"
   xmlns:svg="http://www.w3.org/2000/svg"><defs
   id="defs954" /><sodipodi:namedview
   id="namedview952"
   pagecolor="#ffffff"
   bordercolor="#000000"
   borderopacity="0.25"
   inkscape:showpageshadow="2"
   inkscape:pageopacity="0.0"
   inkscape:pagecheckerboard="0"
   inkscape:deskcolor="#d1d1d1"
   showgrid="false"
   inkscape:zoom="5.0685397"
   inkscape:cx="57.610281"
   inkscape:cy="72.506091"
   inkscape:window-width="1920"
   inkscape:window-height="991"
   inkscape:window-x="-9"
   inkscape:window-y="-9"
   inkscape:window-maximized="1"
   inkscape:current-layer="圖層_1" />
<style
   type="text/css"
   id="style544">
	.st0{clip-path:url(#SVGID_00000181051283064601894620000009116962657164793217_);}
	.st1{fill:#FFFFFF;}
	.st2{fill:#0F3675;}
	
		.st3{clip-path:url(#SVGID_00000046297120590317565280000012761524846693537980_);fill:url(#SVGID_00000000209257675529355310000009319831416246114689_);}
	.st4{fill:#FDD000;}
</style>
<g
   id="g560"
   transform="translate(-599.53166,-365.4)">
	<defs
   id="defs547">
		<line
   id="SVGID_1_"
   x1="1204.73"
   y1="1.17"
   x2="600.23999"
   y2="1.17" />
	</defs>
	<clipPath
   id="SVGID_00000162334023153282764420000015272298378706466233_">
		<use
   xlink:href="#SVGID_1_"
   style="overflow:visible"
   id="use549" />
	</clipPath>
	<g
   clip-path="url(#SVGID_00000162334023153282764420000015272298378706466233_)"
   id="g558">
		<defs
   id="defs553">
			<line
   id="SVGID_00000031192647574037304050000001151296972878433422_"
   x1="1205.87"
   y1="0"
   x2="599.06"
   y2="0" />
		</defs>
		<clipPath
   id="SVGID_00000046297518390047109360000013259257310703626943_">
			<use
   xlink:href="#SVGID_00000031192647574037304050000001151296972878433422_"
   style="overflow:visible"
   id="use555" />
		</clipPath>
	</g>
</g>
<g
   id="g568"
   transform="translate(-599.53166,-365.4)">
	<defs
   id="defs563">
		<line
   id="SVGID_00000047759343345610378310000010935338603716071564_"
   x1="1204.72"
   y1="1.17"
   x2="0"
   y2="1.17" />
	</defs>
	<clipPath
   id="SVGID_00000067238628047635022700000007637340262840978076_">
		<use
   xlink:href="#SVGID_00000047759343345610378310000010935338603716071564_"
   style="overflow:visible"
   id="use565" />
	</clipPath>
</g>
<g
   id="g576"
   transform="translate(-599.53166,-365.4)">
	<defs
   id="defs571">
		<line
   id="SVGID_00000054234425954486732350000015864335629039633584_"
   x1="1204.72"
   y1="1.17"
   x2="0"
   y2="1.17" />
	</defs>
	<clipPath
   id="SVGID_00000012435516670372176450000015031966382569195951_">
		<use
   xlink:href="#SVGID_00000054234425954486732350000015864335629039633584_"
   style="overflow:visible"
   id="use573" />
	</clipPath>
</g>
<g
   id="g584"
   transform="translate(-599.53166,-365.4)">
	<defs
   id="defs579">
		<line
   id="SVGID_00000029013357981575137930000008567243972751969179_"
   x1="1204.72"
   y1="1.17"
   x2="0"
   y2="1.17" />
	</defs>
	<clipPath
   id="SVGID_00000100368740056398120060000009694364075615146395_">
		<use
   xlink:href="#SVGID_00000029013357981575137930000008567243972751969179_"
   style="overflow:visible"
   id="use581" />
	</clipPath>
</g>
<g
   id="g592"
   transform="translate(-599.53166,-365.4)">
	<defs
   id="defs587">
		<line
   id="SVGID_00000093856978501887097460000005822976029902380986_"
   x1="1204.72"
   y1="1.17"
   x2="0"
   y2="1.17" />
	</defs>
	<clipPath
   id="SVGID_00000065043423437301789670000015508003211639590303_">
		<use
   xlink:href="#SVGID_00000093856978501887097460000005822976029902380986_"
   style="overflow:visible"
   id="use589" />
	</clipPath>
</g>
<g
   id="g600"
   transform="translate(-599.53166,-365.4)">
	<defs
   id="defs595">
		<line
   id="SVGID_00000164490833828420851330000006697680297794653100_"
   x1="1204.72"
   y1="1.17"
   x2="0"
   y2="1.17" />
	</defs>
	<clipPath
   id="SVGID_00000075842408089010710560000015187124224653245611_">
		<use
   xlink:href="#SVGID_00000164490833828420851330000006697680297794653100_"
   style="overflow:visible"
   id="use597" />
	</clipPath>
</g>
<g
   id="g608"
   transform="translate(-599.53166,-365.4)">
	<defs
   id="defs603">
		<line
   id="SVGID_00000016790504534941719140000003371776348700384684_"
   x1="1204.72"
   y1="1.17"
   x2="0"
   y2="1.17" />
	</defs>
	<clipPath
   id="SVGID_00000003822381203992594400000013721233792844964277_">
		<use
   xlink:href="#SVGID_00000016790504534941719140000003371776348700384684_"
   style="overflow:visible"
   id="use605" />
	</clipPath>
</g>
<g
   id="g616"
   transform="translate(-599.53166,-365.4)">
	<defs
   id="defs611">
		<line
   id="SVGID_00000038390819772503287450000012070811635717671327_"
   x1="1204.72"
   y1="1.17"
   x2="0"
   y2="1.17" />
	</defs>
	<clipPath
   id="SVGID_00000119119991747861243510000014076562339636611471_">
		<use
   xlink:href="#SVGID_00000038390819772503287450000012070811635717671327_"
   style="overflow:visible"
   id="use613" />
	</clipPath>
</g>
<g
   id="g624"
   transform="translate(-599.53166,-365.4)">
	<defs
   id="defs619">
		<line
   id="SVGID_00000158010900758399257890000006808686412619710080_"
   x1="1204.72"
   y1="1.17"
   x2="0"
   y2="1.17" />
	</defs>
	<clipPath
   id="SVGID_00000169546715815193636540000009314502418503209656_">
		<use
   xlink:href="#SVGID_00000158010900758399257890000006808686412619710080_"
   style="overflow:visible"
   id="use621" />
	</clipPath>
</g>
<g
   id="g632"
   transform="translate(-599.53166,-365.4)">
	<defs
   id="defs627">
		<line
   id="SVGID_00000121276774517837891390000004679852710580757888_"
   x1="1204.72"
   y1="1.17"
   x2="0"
   y2="1.17" />
	</defs>
	<clipPath
   id="SVGID_00000055677390216552650830000008295595895072006534_">
		<use
   xlink:href="#SVGID_00000121276774517837891390000004679852710580757888_"
   style="overflow:visible"
   id="use629" />
	</clipPath>
</g>
<g
   id="g640"
   transform="translate(-599.53166,-365.4)">
	<defs
   id="defs635">
		<line
   id="SVGID_00000123405567609321228800000002110761810775692172_"
   x1="1204.72"
   y1="1.17"
   x2="0"
   y2="1.17" />
	</defs>
	<clipPath
   id="SVGID_00000145034240152894961760000005950992617612775611_">
		<use
   xlink:href="#SVGID_00000123405567609321228800000002110761810775692172_"
   style="overflow:visible"
   id="use637" />
	</clipPath>
</g>
<g
   id="g648"
   transform="translate(-599.53166,-365.4)">
	<defs
   id="defs643">
		<line
   id="SVGID_00000173857388871236763820000012359767532258242218_"
   x1="1204.72"
   y1="1.17"
   x2="0"
   y2="1.17" />
	</defs>
	<clipPath
   id="SVGID_00000149365236721753846490000013995590178813202839_">
		<use
   xlink:href="#SVGID_00000173857388871236763820000012359767532258242218_"
   style="overflow:visible"
   id="use645" />
	</clipPath>
</g>
<g
   id="g656"
   transform="translate(-599.53166,-365.4)">
	<defs
   id="defs651">
		<line
   id="SVGID_00000050642197655397780330000003142931432428903614_"
   x1="1204.72"
   y1="1.17"
   x2="0"
   y2="1.17" />
	</defs>
	<clipPath
   id="SVGID_00000100376339160854049270000009572757134891274923_">
		<use
   xlink:href="#SVGID_00000050642197655397780330000003142931432428903614_"
   style="overflow:visible"
   id="use653" />
	</clipPath>
</g>
<g
   id="g664"
   transform="translate(-599.53166,-365.4)">
	<defs
   id="defs659">
		<line
   id="SVGID_00000156574784571584709310000011234275591568054463_"
   x1="1204.72"
   y1="1.17"
   x2="0"
   y2="1.17" />
	</defs>
	<clipPath
   id="SVGID_00000017507096576773768350000007476399512284329118_">
		<use
   xlink:href="#SVGID_00000156574784571584709310000011234275591568054463_"
   style="overflow:visible"
   id="use661" />
	</clipPath>
</g>
<g
   id="g672"
   transform="translate(-599.53166,-365.4)">
	<defs
   id="defs667">
		<line
   id="SVGID_00000118358217556634308460000001102551916450182825_"
   x1="1204.72"
   y1="1.17"
   x2="0"
   y2="1.17" />
	</defs>
	<clipPath
   id="SVGID_00000146500314285224074240000009715495656418317723_">
		<use
   xlink:href="#SVGID_00000118358217556634308460000001102551916450182825_"
   style="overflow:visible"
   id="use669" />
	</clipPath>
</g>
<line
   class="st1"
   x1="9.918354"
   y1="-364.23001"
   x2="-4.2516289"
   y2="-364.23001"
   id="line674" />
<g
   id="g682"
   transform="translate(-599.53166,-365.4)">
	<defs
   id="defs677">
		<line
   id="SVGID_00000004527264380921493020000005848545371381137306_"
   x1="1204.72"
   y1="1.17"
   x2="0"
   y2="1.17" />
	</defs>
	<clipPath
   id="SVGID_00000038404249773012492480000008504058575169229483_">
		<use
   xlink:href="#SVGID_00000004527264380921493020000005848545371381137306_"
   style="overflow:visible"
   id="use679" />
	</clipPath>
</g>
<g
   id="g690"
   transform="translate(-599.53166,-365.4)">
	<defs
   id="defs685">
		<line
   id="SVGID_00000008837302892329886830000006701964679285362304_"
   x1="1204.72"
   y1="1.17"
   x2="0"
   y2="1.17" />
	</defs>
	<clipPath
   id="SVGID_00000073709787331509561010000003140762004823177136_">
		<use
   xlink:href="#SVGID_00000008837302892329886830000006701964679285362304_"
   style="overflow:visible"
   id="use687" />
	</clipPath>
</g>
<g
   id="g949"
   transform="translate(-599.53166,-365.4)">
	<path
   class="st2"
   d="m 699.17,429.46 c 0.45,35.5 -21.44,64.56 -48.91,64.91 -27.46,0.35 -50.1,-28.14 -50.56,-63.64 -0.45,-35.48 21.45,-64.54 48.91,-64.89 27.47,-0.34 50.1,28.14 50.56,63.62"
   id="path692" />
	<path
   class="st1"
   d="m 614.94,408.06 c -0.25,-0.47 -0.66,-0.81 -1.16,-0.97 -0.24,-0.07 -0.46,-0.09 -0.7,-0.08 -0.19,-0.63 -0.67,-1.13 -1.31,-1.33 -0.5,-0.15 -1.04,-0.1 -1.51,0.14 -0.47,0.25 -0.81,0.67 -0.97,1.16 l -0.02,0.08 c -0.89,-0.03 -1.69,0.54 -1.96,1.4 l -0.08,0.61 c 0.01,0.65 0.34,1.27 0.9,1.63 l -0.04,0.1 -0.09,0.61 c 0,0.32 0.08,0.62 0.23,0.89 0.24,0.46 0.66,0.81 1.17,0.97 0.64,0.19 1.33,0.05 1.83,-0.37 0.2,0.14 0.4,0.26 0.64,0.33 0.5,0.16 1.04,0.1 1.5,-0.14 0.47,-0.26 0.81,-0.67 0.97,-1.17 l 0.1,-0.62 c 0,-0.24 -0.06,-0.47 -0.15,-0.7 0.37,-0.25 0.64,-0.61 0.78,-1.05 l 0.09,-0.61 c 0.01,-0.3 -0.07,-0.61 -0.22,-0.88 m -0.16,1.41 c -0.13,0.4 -0.39,0.74 -0.75,0.95 l -0.08,0.14 0.02,0.06 c 0.11,0.23 0.17,0.46 0.17,0.7 l -0.08,0.52 c -0.14,0.42 -0.42,0.76 -0.81,0.97 -0.4,0.21 -0.84,0.25 -1.26,0.12 -0.24,-0.07 -0.44,-0.19 -0.63,-0.35 h -0.21 c -0.43,0.42 -1.06,0.56 -1.64,0.38 -0.42,-0.13 -0.77,-0.42 -0.98,-0.81 -0.21,-0.4 -0.25,-0.84 -0.12,-1.27 l 0.08,-0.19 -0.07,-0.2 c -0.69,-0.38 -1.01,-1.19 -0.79,-1.95 0.24,-0.75 0.98,-1.25 1.77,-1.16 l 0.18,-0.13 0.04,-0.18 c 0.13,-0.42 0.42,-0.76 0.82,-0.98 0.39,-0.2 0.85,-0.24 1.27,-0.12 0.57,0.18 1,0.65 1.12,1.22 l 0.18,0.13 c 0.24,-0.03 0.48,-0.01 0.71,0.06 0.42,0.14 0.77,0.43 0.97,0.82 0.13,0.24 0.19,0.5 0.2,0.75 z"
   id="path694" />
	<path
   class="st1"
   d="m 613.38,408.67 -0.18,0.17 -1.71,0.41 c 0.24,-0.31 0.69,-0.89 0.69,-0.89 l 0.02,-0.07 -0.05,-0.09 -0.17,0.01 -0.67,0.89 -0.02,-1.67 0.11,-0.21 -0.25,-0.23 -0.23,0.23 0.13,0.21 0.02,1.67 -0.7,-0.87 -0.17,-0.02 -0.02,0.17 0.72,0.87 -1.74,-0.35 -0.18,-0.16 -0.29,0.19 0.19,0.28 0.22,-0.07 1.67,0.33 -0.98,0.41 -0.07,0.15 0.15,0.07 c 0,0 0.64,-0.26 1.01,-0.41 l -1.01,1.6 -0.22,0.11 0.07,0.33 0.33,-0.07 0.01,-0.23 0.99,-1.57 0.01,1.05 0.11,0.11 0.13,-0.12 -0.01,-1.06 1.05,1.55 0.01,0.23 0.33,0.07 0.07,-0.33 -0.21,-0.1 -1.07,-1.57 1.02,0.39 0.15,-0.07 0.01,-0.05 -0.08,-0.1 c 0,0 -0.63,-0.24 -1,-0.39 l 1.66,-0.39 0.22,0.07 0.18,-0.28 z"
   id="path696" />
	<path
   class="st1"
   d="m 691.46,407.07 c -0.25,-0.47 -0.66,-0.81 -1.16,-0.97 -0.23,-0.07 -0.47,-0.09 -0.71,-0.09 -0.18,-0.63 -0.67,-1.13 -1.3,-1.32 -0.51,-0.16 -1.04,-0.1 -1.51,0.14 -0.47,0.25 -0.82,0.66 -0.97,1.16 l -0.02,0.08 c -0.88,-0.03 -1.69,0.53 -1.96,1.39 l -0.09,0.61 c 0.01,0.65 0.34,1.27 0.9,1.63 l -0.03,0.1 -0.09,0.61 c 0.01,0.31 0.09,0.61 0.24,0.9 0.24,0.46 0.66,0.81 1.16,0.97 0.64,0.19 1.33,0.05 1.85,-0.36 0.19,0.14 0.39,0.25 0.63,0.33 0.51,0.15 1.04,0.1 1.51,-0.14 0.48,-0.25 0.81,-0.67 0.97,-1.17 l 0.09,-0.61 c 0,-0.24 -0.05,-0.48 -0.14,-0.7 0.37,-0.25 0.65,-0.61 0.78,-1.05 l 0.09,-0.61 c -0.02,-0.31 -0.09,-0.62 -0.24,-0.9 m -0.16,1.41 c -0.12,0.4 -0.39,0.74 -0.76,0.95 l -0.07,0.14 0.02,0.06 c 0.1,0.23 0.16,0.47 0.16,0.7 l -0.07,0.52 c -0.13,0.42 -0.41,0.77 -0.81,0.97 -0.4,0.21 -0.84,0.25 -1.27,0.12 l -0.62,-0.36 h -0.22 c -0.43,0.42 -1.06,0.56 -1.64,0.38 -0.43,-0.13 -0.77,-0.42 -0.97,-0.81 -0.2,-0.39 -0.25,-0.84 -0.11,-1.27 l 0.07,-0.19 -0.07,-0.2 c -0.68,-0.38 -1.01,-1.19 -0.78,-1.95 0.24,-0.75 0.97,-1.25 1.76,-1.16 l 0.17,-0.13 0.04,-0.18 c 0.14,-0.42 0.42,-0.76 0.81,-0.98 0.4,-0.2 0.85,-0.24 1.26,-0.12 0.58,0.18 1,0.66 1.13,1.22 l 0.18,0.13 0.7,0.06 c 0.42,0.14 0.77,0.43 0.97,0.82 0.13,0.24 0.19,0.5 0.19,0.75 z"
   id="path698" />
	<path
   class="st1"
   d="m 689.9,407.69 -0.17,0.17 -1.72,0.41 c 0.24,-0.31 0.69,-0.89 0.69,-0.89 l 0.02,-0.07 -0.04,-0.09 -0.17,0.01 -0.68,0.89 -0.02,-1.67 0.12,-0.21 -0.24,-0.23 -0.24,0.24 0.12,0.21 0.02,1.67 -0.7,-0.87 -0.17,-0.01 -0.01,0.17 0.7,0.87 -1.73,-0.35 -0.18,-0.16 -0.28,0.19 0.18,0.28 0.23,-0.06 1.67,0.33 -0.99,0.4 -0.06,0.15 0.16,0.07 c 0,0 0.64,-0.27 1,-0.41 l -1,1.6 -0.22,0.11 0.07,0.33 0.32,-0.07 0.02,-0.23 0.99,-1.57 c 0,0.38 0.01,1.05 0.01,1.05 l 0.13,0.11 0.11,-0.12 -0.02,-1.05 1.05,1.55 0.02,0.23 0.33,0.07 0.06,-0.33 -0.22,-0.1 -1.06,-1.58 1.02,0.38 0.14,-0.06 0.02,-0.05 -0.08,-0.1 c 0,0 -0.63,-0.25 -0.99,-0.39 l 1.65,-0.4 0.22,0.07 0.18,-0.28 z"
   id="path700" />
	<g
   id="g751">
		<defs
   id="defs703">
			<path
   id="SVGID_00000082346974610975448470000009708102577142857146_"
   d="m 639.66,419.91 c -1.73,-1.68 -4.07,-3.8 -2.91,-6.55 1,-2.07 2.77,-4.23 5.15,-4.52 1.11,-0.1 2.06,0.23 2.67,1.08 1.66,2.46 2.39,5.7 1.92,8.79 -0.85,1.28 -1.85,3.01 -3.46,3.46 l -0.34,0.03 h -0.02 c -1.38,0 -2.06,-1.44 -3.01,-2.29 m 17.6,-27.88 c -0.77,0.02 -1.54,0.38 -2.13,0.75 l -0.02,25.56 -0.51,0.53 c -0.42,0.42 -0.77,-0.17 -1.03,-0.42 -0.04,-3.33 0.43,-7.19 -0.82,-10.25 -0.9,-3.83 -4.29,-8.07 -8.49,-8.69 -9.23,-0.49 -16.13,8.59 -19.37,15.98 -0.99,2.49 -2.42,4.9 -2.21,7.8 0.01,0.69 0.61,1.2 1.13,1.44 1.8,0.66 4.03,0.29 5.38,-0.92 1.1,-0.86 0.81,-3 2.61,-2.94 1.38,0.83 2.51,2.19 3.63,3.54 2.23,7.15 -5.84,10.93 -7.38,17.02 -1.73,5.15 -1.21,11.81 -0.12,17.09 0.78,0.94 1.23,2.55 2.77,2.44 0.93,-0.35 1.95,-1.14 2.28,-2.16 0.81,-2.83 0.95,-5.73 1.08,-8.9 -0.25,-6.16 3.11,-12.18 8.71,-15.15 3.39,-2.36 5.73,-5.8 8.35,-8.83 0.76,-0.52 0.56,-2.31 1.86,-1.47 0.44,1.36 1.06,2.72 2.36,3.56 -0.99,9.92 -1.04,19.58 -0.65,29.57 l 0.79,2.04 c 0.87,1.28 2,2.62 3.63,2.52 6.02,-3.75 3.78,-12.01 3.11,-17.9 0.74,-2.22 1.73,-4.98 0.5,-7.25 0.06,-2.16 -0.31,-4.37 0.44,-6.34 0.84,-0.87 1.94,-1.73 3.23,-1.16 2.24,1.52 4.57,2.85 6.97,3.93 1.63,0.5 4.04,1.49 5.56,0.01 1.26,-1.46 0.54,-3.59 0.01,-5.12 -2.97,-5.6 -9.08,-8.09 -15.06,-8.35 l -0.19,-1.62 c -0.95,-0.59 -0.45,-1.87 -0.71,-2.81 -0.79,-1.1 -0.47,-2.65 -0.57,-4.02 1.39,-4.46 1.23,-10.6 -0.36,-15.12 -0.79,-1.62 -2.26,-3.13 -3.82,-4.14 -0.29,-0.14 -0.61,-0.2 -0.91,-0.2 h -0.05 z" />
		</defs>
		<clipPath
   id="SVGID_00000016065060595644680650000016105520473037362874_">
			<use
   xlink:href="#SVGID_00000082346974610975448470000009708102577142857146_"
   style="overflow:visible"
   id="use705" />
		</clipPath>
		
			<linearGradient
   id="SVGID_00000010293144545933590810000002523540128137798846_"
   gradientUnits="userSpaceOnUse"
   x1="-15.2541"
   y1="847.90417"
   x2="-12.6982"
   y2="847.90417"
   gradientTransform="matrix(-1714.0729,302.9702,302.9702,1714.0729,-240439.47,-1455735.1)">
			<stop
   offset="0"
   style="stop-color:#FABE00"
   id="stop708" />
			<stop
   offset="0.0225"
   style="stop-color:#FABE00"
   id="stop710" />
			<stop
   offset="0.0543"
   style="stop-color:#FABE00"
   id="stop712" />
			<stop
   offset="0.0982"
   style="stop-color:#FABE00"
   id="stop714" />
			<stop
   offset="0.1189"
   style="stop-color:#FCCA3A"
   id="stop716" />
			<stop
   offset="0.1589"
   style="stop-color:#FEE197"
   id="stop718" />
			<stop
   offset="0.1915"
   style="stop-color:#FFF2D2"
   id="stop720" />
			<stop
   offset="0.2152"
   style="stop-color:#FFFCF4"
   id="stop722" />
			<stop
   offset="0.2274"
   style="stop-color:#FFFFFF"
   id="stop724" />
			<stop
   offset="0.2406"
   style="stop-color:#FFFBEF"
   id="stop726" />
			<stop
   offset="0.2749"
   style="stop-color:#FFEEC6"
   id="stop728" />
			<stop
   offset="0.312"
   style="stop-color:#FEE29D"
   id="stop730" />
			<stop
   offset="0.351"
   style="stop-color:#FDD877"
   id="stop732" />
			<stop
   offset="0.3925"
   style="stop-color:#FCD056"
   id="stop734" />
			<stop
   offset="0.4372"
   style="stop-color:#FCCA36"
   id="stop736" />
			<stop
   offset="0.4861"
   style="stop-color:#FBC50F"
   id="stop738" />
			<stop
   offset="0.5417"
   style="stop-color:#FAC100"
   id="stop740" />
			<stop
   offset="0.6096"
   style="stop-color:#FABF00"
   id="stop742" />
			<stop
   offset="0.7247"
   style="stop-color:#FABE00"
   id="stop744" />
			<stop
   offset="1"
   style="stop-color:#FABE00"
   id="stop746" />
		</linearGradient>
		
			<polygon
   style="fill:url(#SVGID_00000010293144545933590810000002523540128137798846_)"
   points="610.44,394.16 678.42,382.14 692.2,460.11 624.22,472.12 "
   clip-path="url(#SVGID_00000016065060595644680650000016105520473037362874_)"
   id="polygon749" />
	</g>
	<path
   class="st4"
   d="m 613.33,430.44 c 0.34,26.68 16.84,48.19 36.77,47.94 19.94,-0.26 35.87,-22.19 35.53,-48.86 -0.34,-26.69 -16.83,-48.19 -36.77,-47.94 -19.94,0.25 -35.88,22.18 -35.53,48.86 m 1.99,-0.03 c -0.33,-25.55 14.72,-46.54 33.56,-46.78 18.83,-0.24 34.43,20.35 34.76,45.9 0.33,25.55 -14.73,46.54 -33.57,46.78 -18.83,0.25 -34.42,-20.34 -34.75,-45.9"
   id="path753" />
	<path
   class="st4"
   d="m 626.72,384.17 c -0.3,0.3 -0.55,0.56 -0.72,0.78 l -0.16,0.13 0.11,0.17 -0.23,0.12 -0.48,-0.2 c -0.52,-0.38 -0.99,-0.65 -1.41,-0.79 l -0.17,-0.15 0.11,-0.14 0.41,-0.23 c 0.19,-0.2 0.42,-0.45 0.69,-0.74 l 0.5,-0.56 c -0.26,-0.31 -0.48,-0.56 -0.65,-0.75 l -0.51,-0.2 -0.13,-0.12 0.19,-0.27 c 0.27,-0.13 0.51,-0.2 0.72,-0.22 l 0.29,0.14 c 0.01,0.17 0.19,0.49 0.52,0.95 l 0.39,-0.42 c 0.22,-0.25 0.39,-0.48 0.53,-0.67 l 0.33,-0.26 0.65,-0.08 c 0.23,-0.03 0.33,0.05 0.31,0.27 -0.04,0.23 0.03,0.68 0.23,1.33 l 0.29,0.05 -0.05,0.16 c -0.53,0.48 -0.99,0.9 -1.37,1.29 1.09,1.31 1.68,2.12 1.77,2.41 l -0.15,0.19 -0.4,-0.31 c -0.05,-0.04 -0.6,-0.66 -1.61,-1.88 m -0.29,-0.34 c -0.33,-0.39 -0.62,-0.74 -0.87,-1.04 -0.27,0.27 -0.62,0.67 -1.03,1.23 0.58,0.47 0.93,0.74 1.06,0.82 0.29,-0.28 0.6,-0.6 0.91,-0.92 z m -0.46,-1.49 c 0.25,0.34 0.55,0.72 0.91,1.15 0.52,-0.62 0.81,-0.94 0.84,-0.96 -0.29,-0.75 -0.49,-1.14 -0.63,-1.17 l -0.2,0.08 c -0.35,0.33 -0.65,0.64 -0.92,0.9"
   id="path755" />
	<path
   class="st4"
   d="m 631.85,377.78 0.26,0.43 -0.13,0.09 -0.4,-0.26 c -0.29,0.25 -0.56,0.51 -0.82,0.76 l -0.29,0.11 -0.43,-0.02 -0.09,-0.1 0.08,-0.08 0.43,-0.22 c 0.33,-0.25 0.63,-0.46 0.89,-0.63 l -0.49,-0.25 -0.09,-0.2 c 0.09,-0.1 0.26,-0.16 0.5,-0.19 l 0.23,0.1 0.2,0.29 0.27,-0.19 0.15,-0.01 0.01,0.1 -0.22,0.23 z m 2.25,3.69 c -0.39,0.26 -0.75,0.52 -1.05,0.8 -0.24,0.2 -0.47,0.27 -0.71,0.21 l -0.03,-0.17 c 0.58,-0.41 1.12,-0.79 1.63,-1.13 l -0.27,-0.5 -0.57,0.43 -0.56,0.13 -0.02,-0.17 0.55,-0.36 0.45,-0.31 c -0.16,-0.29 -0.3,-0.55 -0.42,-0.76 -0.18,0.09 -0.4,0.25 -0.64,0.44 l 0.27,0.45 -0.12,0.08 -0.44,-0.31 c -0.34,0.27 -0.65,0.52 -0.94,0.78 l -0.32,0.18 -0.35,-0.02 -0.04,-0.17 c 0.49,-0.35 0.96,-0.67 1.41,-0.98 l -0.46,-0.23 -0.1,-0.21 c 0.09,-0.1 0.26,-0.16 0.49,-0.18 l 0.24,0.09 0.19,0.28 0.66,-0.46 c -0.15,-0.27 -0.33,-0.46 -0.54,-0.6 l -0.67,0.22 -0.01,-0.18 c 0.27,-0.18 0.51,-0.36 0.73,-0.53 l 0.55,-0.5 0.4,-0.26 h 0.34 l 0.03,0.12 c -0.01,0.04 -0.33,0.31 -0.97,0.82 h 0.23 l 0.19,0.15 0.15,0.45 c 0.27,-0.2 0.52,-0.38 0.75,-0.54 -0.09,-0.27 -0.19,-0.45 -0.31,-0.54 l -0.05,-0.13 0.26,-0.14 c 0.23,-0.02 0.39,-0.01 0.5,0.05 l 0.06,0.19 -0.01,0.23 0.6,-0.45 c 0.26,-0.24 0.62,-0.35 1.07,-0.32 l 0.21,0.16 -0.01,0.04 c -0.03,0.06 -0.64,0.41 -1.83,1.07 0.02,0.42 0,0.69 -0.04,0.79 l -0.15,0.02 c -0.03,-0.04 -0.09,-0.24 -0.18,-0.59 -0.27,0.16 -0.51,0.3 -0.72,0.45 0.14,0.29 0.26,0.53 0.38,0.74 l 0.29,-0.25 c 0.27,-0.25 0.52,-0.38 0.74,-0.37 l 0.24,0.06 -0.1,0.15 c -0.47,0.31 -0.81,0.54 -1.01,0.7 l 0.26,0.49 c 0.49,-0.37 0.87,-0.67 1.17,-0.91 0.18,-0.13 0.47,-0.19 0.84,-0.16 l 0.2,0.15 -0.18,0.17 c -1.06,0.59 -1.68,0.94 -1.85,1.06 0.37,0.69 0.57,1.14 0.59,1.35 l -0.04,0.19 -0.11,0.03 c -0.13,-0.08 -0.42,-0.51 -0.85,-1.29 m -1.04,-4.42 v 0.14 l -0.06,0.44 -0.14,0.03 c -0.04,-0.07 -0.1,-0.26 -0.17,-0.57 h -0.1 l 0.01,-0.15 0.02,-0.01 c -0.11,-0.35 -0.22,-0.56 -0.32,-0.64 l -0.05,-0.12 0.26,-0.14 0.48,0.06 0.07,0.19 -0.02,0.36 0.47,-0.33 c 0.38,-0.32 0.72,-0.44 1.03,-0.36 l 0.14,0.14 -0.12,0.13 c -0.45,0.13 -0.86,0.35 -1.23,0.65 z"
   id="path757" />
	<path
   class="st4"
   d="m 640.77,376.96 -0.42,0.26 c -0.35,0.22 -0.67,0.3 -0.97,0.26 l 0.01,-0.25 c 0.42,-0.21 0.79,-0.4 1.12,-0.6 l -0.03,-0.04 c -0.32,-0.43 -0.57,-0.69 -0.75,-0.78 -0.32,0.15 -0.58,0.28 -0.79,0.4 l -0.24,0.08 c 0.22,0.75 0.42,1.62 0.59,2.59 l 0.18,0.02 c 0.64,-0.53 1.01,-0.81 1.1,-0.84 l 0.09,0.09 -0.2,0.28 c -0.82,1 -1.27,1.62 -1.32,1.84 l -0.25,0.16 -0.35,-0.31 -0.05,-0.4 c 0.19,-0.41 0.25,-0.77 0.19,-1.1 -0.16,-1.04 -0.36,-1.89 -0.61,-2.54 -0.13,-0.37 -0.31,-0.69 -0.57,-0.97 l -0.04,-0.22 0.29,-0.07 0.42,0.13 c 0.78,-0.38 1.44,-0.79 1.97,-1.22 l 0.26,-0.11 c 0.27,-0.04 0.57,0.02 0.93,0.15 l 0.08,0.35 c -0.15,0.14 -0.26,0.41 -0.34,0.82 l 0.21,0.11 -0.09,0.13 c -0.35,0.14 -0.66,0.27 -0.92,0.39 0.3,0.03 0.47,0.11 0.49,0.24 l 0.17,0.54 0.41,-0.32 0.56,-0.27 0.41,0.04 0.02,0.16 c -0.03,0.05 -0.42,0.3 -1.15,0.75 0.31,0.38 0.73,0.74 1.26,1.07 0.31,0.19 0.62,0.33 0.92,0.41 0.28,0.08 0.48,0.11 0.58,0.07 0.09,-0.03 0.14,-0.17 0.17,-0.42 l 0.04,-0.59 0.04,-0.14 0.1,0.1 c 0.31,0.78 0.52,1.24 0.65,1.39 l -0.07,0.4 c -0.24,0.04 -0.57,0.04 -0.99,-0.03 -0.33,-0.07 -0.65,-0.17 -0.94,-0.3 -0.93,-0.49 -1.66,-1.05 -2.17,-1.71 m -2.17,-1.02 0.02,0.05 c 0.57,-0.26 1.19,-0.58 1.85,-0.99 l 0.07,-0.03 c 0,-0.19 0,-0.41 -0.01,-0.65 l -0.08,-0.15 -0.31,0.05 c -0.5,0.28 -1.01,0.56 -1.53,0.83 l -0.14,0.09 c -0.02,0.21 0.03,0.47 0.13,0.8"
   id="path759" />
	<path
   class="st4"
   d="m 646.5,378.33 -0.1,0.21 h -0.23 l -0.16,-0.23 c -0.14,-0.21 -0.15,-0.58 -0.02,-1.11 0.09,-0.51 0.1,-1.6 0.04,-3.26 -0.03,-0.14 -0.1,-0.44 -0.25,-0.87 V 372.9 H 646 l 0.37,0.19 0.44,-0.06 c 1.02,-0.22 1.97,-0.4 2.83,-0.55 0.33,-0.06 0.55,-0.11 0.65,-0.17 l 0.16,-0.04 c 0.09,-0.01 0.3,0.08 0.64,0.27 l 0.35,0.29 -0.09,0.19 -0.05,0.08 c -0.14,0.18 -0.11,1.33 0.07,3.47 0.14,0.99 0.12,1.63 -0.06,1.92 l -0.2,0.21 -0.04,-0.01 c -0.07,-0.03 -0.25,-0.27 -0.58,-0.74 -1.72,0.09 -3,0.22 -3.82,0.37 z m 4.05,-0.78 0.18,0.14 c 0.08,-0.14 0.11,-0.34 0.08,-0.61 -0.02,-0.2 -0.05,-0.79 -0.08,-1.74 -0.03,-1.55 -0.12,-2.39 -0.26,-2.54 l -0.27,-0.06 -0.4,0.06 c -1.28,0.16 -2.37,0.38 -3.27,0.66 v 0.04 c -0.02,0.16 -0.01,1.42 0.02,3.79 0.01,0.29 0.01,0.52 -0.01,0.7 1.05,-0.08 2.22,-0.24 3.52,-0.46 z m -3.8,-0.82 c 0.22,-0.01 0.75,-0.18 1.57,-0.51 l 0.13,0.01 -0.08,0.11 c -0.36,0.25 -0.72,0.5 -1.08,0.74 l -0.15,0.05 -0.41,-0.19 -0.06,-0.11 z m 0.6,-0.64 -0.02,0.17 -0.17,-0.03 -0.13,-0.26 c -0.1,-0.33 -0.21,-0.61 -0.33,-0.82 l -0.04,-0.13 0.11,-0.03 0.28,0.04 c 0.36,-0.12 0.58,-0.22 0.7,-0.31 l 0.12,-0.05 c 0,0 0.17,0.06 0.51,0.18 l 0.03,0.27 c -0.08,0.1 -0.15,0.29 -0.2,0.55 l 0.2,0.14 -0.09,0.07 c -0.37,0.07 -0.65,0.14 -0.81,0.19 z m 1.7,-0.08 c -0.24,-0.43 -0.44,-1.01 -0.62,-1.73 -0.4,0.09 -0.74,0.18 -1.05,0.28 l -0.48,-0.09 0.04,-0.15 0.54,-0.11 c 0.25,-0.05 0.51,-0.11 0.78,-0.18 l 0.11,-0.03 c -0.14,-0.39 -0.22,-0.61 -0.26,-0.61 l 0.02,-0.2 0.09,-0.01 0.26,0.08 0.19,0.39 0.01,0.24 c 0.28,-0.09 0.51,-0.1 0.7,-0.03 l 0.17,0.14 -0.14,0.1 c -0.2,0.03 -0.43,0.08 -0.67,0.14 0.16,0.58 0.32,1.08 0.49,1.45 l 0.03,-0.03 c 0.23,-0.46 0.31,-0.8 0.24,-1 l 0.04,-0.12 0.52,0.13 0.14,0.15 -0.14,0.25 c -0.23,0.42 -0.43,0.75 -0.6,1.01 0.19,0.26 0.35,0.41 0.46,0.48 0.1,0.08 0.23,-0.12 0.41,-0.58 l 0.13,-0.15 0.04,0.2 c -0.05,0.34 -0.06,0.64 -0.03,0.93 l 0.01,0.35 -0.16,0.07 -0.06,-0.01 c -0.39,-0.17 -0.73,-0.49 -1.04,-0.99 l -0.09,0.11 c -0.47,0.49 -0.83,0.77 -1.08,0.83 l -0.03,-0.06 c 0.46,-0.47 0.69,-0.71 0.69,-0.71 0,0 0.12,-0.21 0.34,-0.54 m -1.25,-0.33 0.03,-0.01 c 0.02,-0.37 0.02,-0.56 0.01,-0.59 h -0.16 l -0.5,0.14 c 0.01,0.09 0.05,0.3 0.13,0.64 z m 1.7,-2.2 -0.22,-0.22 0.03,-0.12 h 0.16 c 0.44,0.1 0.67,0.2 0.73,0.34 l 0.04,0.3 -0.12,0.09 -0.21,-0.07 z"
   id="path761" />
	<path
   class="st4"
   d="m 654.98,376.29 c 0.35,-0.3 0.59,-0.57 0.74,-0.82 0.2,-0.28 0.3,-0.47 0.28,-0.56 -0.01,-0.05 -0.22,-0.07 -0.62,-0.06 l -0.42,-0.16 c -0.79,0.62 -1.32,0.92 -1.58,0.89 l -0.08,-0.09 0.14,-0.12 c 0.37,-0.26 0.69,-0.52 0.96,-0.77 0.59,-0.54 0.87,-0.94 0.82,-1.18 l 0.13,-0.16 0.36,0.22 0.21,0.36 -0.08,0.19 c -0.14,0.06 -0.38,0.25 -0.71,0.56 0.43,0.01 0.76,-0.01 0.96,-0.05 l 0.35,0.01 c 0.32,0.21 0.5,0.35 0.52,0.42 l -0.1,0.19 c -0.13,0.06 -0.3,0.23 -0.52,0.49 -0.48,0.54 -0.98,1.01 -1.52,1.39 -0.86,0.58 -1.53,0.83 -2.02,0.75 l 0.06,-0.11 c 0.7,-0.33 1.35,-0.72 1.96,-1.22 l -0.01,0.01 -0.23,-0.19 c -0.31,-0.45 -0.47,-0.7 -0.43,-0.77 l 0.09,-0.06 0.48,0.34 z m 2.86,-0.65 c -0.47,2.1 -0.73,3.25 -0.77,3.5 -0.06,0.39 -0.21,0.61 -0.4,0.69 l -0.16,-0.02 -0.1,-0.22 c -0.1,-0.39 -0.08,-0.71 0.05,-0.95 0.19,-0.35 0.32,-0.7 0.42,-1.09 0.17,-0.79 0.34,-1.52 0.5,-2.24 0.06,-0.42 0.13,-0.8 0.21,-1.17 0.04,-0.25 0,-0.52 -0.13,-0.79 l 0.02,-0.19 0.43,0.1 0.46,0.43 -0.04,0.36 c -0.17,0.33 -0.34,0.81 -0.45,1.41 l 0.03,0.01 c 1.12,0.4 1.72,0.79 1.81,1.14 0.09,0.27 0.09,0.43 0.03,0.52 l -0.15,0.08 -0.32,-0.22 c -0.5,-0.48 -0.96,-0.89 -1.37,-1.22 z"
   id="path763" />
	<path
   class="st4"
   d="m 663.36,380.31 c -0.27,0.12 -0.53,0.18 -0.82,0.2 -0.72,0.03 -1.42,-0.19 -2.09,-0.65 l 0.04,-0.1 c 0.35,0.1 0.67,0.18 0.96,0.24 0.58,0.09 1.18,0.04 1.76,-0.12 -0.22,-0.67 -0.41,-1.11 -0.59,-1.35 l -0.05,-0.2 0.2,0.05 c 0.2,0.09 0.35,0.29 0.47,0.61 0.1,0.25 0.2,0.49 0.3,0.72 0.56,-0.39 0.84,-0.72 0.84,-0.98 l 0.14,-0.1 0.28,0.22 0.18,0.35 -0.11,0.15 -0.44,0.3 c -0.21,0.19 -0.44,0.34 -0.69,0.48 0.17,0.37 0.35,0.67 0.54,0.91 0.16,0.24 0.68,0.74 1.56,1.49 l 0.25,0.29 -0.34,-0.01 c -0.44,-0.14 -0.96,-0.35 -1.55,-0.63 -0.13,-0.17 -0.42,-0.77 -0.84,-1.87 m 0.08,-3.25 0.15,-0.05 c 0.14,0.07 0.25,0.26 0.33,0.57 l -0.11,0.19 c -0.31,0.07 -0.58,0.14 -0.81,0.21 -0.58,0.13 -0.99,0.12 -1.23,-0.02 v -0.1 l 0.37,-0.06 c 0.7,-0.13 1.13,-0.38 1.3,-0.74 m -0.68,-0.93 c 1.84,0.58 3.12,0.95 3.83,1.11 0.25,0.07 0.49,0.27 0.68,0.62 l 0.01,0.25 -0.25,-0.02 -0.02,-0.02 c -1.42,-0.7 -2.69,-1.15 -3.83,-1.36 -0.25,-0.04 -0.42,-0.19 -0.53,-0.45 z m 2.17,-0.21 -0.18,-0.39 0.09,-0.13 0.19,0.08 c 0.49,0.3 0.75,0.57 0.75,0.78 l -0.11,0.39 -0.19,0.07 -0.22,-0.21 z m 0.34,2.25 -0.01,-0.23 0.12,-0.03 c 0.69,0.54 1.02,0.96 0.99,1.28 -0.01,0.26 -0.07,0.42 -0.16,0.44 l -0.16,0.03 -0.19,-0.3 c -0.2,-0.46 -0.4,-0.85 -0.59,-1.19"
   id="path765" />
	<path
   class="st4"
   d="m 668.22,382.89 -0.22,0.26 -0.13,-0.16 0.07,-0.35 c 0.19,-0.42 0.31,-0.77 0.35,-1.08 l 0.09,-0.16 0.12,0.07 0.17,0.2 0.62,0.3 0.6,0.21 0.28,0.21 c 0.16,0.29 0.26,0.49 0.29,0.61 l -0.2,0.22 c -0.17,-0.03 -0.4,0.05 -0.67,0.2 l 0.03,0.23 h -0.13 c -0.64,-0.43 -1.07,-0.68 -1.27,-0.76 m 2,-1.29 0.18,-0.09 c 0.44,-0.25 0.69,-0.45 0.73,-0.58 l 0.11,-0.07 0.16,0.2 0.07,0.43 -0.16,0.09 -0.25,0.05 -0.54,0.13 0.63,0.36 0.31,0.33 -0.01,0.24 -0.16,-0.03 c -0.97,-0.65 -1.95,-1.18 -2.94,-1.6 -0.25,-0.12 -0.4,-0.31 -0.48,-0.57 l 0.04,-0.21 0.15,0.04 c 0.42,0.26 1.13,0.7 2.16,1.28 m -1.87,1.04 c 0.25,0.14 0.55,0.29 0.89,0.43 l 0.42,-0.37 0.06,-0.16 -0.1,-0.11 c -0.46,-0.22 -0.76,-0.38 -0.91,-0.45 -0.06,0.08 -0.17,0.3 -0.36,0.66 m 4.44,-0.78 0.07,0.03 c 0.52,0.18 0.86,0.27 1.02,0.28 l 0.25,0.17 c 0.07,0.15 0.14,0.36 0.2,0.65 l -0.22,0.22 -0.56,-0.02 -0.4,0.07 c -0.36,0.02 -0.51,0.15 -0.44,0.4 0.21,0.84 0.17,1.42 -0.09,1.73 -0.19,0.22 -0.43,0.33 -0.71,0.34 l -0.27,-0.08 -0.07,-0.25 c 0.03,-0.14 -0.02,-0.42 -0.14,-0.85 l -0.02,-0.22 h 0.09 l 0.38,0.43 0.26,0.17 0.19,-0.1 0.13,-0.55 c 0.01,-0.27 -0.03,-0.54 -0.12,-0.79 l -0.01,-0.3 0.15,-0.09 c 0.14,-0.03 0.45,-0.16 0.93,-0.39 l 0.13,-0.18 c -0.02,-0.07 -0.21,-0.16 -0.58,-0.28 l -0.2,-0.08 -0.35,0.3 c -0.4,0.4 -0.99,1.11 -1.75,2.09 -0.74,0.9 -1.19,1.39 -1.37,1.5 l -0.19,0.04 -0.06,-0.1 v -0.01 c 0.02,-0.19 0.38,-0.68 1.06,-1.51 0.45,-0.51 1.12,-1.32 2.02,-2.43 0.05,-0.08 0.11,-0.28 0.19,-0.58 l 0.11,-0.1 0.22,0.13 0.08,0.08 z m -3.03,-1.36 0.05,-0.2 0.09,-0.04 c 0.11,0.07 0.21,0.24 0.29,0.52 l -0.08,0.29 -0.18,0.11 -0.16,-0.08 c -0.07,-0.16 -0.07,-0.36 -0.01,-0.6 m 0.32,-0.78 c 0.3,0.21 0.62,0.4 0.97,0.59 0.51,0.22 0.81,0.38 0.9,0.5 l 0.14,0.3 -0.1,0.07 -0.34,-0.15 c -0.41,-0.22 -0.79,-0.44 -1.18,-0.65 -0.27,-0.15 -0.45,-0.32 -0.57,-0.58 z m 1.42,-0.18 -0.02,-0.28 0.09,-0.08 0.13,0.07 0.44,0.53 0.04,0.39 -0.17,0.2 -0.23,-0.04 c -0.11,-0.18 -0.21,-0.45 -0.28,-0.79"
   id="path767" />
	<path
   class="st4"
   d="m 657.35,366.47 c 0,0 -2.66,0.68 -3.59,1.17 -0.77,0.42 -1.59,0.78 -2.44,1.04 -0.84,0.25 -1.72,0.43 -2.6,0.44 -0.73,0.01 -1.45,0.02 -2.19,-0.04 0,0 2.26,-1.52 2.83,-1.91 1.49,-0.98 3.08,-1.09 4.8,-0.95 0.72,0.06 1.43,0.1 2.13,0.17 0.3,0.01 0.77,0.15 1.06,0.08"
   id="path769" />
	<path
   class="st4"
   d="m 648.97,365.4 c 0,0 -2.43,1.29 -3.22,1.98 -0.66,0.58 -1.36,1.13 -2.12,1.57 -0.76,0.45 -1.58,0.83 -2.42,1.05 -0.72,0.18 -1.41,0.36 -2.14,0.46 0,0 1.83,-2.01 2.3,-2.5 1.22,-1.3 2.75,-1.78 4.45,-2.05 0.7,-0.1 1.4,-0.22 2.1,-0.33 0.3,-0.06 0.79,-0.03 1.05,-0.18"
   id="path771" />
	<path
   class="st4"
   d="m 640.4,366.56 c 0,0 -2.13,1.73 -2.77,2.58 -0.53,0.69 -1.11,1.38 -1.77,1.96 -0.66,0.59 -1.39,1.11 -2.18,1.49 -0.67,0.32 -1.31,0.63 -2,0.86 0,0 1.41,-2.32 1.77,-2.9 0.94,-1.52 2.34,-2.28 3.96,-2.88 0.67,-0.24 1.33,-0.5 2,-0.74 0.28,-0.11 0.77,-0.18 0.99,-0.37"
   id="path773" />
	<path
   class="st4"
   d="m 632.48,369.22 c 0,0 -1.79,2.08 -2.26,3.02 -0.41,0.79 -0.85,1.56 -1.4,2.25 -0.54,0.68 -1.16,1.34 -1.87,1.85 -0.6,0.43 -1.18,0.85 -1.82,1.21 0,0 0.97,-2.53 1.22,-3.17 0.65,-1.66 1.9,-2.67 3.38,-3.54 0.61,-0.36 1.22,-0.73 1.84,-1.08 0.25,-0.16 0.72,-0.32 0.91,-0.54"
   id="path775" />
	<path
   class="st4"
   d="m 625.17,373.44 c 0,0 -1.41,2.36 -1.71,3.36 -0.26,0.85 -0.57,1.68 -0.99,2.46 -0.42,0.77 -0.9,1.52 -1.52,2.15 -0.52,0.54 -1.01,1.04 -1.58,1.51 0,0 0.52,-2.66 0.66,-3.34 0.35,-1.75 1.41,-2.96 2.72,-4.07 0.54,-0.47 1.07,-0.94 1.62,-1.39 0.22,-0.2 0.65,-0.43 0.8,-0.68"
   id="path777" />
	<path
   class="st4"
   d="m 618.81,378.87 c 0,0 -1.07,2.53 -1.23,3.57 -0.14,0.87 -0.34,1.74 -0.64,2.57 -0.31,0.82 -0.69,1.63 -1.22,2.34 -0.43,0.6 -0.85,1.17 -1.35,1.71 0,0 0.15,-2.71 0.2,-3.4 0.11,-1.78 0.98,-3.11 2.13,-4.4 0.47,-0.53 0.94,-1.07 1.41,-1.6 0.18,-0.22 0.58,-0.52 0.7,-0.79"
   id="path779" />
	<path
   class="st4"
   d="m 613.45,385.08 c 0,0 -0.76,2.64 -0.8,3.69 -0.04,0.88 -0.13,1.77 -0.34,2.62 -0.21,0.85 -0.5,1.7 -0.94,2.47 -0.36,0.64 -0.71,1.27 -1.15,1.86 0,0 -0.17,-2.71 -0.2,-3.4 -0.09,-1.78 0.62,-3.21 1.61,-4.62 0.4,-0.59 0.8,-1.18 1.21,-1.76 0.18,-0.22 0.53,-0.57 0.61,-0.86"
   id="path781" />
	<path
   class="st4"
   d="m 608.86,392.18 c 0,0 -0.41,2.71 -0.32,3.77 0.08,0.86 0.1,1.49 0.01,2.36 -0.09,0.86 -0.27,1.75 -0.61,2.56 -0.27,0.68 -0.53,1.62 -0.89,2.27 0,0 -0.52,-2.66 -0.64,-3.34 -0.33,-1.75 0.2,-3.27 1,-4.79 0.33,-0.63 0.65,-1.27 0.98,-1.9 0.13,-0.26 0.43,-0.64 0.47,-0.93"
   id="path783" />
	<path
   class="st4"
   d="m 605.13,400.02 c 0,0.01 -0.09,2.74 0.12,3.77 0.19,0.86 0.29,1.47 0.29,2.35 0.01,0.87 -0.06,1.76 -0.3,2.61 -0.19,0.72 -0.34,1.68 -0.62,2.37 0,0 -0.84,-2.59 -1.04,-3.24 -0.53,-1.7 -0.19,-3.27 0.42,-4.87 0.25,-0.67 0.5,-1.33 0.75,-2 0.11,-0.28 0.37,-0.69 0.38,-0.99"
   id="path785" />
	<path
   class="st4"
   d="m 602.43,408.34 c 0,0.01 0.2,2.74 0.53,3.75 0.27,0.83 0.43,1.42 0.53,2.29 0.11,0.88 0.13,1.78 -0.02,2.65 -0.11,0.73 -0.17,1.7 -0.37,2.41 0,0 -1.1,-2.48 -1.37,-3.12 -0.71,-1.65 -0.53,-3.24 -0.09,-4.9 0.18,-0.69 0.36,-1.38 0.53,-2.07 0.07,-0.27 0.29,-0.71 0.26,-1.01"
   id="path787" />
	<path
   class="st4"
   d="m 600.59,416.87 c 0,0 0.48,2.71 0.89,3.67 0.36,0.81 0.57,1.38 0.76,2.24 0.19,0.85 0.3,1.75 0.24,2.63 -0.04,0.74 0,1.71 -0.13,2.43 0,0 -1.33,-2.36 -1.67,-2.96 -0.87,-1.57 -0.85,-3.17 -0.59,-4.86 0.11,-0.71 0.22,-1.41 0.33,-2.12 0.06,-0.28 0.23,-0.74 0.17,-1.03"
   id="path789" />
	<path
   class="st4"
   d="m 599.72,425.85 c 0,0.01 0.75,2.64 1.28,3.57 0.43,0.76 0.71,1.31 0.98,2.15 0.28,0.83 0.48,1.71 0.52,2.59 0.03,0.73 0.18,1.7 0.12,2.43 0,0 -1.57,-2.21 -1.98,-2.77 -1.02,-1.45 -1.17,-3.05 -1.09,-4.77 0.05,-0.72 0.07,-1.43 0.11,-2.13 0.03,-0.3 0.15,-0.78 0.06,-1.07"
   id="path791" />
	<path
   class="st4"
   d="m 599.77,434.95 c 0,0 1.05,2.54 1.67,3.38 0.52,0.71 0.86,1.23 1.23,2.03 0.37,0.8 0.67,1.65 0.81,2.51 0.11,0.73 0.37,1.67 0.4,2.4 0,0 -1.82,-2.01 -2.28,-2.52 -1.18,-1.34 -1.52,-2.9 -1.63,-4.62 -0.04,-0.7 -0.09,-1.43 -0.14,-2.13 -0.01,-0.28 0.06,-0.78 -0.06,-1.05"
   id="path793" />
	<path
   class="st4"
   d="m 600.76,444.05 c 0,0 1.37,2.37 2.1,3.14 0.62,0.63 1.01,1.1 1.49,1.84 0.46,0.75 0.88,1.55 1.13,2.39 0.21,0.71 0.59,1.61 0.72,2.33 0,0 -2.08,-1.77 -2.59,-2.21 -1.35,-1.16 -1.89,-2.68 -2.22,-4.36 -0.14,-0.71 -0.29,-1.4 -0.42,-2.1 -0.06,-0.29 -0.07,-0.78 -0.21,-1.03"
   id="path795" />
	<path
   class="st4"
   d="m 602.87,452.92 c 0,0 1.65,2.2 2.46,2.88 0.68,0.56 1.13,0.97 1.68,1.66 0.56,0.67 1.06,1.43 1.41,2.23 0.29,0.68 0.76,1.53 0.98,2.24 0,0 -2.26,-1.51 -2.82,-1.9 -1.47,-1 -2.19,-2.42 -2.71,-4.07 -0.21,-0.67 -0.45,-1.35 -0.66,-2.03 -0.11,-0.29 -0.16,-0.77 -0.34,-1.01"
   id="path797" />
	<path
   class="st4"
   d="m 605.99,461.46 c 0,0 1.94,1.95 2.83,2.51 0.76,0.47 1.26,0.82 1.9,1.42 0.63,0.6 1.24,1.27 1.69,2.02 0.39,0.63 0.98,1.4 1.28,2.08 0,0 -2.45,-1.18 -3.06,-1.48 -1.59,-0.79 -2.49,-2.12 -3.24,-3.67 -0.31,-0.64 -0.62,-1.28 -0.93,-1.93 -0.14,-0.26 -0.25,-0.74 -0.47,-0.95"
   id="path799" />
	<path
   class="st4"
   d="m 609.82,469.02 c 0,0 2.18,1.66 3.15,2.08 0.8,0.35 1.36,0.62 2.09,1.12 0.72,0.51 1.41,1.08 1.96,1.76 0.47,0.58 1.16,1.25 1.56,1.87 0,0 -2.59,-0.81 -3.24,-1.03 -1.69,-0.55 -2.78,-1.74 -3.73,-3.15 -0.33,-0.5 -0.7,-0.99 -1.02,-1.49 l -0.38,-0.63 z"
   id="path801" />
	<path
   class="st4"
   d="m 614.54,475.95 c 0,0 2.41,1.32 3.43,1.6 0.85,0.22 1.43,0.41 2.22,0.8 0.78,0.39 1.55,0.86 2.2,1.46 0.55,0.5 1.34,1.07 1.82,1.62 0,0 -2.68,-0.43 -3.36,-0.54 -1.76,-0.3 -3,-1.31 -4.16,-2.57 -0.48,-0.53 -0.96,-1.05 -1.44,-1.57 -0.2,-0.24 -0.45,-0.65 -0.71,-0.8"
   id="path803" />
	<path
   class="st4"
   d="m 619.97,482 c 0,0 2.59,0.9 3.64,1.01 0.88,0.08 1.49,0.17 2.33,0.43 0.84,0.26 1.67,0.59 2.41,1.07 0.62,0.4 1.49,0.84 2.07,1.3 0,0 -2.72,0.02 -3.4,0.02 -1.79,0.01 -3.18,-0.79 -4.53,-1.86 -0.56,-0.44 -1.13,-0.87 -1.68,-1.31 -0.25,-0.19 -0.56,-0.56 -0.84,-0.66"
   id="path805" />
	<path
   class="st4"
   d="m 626.35,487.17 c 0,0 2.71,0.39 3.76,0.29 0.88,-0.08 1.49,-0.12 2.37,-0.02 0.87,0.08 1.76,0.25 2.58,0.58 0.68,0.27 1.62,0.52 2.27,0.87 0,0 -2.66,0.55 -3.34,0.67 -1.75,0.35 -3.27,-0.16 -4.8,-0.95 -0.63,-0.32 -1.28,-0.63 -1.91,-0.96 -0.26,-0.13 -0.65,-0.44 -0.93,-0.48"
   id="path807" />
	<path
   class="st4"
   d="m 633.6,491.22 c 0,0 2.75,-0.16 3.75,-0.47 0.84,-0.25 1.44,-0.41 2.32,-0.49 0.87,-0.09 1.77,-0.1 2.64,0.06 0.72,0.13 1.7,0.19 2.4,0.39 0,0 -2.49,1.06 -3.14,1.34 -1.64,0.68 -3.23,0.49 -4.89,0.02 -0.69,-0.19 -1.38,-0.37 -2.06,-0.57 -0.28,-0.07 -0.73,-0.29 -1.02,-0.28"
   id="path809" />
	<path
   class="st4"
   d="m 641.27,493.74 c 0,0 2.65,-0.71 3.57,-1.22 0.77,-0.42 1.33,-0.69 2.17,-0.96 0.83,-0.25 1.71,-0.45 2.59,-0.48 0.74,-0.02 1.71,-0.16 2.44,-0.09 0,0 -2.23,1.55 -2.8,1.93 -1.47,1 -3.08,1.13 -4.79,1.01 -0.71,-0.05 -1.42,-0.08 -2.13,-0.13 -0.3,-0.01 -0.77,-0.13 -1.05,-0.06"
   id="path811" />
	<path
   class="st4"
   d="m 649.83,494.7 c 0,0 2.44,-1.25 3.24,-1.94 0.67,-0.58 1.15,-0.96 1.92,-1.39 0.76,-0.44 1.58,-0.82 2.43,-1.01 0.72,-0.18 1.64,-0.52 2.37,-0.6 0,0 -1.86,1.98 -2.33,2.47 -1.23,1.29 -2.77,1.76 -4.47,2.02 -0.71,0.1 -1.41,0.21 -2.11,0.3 -0.3,0.04 -0.79,0.03 -1.05,0.15"
   id="path813" />
	<path
   class="st4"
   d="m 658.57,493.74 c 0,0 2.12,-1.74 2.75,-2.57 0.53,-0.71 1.12,-1.39 1.77,-1.97 0.65,-0.58 1.39,-1.11 2.17,-1.5 0.67,-0.32 1.31,-0.63 2,-0.87 0,0 -1.4,2.32 -1.76,2.9 -0.94,1.52 -2.34,2.29 -3.95,2.89 -0.67,0.25 -1.33,0.5 -2,0.75 -0.27,0.1 -0.76,0.18 -0.98,0.37"
   id="path815" />
	<path
   class="st4"
   d="m 667.17,490.75 c 0,0 1.74,-2.13 2.19,-3.08 0.38,-0.79 0.81,-1.57 1.35,-2.28 0.53,-0.71 1.13,-1.37 1.83,-1.91 0.58,-0.45 1.15,-0.88 1.78,-1.25 0,0 -0.9,2.56 -1.14,3.21 -0.62,1.67 -1.84,2.71 -3.29,3.61 -0.6,0.38 -1.21,0.76 -1.81,1.13 -0.26,0.16 -0.71,0.34 -0.91,0.57"
   id="path817" />
	<path
   class="st4"
   d="m 674.27,486.48 c 0,0 1.38,-2.37 1.67,-3.39 0.25,-0.84 0.56,-1.69 0.97,-2.46 0.4,-0.77 0.9,-1.53 1.51,-2.16 0.51,-0.54 1,-1.05 1.56,-1.53 0,0 -0.49,2.67 -0.62,3.35 -0.34,1.74 -1.38,2.96 -2.68,4.08 -0.54,0.47 -1.08,0.93 -1.61,1.4 -0.22,0.21 -0.65,0.45 -0.8,0.71"
   id="path819" />
	<path
   class="st4"
   d="m 680.28,481.35 c 0,0 1.06,-2.53 1.23,-3.57 0.14,-0.87 0.33,-1.74 0.63,-2.56 0.31,-0.83 0.7,-1.64 1.22,-2.35 0.44,-0.6 0.86,-1.18 1.36,-1.71 0,0 -0.14,2.71 -0.19,3.4 -0.11,1.78 -0.99,3.12 -2.12,4.4 -0.48,0.53 -0.95,1.07 -1.43,1.6 -0.19,0.22 -0.58,0.52 -0.7,0.79"
   id="path821" />
	<path
   class="st4"
   d="m 685.63,475.13 c 0,0 0.76,-2.63 0.8,-3.68 0.03,-0.88 0.12,-1.77 0.34,-2.63 0.2,-0.85 0.49,-1.7 0.93,-2.46 0.36,-0.64 0.71,-1.25 1.16,-1.85 0,0 0.16,2.7 0.19,3.39 0.09,1.78 -0.62,3.22 -1.6,4.63 -0.41,0.58 -0.81,1.17 -1.22,1.75 -0.16,0.23 -0.52,0.57 -0.6,0.85"
   id="path823" />
	<path
   class="st4"
   d="m 690.22,468.05 c 0,0 0.41,-2.72 0.31,-3.77 -0.07,-0.87 -0.1,-1.49 0,-2.36 0.09,-0.87 0.27,-1.75 0.6,-2.56 0.27,-0.68 0.54,-1.63 0.9,-2.27 0,0 0.52,2.66 0.64,3.33 0.32,1.76 -0.2,3.28 -1,4.8 -0.33,0.63 -0.65,1.27 -0.98,1.9 -0.12,0.25 -0.43,0.63 -0.47,0.93"
   id="path825" />
	<path
   class="st4"
   d="m 693.96,460.2 c 0,0 0.09,-2.74 -0.14,-3.78 -0.17,-0.86 -0.27,-1.47 -0.28,-2.35 -0.01,-0.87 0.07,-1.77 0.3,-2.62 0.19,-0.71 0.35,-1.67 0.63,-2.37 0,0 0.83,2.59 1.03,3.25 0.53,1.7 0.19,3.26 -0.41,4.87 -0.25,0.68 -0.49,1.33 -0.74,2 -0.12,0.29 -0.38,0.7 -0.39,1"
   id="path827" />
	<path
   class="st4"
   d="m 696.65,451.87 c 0,0 -0.2,-2.73 -0.52,-3.74 -0.28,-0.83 -0.43,-1.43 -0.52,-2.31 -0.11,-0.87 -0.13,-1.76 0.01,-2.62 0.13,-0.74 0.18,-1.7 0.38,-2.42 0,0 1.09,2.48 1.37,3.11 0.7,1.64 0.53,3.24 0.09,4.89 -0.19,0.69 -0.36,1.38 -0.54,2.07 -0.08,0.29 -0.29,0.73 -0.27,1.02"
   id="path829" />
	<path
   class="st4"
   d="m 698.49,443.36 c 0,0 -0.47,-2.71 -0.89,-3.67 -0.36,-0.81 -0.57,-1.39 -0.76,-2.24 -0.19,-0.86 -0.3,-1.75 -0.24,-2.63 0.04,-0.74 0,-1.71 0.13,-2.44 0,0 1.34,2.37 1.67,2.96 0.87,1.56 0.85,3.17 0.58,4.87 -0.11,0.7 -0.21,1.4 -0.33,2.11 -0.04,0.27 -0.2,0.74 -0.16,1.04"
   id="path831" />
	<path
   class="st4"
   d="m 699.36,434.38 c 0,-0.01 -0.76,-2.65 -1.26,-3.56 -0.45,-0.77 -0.72,-1.31 -1,-2.15 -0.28,-0.83 -0.48,-1.71 -0.51,-2.59 -0.04,-0.74 -0.18,-1.7 -0.13,-2.43 0,0 1.58,2.21 1.97,2.78 1.02,1.45 1.19,3.05 1.09,4.76 -0.04,0.71 -0.06,1.42 -0.11,2.14 -0.01,0.27 -0.13,0.75 -0.05,1.05"
   id="path833" />
	<path
   class="st4"
   d="m 699.32,425.27 c 0,0 -1.05,-2.54 -1.67,-3.38 -0.52,-0.71 -0.86,-1.23 -1.23,-2.03 -0.38,-0.79 -0.67,-1.64 -0.82,-2.5 -0.11,-0.73 -0.36,-1.67 -0.4,-2.41 0,0 1.83,2.03 2.27,2.54 1.19,1.34 1.53,2.9 1.63,4.62 0.04,0.71 0.1,1.42 0.14,2.13 0.03,0.27 -0.04,0.76 0.08,1.03"
   id="path835" />
	<path
   class="st4"
   d="m 698.32,416.18 c 0,0 -1.37,-2.38 -2.09,-3.14 -0.62,-0.64 -1.02,-1.1 -1.49,-1.85 -0.47,-0.74 -0.88,-1.54 -1.13,-2.39 -0.2,-0.7 -0.59,-1.6 -0.71,-2.32 0,0 2.08,1.76 2.59,2.2 1.34,1.17 1.89,2.68 2.21,4.37 0.14,0.7 0.29,1.39 0.42,2.1 0.06,0.28 0.06,0.77 0.2,1.03"
   id="path837" />
	<path
   class="st4"
   d="m 696.22,407.3 c 0,0 -1.65,-2.2 -2.45,-2.87 -0.68,-0.55 -1.14,-0.97 -1.68,-1.65 -0.56,-0.68 -1.06,-1.42 -1.41,-2.24 -0.29,-0.68 -0.77,-1.53 -0.98,-2.23 0,0 2.26,1.51 2.83,1.89 1.47,1 2.19,2.44 2.71,4.08 0.21,0.67 0.45,1.35 0.66,2.02 0.08,0.28 0.13,0.76 0.32,1"
   id="path839" />
	<path
   class="st4"
   d="m 693.08,398.77 c 0,0 -1.91,-1.96 -2.82,-2.51 -0.75,-0.47 -1.25,-0.82 -1.89,-1.42 -0.64,-0.6 -1.24,-1.27 -1.69,-2.02 -0.39,-0.63 -0.97,-1.41 -1.28,-2.09 0,0 2.45,1.19 3.07,1.49 1.6,0.79 2.49,2.12 3.24,3.66 0.3,0.65 0.63,1.29 0.93,1.93 0.12,0.26 0.25,0.74 0.44,0.96"
   id="path841" />
	<path
   class="st4"
   d="m 689.27,391.2 c 0,0 -2.19,-1.66 -3.15,-2.08 -0.81,-0.36 -1.36,-0.63 -2.09,-1.13 -0.72,-0.5 -1.41,-1.08 -1.96,-1.76 -0.47,-0.57 -1.16,-1.26 -1.57,-1.87 0,0 2.59,0.82 3.25,1.03 1.7,0.55 2.78,1.74 3.74,3.16 0.33,0.49 0.7,0.97 1.02,1.48 l 0.38,0.63 z"
   id="path843" />
	<path
   class="st4"
   d="m 684.55,384.28 c 0,-0.01 -2.4,-1.33 -3.42,-1.6 -0.85,-0.22 -1.43,-0.42 -2.23,-0.81 -0.78,-0.39 -1.55,-0.86 -2.2,-1.46 -0.54,-0.5 -1.34,-1.07 -1.82,-1.62 0,0 2.69,0.42 3.36,0.54 1.76,0.3 3.01,1.31 4.16,2.58 0.48,0.53 0.98,1.04 1.44,1.57 0.2,0.22 0.45,0.64 0.71,0.8"
   id="path845" />
	<path
   class="st4"
   d="m 679.12,378.22 c 0,0 -2.59,-0.91 -3.64,-1.01 -0.88,-0.09 -1.49,-0.17 -2.33,-0.43 -0.84,-0.25 -1.67,-0.59 -2.41,-1.07 -0.63,-0.4 -1.51,-0.83 -2.08,-1.29 0,0 2.73,-0.03 3.41,-0.02 1.78,0 3.18,0.79 4.52,1.86 0.56,0.44 1.13,0.87 1.68,1.31 0.26,0.18 0.56,0.55 0.85,0.65"
   id="path847" />
	<path
   class="st4"
   d="m 672.75,373.04 c 0,-0.01 -2.72,-0.38 -3.77,-0.27 -0.88,0.09 -1.5,0.12 -2.38,0.02 -0.86,-0.09 -1.75,-0.26 -2.56,-0.58 -0.69,-0.27 -1.63,-0.53 -2.27,-0.87 0,0 2.66,-0.55 3.33,-0.68 1.75,-0.34 3.27,0.16 4.81,0.95 0.63,0.32 1.28,0.64 1.91,0.96 0.25,0.13 0.64,0.43 0.93,0.47"
   id="path849" />
	<path
   class="st4"
   d="m 665.48,369 c 0,0 -2.73,0.16 -3.74,0.47 -0.84,0.26 -1.44,0.41 -2.32,0.49 -0.87,0.09 -1.77,0.1 -2.63,-0.05 -0.73,-0.13 -1.7,-0.19 -2.41,-0.41 0,0 2.5,-1.06 3.13,-1.32 1.65,-0.69 3.25,-0.49 4.9,-0.03 0.69,0.19 1.38,0.38 2.07,0.57 0.27,0.07 0.71,0.29 1,0.28"
   id="path851" />
	<polygon
   class="st4"
   points="609.69,431 607.28,431.75 609.75,432.28 609.81,433.36 606.22,433.53 606.18,432.87 609.01,432.73 606.15,432.15 606.12,431.46 608.91,430.62 606.09,430.75 606.06,430.08 609.63,429.92 "
   id="polygon853" />
	<polygon
   class="st4"
   points="609.92,434.73 609.87,434.01 606.3,434.3 606.35,435.02 "
   id="polygon855" />
	<polygon
   class="st4"
   points="610.05,436.05 607.81,437.78 610.21,437.52 610.28,438.18 606.71,438.56 606.63,437.84 608.83,436.15 606.48,436.4 606.41,435.74 609.97,435.35 "
   id="polygon857" />
	<polygon
   class="st4"
   points="610.46,439.57 610.37,438.85 606.81,439.33 606.91,440.03 "
   id="polygon859" />
	<path
   class="st4"
   d="m 608.13,440.39 0.18,0.68 -0.47,0.34 -0.08,0.55 c 0.03,0.23 0.1,0.4 0.22,0.5 l 0.38,0.12 0.19,-0.11 0.11,-0.28 c 0.02,-0.09 0.04,-0.29 0.07,-0.61 0.03,-0.4 0.1,-0.69 0.22,-0.86 0.16,-0.25 0.39,-0.39 0.66,-0.44 l 0.52,0.07 0.43,0.39 c 0.12,0.18 0.19,0.41 0.25,0.67 0.06,0.45 0.02,0.8 -0.15,1.06 -0.16,0.26 -0.41,0.41 -0.73,0.48 l -0.14,-0.7 0.37,-0.26 0.04,-0.48 -0.21,-0.46 -0.23,-0.08 -0.2,0.14 c -0.06,0.1 -0.1,0.33 -0.12,0.7 -0.03,0.36 -0.07,0.63 -0.14,0.81 l -0.3,0.45 -0.54,0.23 -0.6,-0.07 -0.47,-0.42 c -0.12,-0.19 -0.2,-0.44 -0.26,-0.75 -0.07,-0.44 -0.02,-0.81 0.15,-1.08 0.19,-0.29 0.46,-0.48 0.85,-0.59"
   id="path861" />
	<polygon
   class="st4"
   points="610.44,443.31 611.03,443.19 611.58,445.99 610.98,446.11 610.78,445.06 607.86,445.63 607.71,444.93 610.64,444.35 "
   id="polygon863" />
	<path
   class="st4"
   d="m 608.16,447.17 3.5,-0.84 0.35,1.48 c 0.09,0.37 0.12,0.65 0.11,0.84 l -0.24,0.49 -0.52,0.28 c -0.26,0.06 -0.49,0.04 -0.7,-0.07 -0.21,-0.12 -0.37,-0.32 -0.49,-0.62 l -0.2,0.44 c -0.08,0.13 -0.24,0.31 -0.48,0.54 l -0.58,0.59 -0.19,-0.85 0.64,-0.68 c 0.23,-0.25 0.37,-0.4 0.43,-0.49 l 0.09,-0.25 -0.04,-0.37 -0.03,-0.14 -1.46,0.35 z m 2.18,0.23 0.13,0.52 c 0.08,0.33 0.15,0.54 0.19,0.62 l 0.19,0.17 0.28,0.01 0.26,-0.17 0.08,-0.29 c -0.01,-0.06 -0.05,-0.23 -0.11,-0.52 l -0.13,-0.55 z"
   id="path865" />
	<polygon
   class="st4"
   points="612.32,449.22 612.57,450.03 611.43,451.24 613.02,451.64 613.24,452.44 610.89,451.75 609.44,452.16 609.24,451.47 610.69,451.05 "
   id="polygon867" />
	<path
   class="st4"
   d="m 611.95,454.34 c 0.34,-0.12 0.65,-0.18 0.92,-0.17 l 0.58,0.14 0.47,0.32 c 0.16,0.18 0.3,0.41 0.4,0.68 0.18,0.5 0.17,0.96 -0.03,1.37 -0.2,0.42 -0.57,0.71 -1.13,0.92 -0.53,0.2 -1.02,0.2 -1.44,0.02 -0.41,-0.18 -0.72,-0.52 -0.9,-1.01 -0.18,-0.51 -0.17,-0.96 0.02,-1.36 0.2,-0.41 0.57,-0.71 1.11,-0.91 m 0.28,0.69 c -0.38,0.15 -0.65,0.34 -0.77,0.59 -0.13,0.25 -0.15,0.5 -0.06,0.78 0.1,0.28 0.28,0.45 0.54,0.56 0.26,0.1 0.58,0.09 0.98,-0.06 0.38,-0.14 0.64,-0.33 0.77,-0.57 0.12,-0.24 0.15,-0.5 0.04,-0.78 -0.1,-0.27 -0.28,-0.46 -0.53,-0.56 -0.26,-0.12 -0.59,-0.1 -0.97,0.04"
   id="path869" />
	<polygon
   class="st4"
   points="616.02,459.64 615.47,459.88 614.77,458.28 613.99,458.63 614.6,460 614.05,460.25 613.44,458.88 612.04,459.5 611.75,458.84 615.03,457.39 "
   id="polygon871" />
	<polygon
   class="st4"
   points="618.03,463.36 617.5,463.67 616.64,462.15 615.91,462.57 616.65,463.88 616.12,464.17 615.37,462.86 614.05,463.62 613.7,462.99 616.82,461.22 "
   id="polygon873" />
	<path
   class="st4"
   d="m 616.67,464.66 c 0.3,-0.21 0.59,-0.34 0.85,-0.39 l 0.6,-0.01 0.52,0.2 c 0.21,0.13 0.4,0.31 0.56,0.54 0.3,0.44 0.4,0.88 0.31,1.34 -0.08,0.45 -0.37,0.84 -0.85,1.17 -0.48,0.33 -0.95,0.46 -1.39,0.39 -0.45,-0.07 -0.82,-0.32 -1.12,-0.75 -0.3,-0.44 -0.42,-0.88 -0.33,-1.33 0.1,-0.45 0.37,-0.84 0.85,-1.16 m 0.44,0.6 c -0.33,0.22 -0.54,0.49 -0.6,0.76 -0.06,0.27 -0.02,0.53 0.15,0.78 0.17,0.23 0.39,0.36 0.67,0.4 0.27,0.04 0.58,-0.07 0.93,-0.31 0.34,-0.24 0.54,-0.49 0.61,-0.75 0.06,-0.27 0.01,-0.51 -0.16,-0.76 -0.17,-0.24 -0.4,-0.38 -0.66,-0.41 -0.29,-0.05 -0.6,0.05 -0.94,0.29"
   id="path875" />
	<path
   class="st4"
   d="m 617.68,469.09 2.75,-2.31 0.98,1.17 c 0.26,0.29 0.4,0.53 0.47,0.71 v 0.54 l -0.34,0.47 c -0.2,0.18 -0.42,0.27 -0.65,0.25 -0.24,-0.01 -0.48,-0.11 -0.71,-0.32 l 0.01,0.49 c -0.02,0.14 -0.08,0.38 -0.19,0.69 l -0.25,0.78 -0.56,-0.66 0.27,-0.9 c 0.09,-0.33 0.15,-0.54 0.16,-0.63 l -0.03,-0.27 -0.2,-0.3 -0.09,-0.11 -1.15,0.97 z m 2.05,-0.77 0.34,0.4 c 0.22,0.27 0.37,0.43 0.44,0.47 l 0.25,0.06 0.25,-0.12 0.16,-0.27 -0.07,-0.29 -0.33,-0.42 -0.36,-0.43 z"
   id="path877" />
	<polygon
   class="st4"
   points="624.52,471.37 624.08,471.79 622.74,470.38 622.17,470.94 623.41,472.24 622.97,472.66 621.73,471.35 621.03,472.03 622.41,473.47 621.98,473.9 620.09,471.92 622.68,469.44 "
   id="polygon879" />
	<polygon
   class="st4"
   points="625.45,472.23 622.97,474.83 622.45,474.34 624.92,471.73 "
   id="polygon881" />
	<path
   class="st4"
   d="m 625.65,475.46 0.4,-0.47 1.18,1.01 -0.93,1.1 c -0.21,0.01 -0.46,-0.04 -0.75,-0.13 -0.29,-0.1 -0.55,-0.25 -0.77,-0.44 -0.29,-0.24 -0.49,-0.51 -0.59,-0.81 -0.11,-0.31 -0.13,-0.62 -0.04,-0.93 0.08,-0.3 0.24,-0.59 0.45,-0.86 0.24,-0.28 0.52,-0.49 0.83,-0.6 0.31,-0.13 0.63,-0.15 0.96,-0.07 0.25,0.06 0.51,0.19 0.77,0.42 0.34,0.29 0.55,0.58 0.61,0.88 0.07,0.3 0.03,0.61 -0.13,0.91 l -0.64,-0.37 0.06,-0.5 -0.3,-0.45 c -0.25,-0.21 -0.5,-0.29 -0.77,-0.26 -0.27,0.03 -0.54,0.2 -0.79,0.5 -0.29,0.32 -0.41,0.63 -0.41,0.92 0.01,0.28 0.13,0.53 0.36,0.73 l 0.41,0.22 0.44,0.09 0.3,-0.35 z"
   id="path883" />
	<polygon
   class="st4"
   points="629.29,475.45 629.09,478.27 630.5,476.3 631.04,476.69 628.96,479.62 628.37,479.19 628.56,476.42 627.18,478.35 626.63,477.97 628.72,475.04 "
   id="polygon885" />
	<path
   class="st4"
   d="m 633.6,482.32 -0.68,-0.38 0.12,-0.85 -1.26,-0.7 -0.66,0.56 -0.67,-0.37 2.95,-2.48 0.68,0.38 z m -0.49,-1.88 0.21,-1.41 -1.06,0.94 z"
   id="path887" />
	<polygon
   class="st4"
   points="637.79,480.26 637.55,480.82 635.95,480.12 635.61,480.89 636.99,481.5 636.73,482.06 635.37,481.44 634.74,482.82 634.08,482.54 635.55,479.27 "
   id="polygon889" />
	<polygon
   class="st4"
   points="640.53,481.25 640.32,481.82 638.69,481.24 638.41,482.05 639.81,482.54 639.61,483.12 638.2,482.62 637.69,484.06 637.01,483.81 638.2,480.44 "
   id="polygon891" />
	<path
   class="st4"
   d="m 642.88,485.62 -0.76,-0.21 -0.08,-0.86 -1.39,-0.39 -0.49,0.72 -0.76,-0.2 2.27,-3.11 0.76,0.2 z m -0.92,-1.72 -0.13,-1.41 -0.82,1.16 z"
   id="path893" />
	<polygon
   class="st4"
   points="644.76,482.29 644.05,482.16 643.34,485.68 644.05,485.82 "
   id="polygon895" />
	<path
   class="st4"
   d="m 644.83,485.98 0.48,-3.56 1.51,0.21 c 0.38,0.05 0.65,0.11 0.81,0.2 l 0.37,0.39 0.07,0.59 c -0.03,0.27 -0.14,0.48 -0.32,0.63 -0.17,0.15 -0.42,0.24 -0.74,0.24 l 0.35,0.34 c 0.08,0.12 0.19,0.34 0.33,0.64 l 0.34,0.75 -0.86,-0.11 -0.41,-0.84 c -0.15,-0.31 -0.25,-0.5 -0.31,-0.57 l -0.2,-0.18 -0.36,-0.09 -0.14,-0.02 -0.2,1.48 z m 0.99,-1.95 0.53,0.07 c 0.35,0.05 0.56,0.06 0.65,0.04 l 0.22,-0.13 0.1,-0.26 -0.06,-0.3 -0.25,-0.18 c -0.06,-0.01 -0.23,-0.04 -0.53,-0.08 l -0.55,-0.07 z"
   id="path897" />
	<path
   class="st4"
   d="m 648.43,485.25 0.7,-0.03 c 0.04,0.24 0.12,0.41 0.25,0.53 l 0.51,0.19 c 0.24,0.01 0.41,-0.03 0.53,-0.13 l 0.19,-0.33 -0.06,-0.22 -0.25,-0.16 c -0.09,-0.03 -0.28,-0.09 -0.58,-0.18 -0.38,-0.11 -0.65,-0.24 -0.81,-0.39 -0.21,-0.2 -0.31,-0.45 -0.3,-0.74 l 0.18,-0.5 0.46,-0.35 c 0.2,-0.07 0.44,-0.1 0.71,-0.09 0.45,0.02 0.79,0.13 1,0.34 0.22,0.2 0.33,0.48 0.33,0.81 h -0.72 l -0.18,-0.41 -0.46,-0.15 -0.5,0.11 -0.13,0.22 0.1,0.22 c 0.08,0.07 0.31,0.17 0.65,0.27 0.34,0.09 0.61,0.19 0.77,0.29 l 0.38,0.38 c 0.09,0.16 0.13,0.36 0.11,0.59 l -0.19,0.56 -0.5,0.38 c -0.21,0.08 -0.47,0.11 -0.78,0.1 -0.46,-0.02 -0.79,-0.14 -1.03,-0.37 -0.21,-0.22 -0.34,-0.53 -0.38,-0.94"
   id="path899" />
	
		<rect
   x="651.92999"
   y="484.85001"
   transform="matrix(0.9992,-0.0407,0.0407,0.9992,-19.1994,26.9522)"
   class="st4"
   width="1.35"
   height="0.69"
   id="rect901" />
	<path
   class="st4"
   d="m 653.97,486.43 -0.57,-3.55 1.5,-0.24 c 0.38,-0.06 0.66,-0.07 0.84,-0.03 l 0.46,0.27 0.24,0.54 c 0.04,0.26 0,0.49 -0.13,0.69 -0.12,0.19 -0.34,0.34 -0.64,0.44 l 0.42,0.23 c 0.12,0.1 0.29,0.27 0.5,0.52 l 0.54,0.62 -0.86,0.14 -0.63,-0.68 c -0.23,-0.25 -0.38,-0.41 -0.47,-0.46 l -0.23,-0.11 -0.37,0.01 -0.15,0.03 0.25,1.47 z m 0.38,-2.16 0.53,-0.08 c 0.34,-0.06 0.55,-0.1 0.63,-0.15 l 0.18,-0.18 0.03,-0.28 -0.14,-0.27 -0.28,-0.1 c -0.06,0 -0.24,0.03 -0.53,0.07 l -0.55,0.09 z"
   id="path903" />
	<polygon
   class="st4"
   points="659.3,481.55 659.48,482.13 657.62,482.68 657.84,483.44 659.58,482.93 659.74,483.51 658.01,484.03 658.29,484.96 660.21,484.39 660.38,484.97 657.77,485.74 656.75,482.3 "
   id="polygon905" />
	<path
   class="st4"
   d="m 661.15,484.7 -1.38,-3.32 1.08,-0.45 c 0.41,-0.16 0.68,-0.25 0.82,-0.26 l 0.61,0.12 c 0.19,0.12 0.35,0.3 0.46,0.56 l 0.1,0.56 -0.15,0.44 -0.28,0.3 c -0.14,0.09 -0.37,0.2 -0.67,0.33 l -0.44,0.18 0.52,1.26 z m -0.47,-3.04 0.39,0.94 0.37,-0.15 c 0.26,-0.09 0.43,-0.19 0.5,-0.27 l 0.15,-0.24 -0.03,-0.29 -0.23,-0.26 -0.33,-0.03 c -0.08,0.02 -0.25,0.08 -0.49,0.18 z"
   id="path907" />
	<path
   class="st4"
   d="m 662.71,480.14 0.64,-0.33 0.91,1.72 c 0.14,0.27 0.25,0.44 0.31,0.51 l 0.37,0.21 0.48,-0.1 0.35,-0.33 0.02,-0.36 c -0.04,-0.11 -0.12,-0.3 -0.26,-0.56 l -0.93,-1.75 0.64,-0.34 0.88,1.68 c 0.2,0.38 0.33,0.65 0.37,0.83 l 0.02,0.49 -0.24,0.45 c -0.11,0.15 -0.3,0.29 -0.56,0.43 -0.3,0.15 -0.55,0.24 -0.74,0.25 l -0.52,-0.08 -0.36,-0.25 c -0.13,-0.17 -0.3,-0.42 -0.48,-0.77 z"
   id="path909" />
	<path
   class="st4"
   d="m 665.76,478.51 1.2,-0.78 c 0.25,-0.15 0.43,-0.26 0.56,-0.31 l 0.39,-0.07 0.39,0.1 0.33,0.29 0.13,0.46 -0.13,0.46 0.6,0.01 0.44,0.36 0.16,0.45 -0.05,0.48 -0.32,0.41 c -0.1,0.07 -0.33,0.24 -0.72,0.49 l -1.03,0.66 z m 0.94,0.11 0.45,0.69 0.39,-0.26 c 0.24,-0.15 0.39,-0.25 0.44,-0.3 l 0.17,-0.26 -0.06,-0.3 -0.23,-0.18 -0.29,0.05 c -0.06,0.03 -0.24,0.14 -0.52,0.33 z m 0.77,1.19 0.52,0.81 0.56,-0.36 0.41,-0.29 0.15,-0.26 -0.08,-0.31 -0.22,-0.19 -0.28,-0.01 c -0.09,0.02 -0.29,0.12 -0.56,0.3 z"
   id="path911" />
	<polygon
   class="st4"
   points="669.28,476.16 671.06,478.51 672.5,477.42 672.87,477.9 670.86,479.43 668.7,476.6 "
   id="polygon913" />
	<polygon
   class="st4"
   points="671.53,474.33 673.84,477.07 673.28,477.54 670.97,474.79 "
   id="polygon915" />
	<path
   class="st4"
   d="m 675.21,474.04 0.66,-0.33 c 0.19,0.36 0.26,0.7 0.21,1.02 -0.05,0.31 -0.22,0.6 -0.5,0.86 -0.35,0.32 -0.75,0.48 -1.2,0.45 -0.44,-0.03 -0.86,-0.25 -1.24,-0.66 -0.41,-0.43 -0.62,-0.88 -0.62,-1.33 0.01,-0.46 0.19,-0.85 0.55,-1.2 0.32,-0.29 0.68,-0.45 1.06,-0.45 0.22,0 0.47,0.08 0.72,0.24 l -0.4,0.61 -0.51,-0.14 -0.47,0.22 c -0.2,0.18 -0.29,0.4 -0.28,0.66 0.01,0.25 0.16,0.53 0.45,0.85 0.31,0.32 0.59,0.51 0.83,0.54 0.26,0.03 0.49,-0.04 0.68,-0.22 l 0.23,-0.48 c 0.02,-0.2 -0.04,-0.4 -0.17,-0.64"
   id="path917" />
	<path
   class="st4"
   d="m 676.68,471.93 c -0.28,-0.24 -0.47,-0.49 -0.59,-0.73 l -0.15,-0.58 0.06,-0.56 0.39,-0.68 c 0.34,-0.39 0.74,-0.61 1.21,-0.63 0.45,-0.02 0.91,0.15 1.35,0.53 0.44,0.38 0.68,0.8 0.72,1.25 0.05,0.45 -0.11,0.87 -0.45,1.27 -0.35,0.4 -0.75,0.62 -1.2,0.65 -0.45,0.03 -0.9,-0.15 -1.34,-0.52 m 0.48,-0.59 c 0.3,0.26 0.59,0.4 0.88,0.39 0.28,0 0.52,-0.12 0.7,-0.33 0.19,-0.22 0.27,-0.46 0.24,-0.74 -0.04,-0.28 -0.22,-0.55 -0.53,-0.82 -0.32,-0.27 -0.61,-0.4 -0.88,-0.4 -0.27,0 -0.51,0.12 -0.7,0.35 -0.19,0.22 -0.27,0.47 -0.23,0.75 0.02,0.26 0.2,0.53 0.52,0.8"
   id="path919" />
	<polygon
   class="st4"
   points="679.32,465.79 679.81,466.15 678.77,467.54 679.44,468.04 680.34,466.85 680.83,467.22 679.93,468.42 681.15,469.32 680.71,469.91 677.85,467.76 "
   id="polygon921" />
	<path
   class="st4"
   d="m 683.44,463.55 0.56,-0.49 c 0.28,0.3 0.43,0.6 0.47,0.92 0.03,0.32 -0.05,0.64 -0.25,0.97 -0.25,0.41 -0.6,0.66 -1.04,0.75 -0.44,0.09 -0.9,0 -1.38,-0.3 -0.51,-0.31 -0.82,-0.68 -0.94,-1.12 -0.13,-0.44 -0.05,-0.87 0.21,-1.3 0.23,-0.38 0.52,-0.61 0.89,-0.71 0.22,-0.06 0.47,-0.05 0.76,0.03 l -0.22,0.7 h -0.52 l -0.4,0.33 c -0.15,0.23 -0.17,0.47 -0.1,0.71 0.08,0.24 0.31,0.47 0.67,0.7 0.39,0.24 0.7,0.33 0.96,0.3 0.25,-0.05 0.44,-0.17 0.58,-0.4 l 0.11,-0.52 z"
   id="path923" />
	<polygon
   class="st4"
   points="682.43,460.71 683.69,461.36 684.34,460.09 683.09,459.44 683.41,458.8 686.61,460.45 686.28,461.09 684.88,460.37 684.24,461.64 685.63,462.36 685.3,463 682.1,461.35 "
   id="polygon925" />
	<polygon
   class="st4"
   points="687.23,459.07 683.97,457.58 683.66,458.23 686.93,459.74 "
   id="polygon927" />
	<polygon
   class="st4"
   points="684.49,456.39 687.29,455.93 685.05,455.02 685.31,454.4 688.63,455.76 688.35,456.43 685.61,456.88 687.8,457.79 687.55,458.4 684.22,457.04 "
   id="polygon929" />
	<path
   class="st4"
   d="m 689.98,451.91 -0.25,0.75 -0.87,0.02 -0.48,1.36 0.67,0.54 -0.25,0.73 -2.94,-2.47 0.26,-0.74 z m -1.78,0.79 -1.42,0.03 1.1,0.89 z"
   id="path931" />
	<polygon
   class="st4"
   points="687.98,448.24 687.39,448.09 688.08,445.33 688.67,445.48 688.41,446.51 691.31,447.24 691.13,447.94 688.24,447.22 "
   id="polygon933" />
	<path
   class="st4"
   d="m 692.27,442.81 -0.17,0.77 -0.86,0.13 -0.3,1.41 0.73,0.46 -0.16,0.76 -3.22,-2.1 0.16,-0.76 z m -1.67,1 -1.41,0.21 1.19,0.75 z"
   id="path935" />
	<polygon
   class="st4"
   points="692.45,441.71 688.92,441.08 688.79,441.79 692.32,442.42 "
   id="polygon937" />
	<polygon
   class="st4"
   points="689.09,440.11 691.6,439.92 689.25,438.93 689.37,438.08 691.94,437.8 689.54,436.92 689.63,436.19 693.07,437.54 692.96,438.32 690.21,438.64 692.77,439.71 692.66,440.51 688.99,440.85 "
   id="polygon939" />
	<path
   class="st4"
   d="m 693.44,433.28 -0.06,0.79 -0.84,0.24 -0.11,1.43 0.79,0.36 -0.07,0.77 -3.47,-1.68 0.06,-0.77 z m -1.52,1.22 -1.37,0.39 1.3,0.58 z"
   id="path941" />
	<polygon
   class="st4"
   points="689.89,432.04 692.3,430.58 689.88,430.57 689.89,429.9 693.48,429.91 693.48,430.63 691.1,432.07 693.46,432.08 693.47,432.75 689.88,432.74 "
   id="polygon943" />
	<path
   class="st4"
   d="m 687.16,449.19 c 0.15,0.45 0.37,0.81 0.66,1.08 0.33,0.28 0.7,0.49 1.12,0.59 0.41,0.11 0.82,0.12 1.18,0.04 0.39,-0.1 0.79,-0.3 1.18,-0.62 l 0.16,-0.12 -0.19,-0.05 -0.1,-0.02 -0.04,-0.01 -0.02,0.02 c -0.36,0.22 -0.7,0.35 -1.03,0.4 -0.3,0.04 -0.64,0.01 -1.01,-0.09 -0.38,-0.1 -0.73,-0.27 -1.01,-0.49 -0.21,-0.16 -0.42,-0.42 -0.61,-0.77 l -0.02,-0.03 -0.04,-0.01 -0.1,-0.03 -0.16,-0.04 z"
   id="path945" />
	<path
   class="st4"
   d="m 694.22,428.88 c -0.24,-0.39 -0.53,-0.7 -0.87,-0.91 -0.37,-0.21 -0.78,-0.33 -1.22,-0.36 -0.42,-0.02 -0.81,0.05 -1.15,0.21 -0.37,0.17 -0.72,0.45 -1.05,0.85 l -0.12,0.15 0.2,0.01 0.1,0.01 h 0.04 l 0.03,-0.02 c 0.3,-0.29 0.62,-0.5 0.92,-0.6 0.28,-0.09 0.62,-0.13 1,-0.11 0.4,0.02 0.77,0.11 1.1,0.26 0.24,0.12 0.49,0.33 0.76,0.63 l 0.02,0.04 h 0.04 0.1 0.17 z"
   id="path947" />
</g>
</svg>
